<?xml version="1.0" standalone="no"?>
<!DOCTYPE svg PUBLIC "-//W3C//DTD SVG 1.1//EN" "http://www.w3.org/Graphics/SVG/1.1/DTD/svg11.dtd" >
<svg xmlns="http://www.w3.org/2000/svg" xmlns:xlink="http://www.w3.org/1999/xlink" version="1.1">
<metadata>
Created by FontForge 20170731 at Wed Nov 24 22:04:19 2021
 By Aleksey,,,
copyright missing
</metadata>
<defs>
<font id="Rhetoric-Book" horiz-adv-x="1177" >
  <font-face 
    font-family="Rhetoric Book"
    font-weight="700"
    font-stretch="normal"
    units-per-em="2048"
    panose-1="0 0 8 0 0 0 0 0 0 0"
    ascent="1638"
    descent="-410"
    x-height="1092"
    cap-height="1585"
    bbox="123 -446 2077 2053.07"
    underline-thickness="102"
    underline-position="-204"
    unicode-range="U+0020-25CA"
  />
<missing-glyph horiz-adv-x="1597" 
 />
    <glyph glyph-name=".notdef" horiz-adv-x="1597" 
 />
    <glyph glyph-name=".null" horiz-adv-x="0" 
 />
    <glyph glyph-name="nonmarkingreturn" horiz-adv-x="682" 
 />
    <glyph glyph-name="space" unicode=" " horiz-adv-x="471" 
 />
    <glyph glyph-name="exclam" unicode="!" horiz-adv-x="309" 
d="M250 1507h15.5t14.5 -2t15.5 -6t9 -12.5t4.5 -20.5v-1116h-71q-36 0 -65.5 22t-29.5 46v1063q0 7 2.5 12.5t8 8t11.5 4t16.5 2t19.5 0.5t23.5 -0.5t25.5 -0.5zM250 238h15.5t14.5 -2t15.5 -6t9 -12.5t4.5 -20.5v-195h-71q-36 0 -65.5 22t-29.5 46v141q0 7 2.5 12.5t8 8.5
t11.5 4.5t17 2t19 0.5t23.5 -0.5t25.5 -0.5z" />
    <glyph glyph-name="quotedbl" unicode="&#x22;" horiz-adv-x="497" 
d="M205 1434h15.5t14.5 -2t15.5 -6t9 -12.5t4.5 -20.5l25 -365h-27q-36 0 -65 22t-29 46l-25 311v10.5t0.5 7t1.5 5t3.5 3t4.5 2t8 0t11 0t14.5 -0.5h18.5zM414 1434h15.5t14.5 -2t15.5 -6t9 -12.5t4.5 -20.5l25 -365h-27q-36 0 -65 22t-29 46l-25 311v10.5t0.5 7t1.5 5
t3.5 3t4.5 2t8 0t11 0t14.5 -0.5h18.5z" />
    <glyph glyph-name="numbersign" unicode="#" horiz-adv-x="1185" 
d="M944 547h137q44 -2 75 -22.5t30 -57.5v-64l-254 -2l-27 -299q0 -35 -21 -70t-65 -36h-61l35 405l-113 -2h-29h-49h-37h-2h-84l-24 -297q0 -35 -21 -70t-65 -36h-62l35 405h-92q-35 0 -70.5 21t-36.5 65v62h211l2 45l17 176h-123q-35 0 -70.5 21t-36.5 65v62h244l27 282
q0 35 21 70.5t65 36.5h61l-35 -392h312l26 285q0 35 21 70.5t65 36.5h62l-35 -392h104q44 -2 75 -22t30 -57v-64l-223 -2l-13 -139zM494 547h311l2 47l16 176l-141 -2h-31h-47h-39h-2h-49l-14 -137z" />
    <glyph glyph-name="dollar" unicode="$" horiz-adv-x="1183" 
d="M733 1376v-569q53 -19 86 -31.5t80.5 -33.5t77.5 -39.5t64 -45.5t53 -55.5t32 -65.5t13 -79q0 -207 -115 -333t-291 -149v-116h-51q-36 0 -65 21.5t-29 45.5v49q-124 14 -240.5 79.5t-204.5 178.5q-4 4 9.5 15.5t37.5 24.5t48 22q10 4 19.5 4.5t16 -1.5t13.5 -7t11 -9
t9 -9.5t6 -6.5q111 -120 275 -143v573q-64 23 -110.5 43.5t-98 53t-84 69.5t-53.5 90.5t-21 116.5q0 178 103.5 293t263.5 143v58q0 24 29 45.5t65 21.5h51v-123q118 -12 230 -77.5t202 -182.5q21 -24 16 -34.5t-61 -49.5q-24 -14 -41 -11.5t-40 19t-43.5 39t-49.5 50
t-58 51t-70 42t-85 23.5zM369 1063q0 -68 56.5 -114.5t162.5 -88.5v508q-107 -21 -163 -93.5t-56 -211.5zM981 440q0 38 -18.5 69.5t-55.5 56t-76.5 42t-97.5 37.5v-518q110 23 178.5 102.5t69.5 210.5z" />
    <glyph glyph-name="percent" unicode="%" horiz-adv-x="1435" 
d="M563 768h-47q-73 0 -130.5 56t-57.5 124v269q0 68 57.5 124t130.5 56h47q75 0 132 -55.5t57 -124.5v-269q0 -69 -57 -124.5t-132 -55.5zM1436 1393l-439 -549q-6 -13 -14 -23l-618 -772q-22 -24 -48 -36.5t-71 -12.5h-103l506 637q10 15 15 20l550 686q23 24 48.5 37
t70.5 13h103zM485 1217v-269q0 -18 9 -28.5t22 -10.5h47q14 0 23.5 10.5t9.5 28.5v269q0 18 -10 29t-23 11h-47q-11 0 -21 -11t-10 -29zM969 582h47q74 0 131 -55.5t57 -125.5v-266q0 -70 -57 -125t-131 -55h-47q-74 0 -131.5 55t-57.5 125v266q0 70 57.5 125.5t131.5 55.5z
M1049 135v266q0 18 -10 29.5t-23 11.5h-47q-13 0 -22 -11t-9 -30v-266q0 -19 9 -30t22 -11h47q13 0 23 11.5t10 29.5z" />
    <glyph glyph-name="ampersand" unicode="&#x26;" horiz-adv-x="1257" 
d="M1196 870l51 -71q33 -65 -24 -103l-93 -69q38 -51 48 -151.5t-19.5 -211.5t-95.5 -176l-14 -14q-57 -59 -138.5 -92t-169.5 -33h-14l-121 2q-119 0 -188 31.5t-137 99.5q-66 64 -102 148t-36 171v76q0 125 70 240q59 90 156 145q-57 45 -88 96q-50 80 -50 170v17
q0 128 111 233t258 105q116 3 202.5 -48t127.5 -129t41 -169v-56q0 -25 -26 -49t-56 -24h-27h-51v133q0 34 -10.5 68t-32.5 67t-64 53.5t-98 20.5q-91 0 -155 -70t-64 -154q0 -83 56.5 -140.5t119.5 -57.5h230v-49v-33q0 -30 -27 -48t-57 -18h-164q-69 0 -166 -108
q-68 -83 -68 -195v-76q0 -124 83.5 -212t201.5 -91h156q57 3 99.5 24.5t94.5 74.5q29 31 49.5 85t20.5 121q0 65 -23 127l-143 -104q-49 64 -57 74q-21 35 -12 63t32 43v-2z" />
    <glyph glyph-name="quotesingle" unicode="'" horiz-adv-x="288" 
d="M205 1434h15.5t14.5 -2t15.5 -6t9 -12.5t4.5 -20.5l25 -365h-27q-36 0 -65 22t-29 46l-25 311v10.5t0.5 7t1.5 5t3.5 3t4.5 2t8 0t11 0t14.5 -0.5h18.5z" />
    <glyph glyph-name="parenleft" unicode="(" horiz-adv-x="626" 
d="M305 1212v-1028q0 -120 59.5 -197t165.5 -77q27 0 62 -25t35 -63v-55q-68 -2 -142 0q-108 7 -187 66.5t-117 150t-38 200.5l2 514l-2 514q0 110 38 201t117 150.5t187 66.5h142v-55q0 -38 -35 -63t-62 -25q-105 0 -165 -77.5t-60 -197.5z" />
    <glyph glyph-name="parenright" unicode=")" horiz-adv-x="626" 
d="M625 698l2 -514q0 -110 -38 -200.5t-117 -150t-187 -66.5h-142v55q0 38 35 63t62 25q106 0 165.5 77t59.5 197v1028q0 120 -60 197.5t-165 77.5q-27 0 -62 25t-35 63v55q68 2 142 0q108 -7 187 -66.5t117 -150.5t38 -201z" />
    <glyph glyph-name="asterisk" unicode="*" horiz-adv-x="772" 
d="M772 1055l-20 -31q-23 -29 -58 -40t-53 3l-104 76v-154h-50q-36 0 -65 22t-29 46v106l-112 -86q-17 -16 -53.5 -13t-57.5 30l-27 37l195 155l-176 144l35 49q22 27 57.5 31t52.5 -11l86 -69v116q0 24 29 46t65 22h50v-180l98 82q17 15 46.5 10t51.5 -33l35 -43l-197 -160
z" />
    <glyph glyph-name="plus" unicode="+" 
d="M733 623h340q44 -2 75 -22.5t30 -57.5v-64l-443 -2v-22v-41v-2l-2 -273q0 -35 -21 -70t-65 -36h-61l2 442h-23h-41h-2l-272 2q-35 0 -70.5 21t-36.5 65v62l445 -2v340q2 44 22.5 74.5t57.5 29.5h63z" />
    <glyph glyph-name="comma" unicode="," horiz-adv-x="309" 
d="M250 236h15.5t14.5 -2t15.5 -6t9 -12.5t4.5 -20.5v-195q0 -48 -23 -58t-108 -10h-26v11q0 10 10 16t24 6q40 0 46 4.5t6 30.5q-44 0 -69.5 14t-25.5 54v141q0 7 2.5 12.5t8 8.5t11.5 4.5t17 2t19 0.5t23.5 -0.5t25.5 -0.5z" />
    <glyph glyph-name="hyphen" unicode="-" horiz-adv-x="700" 
d="M143 604l453 -2q44 -2 74.5 -22.5t29.5 -57.5v-63l-219 -2q-10 -2 -35 -2h-47h-39h-4l-106 2q-35 0 -70.5 21t-36.5 65v61z" />
    <glyph glyph-name="period" unicode="." horiz-adv-x="350" 
d="M291 238h15.5t14.5 -2t15.5 -6t9 -12.5t4.5 -20.5v-195h-112q-36 0 -65.5 22t-29.5 46v141q0 20 19 24t80 3h49z" />
    <glyph glyph-name="slash" unicode="/" horiz-adv-x="854" 
d="M520 604l-184 -524q-34 -80 -107 -80h-86l301 815l7 14l208 562q8 20 12.5 28.5t16.5 24.5t29.5 23.5t40.5 7.5h96z" />
    <glyph glyph-name="zero" unicode="0" horiz-adv-x="1062" 
d="M836 1454q105 -53 166 -148t61 -212v-707q0 -117 -62 -217q-57 -94 -163 -150.5t-230 -56.5q-84 0 -188 33q-116 36 -196.5 137t-80.5 254v707q0 116 64 217q60 89 169 141.5t232 52.5q126 0 228 -51zM455 1321q-70 -38 -110 -98.5t-40 -128.5v-670l529 829q2 6 2 11
q0 17 -25 36q-42 28 -97.5 44t-105.5 16q-79 0 -153 -39zM608 109q129 0 211 75t82 203v680l-446 -676q-89 -156 -93 -168q18 -50 90 -82t156 -32z" />
    <glyph glyph-name="one" unicode="1" horiz-adv-x="772" 
d="M221 1466h238q31 0 50.5 -16t24.5 -30t5 -25v-1256h153q15 0 25 -2q22 -5 38.5 -21.5t16.5 -41.5v-74h-629v70q0 8 2 20q5 19 27 34t47 15h158v1182h-234v74q0 8 2 18q3 20 24 36.5t52 16.5z" />
    <glyph glyph-name="two" unicode="2" horiz-adv-x="1159" 
d="M684 1477q117 0 206.5 -33.5t142 -92.5t78.5 -131.5t26 -156.5q0 -74 -27.5 -139t-74 -115.5t-107 -96.5t-127.5 -85.5t-134.5 -78.5t-129 -81t-109.5 -86.5t-78 -101t-33 -119.5l760 -2v-92q0 -27 -21 -47.5t-50 -20.5h-787q-32 0 -54 20.5t-22 47.5q3 103 34.5 190.5
t82 151t115.5 118t135.5 96.5t141 80.5t134 76.5t112 77.5t77.5 90.5t29 110q0 67 -20 119.5t-51.5 85t-74 54t-85 30t-87.5 8.5q-134 0 -222.5 -52.5t-94.5 -162.5q0 -11 -3.5 -23t-18.5 -25.5t-40 -13.5l-92 2q5 186 128.5 292t340.5 106z" />
    <glyph glyph-name="three" unicode="3" horiz-adv-x="1050" 
d="M983 852q-21 -22 -42 -42.5t-31 -28t-17 -18t-7 -13.5t7 -14.5t17 -20t31 -32t42 -48.5q34 -50 44.5 -104t10.5 -142q0 -168 -100 -274q-59 -63 -125 -95t-186 -40h-27q-88 2 -167.5 29t-145.5 77t-105 132t-39 185q44 3 107 3q22 0 40.5 -16t18.5 -52q8 -93 89 -154
t243 -61q250 0 250 278q0 123 -79 201t-198 78h-96q-31 0 -56.5 23t-25.5 51v67h178q120 0 212 69t92 177q0 53 -18.5 104.5t-55 96.5t-99 72.5t-141.5 27.5q-23 0 -46.5 -2.5t-62 -9.5t-70.5 -23.5t-62.5 -41.5t-48 -67.5t-17.5 -97.5q-4 -15 -18 -30t-35 -15h-54
q-34 0 -37 1.5t-3 23.5v10q0 53 12 103t44 101t81 88.5t129 61t182 23.5h18q185 0 310 -118.5t125 -297.5v-18q0 -109 -68 -207z" />
    <glyph glyph-name="four" unicode="4" horiz-adv-x="1064" 
d="M938 506h82q8 0 12.5 -1t13.5 -7t14 -22t5 -42v-76h-127v-358h-72q-32 0 -57 25t-25 47v286h-567q-36 0 -53 19q-21 24 -21 51q0 12 4.5 25t8.5 21l4 7l631 949q0 1 2.5 4.5t4.5 6t6 7t8 8t10 7.5t12.5 6.5t14.5 4t17 1.5q47 0 72 -31v-938zM340 494l444 2v655z" />
    <glyph glyph-name="five" unicode="5" horiz-adv-x="1056" 
d="M596 1196h20q180 0 310.5 -130t130.5 -304v-346q0 -174 -131 -303t-310 -129h-20q-59 0 -121 15.5t-121 47.5t-105.5 76t-75 105.5t-28.5 131.5v66q0 27 20.5 51.5t49.5 24.5h82v-142q0 -54 33 -96.5t82 -66t97 -35.5t87 -12h20q106 0 190.5 83.5t84.5 182.5v346
q0 113 -83.5 197.5t-191.5 84.5h-20q-106 0 -195 -77q-92 -75 -92 -174v-107h-82q-29 0 -56.5 26t-27.5 50v633q0 31 28 52t56 21h725q31 0 56.5 -19t25.5 -54v-66h-725v-235q128 102 287 102z" />
    <glyph glyph-name="six" unicode="6" horiz-adv-x="1030" 
d="M903 1077q61 -59 94 -138.5t33 -160.5v-315q0 -25 -0.5 -42.5t-4.5 -57t-11 -69t-21.5 -71t-35 -72.5t-53.5 -64t-74 -54.5t-99 -35t-127 -13.5h-24q-178 0 -307.5 124t-129.5 293v740q0 7 0.5 20t8 50t22 70.5t48 74.5t80 70t123.5 48t173 17q83 0 179 -40t134 -87
q31 -37 30.5 -61.5t-40.5 -49.5l-53 -32q-17 18 -21 24q-84 109 -252 109q-274 0 -274 -207v-43q120 96 279 96h18q84 0 166.5 -32.5t138.5 -90.5zM872 463v313q0 115 -80.5 197t-193.5 82h-18q-113 0 -194 -82t-81 -197v-375q0 -115 88 -195.5t203 -80.5q57 2 102 17
t73.5 36t49 54t30 59.5t15 65t6 57.5t0.5 49z" />
    <glyph glyph-name="seven" unicode="7" horiz-adv-x="1208" 
d="M324 1462l823 2q98 0 41 -90l-805 -1308q-24 -36 -45.5 -51t-61.5 -15h-133l815 1309h-720v59v21q0 28 24 50.5t62 22.5z" />
    <glyph glyph-name="eight" unicode="8" horiz-adv-x="1011" 
d="M1012 1081q0 -73 -29 -148t-80 -134q56 -60 82.5 -113.5t26.5 -124.5v-158q0 -81 -34.5 -157t-92 -132.5t-136 -91t-161.5 -34.5h-21q-173 0 -298.5 124.5t-125.5 290.5v158q0 71 25.5 124t81.5 114q-51 59 -79 133.5t-28 148.5v2q0 167 125.5 291.5t298.5 124.5h21
q112 0 210 -57t156 -154t58 -207zM301 1083v-2q0 -106 70 -192q88 49 196 49h21q104 0 192 -49q72 81 72 192v2q0 115 -78 195t-186 80h-21q-109 0 -187.5 -80t-78.5 -195zM852 403v158q0 111 -75.5 171.5t-188.5 60.5h-21q-152 0 -231 -136q-5 -8 -12.5 -19.5t-10 -17
t-6.5 -14.5t-5 -19.5t-1 -25.5v-158q0 -113 78.5 -192.5t187.5 -79.5h21q108 0 186 79.5t78 192.5z" />
    <glyph glyph-name="nine" unicode="9" horiz-adv-x="1030" 
d="M1030 1073v-739q0 -7 -0.5 -20t-8 -50t-22 -70.5t-48 -74.5t-80 -70t-123.5 -48t-173 -17q-83 0 -179 40t-134 87q-31 37 -30.5 61t40.5 49l54 33q16 -19 20 -25q83 -108 252 -108q274 0 274 207v43q-121 -97 -278 -97h-19q-84 0 -166.5 32.5t-138.5 90.5
q-61 59 -94 138.5t-33 160.5v316q0 25 0.5 42.5t4.5 57t11 69t21.5 71t35 72.5t53.5 64t74 54.5t99 35t127 13.5h25q178 0 307 -124.5t129 -293.5zM868 698v375q0 115 -87.5 196t-202.5 81q-57 -2 -102 -17t-73.5 -36t-49 -54t-30.5 -59.5t-15.5 -64.5t-6 -57.5t-0.5 -49.5
v-314q0 -115 80.5 -196.5t193.5 -81.5h19q113 0 193.5 81.5t80.5 196.5z" />
    <glyph glyph-name="colon" unicode=":" horiz-adv-x="309" 
d="M250 1081h15.5t14.5 -2t15.5 -6t9 -12.5t4.5 -20.5v-194h-71q-36 0 -65.5 21.5t-29.5 45.5v142q0 7 2.5 12.5t8 8t11.5 4t16.5 2t19.5 0.5t23.5 -0.5t25.5 -0.5zM250 236h15.5t14.5 -2t15.5 -6t9 -12.5t4.5 -20.5v-195h-71q-36 0 -65.5 22t-29.5 46v141q0 7 2.5 12.5
t8 8.5t11.5 4.5t17 2t19 0.5t23.5 -0.5t25.5 -0.5z" />
    <glyph glyph-name="semicolon" unicode=";" horiz-adv-x="309" 
d="M250 1081h15.5t14.5 -2t15.5 -6t9 -12.5t4.5 -20.5v-194h-71q-36 0 -65.5 21.5t-29.5 45.5v142q0 7 2.5 12.5t8 8t11.5 4t16.5 2t19.5 0.5t23.5 -0.5t25.5 -0.5zM250 236h15.5t14.5 -2t15.5 -6t9 -12.5t4.5 -20.5v-195q0 -48 -23 -58t-108 -10h-26v11q0 10 10 16t24 6
q40 0 46 4.5t6 30.5q-44 0 -69.5 14t-25.5 54v141q0 7 2.5 12.5t8 8.5t11.5 4.5t17 2t19 0.5t23.5 -0.5t25.5 -0.5z" />
    <glyph glyph-name="less" unicode="&#x3c;" horiz-adv-x="1122" 
d="M1120 975l-731 -391l721 -428l2 -2q-2 -24 -28 -45.5t-64.5 -27.5t-81.5 13l-745 422q-15 9 -27 21q-15 20 -16 22q-7 17 -7 25v2q0 10 4 16q10 29 39 45l9 4v2l753 383q44 19 81.5 13t63.5 -27.5t27 -46.5z" />
    <glyph glyph-name="equal" unicode="=" 
d="M522 662l-272 2q-35 0 -70.5 21t-36.5 65v61l930 -2q44 -2 75 -22.5t30 -57.5v-63l-539 -4h-29h-45h-41h-2zM143 422l930 -2q44 -2 75 -22.5t30 -57.5v-64l-539 -4h-29h-45h-41h-2l-272 2q-35 0 -70.5 21t-36.5 65v62z" />
    <glyph glyph-name="greater" unicode="&#x3e;" horiz-adv-x="1122" 
d="M1122 586v-2q0 -10 -6 -25q-1 -2 -16 -22q-12 -12 -27 -21l-745 -422q-43 -19 -81.5 -13t-64.5 27.5t-28 45.5l2 2l721 428l-732 391h-2q2 25 28 46.5t64 27.5t82 -13l754 -383v-2l8 -4q29 -16 39 -45q4 -6 4 -16z" />
    <glyph glyph-name="question" unicode="?" horiz-adv-x="952" 
d="M514 1616h21q116 0 212.5 -59t150.5 -156.5t54 -210.5q0 -95 -25.5 -166t-66 -111.5t-89.5 -72t-98 -59.5t-89.5 -61t-66 -88.5t-25.5 -131.5v-164h-56q-50 0 -71 28.5t-23 61.5v59q0 79 16 142t43 104.5t61.5 74.5t73 57t77.5 46t73.5 47t61.5 55t43 75t16 102
q0 97 -54.5 169t-130 99t-158.5 12t-136 -77q-6 -7 -15.5 -15t-28.5 -18t-37.5 -9t-41.5 13l-62 43q128 211 371 211zM438 238h12.5t12.5 -1t14 -3.5t10 -6.5t8.5 -12t2.5 -18v-195h-72q-36 0 -65 22t-29 46v141q0 7 2.5 12.5t8 8.5t11 4.5t16.5 2t19 0.5t23.5 -0.5
t25.5 -0.5z" />
    <glyph glyph-name="at" unicode="@" horiz-adv-x="1351" 
d="M598 1493h299q185 0 320 -132.5t135 -311.5v-779q-2 -17 -12 -37.5t-29.5 -41.5t-54.5 -34.5t-80 -13.5q-125 0 -170 36.5t-45 109.5v20q-90 -53 -222 -53h-22q-189 0 -271 88q-77 85 -77 274v23q0 181 77 266q58 69 189 84h2q72 7 176 -5.5t135 1.5q-13 43 -58 59.5
t-145 16.5h-247v9q-1 10 -1.5 22t-0.5 20v27q0 25 26 49t56 24l135 3q207 0 311 -73.5t104 -236.5v-618q0 -6 5.5 -7t31.5 -1q10 0 18.5 2t11.5 4l3 2l-2 760q0 121 -88.5 207.5t-210.5 86.5h-299q-119 0 -204 -86t-85 -208v-662q0 -122 85.5 -209.5t203.5 -87.5l430 2
q32 0 58 -24.5t26 -51.5v-24v-51h-514q-121 0 -226 61.5t-167 164.5t-62 220v662q0 180 135.5 312t319.5 132zM823 424q51 15 93 46.5t42 57.5l3 322q-19 -12 -244 6q-62 0 -96 -9.5t-52 -37.5q-37 -76 -37 -168v-23q0 -127 29 -163q22 -25 53.5 -35.5t94.5 -11.5
q59 0 114 16z" />
    <glyph glyph-name="A" unicode="A" horiz-adv-x="1150" 
d="M1098 365l82 -320q11 -30 -49 -40q-22 -3 -76 -3q-44 -2 -62 41l-84 340v4h-485v-2l-92 -340q-5 -18 -22.5 -29.5t-41.5 -11.5h-7.5t-13.5 -0.5t-18 0t-21 1t-20.5 2t-19 4.5t-15 6.5t-9.5 9t-1 12.5l4 20l95 306l338 1196q10 28 34.5 48.5t53.5 20.5q34 0 59 -21t33 -50
l299 -1067zM668 1239l-189 -696l395 2z" />
    <glyph glyph-name="B" unicode="B" horiz-adv-x="1198" 
d="M1081 840q57 -66 87 -148t30 -162v-81q0 -233 -233 -375q-120 -70 -265 -70h-464q-26 0 -59.5 20t-33.5 44v1480q0 24 33.5 44t59.5 20h247q107 0 213 -63t164 -163q62 -106 62 -227l2 -53q0 -27 -3 -55.5t-4 -39.5t3 -25.5t17.5 -25.5t41.5 -28q62 -44 102 -92z
M608 1417q-60 41 -147 41h-142v-463h402q27 0 27 68v80q0 90 -37 163t-103 111zM1018 449v81q0 122 -75.5 213t-176.5 91h-447v-670h398q36 0 74 7.5t79.5 28t73.5 51.5t53 82.5t21 115.5z" />
    <glyph glyph-name="C" unicode="C" horiz-adv-x="1048" 
d="M606 1667q181 0 281 -65q58 -37 102 -84l21 -27h2q18 -27 18 -53q0 -29 -24 -47l-80 -62q-42 104 -119 151.5t-199 47.5q-173 0 -260 -152q-43 -73 -43 -186v-737q0 -42 5.5 -80.5t25 -86t50.5 -82t88.5 -58t133.5 -23.5q52 0 98.5 9.5t78.5 25t61.5 34t47.5 37t36 34.5
t27.5 25.5t22.5 10.5t21 -10q16 -16 32 -39t16 -35q0 -26 -29 -55q-91 -93 -182.5 -138t-229.5 -45q-211 0 -338 128t-127 348v737q0 132 57 242.5t162 173.5q103 61 244 61z" />
    <glyph glyph-name="D" unicode="D" horiz-adv-x="1175" 
d="M1108 1391q68 -115 68 -244v-664q0 -123 -68 -236t-182 -181q-117 -68 -244 -68h-449q-34 0 -62 28t-28 54v1468q0 33 26 57.5t64 24.5h449q128 0 245.5 -66t180.5 -173zM997 483v664q0 97 -42 173t-115 120q-74 43 -158 43h-360v-1321h360q86 0 156.5 42t117.5 120
q41 74 41 159z" />
    <glyph glyph-name="E" unicode="E" horiz-adv-x="1185" 
d="M307 1483v-473h676q39 0 65.5 -24.5t26.5 -57.5v-82h-768v-694h879v-82q0 -24 -26.5 -45t-61.5 -21h-881q-25 0 -49.5 22t-24.5 44v1495q0 20 24.5 41.5t49.5 21.5h881q35 0 61.5 -20t26.5 -43v-82h-879z" />
    <glyph glyph-name="F" unicode="F" horiz-adv-x="1153" 
d="M322 1468v-452h565q37 0 63.5 -26.5t26.5 -53.5v-82h-655v-838q0 -12 -2 -14t-13 -2h-74q-33 0 -61.5 22.5t-28.5 59.5v1470q0 28 30 53t60 25h832q36 0 62 -22.5t26 -55.5v-84h-831z" />
    <glyph glyph-name="G" unicode="G" horiz-adv-x="1134" 
d="M682 1675h2q78 -6 156 -40t137 -83q41 -35 55 -53q19 -19 19 -41q0 -38 -41 -65l-62 -21q-8 -1 -17 7t-19.5 21.5t-16.5 18.5q-51 49 -107 76t-133 27q-96 0 -174 -44.5t-121 -121.5q-38 -69 -38 -158v-778q0 -79 40.5 -152.5t114.5 -117.5q76 -50 168 -50q198 0 279 166
q32 63 32 135v414h-383v80q0 33 26 56.5t65 23.5h413q16 0 37 -15t21 -32v-543q0 -80 -55 -188t-158 -177q-113 -77 -275 -77h-18q-125 0 -240.5 67.5t-177.5 175.5q-68 112 -68 236v772q0 127 70 238.5t190 177.5q121 65 279 65z" />
    <glyph glyph-name="H" unicode="H" horiz-adv-x="1198" 
d="M1087 1630h17q33 0 63.5 -28t30.5 -54v-1468q0 -33 -26 -57.5t-64 -24.5h-61q-12 0 -14.5 2t-2.5 14v383h-706v-383q0 -12 -2.5 -14t-14.5 -2h-74q-30 0 -60 26.5t-30 55.5v1456q0 32 24.5 63t65.5 31h33q23 0 40.5 -18.5t17.5 -30.5v-1022h706v1022q0 12 17 30.5
t40 18.5z" />
    <glyph glyph-name="I" unicode="I" horiz-adv-x="540" 
d="M203 1585h280q28 0 43 -16.5t15 -34.5v-66v-28h-113l-4 -1290h43h9q18 0 26 -0.5t17.5 -4t13.5 -12.5t4 -24v-89q0 -12 -2 -14t-13 -2h-358q-14 0 -17.5 8t-3.5 33v64q0 17 3 26t15 12.5t19.5 4t32.5 0.5h45l10 1288h-125v28l2 72q0 18 19 31.5t39 13.5z" />
    <glyph glyph-name="J" unicode="J" horiz-adv-x="1110" 
d="M932 1630h90q33 0 60.5 -28.5t27.5 -51.5v-1091q0 -126 -64 -237.5t-176 -178.5q-116 -66 -247 -66h-17q-108 0 -241 68q-53 27 -100.5 75t-74.5 99q-32 62 -39.5 102.5t-7.5 116.5q0 33 18.5 56.5t53.5 23.5h82v-80q0 -160 158 -254q70 -45 151 -45h17q182 0 270 160
q39 68 39 160v1171z" />
    <glyph glyph-name="K" unicode="K" horiz-adv-x="1449" 
d="M1346 160q22 0 40 -6t28.5 -12.5t18 -20.5t11 -21t5 -24t1.5 -19.5v-15.5v-41h-104q-64 0 -94.5 3t-72 23t-81.5 62l-793 758v-844h-74q-39 0 -63.5 19.5t-24.5 62.5v1477q0 30 21.5 55.5t50.5 25.5h90v-567l131 -131l531 705l65 -50q22 -18 29 -41.5t3 -41t-13 -33.5
l-488 -652l586 -561q78 -71 114.5 -90.5t82.5 -19.5zM553 842l-2 2zM553 817l2 4z" />
    <glyph glyph-name="L" unicode="L" horiz-adv-x="966" 
d="M324 154h643v-62q0 -39 -28 -68.5t-62 -29.5h-644q-37 0 -63.5 27.5t-26.5 54.5v1474q0 33 25.5 56.5t64.5 23.5h91v-1476z" />
    <glyph glyph-name="M" unicode="M" horiz-adv-x="1202" 
d="M1036 1630h76q38 0 64 -23t26 -55v-1470q0 -30 -24 -55t-56 -25h-88l4 1020l-286 -965v-2q-8 -18 -35.5 -35.5t-50.5 -17.5q-31 0 -56.5 16.5t-31.5 40.5l-277 969l4 -1026h-74q-36 0 -62 24.5t-26 55.5v1470q0 26 27 52t61 26h76l359 -1259zM254 1198l-2 4q-1 3 -3 4
t-2 -1q0 -4 5 -6z" />
    <glyph glyph-name="N" unicode="N" horiz-adv-x="1179" 
d="M1014 1630h92q27 0 50.5 -25t23.5 -55v-1466q0 -34 -21 -57t-53 -23h-70l-731 1264v-1264h-88q-32 0 -53 23t-21 57v1452q0 43 24.5 69.5t68.5 26.5h2l49 -4l737 -1274z" />
    <glyph glyph-name="O" unicode="O" horiz-adv-x="1159" 
d="M643 1669h16q131 0 250.5 -66t182.5 -173q67 -113 67 -240v-733q0 -124 -68.5 -240.5t-183.5 -185.5q-117 -68 -248 -68h-16q-136 0 -252.5 69t-179.5 181q-68 118 -68 244v733q0 130 66 240.5t182 175.5q116 63 252 63zM659 1511h-16q-84 0 -156 -42t-120 -117
q-43 -73 -43 -162v-733q0 -90 43.5 -165t117.5 -118q72 -45 158 -45h16q87 0 160.5 43t120.5 121q41 74 41 164v733q0 89 -43 161t-119 117q-74 43 -160 43z" />
    <glyph glyph-name="P" unicode="P" horiz-adv-x="1163" 
d="M1100 1389q63 -111 63 -242v-258q0 -184 -139 -348q-65 -64 -156 -102t-182 -38h-362v-407h-88q-39 0 -66 22.5t-27 55.5v1478q0 26 30 53t63 27h450q126 0 239.5 -67t174.5 -174zM1001 889v270q-9 117 -84 202t-184 109h-409v-905h362q86 0 157 42t118 120q40 73 40 162
z" />
    <glyph glyph-name="Q" unicode="Q" horiz-adv-x="1275" 
d="M1176 158h41q29 0 44 -25.5t15 -50.5v-68v-4v-4h-100h-18.5h-21.5t-20.5 0.5t-23 2.5t-22 5t-23.5 8.5t-22.5 12.5t-23.5 17t-22 22q-108 -99 -311 -99h-17q-138 0 -258 66.5t-182 175.5q-68 112 -68 246v723q0 130 66 242t184 176q114 63 258 63h17q130 0 249.5 -66.5
t182.5 -173.5q67 -113 67 -241l-2 -723q0 -97 -12.5 -144.5t-69.5 -130.5q14 -22 28 -26t65 -4zM557 551l-2 2q-10 15 -15 29t-7.5 24.5t1.5 23.5t6.5 20.5t13 21.5t15.5 20t20 22t21 23l342 -418q26 38 34.5 69.5t8.5 94.5l-8 703q0 93 -42 169.5t-116 119.5t-161 43h-17
q-194 0 -289 -168q-45 -68 -45 -164v-723q0 -66 28.5 -124t74.5 -98t105 -66t118 -32.5t116 8t97 50.5z" />
    <glyph glyph-name="R" unicode="R" horiz-adv-x="1269" 
d="M1223 147h22q27 0 43 -16.5t19.5 -29.5t3.5 -23v-80h-88q-73 0 -136.5 21.5t-103.5 56.5l-381 330h-289v-408h-82q-34 0 -61 28t-27 54v1470q0 31 26 55.5t62 24.5h453q126 0 239.5 -64.5t172.5 -168.5q63 -108 63 -236v-272q0 -160 -104 -297h-2q-107 -126 -232 -160
q60 -48 123 -101t92.5 -77.5t62 -50.5t50 -35t36 -15t38.5 -6zM313 567h371q83 0 153.5 42.5t116.5 119.5q41 71 41 160v272q0 85 -42 159.5t-113 119.5q-68 43 -146 43h-381v-916z" />
    <glyph glyph-name="S" unicode="S" horiz-adv-x="1181" 
d="M700 1632q120 0 247 -71t218 -191q2 -2 5 -6q14 -16 11 -23t-33 -32q-17 -14 -28 -23q-49 -44 -116 23l-35 34q-138 132 -293 132q-84 0 -153 -36.5t-113 -105.5q-41 -65 -41 -147q0 -56 42.5 -108t110.5 -94.5t150 -85t164 -88.5t150 -96t110.5 -116.5t42.5 -140.5
q0 -226 -146 -354t-395 -128q-83 0 -176 35t-169.5 95t-109.5 128q-4 4 9.5 15.5t37.5 24.5t48 22q10 4 19.5 4.5t16 -1.5t13.5 -7t11 -9t9 -9.5t6 -6.5q131 -143 297 -143q168 0 268.5 96t102.5 242q0 41 -26.5 79.5t-72 70.5t-104 63.5t-123 63.5t-129 66t-123 75t-104 86
t-72 103.5t-26.5 123.5q0 133 68 234.5t186 156.5q114 49 245 49z" />
    <glyph glyph-name="T" unicode="T" horiz-adv-x="1046" 
d="M233 1630h723q37 0 64 -20.5t27 -44.5v-80h-371v-1483h-74q-36 0 -62 24.5t-26 57.5v1401h-371v80q0 25 27.5 45t62.5 20z" />
    <glyph glyph-name="U" unicode="U" horiz-adv-x="1165" 
d="M983 1630h88q40 0 67 -24.5t27 -59.5v-1075q0 -134 -69 -249.5t-185 -180.5q-119 -66 -249 -66h-17q-138 0 -255 67t-179 177q-68 118 -68 252v1075q0 34 26 59t64 25h93v-1159q0 -143 93 -225t226 -82h17q63 0 114.5 14t84.5 35t57 51.5t36 57.5t19 59.5t8.5 51
t1.5 38.5v1159z" />
    <glyph glyph-name="V" unicode="V" horiz-adv-x="1196" 
d="M1036 1630h74q29 0 57.5 -18.5t28.5 -46.5q0 -7 -2 -13l-438 -1491q-7 -25 -28 -42t-56 -17q-34 0 -56.5 18t-27.5 41l-443 1487l-2 15v2q0 28 27.5 46.5t65.5 18.5h71l357 -1255q3 -13 14.5 -13.5t17.5 13.5z" />
    <glyph glyph-name="W" unicode="W" horiz-adv-x="2076" 
d="M1917 1630h74q29 0 57.5 -18.5t28.5 -46.5q0 -7 -2 -13l-439 -1491q-7 -25 -28 -42t-56 -17q-34 0 -56.5 18t-27.5 41l-362 1217l-350 -1217q-7 -25 -28 -42t-56 -17q-34 0 -56.5 18t-27.5 41l-443 1487l-2 15v2q0 28 27.5 46.5t65.5 18.5h71l357 -1255q3 -13 14.5 -13.5
t17.5 13.5l340 1255h74h4h2q26 0 42.5 -13t29.5 -50l356 -1192q3 -13 15 -13.5t18 13.5z" />
    <glyph glyph-name="X" unicode="X" horiz-adv-x="1239" 
d="M1182 233l5 -6q5 -6 9 -12t10.5 -16t12 -20.5t10.5 -23.5t7.5 -27.5t2.5 -29.5v-67q0 -12 -6.5 -19t-19.5 -9.5t-22 -3.5t-24 0t-16 1q-17 0 -31 14l-428 666l-430 -666q-14 -14 -31 -14q-1 0 -16 -1t-24 0t-22 3.5t-19.5 9.5t-6.5 19v67q0 58 58 135q61 99 163.5 259.5
t160 251.5t57.5 98q-281 475 -379 612q-1 4 -4 11t-4.5 11.5t-3 14t-1.5 22.5v48q0 17 5.5 28.5t11.5 17t20.5 8.5t21.5 3h25q17 0 31 -14l387 -611l385 611q14 14 31 14h25t21.5 -3t20.5 -8.5t11.5 -17t5.5 -28.5v-48q0 -13 -1 -22.5t-2.5 -13.5t-4.5 -11.5t-4 -11.5
q-44 -61 -138.5 -214t-167.5 -276l-73 -122q0 -12 131.5 -223t249.5 -386z" />
    <glyph glyph-name="Y" unicode="Y" horiz-adv-x="1132" 
d="M1026 1618h100q30 0 40.5 -22.5t2.5 -41.5q0 -5 -66.5 -142.5t-168.5 -344.5t-109 -221l-86 -178v-668h-88q-27 0 -50 25t-23 55v588l-89 178q-342 700 -342 708q-8 19 2.5 41.5t40.5 22.5h101l366 -739z" />
    <glyph glyph-name="Z" unicode="Z" horiz-adv-x="1249" 
d="M416 1610h733q50 0 79 -19t17 -67l-14 -25l-850 -1343h680q12 0 14 -2.5t2 -14.5v-49q0 -33 -26 -57.5t-62 -24.5h-749q-21 0 -40.5 6t-38 21.5t-17.5 42.5t20 69l858 1317h-680q-12 0 -14 2t-2 13v49q0 33 26 57.5t64 24.5z" />
    <glyph glyph-name="bracketleft" unicode="[" horiz-adv-x="620" 
d="M305 1434v-1459q0 -51 26 -65t101 -14h98q42 0 66.5 -28.5t24.5 -60.5v-47h-76h-295q-47 0 -76 35t-29 90v144v258l-2 41v377v376l2 41v258v144q0 55 29 90t76 35h295h76v-47q0 -32 -24.5 -60.5t-66.5 -28.5h-98q-76 0 -101.5 -13.5t-25.5 -65.5z" />
    <glyph glyph-name="backslash" unicode="\" horiz-adv-x="854" 
d="M854 0h-86q-31 0 -54.5 14.5t-33 29t-18.5 36.5l-185 524l-334 871h97q23 0 40 -7t29 -24t16 -24.5t13 -28.5l209 -562l6 -14z" />
    <glyph glyph-name="bracketright" unicode="]" horiz-adv-x="620" 
d="M621 328l-3 -41v-258v-144q0 -55 -28.5 -90t-75.5 -35h-295h-76v47q0 32 24 60.5t66 28.5h99q75 0 101 14t26 65v1459q0 52 -25.5 65.5t-101.5 13.5h-99q-42 0 -66 28.5t-24 60.5v47h76h295q47 0 75.5 -35t28.5 -90v-144v-258l3 -41v-376v-377z" />
    <glyph glyph-name="asciicircum" unicode="^" horiz-adv-x="1114" 
d="M717 1495l383 -754q19 -44 13 -82t-28 -64t-47 -28v2l-391 731l-428 -720l-2 -2q-24 2 -45 28t-27 64t13 82l422 745q10 17 20 27q18 13 23 16q15 6 24 6h2q11 0 17 -4q29 -10 45 -39l4 -8h2z" />
    <glyph glyph-name="underscore" unicode="_" horiz-adv-x="1185" 
d="M143 -141l938 -2q44 -2 75 -22.5t30 -57.5v-64l-506 -4h-29h-49h-37h-2l-313 2q-35 0 -70.5 21t-36.5 65v62z" />
    <glyph glyph-name="grave" unicode="`" horiz-adv-x="532" 
d="M209 1495q12 12 19.5 18t23 7t29.5 -13l251 -254l-49 -49q-26 -26 -63 -31t-51 13l-217 215q-5 5 -7 10.5t0 11.5t5 11t10 13t13.5 14t17 16t18.5 18z" />
    <glyph glyph-name="a" unicode="a" horiz-adv-x="1015" 
d="M1012 807l4 -725q0 -34 -22 -58t-54 -24h-92v31q-122 -54 -273 -54q-213 0 -322.5 106t-109.5 318q0 193 114 299.5t318 106.5h162q77 0 113 8q-3 66 -64.5 101.5t-177.5 35.5h-270v66q0 29 30 55.5t60 26.5q207 0 238 -2h-2q71 -1 116 -16t97 -50q60 -39 97.5 -103.5
t37.5 -121.5zM850 254v422q-61 -6 -178 -6h-2l-49 2q-167 0 -242.5 -60.5t-75.5 -214.5q0 -142 62 -208t190 -66q124 0 209.5 38.5t85.5 92.5z" />
    <glyph glyph-name="b" unicode="b" horiz-adv-x="978" 
d="M883 940q96 -164 96 -379v-29q0 -167 -96 -331v-2q-65 -95 -151.5 -146t-176.5 -51h-324q-40 0 -64 23t-24 57v1472q0 32 24.5 54t63.5 22h72v-510h2l-2 2q48 -10 105 -10h147q92 0 177 -45t151 -127zM807 549v12q0 180 -62 275v-2q-49 66 -90 91t-100 25h-166
q-9 0 -78 11h2q-4 2 -10 2v-799h264q111 0 174 129l2 2q35 60 49.5 113.5t14.5 140.5z" />
    <glyph glyph-name="c" unicode="c" horiz-adv-x="1046" 
d="M606 1098q247 0 404 -176h2q42 -62 -6 -101l-64 -37l-12 18q-11 17 -36 42.5t-61 51.5t-95.5 44t-129.5 18q-146 0 -232.5 -96.5t-86.5 -240.5v-164q0 -40 8.5 -81.5t33 -89.5t62.5 -84t104 -60.5t150 -24.5q66 0 118.5 16t88.5 46.5t59.5 65t40.5 79.5q8 -6 27 -20
t25.5 -19.5t19 -18t15 -21t5 -21.5t-2.5 -27.5t-15 -32.5q-34 -57 -78.5 -94.5t-98 -55t-101.5 -24t-109 -6.5q-128 0 -226 38t-156 104.5t-87 149.5t-29 181v164q0 112 37 203.5t101 150.5t147.5 91t177.5 32z" />
    <glyph glyph-name="d" unicode="d" horiz-adv-x="978" 
d="M819 1630h72q39 0 63.5 -22t24.5 -54v-1470q0 -34 -24 -57t-64 -23h-324q-89 0 -175.5 51t-151.5 146v2q-44 75 -70.5 165t-26.5 156v37q0 216 99 379q65 82 149 127t176 45h148q57 0 102 10v-2h2v510zM819 166v797q-6 0 -10 -2h2q-69 -11 -78 -11h-166q-58 0 -99 -24.5
t-91 -89.5h2q-34 -50 -55 -122.5t-21 -152.5v-20q0 -36 15 -94t43 -123.5t79.5 -111.5t114.5 -46h264z" />
    <glyph glyph-name="e" unicode="e" horiz-adv-x="1081" 
d="M627 1098h16q202 -15 320 -141.5t118 -319.5v-225q-2 -9 -7 -10q-8 -3 -32 -3h-741q4 -29 14 -61.5t34 -75t58.5 -75t92 -55.5t127.5 -23q83 0 141 12.5t79 25t46.5 36.5t34.5 30q8 6 16.5 9t17 2.5t15 -1t15 -6t13 -7.5t13.5 -10t11.5 -10t10.5 -11l9 -9
q-69 -75 -119 -111q-45 -35 -123.5 -62.5t-165.5 -27.5h-14q-125 0 -240 64q-109 62 -176.5 169t-67.5 214v221q0 120 66 231q62 103 176.5 166.5t241.5 63.5zM928 549v88q1 57 -14.5 108.5t-48 96.5t-90.5 76t-136 40h-12q-83 0 -158 -45q-78 -44 -120 -116t-42 -160v-88
h621z" />
    <glyph glyph-name="f" unicode="f" horiz-adv-x="858" 
d="M508 1061h199q14 0 26 -1t21 -2.5t15.5 -5t11.5 -5t8 -7t4.5 -7.5t2.5 -9t1 -8.5v-9.5v-9v-79h-289v-533q0 -206 -57 -295t-203 -90h-41q-13 0 -22.5 1t-16.5 5t-11.5 7t-7.5 11.5t-4.5 14.5t-2 19.5t-0.5 23t0.5 29.5t0.5 34q0 5 76 5h29q57 0 75.5 46t18.5 146l-2 576
h-174v79q0 38 24.5 51t67.5 13h82v137q3 242 69 330t250 88q80 0 150 -14.5t70 -36.5q0 -8 -1 -52t-1 -86q-8 5 -24 12t-70.5 19t-116.5 12q-52 0 -84 -13.5t-48 -46t-21 -71t-5 -104.5v-174z" />
    <glyph glyph-name="g" unicode="g" horiz-adv-x="1001" 
d="M999 23v4q0 -22 1 -67q3 -48 0.5 -95t-8 -89.5t-25.5 -78t-52 -62t-87 -41t-130 -14.5h-118q-53 0 -75 20t-22 64v72h97l41 -2q61 0 96 2.5t64 10t39 22t20 37.5t6.5 56.5t-0.5 79.5v64l-25 -14q-88 -51 -215 -51q-126 0 -234.5 62.5t-166.5 166.5q-62 109 -62 236v212
q0 220 122.5 350t314.5 130q83 0 154.5 -14.5t131.5 -44t94.5 -81t34.5 -120.5zM842 193v641q0 112 -256 112q-91 0 -161.5 -48.5t-105 -122t-34.5 -157.5v-212q0 -81 26.5 -143.5t72.5 -99.5t101.5 -56t118.5 -19q93 0 165.5 31.5t72.5 73.5z" />
    <glyph glyph-name="h" unicode="h" horiz-adv-x="1116" 
d="M1069 143h7q21 0 33.5 -1t31 -7t28 -21t9.5 -40v-78h-107q-61 1 -106 18.5t-71.5 46t-42 71.5t-21 87t-5.5 100v236q0 94 -25 170.5t-65 123t-86.5 71t-91.5 24.5h-248v-944h-78q-36 0 -62 24.5t-26 57.5v1464q0 34 26 59t62 25h78v-538q0 3 5 2q6 -1 10 -1.5t15.5 -1.5
t25.5 -1h192q126 0 226.5 -80t148.5 -205q47 -120 47 -250v-231q0 -11 -0.5 -34t-0.5 -31.5v-26.5t1.5 -24.5t4.5 -19t8 -17t11.5 -12t16 -10t21.5 -4.5t28 -2z" />
    <glyph glyph-name="i" unicode="i" horiz-adv-x="313" 
d="M238 1538h12q17 0 32.5 -8t20.5 -17l-2 5l4 -7l4 -20v-229h-71q-36 0 -65.5 21.5t-29.5 45.5v125q0 28 29.5 56t65.5 28zM313 1100v-1102h-69q-39 0 -66.5 26t-27.5 60v948q0 24 29 46t65 22h69z" />
    <glyph glyph-name="j" unicode="j" horiz-adv-x="671" 
d="M612 1538h12.5t12.5 -1t14 -3.5t10 -6.5t8.5 -12t2.5 -18v-235h-72q-36 0 -65 21.5t-29 45.5v182q0 7 2.5 12.5t8 8.5t11 4.5t16.5 2t19 0.5t23.5 -0.5t25.5 -0.5zM670 1100v-1155q0 -286 -168 -359q-69 -28 -199 -28q-72 0 -90 2q-40 3 -55 23.5t-15 62.5v59h154h6
q96 0 137 21q37 19 52.5 70t15.5 155l-2 1081q0 24 29 46t65 22h70z" />
    <glyph glyph-name="k" unicode="k" horiz-adv-x="1120" 
d="M1057 121h28q56 0 56 -70q0 -80 -43 -80h-41q-77 1 -129.5 25.5t-102.5 71.5l-520 507v-608h-90q-27 0 -49.5 23.5t-22.5 44.5v1517q0 34 18.5 56t53.5 22h90v-833l131 -131l330 452q40 -8 76.5 -39t17.5 -69q-1 -2 -6 -11.5t-10 -17t-25 -37t-50.5 -71t-87 -119.5
t-134.5 -183q11 -10 22 -20.5t24 -23.5t42 -42.5t60.5 -62t96.5 -99t134 -137.5q43 -38 68 -51.5t63 -13.5z" />
    <glyph glyph-name="l" unicode="l" horiz-adv-x="473" 
d="M238 1630h51q13 0 15.5 -2t2.5 -16v-1239q0 -51 7.5 -89.5t27.5 -74.5t61 -55t101 -19h28q15 0 24.5 -6t13 -19t4.5 -21t0 -25t-1 -19q0 -26 -12 -45.5t-37 -19.5h-41q-80 1 -146 27.5t-107.5 70t-64 96.5t-22.5 109v1280q0 24 29.5 45.5t65.5 21.5z" />
    <glyph glyph-name="m" unicode="m" horiz-adv-x="1779" 
d="M1366 1112q94 0 189 -33t160 -94t65 -131v-776q0 -32 -24.5 -56t-61.5 -24h-82v844q0 17 -12.5 36t-39 39.5t-79.5 34t-123 13.5q-144 0 -229 -80.5t-85 -233.5l-2 -653h-94l-18 6q-24 10 -37.5 30.5t-13.5 43.5v573q0 154 -89 238t-233 84q-83 0 -164.5 -37t-81.5 -88
v-850h-82q-37 0 -61.5 24t-24.5 56v772q0 47 24.5 91t57.5 69q141 102 332 102q225 0 354 -129q49 -49 52 -55q24 30 49 55q129 129 354 129z" />
    <glyph glyph-name="n" unicode="n" horiz-adv-x="1042" 
d="M557 1112q225 0 354 -129q131 -131 131 -332v-651h-77q-37 0 -61.5 24t-24.5 56v571q0 153 -85 233.5t-229 80.5q-77 0 -144 -22.5t-106 -63.5q-4 -12 -4 -17v-862h-82q-37 0 -61.5 24t-24.5 56v838q0 17 19 40q11 14 59 52q62 45 151 73.5t185 28.5z" />
    <glyph glyph-name="o" unicode="o" horiz-adv-x="1159" 
d="M643 1110h16q130 0 250 -66.5t183 -173.5q67 -113 67 -239v-156q0 -124 -68.5 -240.5t-183.5 -185.5q-115 -67 -248 -67h-16q-137 0 -253 69t-179 180q-68 118 -68 244v156q0 130 66 240.5t182 175.5q116 63 252 63zM664 965h-21q-139 0 -235.5 -103.5t-96.5 -230.5v-156
q0 -95 53 -175.5t129 -122.5t150 -42h16q94 0 172 51.5t119 129t41 159.5v156q0 146 -99 241.5t-228 92.5z" />
    <glyph glyph-name="p" unicode="p" horiz-adv-x="966" 
d="M231 1122h324q93 0 180 -45.5t150 -138.5v-2q82 -140 82 -381v-29q0 -89 -13.5 -165.5t-44.5 -144.5t-78 -116t-117 -76t-159 -28h-147q-7 0 -20 0.5t-21 0.5t-19 -0.5t-18 -2.5t-14 -5t-10 -8.5t-3 -13.5v-389h-72q-39 0 -63.5 22t-24.5 54v1388q0 34 24 57t64 23z
M303 961v-803h86h174q49 0 88.5 15.5t65 37.5t43.5 57.5t27 65.5t13.5 71.5t5.5 64.5t1 56v13q0 181 -66 290v2q-64 130 -174 130h-264z" />
    <glyph glyph-name="q" unicode="q" horiz-adv-x="1212" 
d="M1147 -254h65q-2 -55 -2 -82q0 -22 -17.5 -36.5t-45.5 -14.5h-2h-20q-68 0 -96.5 1.5t-65.5 11.5t-50.5 32.5t-24.5 61.5t-14 102q-4 70 -4 176v55q-124 -73 -241 -73h-13q-126 0 -238.5 65.5t-170.5 169.5q-64 107 -64 229v207q0 118 63 228t171 174q109 61 239 61h60
q91 0 170 -30.5t121 -79.5q45 -57 45 -115v-955v-55t-1 -44t2 -31t3.5 -24.5t10.5 -15t15.5 -11t25 -4t33.5 -3.5h46zM844 195q28 19 28 36v650q0 17 -14 37q-23 27 -70 43t-96 16h-76q-86 0 -158 -43.5t-118 -122.5q-43 -73 -43 -160v-207q0 -84 44 -158.5t118 -117.5
q72 -45 157 -45h13q36 0 105.5 21.5t109.5 50.5z" />
    <glyph glyph-name="r" unicode="r" horiz-adv-x="849" 
d="M846 995q9 -9 -6 -39q-31 -64 -49 -76q-14 -9 -27 1q-75 58 -157 79.5t-150 5.5t-112 -77.5t-44 -159.5v-729h-72q-37 0 -61.5 24t-24.5 56v694q0 82 29 147.5t78 105t111 63.5t130.5 26t133.5 -10t123.5 -41t97.5 -70z" />
    <glyph glyph-name="s" unicode="s" horiz-adv-x="903" 
d="M518 1110q110 6 197 -31t170 -114q16 -12 18 -32t-16 -48l-49 -54q-4 3 -11 10q-33 30 -55.5 47.5t-63.5 43.5t-88 38t-98 9q-89 -5 -155 -64t-62 -131q2 -36 33.5 -63t81.5 -44.5t110 -34.5t120.5 -39t111 -50t84 -75t37.5 -109q4 -77 -18 -142t-59.5 -108t-86 -74
t-95 -45t-89.5 -16q-198 -9 -347 110q-66 47 -34 92l59 66q50 -47 99.5 -76t84 -37t69 -12t54.5 0q94 6 158.5 69.5t60.5 163.5q-2 36 -34.5 62.5t-82.5 43.5t-110.5 33.5t-120.5 37.5t-110.5 49.5t-83 76.5t-35.5 111q-6 136 96 232t260 104z" />
    <glyph glyph-name="t" unicode="t" horiz-adv-x="849" 
d="M680 154h170q0 -26 -0.5 -39t-2.5 -35t-6.5 -33t-12.5 -23.5t-21 -18t-31 -5.5h-92q-367 0 -367 457v489h-174v64q0 30 26 51.5t64 21.5h84v287q0 31 26.5 55.5t62.5 24.5h75v-367h238q38 0 64 -21.5t26 -51.5v-64h-328v-489q0 -64 3.5 -105.5t15 -83t32.5 -64.5t58 -37
t90 -13z" />
    <glyph glyph-name="u" unicode="u" horiz-adv-x="1110" 
d="M1104 1094l6 -656q0 -89 -31 -180q-17 -45 -43 -85t-68 -80.5t-107 -70t-146 -42.5q-44 -7 -88 -7q-45 0 -92 7q-155 26 -232 100q-160 142 -160 358l7 656h77q37 0 61.5 -24t24.5 -56l-6 -576q-1 -154 83 -233.5t231 -79.5q159 0 243 78q82 82 82 235l-6 576
q0 32 24.5 56t61.5 24h78z" />
    <glyph glyph-name="v" unicode="v" horiz-adv-x="1155" 
d="M1155 1038q0 -14 -10 -34v2l-422 -973q-24 -43 -76 -43q-22 0 -44 15t-32 34l-421 969q-7 28 -7 32q0 58 95 58h61l350 -815l359 815h67q31 0 55.5 -18t24.5 -42z" />
    <glyph glyph-name="w" unicode="w" horiz-adv-x="1986" 
d="M1987 1038q0 -12 -11 -34v2l-422 -981q-24 -43 -75 -43q-25 0 -48.5 17.5t-29.5 37.5v-2l-328 796l-350 -806q-24 -43 -76 -43q-22 0 -44 15t-32 34l-421 977q-7 28 -7 32q0 58 95 58h61l350 -824l359 824h67q22 0 42.5 -9t27.5 -22l336 -793l358 824h68q31 0 55.5 -18
t24.5 -42z" />
    <glyph glyph-name="x" unicode="x" horiz-adv-x="1196" 
d="M1196 -2l-176 2q-33 0 -57 27l-293 387l-293 -387q-24 -27 -58 -27l-176 -2l418 547l-393 512q-7 10 -7.5 17.5t2 10.5t11.5 5t13.5 2h14.5h5h115l344 -443l4 -4l4 4l344 443h115h5h14.5t13.5 -2t11 -5t2 -10.5t-8 -17.5l-393 -512z" />
    <glyph glyph-name="y" unicode="y" horiz-adv-x="1110" 
d="M1108 1100v-473l2 -189q0 -35 -2 -47v-418q0 -63 -13 -122t-42 -113t-71 -94.5t-104 -64.5t-137 -25h-28q-46 0 -62 2h2q-43 3 -57 25t-14 65v59h143q120 0 169.5 81.5t49.5 242.5v37q-89 -89 -317 -89q-101 0 -183 25t-137 68.5t-92.5 102.5t-54.5 125.5t-17 139.5
l7 656h77q37 0 61.5 -24t24.5 -56l-6 -576q-1 -153 82 -226t232 -73q323 0 323 254v217l-4 404q0 25 12 49q11 14 36.5 25.5t49.5 11.5h70z" />
    <glyph glyph-name="z" unicode="z" horiz-adv-x="946" 
d="M313 1098h518q34 0 58 -21.5t24 -50.5q0 -31 -18 -55l-530 -830h581v-63q0 -32 -24.5 -56t-61.5 -24h-633q-34 0 -59 24t-25 52q0 19 11 37l540 839l-461 4v80q0 23 27.5 43.5t52.5 20.5z" />
    <glyph glyph-name="braceleft" unicode="{" horiz-adv-x="1013" 
d="M680 1237q-30 -405 -234 -543q59 -42 100 -107.5t63 -152t32.5 -158.5t17.5 -172q14 -136 66.5 -192.5t134.5 -56.5q63 0 98 -28.5t35 -74.5v-43h-133q-36 0 -70 4.5t-81 23.5t-83 51t-68.5 92.5t-45.5 142.5q-10 54 -19 126t-15 122.5t-15.5 108t-25 96.5t-39.5 73.5
t-62 52.5t-90 21q-23 0 -33 2q-70 11 -70 67v68h62q48 3 87.5 19.5t66.5 35t51.5 62t37.5 71.5t29 93.5t22.5 98t20.5 113.5l12 66q13 82 45.5 142.5t69 92t83.5 50.5t80.5 23.5t70.5 4.5h133v-43q0 -46 -35 -74t-98 -28q-82 0 -134.5 -57t-66.5 -193z" />
    <glyph glyph-name="bar" unicode="|" horiz-adv-x="292" 
d="M293 920l-2 -1156q0 -35 -21 -70t-65 -36h-62l2 1245v23v75v467q2 44 22.5 75t57.5 30h64l4 -539v-28v-68v-18z" />
    <glyph glyph-name="braceright" unicode="}" horiz-adv-x="1013" 
d="M952 760h62v-68q0 -56 -70 -67q-10 -2 -33 -2q-52 -3 -90 -21t-62 -52.5t-39.5 -73.5t-25 -96.5t-15.5 -108t-15 -122.5t-19 -126q-13 -82 -45.5 -142.5t-68.5 -92.5t-83 -51t-81 -23.5t-70 -4.5h-133v43q0 46 35 74.5t98 28.5q82 0 134.5 56.5t66.5 192.5
q7 100 17.5 172t32.5 158.5t63 152t100 107.5q-204 138 -234 543q-14 136 -66.5 193t-134.5 57q-63 0 -98 28t-35 74v43h133q37 0 70.5 -4.5t80.5 -23.5t83.5 -50.5t69 -92t45.5 -142.5l12 -66q16 -88 24.5 -131t27 -111.5t38.5 -102t51.5 -72.5t74.5 -56t99 -20z" />
    <glyph glyph-name="asciitilde" unicode="~" horiz-adv-x="1054" 
d="M989 829q21 0 38 -19.5t24.5 -48t0 -67t-33.5 -71.5q-26 -34 -101 -54t-131 -20q-48 0 -189 27.5t-200 27.5q-55 0 -79.5 -16.5t-24.5 -59.5v-55h-68q-36 0 -58 27.5t-23.5 61.5t3.5 65q10 30 24.5 52.5t35.5 35t37.5 20.5t44 11t40 3.5t38.5 0.5h14q63 0 217 -25
t213 -25q51 0 70.5 16.5t19.5 67.5v41q27 4 88 4z" />
    <glyph glyph-name="exclamdown" unicode="&#xa1;" horiz-adv-x="309" 
d="M250 860q-10 0 -25.5 -0.5t-23.5 -0.5t-19 0.5t-17 2t-11.5 4.5t-8 8.5t-2.5 12.5v141q0 24 29.5 46t65.5 22h71v-195q0 -12 -4.5 -20.5t-9 -12.5t-15.5 -6t-14.5 -2h-15.5zM250 -410q-10 0 -25.5 -0.5t-23.5 -0.5t-19 0.5t-17 2t-11.5 4.5t-8 8.5t-2.5 12.5v1063
q0 24 29.5 46t65.5 22h71v-1117q0 -12 -4.5 -20.5t-9 -12.5t-15.5 -6t-14.5 -2h-15.5z" />
    <glyph glyph-name="cent" unicode="&#xa2;" horiz-adv-x="1046" 
d="M676 1544v-112q101 -7 195.5 -64t137 -116.5t17.5 -80.5l-72 -55q-86 108 -147.5 144t-130.5 36v-1050q179 13 313 190q19 -19 47 -61q15 -24 10 -50.5t-26 -45.5q-69 -70 -160.5 -117.5t-183.5 -61.5v-61q0 -13 -16.5 -32t-38.5 -19h-21l-84 2v116q-97 20 -179 81.5
t-130 148.5q-64 110 -64 235v385q0 200 108 335.5t265 135.5v43q0 24 27 49t57 25h76zM516 256v1034q-30 0 -65.5 -22t-68.5 -61.5t-55 -106t-22 -144.5v-385q0 -117 65 -199.5t146 -115.5z" />
    <glyph glyph-name="sterling" unicode="&#xa3;" horiz-adv-x="1255" 
d="M1239 1319q16 -22 16 -47q0 -17 -6 -29l-51 -80q-1 1 -13.5 14.5t-23.5 24.5t-32.5 29.5t-41 33t-47.5 31t-55 27t-60 18t-65 7.5q-184 0 -270 -154q-37 -64 -37 -156v-252h258q35 0 62.5 -19.5t27.5 -43.5v-80h-348v-262q0 -140 -98 -258h604q32 0 60 -27t28 -55l2 -74
h-928q-11 0 -37 13q-23 13 -30 30q-11 15 -11 35q0 21 14.5 41.5t37.5 30.5q2 0 20.5 10.5t46.5 33t55 52t46.5 74.5t19.5 94v262h-174v80q0 24 28 43.5t64 19.5h82v252q0 122 62.5 228t170.5 166q106 59 244 59h2q104 -4 190 -37.5t140 -81.5v-2q39 -39 47 -51z" />
    <glyph glyph-name="currency" unicode="&#xa4;" 
d="M1178 254l-66 -66q-23 -23 -59.5 -19.5t-59.5 26.5l-65 65q-113 -78 -256 -78h-25q-141 0 -254 78l-65 -65q-23 -23 -59.5 -26.5t-59.5 19.5l-66 66l133 117q-83 115 -83 262v211q0 136 79 254l13 12l6 8l-109 113q13 13 76 63q43 35 84 -2q30 -27 68 -65l22 12
q99 55 217 55h25q116 0 215 -55l22 -12q38 38 68 65q41 37 84 2q63 -50 76 -63l-109 -113l6 -8l13 -12q79 -118 79 -254v-211q0 -146 -84 -262zM649 332h23q119 0 202.5 87.5t83.5 213.5v211q0 125 -83.5 211t-202.5 86h-23q-119 0 -203 -86t-84 -211v-211q0 -126 84 -213.5
t203 -87.5z" />
    <glyph glyph-name="yen" unicode="&#xa5;" horiz-adv-x="1173" 
d="M1169 1452q0 -5 -71 -132.5t-157.5 -284t-113.5 -210.5l-14 -30h94q44 -2 75 -22.5t30 -57.5v-64l-219 -2q-10 -2 -35 -2h-19v-45h168q44 -2 75 -22.5t30 -57.5v-63l-219 -2q-10 -2 -35 -2h-19v-488h-88q-27 0 -50 25t-23 55v410h-181q-35 0 -70 21t-36 65v61l287 -2v47
h-181q-35 0 -70 21t-36 65v62h213l-15 28q-27 54 -113.5 210.5t-157.5 284t-71 132.5q-8 19 2.5 41.5t40.5 22.5h101l366 -672l369 672h100q30 0 40.5 -22.5t2.5 -41.5z" />
    <glyph glyph-name="brokenbar" unicode="&#xa6;" horiz-adv-x="292" 
d="M147 795l-4 215q-3 16 0 39v55v31v2l2 211q0 35 21 70t65 36h62l-2 -401v-154q-2 -44 -22.5 -74.5t-57.5 -29.5h-64zM143 154l2 211q0 35 21 70t65 36h62l-2 -401v-154q-2 -44 -22.5 -74.5t-57.5 -29.5h-64l-4 215q-3 16 0 39v55v31v2z" />
    <glyph glyph-name="section" unicode="&#xa7;" horiz-adv-x="1226" 
d="M829 1417q-128 0 -194 -104q-29 -50 -29 -109q0 -135 113 -207q21 -14 162 -88v2q122 -54 164 -80q146 -94 147 -245q0 -103 -70.5 -206t-169.5 -151q-23 -11 -51 -22q39 -61 39 -139q0 -103 -60.5 -191.5t-158.5 -134.5q-93 -49 -205 -49q-100 0 -195 45.5t-157 126.5
l-21 26q60 64 97 64q19 0 44 -20t49.5 -43.5t72 -43.5t104.5 -20q74 0 135.5 33t99.5 94h3q34 50 34 115q0 72 -84 125q-46 27 -133 71q-126 64 -199 113t-114 117q-53 82 -53 188q0 104 56.5 187t147.5 124q51 21 95 29l6 -8q-51 80 -51 186q0 103 56.5 187.5t147.5 126.5
q91 38 191 38q91 0 199 -64.5t180 -158.5q-33 -51 -62 -63q-12 -8 -31.5 -9t-31.5 5l-6 4l-52 51q-104 98 -215 98zM621 897q-19 8 -43 8q-56 0 -112 -34t-85 -76q-29 -50 -29 -109q0 -133 115 -207h-2l41 -20q91 -46 229 -111q32 -14 56 -14q84 0 161.5 84t77.5 172
q0 72 -78 123q-14 7 -57.5 31t-75.5 40q-147 73 -198 113z" />
    <glyph glyph-name="dieresis" unicode="&#xa8;" horiz-adv-x="620" 
d="M250 1436h15.5t14.5 -2t15.5 -6t9 -12.5t4.5 -20.5v-236h-71q-36 0 -65.5 22t-29.5 46v182q0 7 2.5 12.5t8 8.5t11.5 4.5t17 2t19 0.5t23.5 -0.5t25.5 -0.5zM561 1436h12.5t12.5 -1t14 -3.5t10 -6.5t8.5 -12t2.5 -18v-236h-72q-36 0 -65 22t-29 46v182q0 7 2.5 12.5
t8 8.5t11 4.5t16.5 2t19 0.5t23.5 -0.5t25.5 -0.5z" />
    <glyph glyph-name="copyright" unicode="&#xa9;" horiz-adv-x="1263" 
d="M702 1268h17q232 0 388.5 -143t156.5 -351v-156q0 -133 -76.5 -247.5t-201.5 -180t-265 -65.5h-16q-93 0 -191.5 32t-180.5 89.5t-122 128.5q-68 118 -68 243v156q0 119 45 214.5t122.5 155.5t177.5 92t214 32zM725 1149h-20q-85 0 -158 -23.5t-123 -62t-85.5 -87.5
t-52 -100.5t-16.5 -101.5v-156q0 -153 126 -266.5t309 -113.5h16q85 0 164.5 36.5t133.5 92.5t86 123t32 128v156q0 98 -59.5 186t-155 139.5t-197.5 49.5zM696 1012q61 0 101 -21q63 -39 63 -76q0 -6 -10 -26h-2l-49 -39q-13 45 -36.5 62.5t-66.5 17.5q-54 0 -80 -45
q-12 -21 -12 -56v-260q0 -23 5.5 -43t27.5 -38.5t59 -18.5q26 0 51.5 13t39.5 26.5t31.5 20.5t27.5 -5q20 -27 20 -37q0 -18 -14 -32q-36 -36 -70.5 -54t-85.5 -18q-83 0 -131.5 50.5t-48.5 135.5v260q0 49 22 92.5t62 67.5q36 23 96 23z" />
    <glyph glyph-name="guillemotleft" unicode="&#xab;" horiz-adv-x="1245" 
d="M721 422l2 -2q-2 -24 -28 -45.5t-64.5 -27.5t-81.5 13l-356 197q-15 9 -27 21q-15 20 -16 22q-7 18 -7 25v2q0 10 4 16q10 29 39 45l9 4v2l385 178q44 19 82 13t64 -27.5t28 -46.5h-2l-363 -186zM1243 811l-362 -186l331 -203l2 -2q-2 -24 -28 -45.5t-64.5 -27.5
t-81.5 13l-356 197q-15 9 -27 21q-15 20 -16 22q-6 15 -6 25v2q0 10 4 16q10 29 39 45l8 4v2l385 178q44 19 81.5 13t63.5 -27.5t27 -46.5z" />
    <glyph glyph-name="logicalnot" unicode="&#xac;" horiz-adv-x="1269" 
d="M231 963h949q32 0 61 -24.5t29 -57.5v-396q0 -27 -33 -54.5t-74 -27.5h-69v396h-951v82q0 34 25 58t63 24z" />
    <glyph glyph-name="registered" unicode="&#xae;" horiz-adv-x="1263" 
d="M702 1268h17q232 0 388.5 -143t156.5 -351v-156q0 -133 -76.5 -247.5t-201.5 -180t-265 -65.5h-16q-93 0 -191.5 32t-180.5 89.5t-122 128.5q-68 118 -68 243v156q0 119 45 214.5t122.5 155.5t177.5 92t214 32zM1137 618v156q0 98 -59.5 186t-155 139.5t-197.5 49.5h-20
q-85 0 -158 -23.5t-123 -62t-85.5 -87.5t-52 -100.5t-16.5 -101.5v-156q0 -153 126 -266.5t309 -113.5h16q85 0 164.5 36.5t133.5 92.5t86 123t32 128zM922 489h8q24 0 34 -22.5t8 -44.5l-1 -23h-49q-61 0 -101 35h2l-137 117h-84v-152h-45q-22 0 -35.5 15t-13.5 32v543
q0 20 13.5 33.5t35.5 13.5h166q50 0 96 -27t70 -69q26 -47 26 -94v-101q0 -64 -45 -118q-24 -38 -65 -56q90 -73 103 -79q7 -3 14 -3zM602 643h121q55 0 86 51q12 24 12 51v101q0 60 -49 88l-2 2q-17 12 -43 12h-125v-305z" />
    <glyph glyph-name="macron" unicode="&#xaf;" horiz-adv-x="931" 
d="M143 1425l684 -2q44 -2 75 -22.5t30 -57.5v-63l-330 -2q-10 -2 -33 -2h-51h-35h-2l-231 2q-35 0 -70.5 21t-36.5 65v61z" />
    <glyph glyph-name="degree" unicode="&#xb0;" horiz-adv-x="567" 
d="M332 1614h47q74 0 131 -55t57 -125v-267q0 -70 -57 -125t-131 -55h-47q-74 0 -131.5 55t-57.5 125v267q0 70 57.5 125t131.5 55zM379 1475h-47q-13 0 -22 -11t-9 -30v-267q0 -19 9 -30t22 -11h47q13 0 23 11.5t10 29.5v267q0 18 -10 29.5t-23 11.5z" />
    <glyph glyph-name="plusminus" unicode="&#xb1;" 
d="M522 578l-272 2q-35 0 -70.5 21t-36.5 65v61l445 -2v258q2 44 22.5 74.5t57.5 29.5h63l2 -362h340q44 -2 75 -22.5t30 -57.5v-63l-443 -2v-21v-43v-2l-2 -190q0 -35 -21 -70.5t-65 -36.5h-61l2 361h-23h-41h-2zM143 152l930 -2q44 -2 75 -22.5t30 -57.5v-64l-539 -4h-29
h-45h-41h-2l-272 2q-35 0 -70.5 21t-36.5 65v62z" />
    <glyph glyph-name="acute" unicode="&#xb4;" horiz-adv-x="532" 
d="M467 1536q8 -8 18.5 -18t17 -16t13.5 -14t10 -13t5 -11t0 -11.5t-7 -10.5l-217 -215q-14 -18 -51 -13t-63 31l-50 49l252 254q14 14 29.5 13t23 -7t19.5 -18z" />
    <glyph glyph-name="paragraph" unicode="&#xb6;" horiz-adv-x="1112" 
d="M977 1380v-1685q76 0 105.5 18t29.5 86v1700h-553q-74 0 -136 -19t-104 -50t-74.5 -72t-51 -81.5t-30.5 -83t-16 -72.5t-4 -54q0 -34 9 -76t38.5 -97.5t74.5 -99.5t126.5 -75t186.5 -31v-989l16 -1q16 0 21.5 0.5t21.5 3t24 6.5t20 12.5t18 20t11 30t5 41.5v1568h262z
" />
    <glyph glyph-name="periodcentered" unicode="&#xb7;" horiz-adv-x="309" 
d="M250 772h15.5t14.5 -2t15.5 -6t9 -12.5t4.5 -20.5v-194h-71q-36 0 -65.5 21.5t-29.5 45.5v141q0 7 2.5 12.5t8 8.5t11.5 4.5t17 2t19 0.5t23.5 -0.5t25.5 -0.5z" />
    <glyph glyph-name="cedilla" unicode="&#xb8;" horiz-adv-x="1597" 
 />
    <glyph glyph-name="guillemotright" unicode="&#xbb;" horiz-adv-x="1245" 
d="M731 578q-13 -14 -26 -21l-357 -197q-43 -19 -81.5 -13t-64.5 27.5t-28 45.5l2 2l332 203l-363 186h-2q2 25 28 46.5t64 27.5t82 -13l385 -178v-2l9 -4q29 -16 39 -45q4 -6 4 -18q0 -10 -6 -25q-2 -5 -9 -12.5t-8 -9.5zM1245 627v-2q0 -10 -6 -25q-1 -2 -16 -22
q-12 -12 -27 -21l-356 -197q-43 -19 -81.5 -13t-64.5 27.5t-28 45.5l2 2l331 203l-362 186h-2q2 25 28 46.5t64 27.5t82 -13l385 -178v-2l8 -4q29 -16 39 -45q4 -6 4 -16z" />
    <glyph glyph-name="questiondown" unicode="&#xbf;" horiz-adv-x="952" 
d="M657 971h-15.5t-14.5 2t-15.5 6t-9 12.5t-4.5 20.5v194h72q36 0 65 -21.5t29 -45.5v-142q0 -7 -2.5 -12.5t-8 -8t-11.5 -4t-16.5 -2t-19.5 -0.5t-23.5 0.5t-25.5 0.5zM582 -408h-21q-116 0 -213 59t-151 156.5t-54 210.5q0 95 25.5 166t66 112t90 72.5t98.5 59.5t89.5 61
t66 88.5t25.5 131.5v163h55q50 0 71.5 -28.5t23.5 -61.5v-59q0 -79 -16 -142t-43 -104.5t-61.5 -74.5t-73 -57t-77.5 -46t-73.5 -47t-61.5 -55t-43 -75t-16 -102q0 -66 25.5 -121t66.5 -90.5t93.5 -55t105 -19.5t103 21.5t85.5 62.5q6 7 16 15t27 17t38.5 9t41.5 -13l61 -43
q-128 -211 -370 -211z" />
    <glyph glyph-name="Egrave" unicode="&#xc8;" horiz-adv-x="1185" 
d="M639 1718l-217 215q-5 5 -7 10.5t0 11.5t5 11.5t10 13.5t13 14t17.5 16.5t18.5 17.5q12 12 19.5 18t23 7t29.5 -13l252 -254l-49 -49q-26 -26 -63.5 -31.5t-51.5 12.5zM307 1483v-473h676q39 0 65.5 -24.5t26.5 -57.5v-82h-768v-694h879v-82q0 -24 -26.5 -45t-61.5 -21
h-881q-25 0 -49.5 22t-24.5 44v1495q0 20 24.5 41.5t49.5 21.5h881q35 0 61.5 -20t26.5 -43v-82h-879z" />
    <glyph glyph-name="Eacute" unicode="&#xc9;" horiz-adv-x="1185" 
d="M815 1933l-217 -215q-14 -18 -51.5 -12.5t-63.5 31.5l-49 49l252 254q14 14 29.5 13t23 -7t19.5 -18q7 -7 18.5 -17.5t17.5 -16.5t13 -14t10 -13.5t5 -11.5t0 -11.5t-7 -10.5zM307 1483v-473h676q39 0 65.5 -24.5t26.5 -57.5v-82h-768v-694h879v-82q0 -24 -26.5 -45
t-61.5 -21h-881q-25 0 -49.5 22t-24.5 44v1495q0 20 24.5 41.5t49.5 21.5h881q35 0 61.5 -20t26.5 -43v-82h-879z" />
    <glyph glyph-name="Ecircumflex" unicode="&#xca;" horiz-adv-x="1185" 
d="M379 1710h-47q-12 0 -19 4.5t-9.5 14t-3.5 16t0 19t1 14.5q0 16 14 30l271 201q28 21 67 21q40 0 68 -21l270 -201q15 -15 15 -30v-8.5v-10.5t-1 -11t-3 -12t-6 -9.5t-9 -8.5t-13.5 -5.5t-19.5 -2.5h-32q-33 0 -54 16l-217 162q-8 0 -16 -5.5t-53 -40.5q-22 -17 -37 -29
t-47 -36.5t-66 -50.5q-21 -16 -53 -16zM307 1483v-473h676q39 0 65.5 -24.5t26.5 -57.5v-82h-768v-694h879v-82q0 -24 -26.5 -45t-61.5 -21h-881q-25 0 -49.5 22t-24.5 44v1495q0 20 24.5 41.5t49.5 21.5h881q35 0 61.5 -20t26.5 -43v-82h-879z" />
    <glyph glyph-name="Edieresis" unicode="&#xcb;" horiz-adv-x="1185" 
d="M575 1720h-71q-36 0 -65 22t-29 46v182q0 7 2.5 12.5t8 8.5t11 4.5t16.5 2t19 0.5t23.5 -0.5t25.5 -0.5h15.5t14.5 -2t15.5 -6t9 -12.5t4.5 -20.5v-236zM866 1720h-71q-36 0 -65.5 22t-29.5 46v182q0 7 2.5 12.5t8 8.5t11.5 4.5t17 2t19 0.5t23.5 -0.5t25.5 -0.5h15.5
t14.5 -2t15.5 -6t9 -12.5t4.5 -20.5v-236zM307 1483v-473h676q39 0 65.5 -24.5t26.5 -57.5v-82h-768v-694h879v-82q0 -24 -26.5 -45t-61.5 -21h-881q-25 0 -49.5 22t-24.5 44v1495q0 20 24.5 41.5t49.5 21.5h881q35 0 61.5 -20t26.5 -43v-82h-879z" />
    <glyph glyph-name="Icircumflex" unicode="&#xce;" horiz-adv-x="849" 
d="M850 1716q0 -1 0.5 -10t0 -12.5t-2 -12t-5 -12.5t-8.5 -9.5t-14.5 -8t-21.5 -2.5h-33q-32 0 -53 16l-217 162q-11 0 -77 -52q-76 -59 -143 -110q-21 -16 -53 -16h-47q-12 0 -19 4.5t-9.5 14t-3.5 16t0 18.5t1 14q0 16 15 31l270 201q27 20 68 20q40 0 67 -20l271 -201
q14 -14 14 -31zM350 1585h281q28 0 42.5 -16.5t14.5 -34.5v-66v-28h-113l-4 -1290h43h9q18 0 26 -0.5t17.5 -4t13.5 -12.5t4 -24v-89q0 -12 -2 -14t-12 -2h-359q-14 0 -17 7.5t-3 33.5v64q0 22 8.5 31.5t19 10.5t41.5 1h46l10 1288h-125v28l2 72q0 18 18.5 31.5t38.5 13.5z
" />
    <glyph glyph-name="Idieresis" unicode="&#xcf;" horiz-adv-x="544" 
d="M309 1651h-71q-36 0 -65.5 21.5t-29.5 45.5v183q0 7 2.5 12.5t8 8t11.5 4t16.5 2t19.5 0.5t23.5 -0.5t25.5 -0.5h15.5t14.5 -2t15.5 -6t9 -12.5t4.5 -20.5v-235zM539 1651h-72q-36 0 -65 21.5t-29 45.5v183q0 7 2.5 12.5t8 8t11 4t16.5 2t19.5 0.5t23 -0.5t25.5 -0.5
h12.5t12.5 -1t14 -3.5t10 -6.5t8.5 -12t2.5 -18v-235zM207 1585h280q28 0 43 -16.5t15 -34.5v-66v-28h-113l-4 -1290h43h9q18 0 26 -0.5t17.5 -4t13.5 -12.5t4 -24v-89q0 -12 -2 -14t-13 -2h-358q-14 0 -17.5 8t-3.5 33v64q0 17 3 26t15 12.5t19.5 4t32.5 0.5h45l10 1288
h-125v28l3 72q0 18 18.5 31.5t38.5 13.5z" />
    <glyph glyph-name="Ocircumflex" unicode="&#xd4;" horiz-adv-x="1159" 
d="M1006 1778v-8.5v-10.5t-1 -11t-3 -12t-6 -9.5t-9 -8.5t-13.5 -5.5t-19.5 -2.5h-32q-33 0 -54 16l-217 162q-8 0 -16 -5.5t-53 -40.5q-22 -17 -37 -29t-47 -36.5t-66 -50.5q-21 -16 -53 -16h-47q-12 0 -19 4.5t-9.5 14t-3.5 16t0 19t1 14.5q0 16 14 30l271 201
q28 21 67 21q40 0 68 -21l270 -201q15 -15 15 -30zM643 1669h16q131 0 250.5 -66t182.5 -173q67 -113 67 -240v-733q0 -124 -68.5 -240.5t-183.5 -185.5q-117 -68 -248 -68h-16q-136 0 -252.5 69t-179.5 181q-68 118 -68 244v733q0 130 66 240.5t182 175.5q116 63 252 63z
M659 1511h-16q-84 0 -156 -42t-120 -117q-43 -73 -43 -162v-733q0 -90 43.5 -165t117.5 -118q72 -45 158 -45h16q87 0 160.5 43t120.5 121q41 74 41 164v733q0 89 -43 161t-119 117q-74 43 -160 43z" />
    <glyph glyph-name="multiply" unicode="&#xd7;" horiz-adv-x="1196" 
d="M1196 223l-176 2q-33 0 -57 27l-293 264l-293 -264q-24 -27 -58 -27l-176 -2l418 424l-393 410q-7 10 -7.5 17.5t2 10.5t11.5 5t13.5 2h14.5h5h115l344 -340l4 -4l4 4l344 340h115h5h14.5t13.5 -2t11 -5t2 -10.5t-8 -17.5l-393 -410z" />
    <glyph glyph-name="Ucircumflex" unicode="&#xdb;" horiz-adv-x="1165" 
d="M1001 1778q0 -1 0.5 -10t0 -12.5t-2 -12.5t-5 -13t-8.5 -9.5t-14.5 -8t-21.5 -2.5h-32q-33 0 -54 16l-217 162q-8 0 -16 -5.5t-53 -40.5q-22 -17 -37 -29t-47 -36.5t-66 -50.5q-21 -16 -53 -16h-47q-12 0 -19 4.5t-9.5 14t-3.5 16t0 19t1 14.5q0 16 14 30l271 201
q28 21 67 21q40 0 68 -21l270 -201q14 -14 14 -30zM983 1630h88q40 0 67 -24.5t27 -59.5v-1075q0 -134 -69 -249.5t-185 -180.5q-119 -66 -249 -66h-17q-138 0 -255 67t-179 177q-68 118 -68 252v1075q0 34 26 59t64 25h93v-1159q0 -143 93 -225t226 -82h17q63 0 114.5 14
t84.5 35t57 51.5t36 57.5t19 59.5t8.5 51t1.5 38.5v1159z" />
    <glyph glyph-name="egrave" unicode="&#xe8;" horiz-adv-x="1081" 
d="M618 1186l-217 215q-5 5 -7 10.5t0 11.5t5 11t10.5 13t14 14t17 16t18.5 18q13 13 19.5 18.5t22 6.5t29.5 -13l252 -254l-49 -49q-26 -26 -63.5 -31t-51.5 13zM627 1098h16q202 -15 320 -141.5t118 -319.5v-225q-2 -9 -7 -10q-8 -3 -32 -3h-741q4 -29 14 -61.5t34 -75
t58.5 -75t92 -55.5t127.5 -23q83 0 141 12.5t79 25t46.5 36.5t34.5 30q8 6 16.5 9t17 2.5t15 -1t15 -6t13 -7.5t13.5 -10t11.5 -10t10.5 -11l9 -9q-69 -75 -119 -111q-45 -35 -123.5 -62.5t-165.5 -27.5h-14q-125 0 -240 64q-109 62 -176.5 169t-67.5 214v221q0 120 66 231
q62 103 176.5 166.5t241.5 63.5zM928 549v88q1 57 -14.5 108.5t-48 96.5t-90.5 76t-136 40h-12q-83 0 -158 -45q-78 -44 -120 -116t-42 -160v-88h621z" />
    <glyph glyph-name="eacute" unicode="&#xe9;" horiz-adv-x="1081" 
d="M774 1401l-217 -215q-14 -18 -51.5 -13t-63.5 31l-49 49l252 254q14 14 29.5 13t23 -7t19.5 -18q8 -8 18.5 -18t17 -16t13.5 -14t10 -13t5 -11t0 -11.5t-7 -10.5zM627 1098h16q202 -15 320 -141.5t118 -319.5v-225q-2 -9 -7 -10q-8 -3 -32 -3h-741q4 -29 14 -61.5t34 -75
t58.5 -75t92 -55.5t127.5 -23q83 0 141 12.5t79 25t46.5 36.5t34.5 30q8 6 16.5 9t17 2.5t15 -1t15 -6t13 -7.5t13.5 -10t11.5 -10t10.5 -11l9 -9q-69 -75 -119 -111q-45 -35 -123.5 -62.5t-165.5 -27.5h-14q-125 0 -240 64q-109 62 -176.5 169t-67.5 214v221q0 120 66 231
q62 103 176.5 166.5t241.5 63.5zM928 549v88q1 57 -14.5 108.5t-48 96.5t-90.5 76t-136 40h-12q-83 0 -158 -45q-78 -44 -120 -116t-42 -160v-88h621z" />
    <glyph glyph-name="ecircumflex" unicode="&#xea;" horiz-adv-x="1081" 
d="M379 1157h-47q-12 0 -19 4.5t-9.5 14t-3.5 16t0 19t1 14.5q0 16 14 30l271 201q28 21 67 21q40 0 68 -21l270 -201q15 -15 15 -30v-8.5v-10.5t-1 -11t-3 -12t-6 -9.5t-9 -8.5t-13.5 -5.5t-19.5 -2.5h-32q-31 0 -54 17l-217 161q-8 0 -17.5 -6.5t-61.5 -46.5
q-75 -58 -140 -108q-23 -17 -53 -17zM627 1098h16q202 -15 320 -141.5t118 -319.5v-225q-2 -9 -7 -10q-8 -3 -32 -3h-741q4 -29 14 -61.5t34 -75t58.5 -75t92 -55.5t127.5 -23q83 0 141 12.5t79 25t46.5 36.5t34.5 30q8 6 16.5 9t17 2.5t15 -1t15 -6t13 -7.5t13.5 -10
t11.5 -10t10.5 -11l9 -9q-69 -75 -119 -111q-45 -35 -123.5 -62.5t-165.5 -27.5h-14q-125 0 -240 64q-109 62 -176.5 169t-67.5 214v221q0 120 66 231q62 103 176.5 166.5t241.5 63.5zM928 549v88q1 57 -14.5 108.5t-48 96.5t-90.5 76t-136 40h-12q-83 0 -158 -45
q-78 -44 -120 -116t-42 -160v-88h621z" />
    <glyph glyph-name="edieresis" unicode="&#xeb;" horiz-adv-x="1081" 
d="M555 1159h-72q-36 0 -65 22t-29 46v182q0 7 2.5 12.5t8 8.5t11.5 4.5t17 2t19 0.5t23.5 -0.5t25.5 -0.5h15.5t14.5 -2t15.5 -6t9 -12.5t4.5 -20.5v-236zM846 1159h-72q-36 0 -65 22t-29 46v182q0 7 2.5 12.5t8 8.5t11 4.5t16.5 2t19 0.5t23.5 -0.5t25.5 -0.5h12.5
t12.5 -1t14 -3.5t10 -6.5t8.5 -12t2.5 -18v-236zM627 1098h16q202 -15 320 -141.5t118 -319.5v-225q-2 -9 -7 -10q-8 -3 -32 -3h-741q4 -29 14 -61.5t34 -75t58.5 -75t92 -55.5t127.5 -23q83 0 141 12.5t79 25t46.5 36.5t34.5 30q8 6 16.5 9t17 2.5t15 -1t15 -6t13 -7.5
t13.5 -10t11.5 -10t10.5 -11l9 -9q-69 -75 -119 -111q-45 -35 -123.5 -62.5t-165.5 -27.5h-14q-125 0 -240 64q-109 62 -176.5 169t-67.5 214v221q0 120 66 231q62 103 176.5 166.5t241.5 63.5zM928 549v88q1 57 -14.5 108.5t-48 96.5t-90.5 76t-136 40h-12q-83 0 -158 -45
q-78 -44 -120 -116t-42 -160v-88h621z" />
    <glyph glyph-name="icircumflex" unicode="&#xee;" horiz-adv-x="849" 
d="M850 1307q0 -1 0.5 -10t0 -12.5t-2 -12.5t-5 -13t-8.5 -9.5t-14.5 -8t-21.5 -2.5h-33q-32 0 -53 16l-217 162q-11 0 -77 -52q-76 -59 -143 -110q-21 -16 -53 -16h-47q-12 0 -19 4.5t-9.5 14t-3.5 16t0 19t1 14.5q0 15 15 30l270 201q28 21 68 21q39 0 67 -21l271 -201
q14 -14 14 -30zM549 1100v-1100h-70q-39 0 -66.5 26t-27.5 60v946q0 24 29 46t65 22h70z" />
    <glyph glyph-name="idieresis" unicode="&#xef;" horiz-adv-x="518" 
d="M250 1538h15.5t14.5 -2t15.5 -6t9 -12.5t4.5 -20.5v-235h-71q-36 0 -65.5 21.5t-29.5 45.5v182q0 7 2.5 12.5t8 8.5t11.5 4.5t17 2t19 0.5t23.5 -0.5t25.5 -0.5zM459 1538h15.5t14.5 -2t15.5 -6t9 -12.5t4.5 -20.5v-235h-72q-36 0 -65 21.5t-29 45.5v182q0 7 2.5 12.5
t8 8.5t11.5 4.5t17 2t19 0.5t23.5 -0.5t25.5 -0.5zM416 1100v-1098h-70q-39 0 -66.5 26t-27.5 60v944q0 24 29 46t65 22h70z" />
    <glyph glyph-name="ocircumflex" unicode="&#xf4;" horiz-adv-x="1159" 
d="M1006 1225v-8.5v-10.5t-1 -11t-3 -12t-6 -9.5t-9 -8.5t-13.5 -5.5t-19.5 -2.5h-32q-31 0 -54 17l-217 161q-8 0 -17.5 -6.5t-61.5 -46.5q-75 -58 -140 -108q-23 -17 -53 -17h-47q-12 0 -19 4.5t-9.5 14t-3.5 16t0 19t1 14.5q0 16 14 30l271 201q28 21 67 21q40 0 68 -21
l270 -201q15 -15 15 -30zM643 1110h16q130 0 250 -66.5t183 -173.5q67 -113 67 -239v-156q0 -124 -68.5 -240.5t-183.5 -185.5q-115 -67 -248 -67h-16q-137 0 -253 69t-179 180q-68 118 -68 244v156q0 130 66 240.5t182 175.5q116 63 252 63zM664 965h-21
q-139 0 -235.5 -103.5t-96.5 -230.5v-156q0 -95 53 -175.5t129 -122.5t150 -42h16q94 0 172 51.5t119 129t41 159.5v156q0 146 -99 241.5t-228 92.5z" />
    <glyph glyph-name="divide" unicode="&#xf7;" 
d="M748 782h-72q-36 0 -65 22t-29 46v141q0 7 2.5 12.5t8 8.5t11 4.5t16.5 2t19 0.5t23.5 -0.5t25.5 -0.5h12.5t12.5 -1t14 -3.5t10 -6.5t8.5 -12t2.5 -18v-195zM143 606l930 -2q44 -2 75 -22.5t30 -57.5v-63l-539 -4h-29h-45h-41h-2l-272 2q-35 0 -70.5 21t-36.5 65v61z
M688 295h12.5t12.5 -1t14 -3.5t10 -6.5t8.5 -12t2.5 -18v-195h-72q-36 0 -65 22t-29 46v141q0 7 2.5 12.5t8 8.5t11 4.5t16.5 2t19 0.5t23.5 -0.5t25.5 -0.5z" />
    <glyph glyph-name="ucircumflex" unicode="&#xfb;" horiz-adv-x="1110" 
d="M985 1225q0 -1 0.5 -10t0 -12.5t-2 -12.5t-5 -13t-8.5 -9.5t-14.5 -8t-21.5 -2.5h-33q-30 0 -53 17l-217 161q-8 0 -17.5 -6.5t-61.5 -46.5q-75 -58 -140 -108q-23 -17 -54 -17h-47q-12 0 -19 4.5t-9.5 14t-3 16.5t0.5 18.5t1 14.5q0 16 14 30l270 201q28 21 68 21
q39 0 67 -21l271 -201q14 -14 14 -30zM1104 1094l6 -656q0 -89 -31 -180q-17 -45 -43 -85t-68 -80.5t-107 -70t-146 -42.5q-44 -7 -88 -7q-45 0 -92 7q-155 26 -232 100q-160 142 -160 358l7 656h77q37 0 61.5 -24t24.5 -56l-6 -576q-1 -154 83 -233.5t231 -79.5
q159 0 243 78q82 82 82 235l-6 576q0 32 24.5 56t61.5 24h78z" />
    <glyph glyph-name="circumflex" unicode="&#x2c6;" horiz-adv-x="849" 
d="M850 1225q0 -1 0.5 -10t0 -12.5t-2 -12.5t-5 -13t-8.5 -9.5t-14.5 -8t-21.5 -2.5h-33q-30 0 -53 17l-217 161q-9 0 -20.5 -8t-68.5 -52q-72 -56 -131 -101q-23 -17 -53 -17h-47q-12 0 -19 4.5t-9.5 14t-3.5 16t0 19t1 14.5q0 15 15 30l270 201q28 21 68 21q39 0 67 -21
l271 -201q14 -14 14 -30z" />
    <glyph glyph-name="caron" unicode="&#x2c7;" horiz-adv-x="849" 
d="M850 1409q0 -17 -14 -31l-271 -200q-28 -21 -67 -21q-40 0 -68 21l-270 200q-15 15 -15 31q0 2 -1 14.5t0 19t3.5 16t9.5 14t19 4.5h47q30 0 53 -17q67 -51 143 -110q49 -39 59 -45.5t18 -6.5q6 0 217 162q23 17 53 17h33q12 0 21.5 -2.5t14.5 -8t8.5 -9.5t5 -13t2 -12.5
t0 -12.5t-0.5 -10z" />
    <glyph glyph-name="breve" unicode="&#x2d8;" horiz-adv-x="804" 
d="M651 1614h150q11 -44 -8 -94t-60 -92.5t-109 -71t-147 -29.5h-6q-73 1 -140.5 30.5t-110.5 72.5t-64 93.5t-9 90.5h148q4 -37 21 -64.5t36.5 -40.5t46 -21t41.5 -9.5t31 -1.5h6q16 0 32 1.5t43 9.5t47 21t35.5 40.5t16.5 64.5z" />
    <glyph glyph-name="dotaccent" unicode="&#x2d9;" horiz-adv-x="309" 
d="M250 1436h15.5t14.5 -2t15.5 -6t9 -12.5t4.5 -20.5v-236h-71q-36 0 -65.5 22t-29.5 46v182q0 7 2.5 12.5t8 8.5t11.5 4.5t17 2t19 0.5t23.5 -0.5t25.5 -0.5z" />
    <glyph glyph-name="ring" unicode="&#x2da;" horiz-adv-x="567" 
d="M332 1499h47q75 0 131.5 -55.5t56.5 -124.5v-145q0 -69 -56.5 -125t-131.5 -56h-47q-73 0 -131 56.5t-58 124.5v145q0 68 58 124t131 56zM379 1360h-47q-11 0 -21 -11.5t-10 -29.5v-145q0 -18 9 -28.5t22 -10.5h47q14 0 23.5 10.5t9.5 28.5v145q0 18 -10 29.5t-23 11.5z
" />
    <glyph glyph-name="ogonek" unicode="&#x2db;" horiz-adv-x="1597" 
 />
    <glyph glyph-name="hungarumlaut" unicode="&#x2dd;" horiz-adv-x="665" 
d="M326 1436q40 0 46 -14q5 -10 -1 -27l-84 -236h-72q-36 0 -57.5 22t-12.5 46l64 182q3 7 7 12.5t11 8.5t13 4.5t17.5 2t19.5 0.5t23.5 -0.5t25.5 -0.5zM616 1436q41 0 47 -14q5 -10 -1 -27l-84 -236h-72q-36 0 -57.5 22t-12.5 46l64 182q3 7 7 12.5t10.5 8.5t13 4.5
t17.5 2t19 0.5t23.5 -0.5t25.5 -0.5z" />
    <glyph glyph-name="endash" unicode="&#x2013;" horiz-adv-x="864" 
d="M143 604l617 -2q44 -2 74.5 -22.5t29.5 -57.5v-63l-219 -2q-10 -2 -35 -2h-59h-27h-2l-272 2q-35 0 -70.5 21t-36.5 65v61z" />
    <glyph glyph-name="emdash" unicode="&#x2014;" horiz-adv-x="1546" 
d="M143 606l1299 -2q44 -2 74.5 -22.5t29.5 -57.5v-63l-911 -4h-25h-86h-2l-272 2q-35 0 -70.5 21t-36.5 65v61z" />
    <glyph glyph-name="quoteleft" unicode="&#x2018;" horiz-adv-x="319" 
d="M219 1432q46 0 73 -14.5t27 -57.5v-150q0 -8 -2.5 -13.5t-8.5 -8.5t-12 -4.5t-17.5 -2t-20 -0.5t-24.5 0.5t-27 0.5h-16.5t-16 2.5t-16.5 6.5t-10 13.5t-5 22.5v205q0 51 24.5 61t111.5 10h10h9.5h10.5v-12q0 -10 -11 -16.5t-26 -6.5q-41 0 -47 -4.5t-6 -31.5z" />
    <glyph glyph-name="quoteright" unicode="&#x2019;" horiz-adv-x="319" 
d="M256 1503h16.5t16 -2.5t16.5 -6.5t9.5 -13.5t4.5 -22.5v-205q0 -51 -24 -61t-111 -10h-30v12q0 10 10.5 16.5t25.5 6.5q42 0 48 4.5t6 31.5q-47 0 -74 14.5t-27 57.5v150q0 8 2.5 13.5t8.5 8.5t12.5 4.5t18 2t20 0.5t24.5 -0.5t27 -0.5z" />
    <glyph glyph-name="quotesinglbase" unicode="&#x201a;" horiz-adv-x="317" 
d="M256 250q18 0 27.5 -1t21.5 -11.5t12 -32.5v-205q0 -22 -5 -35.5t-11 -21.5t-28 -11t-37.5 -3.5t-57.5 -0.5h-8.5h-8.5h-9v13q0 22 36 22q41 0 47.5 5t6.5 32q-46 0 -72.5 14.5t-26.5 57.5v149q0 8 2.5 13.5t8.5 8.5t12 5t17.5 2.5t20 0.5t25 -0.5t27.5 -0.5z" />
    <glyph glyph-name="quotedblleft" unicode="&#x201c;" horiz-adv-x="577" 
d="M207 1503q11 0 27 0.5t24.5 0.5t20 -0.5t17.5 -2t12 -4.5t8.5 -8.5t2.5 -13.5v-150q0 -43 -27 -57.5t-73 -14.5v-6q0 -22 6.5 -26t46.5 -4q15 0 26 -6.5t11 -16.5v-12h-30q-90 -1 -111 10q-25 14 -25 61v205q0 22 12.5 32.5t22 11.5t29.5 1zM578 1475v-150
q0 -43 -26.5 -57.5t-72.5 -14.5v-6q0 -22 6.5 -26t46.5 -4q15 0 26 -6.5t11 -16.5v-12q-108 0 -127 5q-33 8 -38 44q-1 10 -1 22v205q0 13 5 22.5t10 13.5t16 6.5t15 2.5h16q11 0 27.5 0.5t25 0.5t20 -0.5t17.5 -2t12 -4.5t8.5 -8.5t2.5 -13.5z" />
    <glyph glyph-name="quotedblright" unicode="&#x201d;" horiz-adv-x="577" 
d="M256 1503q18 0 27.5 -1t21.5 -11.5t12 -32.5v-205q0 -51 -24 -61t-111 -10h-30v12q0 10 10.5 16.5t25.5 6.5q42 0 48 4.5t6 31.5q-46 0 -72.5 14.5t-26.5 57.5v150q0 8 2.5 13.5t8.5 8.5t12 4.5t17.5 2t20 0.5t25 -0.5t27.5 -0.5zM514 1503h16.5t16 -2.5t16.5 -6.5
t10 -13.5t5 -22.5v-205q0 -51 -24.5 -61t-111.5 -10h-10h-9.5h-10.5v12q0 10 11 16.5t26 6.5q41 0 47 4.5t6 31.5q-47 0 -74 14.5t-27 57.5v150q0 8 2.5 13.5t8.5 8.5t12.5 4.5t18 2t20 0.5t24.5 -0.5t27 -0.5z" />
    <glyph glyph-name="quotedblbase" unicode="&#x201e;" horiz-adv-x="577" 
d="M256 250q18 0 27.5 -1t21.5 -11.5t12 -32.5v-205q0 -22 -5 -35.5t-11 -21.5t-28 -11t-37.5 -3.5t-57.5 -0.5h-8.5h-8.5h-9v13q0 22 36 22q41 0 47.5 5t6.5 32q-46 0 -72.5 14.5t-26.5 57.5v149q0 8 2.5 13.5t8.5 8.5t12 5t17.5 2.5t20 0.5t25 -0.5t27.5 -0.5zM514 250
h16.5t16 -2.5t16.5 -6.5t10 -13.5t5 -22.5v-205q0 -36 -14.5 -51.5t-37.5 -18t-88 -2.5h-26v13q0 22 37 22q41 0 47 4.5t6 32.5q-47 0 -74 14.5t-27 57.5v149q0 8 2.5 13.5t8.5 8.5t12 5t18 2.5t20.5 0.5t25 -0.5t26.5 -0.5z" />
    <glyph glyph-name="dagger" unicode="&#x2020;" 
d="M733 1094h340q44 -2 75 -22.5t30 -57.5v-64l-443 -2v-45v-18l-2 -1012q0 -35 -21 -70t-65 -36h-61l2 1101v21v57h-23h-41h-2l-272 2q-35 0 -70.5 21t-36.5 65v62l445 -2v258q2 44 22.5 74.5t57.5 29.5h63z" />
    <glyph glyph-name="daggerdbl" unicode="&#x2021;" 
d="M733 272h340q44 -2 75 -22t30 -57v-64l-445 -2v-254q0 -35 -21 -70t-65 -36h-61v358h-21h-41h-2l-272 2q-35 0 -70.5 21t-36.5 65v61l443 -2l2 596v21v57h-23h-41h-2l-272 2q-35 0 -70.5 21t-36.5 65v62l445 -2v258q2 44 22.5 74.5t57.5 29.5h63l2 -362h340
q44 -2 75 -22.5t30 -57.5v-64l-443 -2v-45v-18z" />
    <glyph glyph-name="bullet" unicode="&#x2022;" horiz-adv-x="679" 
d="M412 965q109 0 188.5 -78.5t79.5 -181.5t-79.5 -182t-188.5 -79q-107 0 -188 79.5t-81 181.5t81 181t188 79z" />
    <glyph glyph-name="ellipsis" unicode="&#x2026;" horiz-adv-x="899" 
d="M250 236h15.5t14.5 -2t15.5 -6t9 -12.5t4.5 -20.5v-195h-71q-36 0 -65.5 22t-29.5 46v141q0 7 2.5 12.5t8 8.5t11.5 4.5t17 2t19 0.5t23.5 -0.5t25.5 -0.5zM537 236h15.5t14.5 -2t15.5 -6t9 -12.5t4.5 -20.5v-195h-72q-36 0 -65 22t-29 46v141q0 7 2.5 12.5t8 8.5
t11.5 4.5t17 2t19 0.5t23.5 -0.5t25.5 -0.5zM840 236h15.5t14.5 -2t15.5 -6t9 -12.5t4.5 -20.5v-195h-72q-36 0 -65 22t-29 46v141q0 7 2.5 12.5t8 8.5t11.5 4.5t17 2t19 0.5t23.5 -0.5t25.5 -0.5z" />
    <glyph glyph-name="perthousand" unicode="&#x2030;" horiz-adv-x="1634" 
d="M543 768h-47q-73 0 -131 56t-58 124v269q0 68 58 124t131 56h47q75 0 131.5 -55.5t56.5 -124.5v-269q0 -69 -56.5 -124.5t-131.5 -55.5zM1415 1393l-438 -549q-7 -13 -14 -23l-619 -772q-22 -24 -48 -36.5t-71 -12.5h-102l506 637q12 18 14 20l551 686q23 24 48.5 37
t70.5 13h102zM465 1217v-269q0 -18 9 -28.5t22 -10.5h47q14 0 23 10.5t9 28.5v269q0 18 -9.5 29t-22.5 11h-47q-11 0 -21 -11t-10 -29zM948 582h47q74 0 131.5 -55.5t57.5 -125.5v-266q0 -70 -57.5 -125t-131.5 -55h-47q-74 0 -131 55t-57 125v266q0 71 57.5 126t130.5 55z
M1397 582h47q74 0 131 -55.5t57 -125.5v-266q0 -70 -57 -125t-131 -55h-47q-74 0 -131.5 55t-57.5 125v266q0 70 57.5 125.5t131.5 55.5zM1028 135v266q0 18 -10 29.5t-23 11.5h-47q-13 0 -21.5 -11t-8.5 -30v-266q0 -19 8.5 -30t21.5 -11h47q13 0 23 11.5t10 29.5z
M1477 135v266q0 18 -10 29.5t-23 11.5h-47q-13 0 -22 -11t-9 -30v-266q0 -19 9 -30t22 -11h47q13 0 23 11.5t10 29.5z" />
    <glyph glyph-name="guilsinglleft" unicode="&#x2039;" horiz-adv-x="835" 
d="M834 852l-445 -227l434 -244l2 -2q-2 -24 -28 -45.5t-64.5 -27.5t-81.5 13l-458 238q-15 9 -27 21q-15 20 -16 22q-7 18 -7 25v2q0 6 7 20q8 19 18 27q8 8 25 18l2 2l467 219q44 19 81.5 13t63.5 -27.5t27 -46.5z" />
    <glyph glyph-name="guilsinglright" unicode="&#x203a;" horiz-adv-x="835" 
d="M836 627v-2q0 -7 -7 -25q-1 -2 -16 -22q-12 -12 -27 -21l-458 -238q-43 -19 -81.5 -13t-64.5 27.5t-28 45.5l2 2l434 244l-445 227h-2q2 25 28 46.5t64 27.5t82 -13l467 -219v-2l9 -4q28 -16 38 -45q5 -8 5 -16z" />
    <glyph glyph-name="fraction" unicode="&#x2044;" horiz-adv-x="1505" 
d="M997 842l-14 -21l-618 -772q-22 -24 -48 -36.5t-71 -12.5h-103l508 639l13 18l620 773q22 24 48 36.5t71 12.5h102z" />
    <glyph glyph-name="Euro" unicode="&#x20ac;" horiz-adv-x="1284" 
d="M842 1495q180 0 280 -65q60 -39 103 -84l20 -27h2q19 -29 19 -53q0 -28 -25 -47l-80 -62q-42 105 -119 152t-198 47q-173 0 -260 -152q-43 -73 -43 -186v-144h346q33 0 57.5 -19t24.5 -56v-21v-47h-428v-41h223q33 0 57.5 -19.5t24.5 -56.5v-20v-47h-305q5 -315 157 -404
v-2q67 -45 146 -45q63 0 124 19t103.5 46t75.5 54t50 44.5t17 16.5q70 -70 70 -86q0 -26 -29 -55q-82 -83 -193 -132.5t-218 -49.5q-124 0 -233.5 66.5t-168.5 173.5q-33 57 -47.5 132t-15.5 222h-146q-30 0 -60 16t-30 51v76h236v41h-64q-19 0 -32 1.5t-31 7.5t-27.5 21
t-9.5 38v75h164v144q0 132 57 242.5t162 173.5q103 61 244 61z" />
    <glyph glyph-name="trademark" unicode="&#x2122;" horiz-adv-x="2146" 
d="M700 1493h289q13 0 24 -8.5t11 -16.5v-32h-147v-525h-31q-13 0 -24 10.5t-11 22.5v492h-147v32q0 9 11.5 17t24.5 8zM1395 1493h49q14 0 24.5 -15.5t10.5 -41.5v-492q0 -12 -10 -22.5t-23 -10.5h-35l2 445l-115 -420q-9 -25 -34 -25q-12 0 -22 7t-13 18l-111 410l2 -435
h-30q-13 0 -23 10.5t-10 22.5v492q0 31 17 44t36 13h27l127 -440z" />
    <glyph glyph-name="partialdiff" unicode="&#x2202;" horiz-adv-x="1597" 
 />
    <glyph glyph-name="emptyset" unicode="&#x2205;" horiz-adv-x="1173" 
d="M1106 870q68 -115 68 -239v-195q0 -124 -68.5 -240.5t-183.5 -185.5q-115 -67 -248 -67h-17q-48 0 -96 10l-26 -66l-111 47q-25 10 -32 31.5t5 46.5q-120 65 -186 176q-68 115 -68 240v195q0 124 68.5 240.5t183.5 185.5q115 67 248 67h16q49 0 97 -10l26 65l111 -47
q25 -10 32 -31t-5 -46q119 -65 186 -177zM453 178l256 780q-40 5 -50 5h-16l-33 -2q-144 -21 -235 -164q-49 -79 -49 -166v-195q0 -160 127 -258zM864 881l-256 -781q32 -4 49 -4h17l33 2q144 22 235 164q49 79 49 166v195q0 160 -127 258z" />
    <glyph glyph-name="product" unicode="&#x220f;" 
d="M143 1528l930 -2q44 -2 75 -22.5t30 -57.5v-64h-115l-2 -325v-1204q-2 -44 -22.5 -75t-57.5 -30h-63l-5 1282v23v28v58v2l2 239l-276 -2h-29h-45h-41h-2l-114 2l-2 -323v-1204q-2 -44 -22.5 -75t-57.5 -30h-64l-4 1282v23v28v58v2l2 239h-10q-35 0 -70.5 21t-36.5 65v62z
" />
    <glyph glyph-name="summation" unicode="&#x2211;" horiz-adv-x="1128" 
d="M322 1372h718q31 0 52.5 -26t21.5 -56v-22v-51l-620 -3l413 -493q19 -25 19 -51q0 -29 -25 -54l-481 -493l620 2q32 0 60 -27t28 -55v-23v-51l-899 -2q-24 0 -47.5 14.5t-31.5 32.5v2q-7 21 -7 29q0 28 25 53l561 578l-475 567q-18 24 -18 51q0 15 8 31v2q8 17 31.5 31
t46.5 14z" />
    <glyph glyph-name="minus" unicode="&#x2212;" 
d="M143 606l930 -2q44 -2 75 -22.5t30 -57.5v-63l-539 -4h-29h-45h-41h-2l-272 2q-35 0 -70.5 21t-36.5 65v61z" />
    <glyph glyph-name="radical" unicode="&#x221a;" horiz-adv-x="1511" 
d="M1444 1729l67 -33l-49 -135l-633 -1655h-73q-67 0 -105 94l-270 580l-180 -111q-12 19 -41 66q-21 28 -15.5 63.5t39.5 56.5l189 115q16 12 45 12q22 0 48 -12t36 -29l53 -108l-45 88l238 -508l532 1372l37 98h2q35 84 125 46z" />
    <glyph glyph-name="infinity" unicode="&#x221e;" horiz-adv-x="1480" 
d="M1098 1044h14q150 0 259.5 -107.5t109.5 -252.5v-160q0 -143 -109.5 -250.5t-259.5 -107.5h-14q-83 0 -158.5 37t-126.5 98q-51 -61 -127.5 -98t-159.5 -37h-16q-149 0 -258 107.5t-109 250.5v160q0 145 109 252.5t258 107.5h16q83 0 159.5 -37t127.5 -98q51 61 126.5 98
t158.5 37zM526 883h-16q-77 0 -134 -58.5t-57 -140.5v-160q0 -81 57.5 -139.5t133.5 -58.5h16q76 0 133.5 58.5t57.5 139.5v160q0 82 -57 140.5t-134 58.5zM1112 883h-14q-77 0 -134 -58.5t-57 -140.5v-160q0 -81 57.5 -139.5t133.5 -58.5h14q79 0 135 57.5t56 140.5v160
q0 83 -56.5 141t-134.5 58z" />
    <glyph glyph-name="integral" unicode="&#x222b;" horiz-adv-x="1597" 
 />
    <glyph glyph-name="approxequal" unicode="&#x2248;" horiz-adv-x="1054" 
d="M989 993q28 0 48 -31.5t17.5 -81.5t-36.5 -94q-26 -34 -100.5 -53.5t-131.5 -19.5q-48 0 -189 27.5t-200 27.5q-55 0 -79.5 -16.5t-24.5 -59.5v-55h-68q-36 0 -58 27.5t-23.5 61.5t3.5 65q10 30 24.5 52t35.5 35t37 21t43.5 10.5t39.5 3t39 0.5h15q63 0 217 -24.5
t213 -24.5q51 0 70.5 16.5t19.5 67.5v41q27 4 88 4zM989 625q28 0 48 -31.5t17.5 -81.5t-36.5 -94q-26 -34 -101 -54t-131 -20q-48 0 -189 27.5t-200 27.5q-55 0 -79.5 -16t-24.5 -59v-56h-68q-36 0 -58 27.5t-23.5 61.5t3.5 65q10 30 24.5 52.5t35.5 35t37.5 20.5t44 11
t40 3.5t38.5 0.5h14q63 0 217 -24.5t213 -24.5q51 0 70.5 16.5t19.5 67.5v41q27 4 88 4z" />
    <glyph glyph-name="notequal" unicode="&#x2260;" 
d="M659 420h414q44 -2 75 -22.5t30 -57.5v-64l-539 -4h-29h-2l-127 -356q-9 -22 -18.5 -36.5t-33 -29t-54.5 -14.5h-86l162 436l-201 2q-35 0 -70.5 21t-36.5 65v62l361 -2l86 231l4 11h-29h-41h-2l-272 2q-35 0 -70.5 21t-36.5 65v61l506 -2l156 418q21 50 41 66
q23 18 57 18h96l-192 -502h266q44 -2 75 -22.5t30 -57.5v-63l-426 -2l-86 -224z" />
    <glyph glyph-name="lessequal" unicode="&#x2264;" horiz-adv-x="1077" 
d="M166 680q-15 20 -16 22q-7 18 -7 25v2q0 10 4 16q10 30 39 46l9 4v2l692 383q44 19 82 13t64 -28t28 -47h-2l-672 -391l662 -428l2 -2q-2 -24 -28 -45t-64 -27t-82 13l-684 421q-15 9 -27 21zM1077 143v-61q-1 -44 -36 -65t-70 -21h-64l-6 -2h-153h-158q-29 0 -39 2
l-385 2v63q-1 37 29.5 57.5t74.5 22.5z" />
    <glyph glyph-name="greaterequal" unicode="&#x2265;" horiz-adv-x="1077" 
d="M1077 729v-2q0 -10 -6 -25q-1 -2 -16 -22q-12 -12 -27 -21l-684 -421q-44 -19 -82 -13t-64 27t-28 45l2 2l662 428l-672 391h-2q2 25 28 47t64 28t82 -13l692 -383v-2l8 -4q29 -16 39 -46q4 -6 4 -16zM143 143l807 -2q44 -2 75 -22.5t30 -57.5v-63l-385 -2q-10 -2 -39 -2
h-158h-154l-6 2h-63q-35 0 -70.5 21t-36.5 65v61z" />
    <glyph glyph-name="lozenge" unicode="&#x25ca;" horiz-adv-x="1597" 
 />
    <glyph glyph-name="notdef.001" horiz-adv-x="1228" 
 />
    </font>
</defs>
</svg>
