<?xml version="1.0" standalone="no"?>
<!DOCTYPE svg PUBLIC "-//W3C//DTD SVG 1.1//EN" "http://www.w3.org/Graphics/SVG/1.1/DTD/svg11.dtd" >
<svg xmlns="http://www.w3.org/2000/svg" xmlns:xlink="http://www.w3.org/1999/xlink" version="1.1">
<metadata>
Created by FontForge 20170731 at Wed Nov 24 22:04:19 2021
 By Aleksey,,,
Gallant Foundry
</metadata>
<defs>
<font id="Rhetoric-BoldItalic" horiz-adv-x="1515" >
  <font-face 
    font-family="Rhetoric"
    font-weight="300"
    font-style="italic"
    font-stretch="normal"
    units-per-em="2048"
    panose-1="0 0 4 0 0 0 0 0 0 0"
    ascent="1638"
    descent="-410"
    x-height="1118"
    cap-height="1599"
    bbox="-82 -432 2109.3 2165"
    underline-thickness="102"
    underline-position="-204"
    unicode-range="U+0020-25CA"
  />
<missing-glyph 
 />
    <glyph glyph-name=".notdef" 
 />
    <glyph glyph-name=".null" horiz-adv-x="0" 
 />
    <glyph glyph-name="nonmarkingreturn" horiz-adv-x="682" 
 />
    <glyph glyph-name="space" unicode=" " horiz-adv-x="389" 
 />
    <glyph glyph-name="exclam" unicode="!" horiz-adv-x="522" 
d="M410 451h-105q-50 0 -81.5 30t-22.5 70l194 913q12 64 99 64q4 0 11 -1t11 -1h31h4q50 0 64 -23t8 -51zM287 299h4q87 0 71 -76l-47 -223h-104q-49 0 -82 31t-25 69l29 138q14 61 100 61h23h31z" />
    <glyph glyph-name="quotedbl" unicode="&#x22;" horiz-adv-x="516" 
d="M170 1352h-64q-47 0 -79 31t-25 69l41 305q9 33 25 45q15 13 41 13h14h27h6q87 0 71 -76zM436 1815h6q50 0 64 -23t8 -53l-57 -387h-64q-47 0 -79 31t-25 69l41 305q10 34 24 45q15 13 41 13h15h26z" />
    <glyph glyph-name="numbersign" unicode="#" horiz-adv-x="1155" 
d="M332 614l41 134h-80q-49 0 -86.5 30t-26.5 88l21 97h239l72 239q11 47 49.5 90.5t95.5 44.5h99l-113 -376h229l74 241q8 29 25 57.5t50 52.5t73 25h98l-113 -376h62q63 -3 93.5 -34.5t18.5 -80.5l-18 -94l-221 -2l-43 -146h94q63 -3 94 -34.5t19 -80.5l-19 -94l-252 -2
l-76 -256q-11 -49 -49.5 -92.5t-95.5 -44.5h-100l116 391l-231 -2l-76 -252q-11 -49 -49.5 -92.5t-95.5 -44.5h-98l114 391h-49q-48 0 -86 30.5t-27 88.5l21 96h205zM535 604h229l2 10l41 134l-227 -3z" />
    <glyph glyph-name="dollar" unicode="$" horiz-adv-x="1282" 
d="M1370 1235v-2q19 -27 10 -53q-6 -17 -22.5 -30.5t-67.5 -45.5q-28 -19 -57 -19q-23 0 -44 13.5t-33.5 27.5t-33.5 43q-53 67 -83 90q-32 25 -68 37l-103 -483q78 -30 126.5 -54t106.5 -67.5t79 -104t4 -136.5q-41 -195 -176.5 -329.5t-321.5 -166.5l-27 -119h-84
q-49 0 -80.5 31t-23.5 70l4 16q-116 22 -212.5 89t-156.5 169q-7 18 0 33q8 19 40.5 39.5t60 31.5t31.5 11q16 8 36 8q39 0 66 -41l2 -2q65 -94 178 -121l105 487q-35 14 -63.5 27.5t-58.5 30.5t-52.5 35.5t-43.5 41.5t-34.5 49.5t-21.5 56.5t-8 66.5t9 77.5
q35 170 157.5 292t291.5 159l6 27q8 38 54 69t95 31h84l-26 -123q112 -20 203 -87.5t153 -174.5zM674 893l84 391q-152 -48 -195 -248q-9 -41 17 -74.5t94 -68.5zM956 434q10 47 -24 81t-113 67l-86 -404q86 28 143.5 94t79.5 162z" />
    <glyph glyph-name="percent" unicode="%" horiz-adv-x="1699" 
d="M657 786h-47q-83 0 -137 65t-37 144l56 260q17 80 98 144.5t164 64.5h47q85 0 138 -64t34 -145l-55 -260q-17 -82 -96.5 -145.5t-164.5 -63.5zM1188 852l-756 -748q-72 -61 -158 -61h-172l680 676q15 15 19 18l672 664q24 19 41.5 30t47.5 20t66 9h174l-594 -586
q-6 -8 -20 -22zM659 993l37 2l56 260q2 3 0 5h-35q0 -3 -2 -5zM1223 676h45q85 0 138 -63t34 -146l-54 -258q-19 -82 -98 -145.5t-164 -63.5h-45q-86 0 -139.5 63.5t-34.5 145.5l53 258q19 83 99 146t166 63zM1165 209l54 258l2 4h-35l-4 -4l-54 -258q-2 -2 0 -4h35q0 2 2 4
z" />
    <glyph glyph-name="ampersand" unicode="&#x26;" horiz-adv-x="1232" 
d="M1280 975l51 -101q12 -41 -6 -80.5t-61 -64.5l-72 -47q29 -106 -28 -274.5t-175 -262.5l-14 -14q-73 -61 -166 -96t-184 -35h-15l-116 2q-120 0 -188 32.5t-122 104.5q-54 66 -73 153.5t0 180.5l16 74q12 59 36.5 99.5t80.5 109.5q68 77 149 127q-21 24 -43 69
q-16 50 -15.5 109t11.5 115l4 16q31 141 173.5 251.5t295.5 110.5h12q73 0 131.5 -21t94.5 -56.5t59 -83t25 -100.5t-8 -109q-7 -40 -51 -73.5t-87 -33.5h-110l24 111q21 166 -127 166q-74 0 -137.5 -56t-77.5 -124q-22 -102 10 -149.5t82 -47.5h259l-25 -115
q-10 -43 -51.5 -70.5t-85.5 -27.5h-158h-13q-13 1 -18 0.5t-20 -4t-27 -10.5t-31 -20t-40 -32q-70 -67 -89 -151l-16 -74q-22 -104 33 -179.5t153 -78.5h150q46 3 85.5 20.5t94.5 63.5q29 25 56.5 71.5t39.5 104.5q7 40 7 64l-146 -90l-14 26l-41 72q-20 34 -4 78
q19 50 65 75l64 37z" />
    <glyph glyph-name="quotesingle" unicode="'" horiz-adv-x="149" 
d="M270 1024h-63q-47 0 -79.5 31t-25.5 69l41 306q9 33 25 45q14 12 41 12h14h27h6q50 0 64 -23t8 -53z" />
    <glyph glyph-name="parenleft" unicode="(" horiz-adv-x="878" 
d="M526 -307h-71h-68q-161 11 -235.5 132t-34.5 308l121 559l112 537q40 188 166 309t293 131h139l33 -2l-18 -88q-11 -53 -62.5 -86t-91.5 -33q-64 0 -114.5 -37t-77 -86.5t-39.5 -107.5l-234 -1096q-11 -40 -8 -80.5t15 -73.5t45 -54t81 -21q40 0 78 -34t27 -87l-19 -88z
" />
    <glyph glyph-name="parenright" unicode=")" horiz-adv-x="878" 
d="M102 -305l19 88q11 53 62 87t91 34q93 0 152.5 68.5t79.5 160.5l233 1096q11 40 8 81t-15 74.5t-45 54.5t-81 21q-40 0 -77.5 33t-26.5 86l18 88l37 2q63 2 139 0q161 -11 236 -132t35 -308l-117 -537l-117 -559q-40 -188 -166 -309t-293 -131h-67h-72z" />
    <glyph glyph-name="asterisk" unicode="*" horiz-adv-x="765" 
d="M102 1067l213 145l-135 131l70 76q45 45 104 45q37 0 58 -18l22 -21l6 37q9 40 55 71.5t95 31.5h84l-29 -135l43 30q39 26 78 18t61 -44l41 -68l-215 -149l156 -144l-53 -59q-58 -58 -121 -58q-23 0 -45 15l-35 33l-25 -115h-84q-49 0 -81.5 30.5t-24.5 69.5l8 33
l-61 -41q-33 -20 -70 -20q-58 0 -80 43z" />
    <glyph glyph-name="plus" unicode="+" horiz-adv-x="1073" 
d="M766 643h293q63 -3 93.5 -34.5t18.5 -80.5l-20 -94l-428 -2l-6 -26l-58 -267q-11 -48 -50 -92t-97 -45h-96l94 428l-293 2q-48 0 -86 29.5t-27 87.5l21 96l430 -2l61 293q15 61 54.5 99t85.5 38h100z" />
    <glyph glyph-name="comma" unicode="," horiz-adv-x="299" 
d="M195 -25q6 0 6 2q6 3 10 21q-88 12 -70 98l29 135q14 64 100 64q15 0 23 -2h31h4q35 0 53.5 -13t18.5 -29.5t-1 -31.5l-41 -188q-30 -158 -221 -158h-35l11 45q4 25 27.5 41t54.5 16z" />
    <glyph glyph-name="hyphen" unicode="-" horiz-adv-x="608" 
d="M680 596q41 -31 29 -88l-21 -94l-98 -4l-373 2q-47 0 -85.5 29.5t-27.5 86.5l21 97l471 -2q57 -3 84 -27z" />
    <glyph glyph-name="period" unicode="." horiz-adv-x="262" 
d="M313 0h-104q-49 0 -81 30.5t-24 69.5l29 138q14 61 100 61h23h31h4q87 0 71 -76z" />
    <glyph glyph-name="slash" unicode="/" horiz-adv-x="1107" 
d="M600 852l320 547q13 20 22 31t27.5 30t43 28t54.5 9h143l-530 -891l-285 -506q-62 -100 -159 -100h-134l488 836z" />
    <glyph glyph-name="zero" unicode="0" horiz-adv-x="1124" 
d="M506 -29q-80 0 -189 33q-51 18 -93 50t-75.5 84t-41.5 120.5t8 157.5l141 671q25 118 117 230q84 93 209 149t252 56q122 0 225 -54q100 -59 142 -159.5t16 -221.5l-142 -671q-27 -125 -114 -228q-84 -100 -205.5 -158.5t-249.5 -58.5zM375 573l586 680q-1 0 -9 4
q-31 23 -76 37.5t-88 14.5q-72 0 -139 -33q-66 -32 -110 -82t-56 -107zM961 944l-484 -543q-28 -34 -110 -143q14 -31 66 -53.5t116 -22.5q112 0 194 64t105 170z" />
    <glyph glyph-name="one" unicode="1" horiz-adv-x="751" 
d="M371 209l231 1094h-225l22 106q3 3 9 25q13 31 47 55t77 24h230q57 0 77.5 -35t12.5 -69l-254 -1200h113q20 0 30 -2q32 -8 50.5 -33.5t11.5 -62.5l-23 -107h-678l21 102q1 1 8 27q15 32 51 54t72 22h117z" />
    <glyph glyph-name="two" unicode="2" horiz-adv-x="1265" 
d="M1102 225l-25 -125q-9 -40 -47.5 -70t-79.5 -30h-760q-44 0 -69.5 30t-16.5 70q22 107 77 200.5t111.5 153.5t154.5 124.5t154.5 94t164.5 81.5q1 1 2 1.5t2 0.5q46 23 62.5 31t57.5 29t57 30.5t48.5 29.5t47.5 32.5t37.5 32.5t33.5 37t21.5 38t15.5 43q24 112 -37.5 185
t-191.5 73q-135 0 -208 -45t-102 -135q-10 -38 -39 -65.5t-73 -27.5l-125 3l6 34q40 185 201 302.5t376 117.5q97 0 171 -23.5t117 -56t70.5 -82.5t38 -87t12 -86t0 -64t-4.5 -35v-2q-10 -45 -28 -87.5t-38 -77t-53 -69.5t-58.5 -59.5t-69 -54.5t-71 -47.5t-78.5 -44.5
t-76.5 -39.5t-78.5 -38.5q-57 -27 -91 -44.5t-83.5 -44.5t-81.5 -50t-66.5 -52.5t-59 -61.5t-40.5 -67z" />
    <glyph glyph-name="three" unicode="3" horiz-adv-x="1107" 
d="M1077 846l-4 -4q-23 -21 -80 -66q-2 -1 -6.5 -4.5t-7.5 -5.5l4 -5q4 -5 8 -7q3 -5 20 -30t29 -44l2 -4q18 -38 22.5 -83t-0.5 -79.5t-17 -93.5q-17 -85 -61 -161t-107 -130q-75 -65 -153.5 -99t-201.5 -42h-28q-91 2 -168 30t-134.5 83t-78.5 137.5t0 193.5l6 35l33 2h6
q6 0 15.5 0.5t22.5 1t30 0.5h34q36 0 57.5 -26.5t12.5 -73.5q-9 -83 55.5 -128.5t192.5 -45.5q106 0 168.5 57t87.5 176q23 102 -29 169t-152 67h-94q-44 0 -72.5 32.5t-19.5 73.5l20 100h209q98 0 189 57t110 146q13 46 4.5 91.5t-31 81.5t-70.5 58.5t-114 22.5
q-65 0 -117 -13.5t-84 -33.5t-55 -48t-33 -51.5t-16 -49.5l-2 -9q-13 -28 -41 -49.5t-59 -21.5h-76q-27 0 -37 12q-9 16 -4 41l4 16q23 106 80.5 186t136.5 125t163.5 67t174.5 22h19q194 0 297 -126t63 -313l-4 -16q-23 -116 -119 -221z" />
    <glyph glyph-name="four" unicode="4" horiz-adv-x="1058" 
d="M1069 455l-22 -109h-123l-74 -346h-105q-45 0 -72.5 33.5t-19.5 70.5l52 242h-515q-49 0 -71 31q-20 29 -13 72q2 12 7.5 25.5t11 22t11.5 15.5l5 8l815 940q52 58 113 58t86 -43l6 -11l-192 -905h43zM856 1053l-436 -504h328z" />
    <glyph glyph-name="five" unicode="5" horiz-adv-x="1157" 
d="M403 680h-114q-42 0 -71.5 34.5t-20.5 73.5l129 611q10 47 53.5 76.5t85.5 29.5h700q46 0 74 -28.5t18 -77.5l-20 -99h-700l-27 -124q128 67 256 67h20q123 0 216 -62t133.5 -167t15.5 -226l-76 -354q-40 -184 -204.5 -318t-352.5 -134h-20q-60 0 -121 16t-116 50
t-94.5 80t-55.5 112t0 141l14 63q8 40 45 74.5t80 34.5h115l-37 -172q-9 -42 12.5 -76t59.5 -53t77 -29t70 -10h20q86 0 172 69t105 152l76 354q19 92 -36.5 165t-144.5 73h-20q-85 0 -180 -68q-89 -63 -105 -141z" />
    <glyph glyph-name="six" unicode="6" horiz-adv-x="1044" 
d="M113 424l131 616q59 235 211 363q146 125 356 125h12q87 0 178.5 -41t122.5 -94q32 -58 17 -95q-14 -36 -70 -65l-84 -47l-16 22q-16 24 -17 27q-50 90 -196 90q-83 0 -166.5 -75.5t-114.5 -176.5q121 62 244 62h18q89 0 168 -35.5t125 -95.5q50 -60 67.5 -143t-1.5 -171
l-43 -207q-25 -119 -72 -209.5t-101.5 -144t-123 -87t-129 -45t-127.5 -11.5h-25q-122 0 -214.5 59.5t-133 160.5t-16.5 218zM397 688l-57 -264q-19 -92 40 -161.5t157 -69.5q59 2 106 19t76.5 42.5t52.5 65t35.5 76.5t23.5 87l43 205q20 97 -32.5 165.5t-147.5 68.5h-18
q-95 0 -177 -68.5t-102 -165.5z" />
    <glyph glyph-name="seven" unicode="7" horiz-adv-x="1431" 
d="M1491 1346l-1047 -1266q-25 -28 -41 -42t-44.5 -26t-63.5 -12h-193l1057 1266h-670l25 112q8 41 48 74t93 33l797 2q66 0 78 -39q9 -25 -6 -54.5t-33 -47.5z" />
    <glyph glyph-name="eight" unicode="8" horiz-adv-x="1073" 
d="M113 422l37 168q14 69 48 122.5t93 108.5q-67 119 -35 273q38 178 197.5 308t339.5 130h20q119 0 209 -59.5t129 -160.5t14 -218q-33 -154 -149 -273q36 -56 46.5 -104t-3.5 -127l-37 -168q-25 -115 -107.5 -216t-197.5 -161.5t-232 -60.5h-20q-180 0 -285 130t-67 308z
M770 1325h-20q-91 0 -171 -68t-100 -163q-16 -82 13 -142q90 37 186 37h20q97 0 168 -39q58 64 76 144q20 95 -30.5 163t-141.5 68zM373 590l-37 -168q-20 -95 30.5 -162t141.5 -67h20q91 0 171 67t100 162l37 168q10 50 -2 87.5t-40 59t-63.5 31.5t-77.5 10h-20
q-127 0 -217 -112q-6 -12 -17 -23q-20 -22 -26 -53z" />
    <glyph glyph-name="nine" unicode="9" horiz-adv-x="1042" 
d="M1137 1090l-131 -617q-58 -234 -211 -362q-146 -125 -357 -125h-12q-87 0 -178.5 41t-122.5 94q-31 56 -16 94t69 66l84 47l17 -23q15 -22 16 -26q51 -91 197 -91q83 0 166 75.5t114 176.5q-119 -61 -244 -61h-18q-89 0 -168 35.5t-125 95.5q-49 60 -66.5 142.5
t1.5 170.5l43 207q25 119 72 209.5t101.5 144t123 87t129 45.5t127.5 12h24q122 0 215 -59.5t133.5 -160.5t16.5 -218zM852 825l57 265q19 93 -39.5 162t-156.5 69q-59 -2 -106 -19t-77 -43t-53 -65.5t-35.5 -76.5t-23.5 -87l-43 -205q-20 -97 32.5 -165t147.5 -68h18
q95 0 177 68t102 165z" />
    <glyph glyph-name="colon" unicode=":" horiz-adv-x="436" 
d="M489 817h-104q-49 0 -81.5 31t-24.5 70l30 137q12 61 99 61h22h31h4q50 0 64 -23t8 -53zM315 0h-104q-49 0 -82 31t-25 69l31 138q12 61 98 61h23h31h4q87 0 71 -76z" />
    <glyph glyph-name="semicolon" unicode=";" horiz-adv-x="479" 
d="M532 813h-104q-49 0 -81.5 30.5t-24.5 69.5l28 138q14 61 101 61h22q10 -2 31 -2h4q50 0 64 -23t8 -51zM102 -156l11 45q5 25 28 41.5t54 16.5q14 10 22 51q-88 12 -70 96l29 137q14 62 100 62h23h31h4q50 0 64 -23t8 -53l-39 -186q-20 -88 -80.5 -137.5t-149.5 -49.5
h-35z" />
    <glyph glyph-name="less" unicode="&#x3c;" horiz-adv-x="1099" 
d="M1030 168l-8 -23q-12 -43 -60.5 -73.5t-103.5 -30.5q-40 0 -74 18l-634 410q-15 9 -27 25l-2 4q-4 4 -6 4q-1 2 -4.5 9.5t-4.5 12.5v2q-5 19 -2 39q7 22 15 31q20 33 55 53v4l827 379q46 19 80 19q55 0 91 -32t30 -75l-2 -22l-749 -361z" />
    <glyph glyph-name="equal" unicode="=" horiz-adv-x="1150" 
d="M205 889l934 -2q62 -3 92 -34.5t20 -80.5l-20 -94l-670 -4l-264 2q-48 0 -86 29.5t-27 87.5zM481 297l-266 2q-47 0 -84.5 30t-26.5 87l21 96l932 -2q62 -1 93.5 -33t20.5 -80l-20 -96z" />
    <glyph glyph-name="greater" unicode="&#x3e;" horiz-adv-x="1099" 
d="M106 168l748 393l-598 361l6 22q12 43 61.5 75t104.5 32q40 0 72 -19l667 -379v-4q25 -22 31 -53q7 -15 2 -31q-2 -11 -18 -39v-2q-3 -4 -21 -22q-2 0 -6 -4l-2 -4q-22 -18 -39 -25l-807 -410q-47 -18 -82 -18q-56 0 -92.5 30.5t-30.5 73.5z" />
    <glyph glyph-name="question" unicode="?" horiz-adv-x="913" 
d="M643 1630h19q120 0 208.5 -60t125 -162.5t10.5 -223.5q-13 -63 -34 -115t-51 -92t-56.5 -68.5t-68 -56t-66.5 -41.5t-71 -37q-28 -15 -63.5 -26t-57 -18t-43.5 -21t-37 -40.5t-24 -70.5l-41 -192h-88q-61 0 -84 35t-16 83l12 60q14 67 37.5 118t47.5 81.5t60 55.5
t63 36.5t70 29.5t68 31q43 23 65.5 35.5t55.5 36t50.5 45.5t35 55.5t25.5 73.5q24 108 -37 174.5t-158 66.5t-170 -67q-6 -6 -18 -15.5t-41.5 -23.5t-55.5 -14q-33 0 -57 18q-33 23 -53 43l-21 18l23 29q182 219 436 219zM285 299h6q87 0 71 -76l-49 -223h-104
q-49 0 -81 30.5t-24 69.5l29 138q12 61 100 61h23h29z" />
    <glyph glyph-name="at" unicode="@" 
d="M1124 -143h-532q-292 0 -418 170q-103 144 -59 354l135 639q27 124 131 246t244.5 199t267.5 77h289q30 0 60 -2.5t69 -9.5t73.5 -18.5t71 -32t65.5 -47.5t52 -67.5t35 -89t11 -114t-17 -141.5l-160 -752q-19 -89 -90 -137.5t-183 -48.5q-118 0 -174 57t-53 140
q-90 -33 -188 -33h-21q-91 0 -146.5 22.5t-92.5 73.5q-36 53 -42.5 111t13.5 151l4 23q42 188 145 280q80 76 224 92h4q50 5 65 5q39 0 109 -9q40 -6 76 -6q-28 66 -160 66h-275l7 30q0 3 4 27l4 25q9 40 51.5 73t85.5 33l131 2q212 0 304.5 -93.5t55.5 -268.5l-126 -598h20
h33q14 0 30 12l152 723q11 50 12.5 93.5t-11.5 89t-42.5 78t-87 53t-137.5 20.5h-289q-65 0 -155 -54.5t-160.5 -134t-85.5 -145.5l-136 -639q-17 -76 14 -146t111.5 -116.5t194.5 -46.5l416 2q44 0 73.5 -34t20.5 -75zM1075 788h-33q-47 0 -194 11q-91 0 -117 -29
q-44 -65 -61 -143l-4 -23q-23 -111 -9 -137q18 -29 109 -31q53 0 102 15q49 14 93.5 35.5t54.5 33.5z" />
    <glyph glyph-name="A" unicode="A" horiz-adv-x="1177" 
d="M242 -4h-25q-91 0 -111 33q-9 21 0 45l11 20l153 297l572 1157q25 39 62 64.5t77 25.5q47 0 73 -27.5t31 -64.5l70 -1032l10 -123l13 -309q3 -21 -17 -49q-39 -39 -135 -39q-16 0 -18 2l-7 -2q-60 0 -75 63v6l-13 304h-409l-148 -304q-13 -29 -44.5 -48t-65.5 -19h-4z
M866 1096l-243 -506q227 0 286 2z" />
    <glyph glyph-name="B" unicode="B" horiz-adv-x="1204" 
d="M659 0h-450q-38 0 -75.5 29t-29.5 69l308 1438q8 40 57.5 68t87.5 28h240q115 0 211.5 -65.5t134.5 -169.5q42 -105 14 -240l-8 -49q-4 -20 -12 -46t-9 -28q-9 -29 -5.5 -37t32.5 -30q59 -50 88 -97q91 -144 53 -323l-16 -80q-53 -243 -328 -393q-145 -74 -293 -74z
M547 1034h344q0 7 6 31l16 78q17 78 -0.5 140.5t-66.5 94.5q-43 35 -117 35h-102zM375 227h350q17 0 38.5 2t67 15.5t82.5 37t72 71.5t49 114l17 80q23 104 -23.5 182t-130.5 78h-399z" />
    <glyph glyph-name="C" unicode="C" horiz-adv-x="1067" 
d="M487 4q-215 0 -316 131.5t-54 351.5l147 697q29 135 112.5 247t201.5 175q119 61 260 61q182 0 268 -68q52 -35 88 -83v-3l18 -26q13 -38 7 -70q-9 -46 -52 -71l-129 -86l-8 40q-19 88 -74 127t-159 39q-146 0 -240 -125q-52 -64 -72 -157l-147 -697q-9 -42 -11 -78
t7 -73.5t30 -64t63.5 -43.5t102.5 -17q55 0 103 11t87 32.5t60 36t51 39.5q57 47 87 47q24 0 40 -21q4 -4 12.5 -17t16.5 -36.5t4 -40.5q-5 -39 -53 -76q-109 -93 -211 -137.5t-240 -44.5z" />
    <glyph glyph-name="D" unicode="D" horiz-adv-x="1290" 
d="M631 0h-430q-47 0 -76 37t-21 76l299 1409q11 47 53 80.5t93 33.5h430q132 0 239 -68.5t148 -178.5q43 -106 14 -252l-135 -635q-26 -127 -121 -245t-227 -187q-134 -70 -266 -70zM371 227h309q146 0 262 138q49 64 64 137l135 635q19 83 -3 148t-79 104q-49 36 -125 36
h-309z" />
    <glyph glyph-name="E" unicode="E" horiz-adv-x="1216" 
d="M940 0h-852q-38 0 -65.5 31.5t-20.5 66.5l307 1446q8 34 48.5 65t78.5 31h852q47 0 77.5 -29t23.5 -67l-25 -114h-850l-82 -388h619q51 0 79.5 -33.5t18.5 -80.5l-25 -115h-741l-127 -600h850l-25 -115q-7 -38 -50.5 -68t-90.5 -30z" />
    <glyph glyph-name="F" unicode="F" horiz-adv-x="1251" 
d="M276 0h-71q-48 0 -79.5 32t-21.5 83l304 1421q9 43 55.5 77t89.5 34h803q51 0 79 -32.5t19 -78.5l-24 -117h-803l-78 -366h510q51 0 79 -35.5t19 -77.5l-24 -115h-633l-164 -774q-9 -51 -60 -51z" />
    <glyph glyph-name="G" unicode="G" horiz-adv-x="1165" 
d="M530 -29h-18q-130 0 -235.5 70t-145.5 184q-45 117 -18 244l151 707q28 132 125 248.5t236 183.5q140 67 301 67h4q76 -4 149.5 -38.5t126.5 -88.5q17 -17 47 -53q20 -30 13 -63q-9 -55 -74 -93l-10 -6l-78 -20q-29 0 -51 39l-11 14q-34 43 -76.5 66.5t-111.5 23.5
q-82 0 -158 -37.5t-127 -103.5q-47 -66 -61 -135l-152 -711q-15 -70 7.5 -132t76.5 -99q54 -43 135 -43q167 0 267 141q42 57 53 115l74 344h-371l25 112q9 47 51 80t94 33h399q30 0 55.5 -24.5t18.5 -57.5l-106 -504q-11 -50 -45.5 -114t-103.5 -140t-155 -127
q-133 -82 -301 -82z" />
    <glyph glyph-name="H" unicode="H" horiz-adv-x="1343" 
d="M272 0h-71q-43 0 -75.5 35.5t-23.5 79.5l299 1407q10 45 53.5 86t98.5 41h31q37 0 57.5 -27t15.5 -55l-202 -955h612l203 955q5 27 38.5 54.5t69.5 27.5h17q44 0 76 -37t24 -78l-303 -1419q-9 -47 -51.5 -81t-93.5 -34h-60q-27 0 -36 12t-3 39l72 336h-612l-72 -336
q-12 -51 -64 -51z" />
    <glyph glyph-name="I" unicode="I" horiz-adv-x="768" 
d="M494 0h-347q-19 0 -30 7.5t-12 21.5t0 23t4 24l12 61q6 27 18 44t30 23t29.5 7.5t30.5 1.5h19l260 1176h-121l14 63l17 70q6 31 39 54t67 23h273q41 0 60 -26t11 -60l-26 -124h-109l-254 -1178h25q13 0 22 -1.5t24 -7.5t21 -22.5t0 -42.5l-18 -86q-9 -51 -59 -51z" />
    <glyph glyph-name="J" unicode="J" horiz-adv-x="1206" 
d="M266 70q-47 27 -86 76.5t-59 105.5q-19 78 -18 115t18 114q10 49 46.5 81t82.5 32h115l-25 -113q-29 -135 90 -215q50 -39 121 -39h14q156 0 260 135q44 58 62 138l241 1136h123q47 0 76 -38.5t21 -73.5l-218 -1024q-28 -130 -119.5 -245.5t-222.5 -186.5
q-133 -68 -272 -68h-14q-112 0 -236 70z" />
    <glyph glyph-name="K" unicode="K" horiz-adv-x="1458" 
d="M309 2h-106q-56 0 -82.5 30.5t-14.5 84.5l300 1407q8 41 47 77.5t82 36.5h122l-116 -548l69 -89l643 641l78 -69q33 -38 28.5 -80.5t-36.5 -79.5l-2 -2l-573 -567l434 -522q58 -65 84 -81t61 -16q66 0 90 -37q20 -24 20.5 -60.5t-5.5 -49.5l-17 -78h-135q-40 0 -59.5 0.5
t-50 5.5t-49.5 14.5t-42.5 28.5t-44.5 47l-561 674z" />
    <glyph glyph-name="L" unicode="L" horiz-adv-x="1013" 
d="M823 0h-620q-50 0 -79 36.5t-20 78.5l299 1409q11 47 53.5 79.5t94.5 32.5h123l-301 -1411h620l-18 -94q-12 -53 -57.5 -92t-94.5 -39z" />
    <glyph glyph-name="M" unicode="M" horiz-adv-x="1316" 
d="M307 0h-106q-50 0 -78.5 33.5t-18.5 79.5l302 1417q8 40 51 75t92 35h100l82 -1122l569 1122h101q51 0 79 -32t19 -78l-301 -1417q-11 -45 -52 -79t-85 -34h-121l168 774l-358 -702q-19 -28 -58.5 -50t-70.5 -22q-43 0 -73.5 23.5t-31.5 58.5l-49 690z" />
    <glyph glyph-name="N" unicode="N" horiz-adv-x="1275" 
d="M1479 1530l-301 -1417q-9 -47 -47 -80t-82 -33h-88l-412 1126l-240 -1126h-121q-45 0 -69 32.5t-15 80.5l299 1403q12 59 53.5 94t98.5 35h4l66 -7l413 -1130l234 1134h125q40 0 65.5 -34.5t16.5 -77.5z" />
    <glyph glyph-name="O" unicode="O" horiz-adv-x="1257" 
d="M1286 1159l-141 -672q-28 -131 -124.5 -251.5t-229.5 -190.5q-137 -70 -273 -70h-16q-138 0 -245.5 70t-150.5 188q-41 122 -14 254l141 672q29 135 122.5 249.5t228.5 182.5q139 68 274 68h16q135 0 245 -69t151 -181q46 -117 16 -250zM901 487l141 672
q17 75 -5.5 137.5t-80.5 102.5q-58 37 -129 37h-16q-70 0 -140 -37t-126 -103q-47 -55 -66 -137l-141 -672q-17 -75 5.5 -140t78.5 -103q56 -37 129 -37h16q76 0 146 36t125 105q43 53 63 139z" />
    <glyph glyph-name="P" unicode="P" horiz-adv-x="1228" 
d="M555 1640h436q129 0 233 -68.5t144 -180.5q40 -115 12 -252l-51 -240q-38 -186 -219 -358l-2 -4q-82 -66 -184.5 -105t-196.5 -39h-315l-84 -395h-121q-52 0 -82 32.5t-21 78.5l304 1419q7 41 54 76.5t93 35.5zM1102 899l53 252q14 97 -33 169.5t-137 94.5h-356
l-168 -792h315q147 0 262 139q48 60 64 137z" />
    <glyph glyph-name="Q" unicode="Q" horiz-adv-x="1224" 
d="M1317 1151l-146 -674q-19 -93 -40 -141t-80 -117q6 -2 41 -2h38q43 0 61 -35t9 -73l-22 -109h-162q-104 0 -152 53q-128 -84 -315 -84h-17q-143 0 -253 69t-150 183q-44 114 -16 256l143 674q29 135 124 252.5t230 183.5t279 66h16q135 0 244.5 -69t150.5 -181
q44 -119 17 -252zM670 797l239 -396q17 28 31 97l131 653q15 81 -5.5 146.5t-76.5 103.5q-55 37 -129 37h-16q-164 0 -279 -146q-50 -59 -69 -141l-144 -674q-25 -119 56.5 -197.5t203.5 -78.5q65 0 123 28l-205 316q-12 27 -12 52.5t5.5 43.5t23.5 40t30.5 34t36.5 33
l21 18z" />
    <glyph glyph-name="R" unicode="R" horiz-adv-x="1286" 
d="M549 1640h436q130 0 234.5 -67t144.5 -176q41 -114 14 -244l-55 -256q-38 -167 -174 -309l-12 -13h-4q-101 -91 -197 -133l96 -96q83 -87 111 -109t61 -22h21q50 0 68.5 -33t11.5 -69l-25 -113h-121q-75 0 -138.5 22t-98.5 62l-293 311h-230l-84 -395h-114
q-48 0 -77 37.5t-20 77.5l299 1413q11 46 54 79t92 33zM1065 1391q-47 36 -115 36h-332l-172 -806h322q70 0 139 36.5t123 102.5q49 65 64 137l55 256q14 71 -8.5 135.5t-75.5 102.5z" />
    <glyph glyph-name="S" unicode="S" horiz-adv-x="1202" 
d="M709 1599q132 52 264 52q125 0 239.5 -73t180.5 -194l4 -6q10 -17 11 -31t-9.5 -26.5t-20 -20.5t-30.5 -22q-3 -3 -14.5 -12t-16.5 -13q-40 -30 -83.5 -23t-72.5 48l-26 33q-96 116 -234 116q-152 0 -254 -120q-46 -56 -61 -123q-6 -30 6.5 -60.5t33 -54t62 -54
t72.5 -49.5t86 -51q153 -92 213 -143q156 -133 124 -290q-1 -2 -1 -3q-50 -232 -229 -367t-437 -135q-135 0 -259 81t-153 188q-6 12 0 28q4 10 15.5 20.5t25.5 18.5t30.5 16.5t28.5 13.5t22 9l10 4q18 6 36 6q41 0 66 -38l2 -5q88 -126 233 -126t252 80t136 210
q4 21 -1.5 42t-25.5 42.5t-37.5 37.5t-55 39.5t-59 36t-67.5 38.5q-161 91 -225 143q-160 130 -141 294q1 17 5 34q29 136 122 243t233 166z" />
    <glyph glyph-name="T" unicode="T" horiz-adv-x="827" 
d="M461 1432h-359l25 112q9 40 51.5 69t91.5 29h699q50 0 80.5 -29t21.5 -69l-24 -112h-359l-303 -1434h-106q-49 0 -78.5 34.5t-18.5 80.5z" />
    <glyph glyph-name="U" unicode="U" horiz-adv-x="1208" 
d="M1167 1638h121q54 0 83.5 -33.5t19.5 -82.5l-217 -1022q-29 -138 -126.5 -258.5t-234.5 -188.5q-132 -69 -272 -69h-17q-142 0 -249 68.5t-148 185.5q-43 118 -12 262l217 1022q10 49 53 82.5t94 33.5h123l-242 -1138q-27 -126 41 -194t177 -68h16q81 0 143 23t99 63.5
t58 82.5t32 93z" />
    <glyph glyph-name="V" unicode="V" horiz-adv-x="1071" 
d="M1059 1636h98q41 0 73.5 -27t22.5 -71q0 -7 -6 -22l-731 -1442q-17 -34 -50.5 -58t-80.5 -24q-45 0 -71.5 25.5t-28.5 58.5l-121 1442l2 18q9 43 50 71.5t95 28.5h97l84 -1173z" />
    <glyph glyph-name="W" unicode="W" horiz-adv-x="1904" 
d="M1059 1638h102q40 0 61 -20t27 -64l92 -1091l570 1175h98q41 0 74.5 -27.5t23.5 -70.5q0 -6 -8 -22l-731 -1440q-17 -35 -50.5 -59.5t-80.5 -24.5q-45 0 -71.5 25.5t-26.5 60.5l-92 1059l-531 -1061q-15 -35 -49.5 -59.5t-81.5 -24.5q-45 0 -71.5 26t-24.5 60l-125 1440
l2 18q9 44 50 72t95 28h97l86 -1173z" />
    <glyph glyph-name="X" unicode="X" horiz-adv-x="1118" 
d="M696 1061l467 555q30 22 60 22h6h14t16 -1t17.5 -3.5t17 -6.5t14.5 -10.5t10.5 -16t5 -22.5t-2.5 -30l-10 -45q-4 -22 -25 -59q0 -2 -2 -5t-2 -5l-8 -9q-47 -52 -147.5 -174t-208.5 -255.5t-121 -149.5q15 -51 88.5 -227t148.5 -340q47 -75 29 -150l-12 -66
q-3 -13 -11 -26t-32.5 -26t-61.5 -13h-22h-9q-31 0 -51 25l-2 6l-258 596l-518 -602q-29 -25 -59 -25h-9h-22q-33 0 -49 8q-36 16 -27 57l12 66q9 40 39.5 82.5t55.5 67.5q238 281 274 323q193 229 205 244l-57.5 149.5t-101.5 257t-75 172.5l-2 5v4q-1 2 -1 5t-1 5
q-5 19 2 59l11 45q18 90 127 90h8q31 0 51 -22l2 -6z" />
    <glyph glyph-name="Y" unicode="Y" horiz-adv-x="743" 
d="M25 1604q28 32 75 32h119l189 -669l477 669h121q46 0 57 -32q18 -37 -6 -76q-29 -50 -434 -621l-48 -67l-114 -166l-144 -672h-120q-41 0 -66 35t-16 78l118 559l-47 166q-179 641 -182 688h-2q-8 38 23 76z" />
    <glyph glyph-name="Z" unicode="Z" horiz-adv-x="1650" 
d="M109 45q-21 52 36 131l5 4l1052 1219h-592q-14 0 -23 2.5t-15.5 14t-2.5 32.5l11 47q11 48 52.5 81.5t92.5 33.5h711q83 0 104 -43q18 -32 -4 -86l-6 -8l-21 -23l-1052 -1247h594q27 0 37 -12t4 -39l-11 -48q-11 -46 -53.5 -80t-91.5 -34h-725q-15 0 -31.5 2.5t-39.5 16
t-31 36.5z" />
    <glyph glyph-name="bracketleft" unicode="[" horiz-adv-x="944" 
d="M379 1047l104 483q13 67 61.5 111.5t108.5 44.5h394l-19 -82q-10 -46 -51.5 -82.5t-95.5 -36.5h-95q-64 0 -78 -6.5t-20 -36.5l-336 -1587q-7 -18 -3 -27.5t20 -12.5t61 -3h94q54 0 81.5 -36.5t17.5 -82.5l-19 -82h-393q-60 0 -89.5 44t-15.5 112l101 471l6 36l156 732z
" />
    <glyph glyph-name="backslash" unicode="\" horiz-adv-x="468" 
d="M252 608l-150 889h146q29 0 49.5 -9.5t30.5 -27t14.5 -30.5t7.5 -31l2 -4l86 -543l4 -16l129 -836h-133q-32 0 -54.5 10.5t-34 29.5t-15.5 30t-8 28z" />
    <glyph glyph-name="bracketright" unicode="]" horiz-adv-x="944" 
d="M938 1047l-6 -41l-156 -732l-10 -36l-100 -471q-13 -67 -61.5 -111.5t-108.5 -44.5h-394l19 82q10 46 51.5 82.5t95.5 36.5h94q64 0 78.5 7t20.5 36l336 1587q1 15 3.5 23.5t-6.5 13t-24.5 5.5t-50.5 1h-94q-54 0 -81.5 36.5t-17.5 82.5l19 82h393q60 0 89 -44t15 -112z
" />
    <glyph glyph-name="asciicircum" unicode="^" horiz-adv-x="1013" 
d="M950 537l-227 677l-522 -661l-23 4q-42 5 -63.5 47.5t-8.5 97.5q13 43 39 76l560 733h4q32 32 63 41q16 9 33 9q11 0 37 -13h2q12 -8 18 -14q0 -2 4 -6l4 -2q10 -20 15 -35l229 -735q6 -41 -2 -78q-13 -55 -54.5 -96t-84.5 -43z" />
    <glyph glyph-name="underscore" unicode="_" horiz-adv-x="1081" 
d="M1159 -313l21 96q12 48 -19.5 80t-93.5 33h-942l-21 -95q-11 -57 27.5 -86.5t85.5 -29.5z" />
    <glyph glyph-name="grave" unicode="`" horiz-adv-x="430" 
d="M272 1626q29 0 47 -24l213 -271l-90 -71q-47 -41 -106 -41q-41 0 -60 22l-163 207q-15 21 -11 43q5 20 21.5 36.5t48.5 41.5l25 20q48 37 75 37z" />
    <glyph glyph-name="a" unicode="a" horiz-adv-x="1015" 
d="M410 922l20 98q9 43 57 79t91 36q200 0 229 -2q70 -1 115.5 -17t91.5 -53q54 -41 80.5 -111.5t11.5 -136.5l-141 -692q-11 -48 -51 -85.5t-85 -37.5h-122l4 23q-119 -37 -238 -37q-221 0 -311.5 113.5t-44.5 332.5q43 200 185 310t355 110h158q50 0 68 2q-20 68 -176 68
h-297zM770 289l76 362q-74 -4 -137 -4h-4l-48 2q-154 0 -221.5 -46.5t-95.5 -174.5q-26 -121 12 -175t148 -54q106 0 184.5 29.5t85.5 60.5z" />
    <glyph glyph-name="b" unicode="b" horiz-adv-x="997" 
d="M655 1642l-104 -495q14 -4 63 -4h144q95 0 174.5 -47t132.5 -133v-5q31 -80 35 -180.5t-19 -204.5l-4 -26q-36 -167 -164 -332l-8 -12q-87 -96 -190 -150.5t-199 -54.5h-313q-52 0 -80 32.5t-19 80.5l304 1423q9 46 50 77t93 31h104zM711 915h-162q-7 0 -47 5l-148 -695
h219q87 0 160 105l8 8q41 53 63 99t38 124l2 12q34 147 4 236l-2 8q-34 59 -62.5 78.5t-72.5 19.5z" />
    <glyph glyph-name="c" unicode="c" horiz-adv-x="1032" 
d="M903 397l88 -63q27 -19 35 -36.5t-3.5 -48t-49.5 -77.5q-48 -61 -105 -101.5t-117.5 -59t-111.5 -25t-113 -6.5q-65 0 -123 11t-111.5 35.5t-93 63t-66 93.5t-29.5 127t14 163l37 178q47 220 211 358t378 138q248 0 369 -170h2l10 -14q18 -40 6 -79t-51 -67l-4 -2
l-78 -41h-10q-19 0 -31 23q-64 145 -256 145q-133 0 -221 -85.5t-114 -205.5l-37 -178q-3 -16 -5 -32.5t-2 -47t6 -57.5t23 -57t44 -51.5t73.5 -35.5t107.5 -14q101 0 175 43t129 135z" />
    <glyph glyph-name="d" unicode="d" horiz-adv-x="1019" 
d="M135 209v2q-25 74 -31 162t9 159l6 35q24 106 71 207t111 178l4 4q86 86 185 133.5t194 47.5h143q45 0 68 4l104 495h105q52 0 79.5 -31t18.5 -77l-303 -1422q-9 -49 -49.5 -80.5t-93.5 -31.5h-314q-97 0 -177 54t-126 151zM344 567l-4 -18q-5 -23 -5.5 -60.5t6.5 -84.5
t22 -87.5t45 -68t71 -27.5h219l148 692q-32 -4 -47 -4h-162q-41 0 -76.5 -17t-85.5 -65l-10 -14q-88 -94 -121 -246z" />
    <glyph glyph-name="e" unicode="e" horiz-adv-x="1042" 
d="M276 51q-100 65 -145.5 178t-19.5 238l45 213q27 131 118 244q89 108 221.5 172.5t264.5 64.5h16q207 -15 303.5 -146t53.5 -335l-48 -225q-11 -26 -30 -32.5t-49 -6.5h-674q1 -21 5 -42t12 -48.5t24.5 -50t39.5 -42.5t59 -31.5t81 -11.5q79 0 134 12t74 23t46 33
q10 8 39 29q29 16 57 16q21 0 41.5 -12t27.5 -20t21 -25l23 -29l-29 -27q-85 -76 -143 -110q-57 -39 -145 -66.5t-175 -27.5h-14q-134 0 -234 65zM375 631h528l10 49q7 28 9 56t-4.5 66t-25 67.5t-61 54t-104.5 32.5h-10q-75 0 -142 -38q-154 -77 -190 -238z" />
    <glyph glyph-name="f" unicode="f" horiz-adv-x="944" 
d="M522 1122l21 99q21 93 43.5 158t56.5 121.5t79 89t109.5 51t149.5 18.5q32 0 64.5 -2.5t76.5 -10t69 -26t19 -45.5q-6 -30 -8 -37q-3 -13 -10.5 -46.5t-11.5 -49.5l-13 -62l-47 31q-6 4 -19 10t-59 16.5t-100 10.5q-72 0 -102.5 -37t-55.5 -156l-28 -133h155q77 0 99 -28
q5 -6 7 -12.5t2.5 -14t0 -12.5t-2 -13t-1.5 -10l-27 -119h-278l-113 -536q-21 -98 -47 -166.5t-69 -125.5t-107 -86t-152 -30h-39q-49 0 -69 25q-9 11 -10.5 27t1 31.5t8.5 43.5q2 9 3 13q5 27 8 36q8 41 70 41h16h31h28q29 0 47.5 27t38.5 123l121 577h-168l25 113
q21 96 145 96h43z" />
    <glyph glyph-name="g" unicode="g" horiz-adv-x="1101" 
d="M115 451l43 206q47 224 202 361t361 137t305 -76t70 -211l-162 -782q-2 -6 -12 -66q-15 -78 -26.5 -122t-41.5 -103t-74 -96q-96 -80 -272 -80h-115q-128 0 -104 115l22 106h129l41 -2q144 0 170 23q22 18 45 143v2q-92 -39 -204 -39q-130 0 -230 65.5t-137 174.5
q-39 105 -10 244zM743 246l134 618q5 24 -14.5 40t-56 22.5t-65.5 9t-61 2.5q-118 0 -204.5 -85t-110.5 -196l-43 -206q-14 -75 -3 -126.5t45.5 -83.5t77.5 -46.5t95 -14.5q56 0 105 12.5t74 27.5t27 26z" />
    <glyph glyph-name="h" unicode="h" horiz-adv-x="1198" 
d="M1032 350l-6 -33q-22 -83 -12 -96q7 -10 41 -10h12q64 0 91 -25.5t16 -76.5l-23 -111h-139q-44 0 -79 9.5t-58.5 24t-39.5 37.5t-24.5 44t-12 50.5t-3.5 50.5t4 50.5t6.5 44t7.5 37.5l49 227q25 118 3 194t-63 112t-91 36h-205l-195 -913h-110q-49 0 -77.5 34.5
t-19.5 80.5l299 1405q10 49 53 82.5t93 33.5h110l-108 -512h18h187q128 0 218 -81.5t113 -217.5q21 -121 -6 -254z" />
    <glyph glyph-name="i" unicode="i" horiz-adv-x="440" 
d="M569 1249h-104q-49 0 -81.5 31.5t-23.5 69.5l25 120q9 42 55.5 79.5t96.5 37.5h12q22 0 42.5 -9.5t29.5 -25.5l4 -12v-33zM309 0h-102q-53 0 -83 35t-20 84l183 860q9 39 54.5 69.5t94.5 30.5h103z" />
    <glyph glyph-name="j" unicode="j" horiz-adv-x="976" 
d="M1020 1243h-105q-49 0 -81 31.5t-23 71.5l37 176q14 61 100 61h25q4 0 12.5 -1t13.5 -1h7q86 0 71 -74zM436 -203q25 10 46 49.5t42 137.5l207 989q9 38 55 69t95 31h102l-233 -1096q-64 -295 -265 -378q-85 -31 -213 -31q-72 0 -90 2q-97 7 -73 119l20 92h190
q80 0 117 16z" />
    <glyph glyph-name="k" unicode="k" horiz-adv-x="1144" 
d="M655 1638l-168 -786l70 -86l397 422l23 -4q30 -7 60.5 -28t39.5 -52q9 -37 -16 -76l-4 -2l-4 -8q-35 -45 -367 -393q71 -91 74 -95l194 -258q31 -32 48 -42.5t45 -10.5h28q86 0 66 -102q-11 -57 -40.5 -85t-62.5 -28h-39q-80 1 -131 27t-94 75l-352 435l-115 -541h-121
q-40 0 -65 33.5t-17 68.5l304 1426q9 49 44.5 79.5t82.5 30.5h120z" />
    <glyph glyph-name="l" unicode="l" horiz-adv-x="610" 
d="M610 1640l-254 -1202q-11 -49 -12 -84.5t9.5 -70.5t46 -53.5t94.5 -18.5h49h7q47 0 53.5 -12.5t-9.5 -87.5q-11 -45 -43.5 -81t-81.5 -36h-41q-74 1 -134 21t-98 54.5t-62.5 79.5t-28 95.5t5.5 103.5l249 1174q9 46 61 82t109 36h80z" />
    <glyph glyph-name="m" unicode="m" horiz-adv-x="1818" 
d="M815 113l119 555q28 129 -30 201.5t-187 72.5q-72 0 -143.5 -28.5t-77.5 -57.5l-183 -856h-114q-49 0 -76.5 33.5t-18.5 79.5l160 745q11 54 50 104.5t83 79.5q165 105 365 105q230 0 338 -133l18 -25q16 12 29 25q164 133 395 133q104 0 196 -36.5t144 -103t35 -145.5
l-160 -749q-9 -46 -51.5 -79.5t-91.5 -33.5h-115l182 852q1 7 -3 16.5t-17 21t-33.5 21.5t-57 16.5t-81.5 6.5q-130 0 -213 -68.5t-111 -197.5l-145 -668h-133l-23 8q-29 13 -42 42.5t-7 62.5z" />
    <glyph glyph-name="n" unicode="n" horiz-adv-x="1153" 
d="M1020 0h-111q-49 0 -76 33.5t-18 79.5l119 553q26 129 -28.5 197.5t-184.5 68.5q-134 0 -223 -66l-185 -866h-114q-49 0 -76.5 33.5t-18.5 79.5l172 809q6 28 41 63q14 14 72 53q77 51 178 80t195 29q226 0 336 -135q107 -138 65 -346z" />
    <glyph glyph-name="o" unicode="o" horiz-adv-x="1107" 
d="M539 -16h-17q-138 0 -244 70.5t-149 189.5t-16 252l34 168q29 135 122.5 249.5t228.5 182.5q133 65 274 65h16q135 0 245 -69t151 -179q44 -114 16 -249l-35 -168q-28 -129 -124.5 -250t-229.5 -193q-135 -69 -272 -69zM381 664l-35 -168q-13 -64 3 -120.5t51 -93
t79.5 -58t89.5 -21.5h17q120 0 221.5 92t124.5 201l35 168q28 126 -39.5 206t-173.5 80h-27q-120 0 -221.5 -89.5t-124.5 -196.5z" />
    <glyph glyph-name="p" unicode="p" horiz-adv-x="1079" 
d="M1157 954v-2q48 -139 0 -379l-6 -26q-56 -261 -200 -405t-351 -144h-141h-23h-20h-23l-86 -404h-104q-52 0 -80 31.5t-19 77.5l285 1341q11 50 51.5 81.5t94.5 31.5h311q103 0 183.5 -50t123.5 -142zM926 547l2 10q36 164 -2 264l-4 8l2 5q-30 96 -115 96h-219l-150 -705
h215q51 0 93 20t69.5 49.5t50 75t35 86t23.5 91.5z" />
    <glyph glyph-name="q" unicode="q" horiz-adv-x="1028" 
d="M516 -29h-10q-131 0 -235 68t-142 178q-41 112 -14 240l51 241q28 125 119 238.5t215 179.5q128 64 262 64h57q94 0 171 -32t112 -87q40 -64 24 -133l-204 -965q-2 -12 -8 -31t-7 -24q-20 -103 -18 -109q6 -6 90 -6h100l-8 -37q-14 -53 -18 -78q-9 -37 -41.5 -61.5
t-73.5 -24.5h-41q-36 0 -58.5 1t-49 4.5t-41.5 10t-31 18t-23 29t-12 42t-3 57t9 74.5q13 89 37 190q-112 -47 -209 -47zM385 698l-51 -241q-15 -72 9 -136t81 -102q56 -39 127 -39h10q30 0 96.5 20t104.5 44q10 6 14 10l142 666q1 4 -3 14q-12 18 -48 30.5t-76 12.5h-72
q-153 0 -268 -143q-47 -58 -66 -136z" />
    <glyph glyph-name="r" unicode="r" horiz-adv-x="919" 
d="M84 111l143 673q25 120 103 205.5t174.5 123.5t200.5 38q101 0 184.5 -34.5t126.5 -94.5q4 -4 6 -9t2.5 -10t0.5 -9t-2 -9.5t-3.5 -8.5t-5 -9t-5 -8t-5.5 -8t-5 -7l-4 -8q-20 -29 -32 -43.5t-33.5 -30.5t-42.5 -16q-16 0 -31 12q-85 82 -197 82q-84 0 -140.5 -52
t-78.5 -149l-157 -741h-105q-49 0 -77 33.5t-17 79.5z" />
    <glyph glyph-name="s" unicode="s" horiz-adv-x="968" 
d="M479 -16h-26q-191 0 -308 114q-43 33 -43 76q5 34 31 62l4 4l101 90l20 -25q58 -67 110.5 -89.5t108.5 -22.5h25l6 2q73 3 138 53t79 135q2 16 -8.5 29.5t-41 27.5t-48.5 20.5t-67 21.5l-9 3q-62 19 -94.5 30t-84 37t-76 54t-39.5 73.5t-5 102.5q25 146 155 250t300 113
q108 5 191.5 -31t156.5 -119q21 -18 16.5 -55t-37.5 -72l-4 -2l-88 -75l-29 32q-24 27 -40.5 43t-47.5 38.5t-69.5 33t-83.5 8.5q-91 -3 -158 -67q-45 -38 -51 -82q-3 -18 9 -33.5t41 -29.5t54.5 -23t69.5 -23q142 -46 199 -83q120 -78 100 -212q-24 -161 -152 -276
q-70 -63 -154 -96t-151 -37z" />
    <glyph glyph-name="t" unicode="t" horiz-adv-x="829" 
d="M791 199l-7 -35q-7 -32 -11 -49t-16 -47t-26 -46t-38 -29t-54 -13h-90q-47 0 -88 8t-83.5 28t-70.5 54.5t-48.5 87.5t-18.5 126.5t20 172.5l102 479h-167l20 96q9 44 51.5 75.5t93.5 31.5h46l43 200q9 46 51.5 79.5t91.5 33.5h108l-65 -313h194q51 0 80.5 -31.5
t20.5 -75.5l-21 -96h-317l-103 -479q-34 -146 -15.5 -202t112.5 -56h205z" />
    <glyph glyph-name="u" unicode="u" horiz-adv-x="1159" 
d="M514 -20q-55 0 -92 6q-157 29 -219 106q-65 73 -88.5 168t0.5 205l153 688h111q50 0 77 -33t17 -80l-129 -575q-25 -135 25 -199q54 -69 186 -69q141 0 225 65q86 73 111 203l117 575q11 47 52.5 80t90.5 33h111l-142 -688q-19 -101 -71 -186q-147 -248 -443 -293
q-40 -6 -92 -6z" />
    <glyph glyph-name="v" unicode="v" horiz-adv-x="1142" 
d="M463 45l-205 969q-2 12 2 37q6 36 39 64t107 28h81l160 -735l479 735h88q46 0 74 -28t21 -66q-7 -24 -27 -50l-610 -960q-49 -59 -117 -59q-33 0 -60 20.5t-32 44.5z" />
    <glyph glyph-name="w" unicode="w" horiz-adv-x="1898" 
d="M1876 1149h90q45 0 72 -27t20 -65q-2 -17 -24 -49l-617 -969q-43 -59 -114 -59q-36 0 -62 23.5t-31 53.5l-133 709l-463 -727q-46 -59 -116 -59q-31 0 -55.5 19.5t-34.5 45.5v4l-203 973q-3 18 0 37q21 90 147 90h82l158 -741l481 741h88q30 0 55 -12t33 -35v-4l148 -690
z" />
    <glyph glyph-name="x" unicode="x" horiz-adv-x="1073" 
d="M1061 1128h139q49 0 57 -26q5 -33 -22 -62l-465 -475l309 -565h-241q-46 0 -72 41l-184 338l-328 -336q-46 -43 -94 -43h-242l553 565l-264 473q-17 35 4 64q22 26 70 26h141l231 -409z" />
    <glyph glyph-name="y" unicode="y" horiz-adv-x="1159" 
d="M1108 395l-86 -401q-26 -124 -65 -204t-99.5 -126t-133 -63.5t-179.5 -18.5h-29q-45 0 -61 2q-23 2 -39.5 9.5t-24.5 20t-12 23t-3 27t2 23.5t3 20l20 92h174h25q33 -1 48.5 0t38.5 7t35 19t27 37t26 62t22 92q-111 -53 -283 -53q-90 0 -161.5 19.5t-118 54t-77.5 79.5
t-43 100t-12 111.5t13 116.5l147 670h111q49 0 77 -33.5t19 -79.5l-125 -557q-30 -123 21 -186q53 -68 192 -68q141 0 220 52t102 159l45 209l77 389q9 35 31 66l6 4q20 21 55 35t66 14h103l-105 -491l-37 -183z" />
    <glyph glyph-name="z" unicode="z" horiz-adv-x="1013" 
d="M809 0h-612q-49 0 -76 34.5t-19 74.5q6 29 27 53l651 760l-415 4l24 110q8 40 51.5 69.5t81.5 29.5h500q47 0 74 -31t18 -74q-10 -45 -41 -76l-635 -745h535l-21 -96q-11 -46 -52.5 -79.5t-90.5 -33.5z" />
    <glyph glyph-name="braceleft" unicode="{" horiz-adv-x="1114" 
d="M807 1167q-111 -375 -318 -522q41 -46 63 -111t24 -145.5t-3.5 -149.5t-19.5 -161q-8 -55 -1 -92.5t16.5 -60.5t28 -35.5t35.5 -16.5t38 -4q79 0 113 -39.5t22 -93.5l-17 -78h-163q-154 0 -232.5 86t-70.5 246q1 38 7 106t7 84q10 113 11 192t-29.5 122t-102.5 47
q-25 0 -35 2q-90 15 -76 100l23 100h94q39 3 73 15t61 29.5t53.5 50t46 63.5t44 83t42.5 95t45 113l26 63q60 161 174 246.5t267 85.5h164l-17 -76q-12 -56 -61.5 -95.5t-130.5 -39.5q-28 0 -51 -7t-51 -27t-53.5 -64.5t-45.5 -110.5z" />
    <glyph glyph-name="bar" unicode="|" horiz-adv-x="620" 
d="M723 1563l-137 -666l-240 -1116q-11 -49 -50 -93.5t-97 -45.5h-97l383 1785q15 61 54 99.5t86 38.5l4 -2h94z" />
    <glyph glyph-name="braceright" unicode="}" horiz-adv-x="1124" 
d="M727 1167q7 66 0 110.5t-27 64.5t-40 27t-48 7q-81 0 -114 39.5t-21 95.5l17 76h163q153 0 230.5 -85.5t70.5 -246.5q0 -10 -1 -31.5t-1 -31.5q-5 -105 -2 -186.5t18.5 -138t54.5 -88.5t106 -36h94l-23 -100q-5 -29 -32 -60t-85 -40q-14 -2 -38 -2q-44 -2 -79.5 -20.5
t-60 -44t-49 -76t-41.5 -95.5t-43 -125q-43 -132 -67 -190q-60 -160 -174.5 -246t-268.5 -86h-164l17 78q12 54 62.5 93.5t129.5 39.5q27 0 50.5 7.5t51.5 27.5t54 64t47 110q36 126 68.5 215t95 190.5t141.5 161.5q-141 147 -92 522z" />
    <glyph glyph-name="asciitilde" unicode="~" horiz-adv-x="991" 
d="M1020 862q51 0 67 -59q12 -39 -3.5 -93.5t-63.5 -105.5q-40 -42 -124.5 -63t-145.5 -21q-46 0 -177 25q-136 28 -186 28q-46 0 -58.5 -8t-15.5 -30l-20 -89h-103q-52 0 -73 41q-17 35 -14 74.5t20 77.5q22 41 52.5 70.5t56.5 43.5t60.5 21.5t51 8.5t41.5 1h29
q63 0 215 -24q156 -23 192 -23t45 7t15 38l16 70l31 6h4q4 1 11.5 1.5t18 1t26 1t32.5 0.5z" />
    <glyph glyph-name="exclamdown" unicode="&#xa1;" horiz-adv-x="544" 
d="M492 838h-31h-23q-85 0 -71 61l28 137q8 38 53.5 69.5t94.5 31.5h104l-47 -224q-16 -75 -104 -75h-4zM553 686l-213 -1001q-6 -28 -30 -51t-74 -23h-5h-30q-4 0 -11.5 -1t-11.5 -1q-13 0 -22.5 1.5t-25.5 6.5t-23 19t-3 36l195 914q9 40 54.5 70t95.5 30h104z" />
    <glyph glyph-name="cent" unicode="&#xa2;" horiz-adv-x="1073" 
d="M999 315l7 -10q14 -32 -1 -71.5t-51 -67.5q-77 -65 -171 -111t-187 -65l-6 -31q-5 -27 -38 -55.5t-69 -28.5h-20h-24t-23 0.5t-18.5 1t-13.5 0.5h-5l-31 2l25 119q-88 25 -152.5 85.5t-93.5 145.5q-40 111 -12 246l78 373q41 194 174 333t290 154l2 8q7 39 52 73t88 34
h108l-24 -113q115 -19 200 -93.5t93 -141.5q5 -49 -33 -74l-115 -76l-14 27q-50 85 -90.5 119t-83.5 41l-199 -938q140 24 274 164l31 32l23 -28q15 -18 30 -54zM422 229l190 895q-57 -27 -112.5 -97t-79.5 -179l-78 -373q-18 -84 7 -145.5t73 -100.5z" />
    <glyph glyph-name="sterling" unicode="&#xa3;" horiz-adv-x="1402" 
d="M1124 10h-931q-25 0 -48 17q-29 16 -36 43q-11 26 -5 51q8 31 33.5 59t59.5 41l4 2q177 92 205 223l47 218h-168l22 112q9 39 52 67.5t94 28.5h43l45 209q28 128 116.5 238.5t214.5 173.5q125 61 267 61h2q100 -5 184 -37.5t131 -86.5l10 -11v-2q26 -39 29 -45
q16 -35 8 -65q-3 -16 -18 -43l-2 -4l-99 -115l-24 33q-4 4 -6 8q-117 160 -260 160q-154 0 -258 -132q-43 -58 -60 -133l-45 -209h213q50 0 81 -29t22 -67l-23 -112h-336l-47 -218q-24 -116 -106 -215h514q46 0 75.5 -35.5t20.5 -78.5l-15 -72z" />
    <glyph glyph-name="currency" unicode="&#xa4;" horiz-adv-x="1261" 
d="M1206 223l-110 -90q-34 -31 -80 -31q-58 0 -84 37l-35 43q-118 -65 -256 -65h-25q-133 0 -225 65l-53 -43q-43 -37 -98 -37q-47 0 -70 33l-68 88l158 117q-46 109 -18 248l43 203q30 139 139 264l-84 110l31 25l92 65q31 23 65 23q36 0 60 -27q26 -30 37 -47
q113 58 237 58h25q119 0 211 -58q11 10 30.5 25.5t26.5 21.5q37 27 72 27q36 0 55 -25q52 -46 64 -63l18 -25l-129 -110q57 -125 27 -264l-43 -203q-26 -130 -123 -248zM983 588l43 203q23 106 -31 178.5t-155 72.5h-23q-101 0 -187.5 -72.5t-109.5 -178.5l-43 -203
q-22 -106 33.5 -181t155.5 -75h22q100 0 186.5 75t108.5 181z" />
    <glyph glyph-name="yen" unicode="&#xa5;" horiz-adv-x="1130" 
d="M354 391h-137q-48 0 -86 30.5t-27 88.5l21 96l274 -2l13 55h-138q-48 0 -86 30t-28 87l20 96h185q-43 142 -115 342q-78 228 -80 244q-8 42 25 76q26 33 71 33h119l203 -611l465 611h118q47 0 58 -33q12 -42 -8 -76q-11 -20 -181 -244q-226 -293 -264 -344h35
q58 -3 84 -26q44 -31 29 -88l-21 -94l-244 -3q-6 -2 -20 -2l-12 -53h127q53 -3 86 -26q42 -29 26 -89l-18 -94l-246 -4h-20l-82 -391h-119q-41 0 -68 35t-18 78z" />
    <glyph glyph-name="brokenbar" unicode="&#xa6;" horiz-adv-x="563" 
d="M377 1110l47 207q9 47 48 91.5t97 45.5h97l-123 -571q-17 -62 -55 -100t-85 -38h-98l45 240q5 32 10 43zM176 160l45 207q11 48 49.5 92t96.5 45h96l-123 -572q-15 -61 -53.5 -99t-85.5 -38h-99l48 240q0 15 8 43z" />
    <glyph glyph-name="section" unicode="&#xa7;" horiz-adv-x="1431" 
d="M1008 195l-19 -9q13 -47 0 -116q-23 -107 -106 -201t-199 -145q-110 -52 -223 -52q-106 0 -195 49t-135 132l-29 49l25 22q90 72 135 72q16 0 31 -7.5t23.5 -15.5t23.5 -24q23 -25 37 -37t47 -25.5t74 -13.5q62 0 120 28t99 79l16 16q26 40 33 76q11 49 -45 90
q-32 25 -111 69q-114 63 -176 113.5t-92 120.5q-38 88 -14 201q23 107 102 198t188 135q30 12 60 21q-12 70 2 147q23 108 101 198.5t190 135.5q102 41 207 41q95 0 192.5 -64.5t153.5 -164.5l10 -19l-16 -22l-7 -7t-11.5 -12t-15 -15t-18.5 -16t-19.5 -13.5t-19.5 -10.5
q-24 -12 -55 -12q-23 0 -39 8l-12 12l-39 49q-73 84 -166 84q-102 0 -176 -84q-30 -42 -41 -86q-23 -112 59 -170q1 -1 95 -61l24 -14l33 -15q111 -55 156 -96q105 -94 73 -242q-23 -109 -117 -215.5t-214 -160.5zM872 362q66 0 146.5 70.5t95.5 142.5q10 49 -39 89
q-20 10 -35 20q-7 5 -21.5 14t-28 17.5t-27.5 15.5l-13 6q-125 74 -159 105q-4 2 -21 2q-43 0 -96 -27.5t-86 -62.5q-30 -42 -41 -86q-21 -112 61 -170l4 -4l25 -15q29 -15 95 -50.5t104 -55.5q25 -11 36 -11z" />
    <glyph glyph-name="dieresis" unicode="&#xa8;" horiz-adv-x="571" 
d="M293 1518h6q50 0 64 -23t8 -51l-58 -264h-104q-49 0 -81.5 31t-23.5 69l37 176q14 64 103 64q14 0 20 -2h29zM594 1518h6q50 0 64 -23t8 -51l-58 -264h-104q-49 0 -81 31t-23 69l36 176q14 64 103 64q14 0 20 -2h29z" />
    <glyph glyph-name="copyright" unicode="&#xa9;" horiz-adv-x="1193" 
d="M1286 799l-33 -150q-43 -205 -239 -355.5t-420 -150.5h-16q-151 0 -281 74.5t-168 181.5q-41 121 -14 250l32 150q20 97 73.5 185.5t136 161.5t203 116t261.5 43h17q115 0 209.5 -39.5t154 -106.5t83 -161t1.5 -199zM1075 649l33 150q14 63 -4.5 124.5t-59 107t-102 74
t-129.5 28.5h-27q-96 0 -180.5 -32t-140.5 -83t-92 -107.5t-47 -111.5l-33 -150q-29 -141 64.5 -240.5t254.5 -99.5h17q78 0 156.5 34t137.5 85t100 110t52 111zM827 578l2 -7q19 -29 15 -49q-6 -28 -33 -51q-44 -37 -87 -57.5t-101 -20.5q-91 0 -134.5 57.5t-23.5 151.5
l53 250q12 58 47.5 106t85.5 74q44 25 113 25q66 0 104 -23q67 -46 58 -96q-5 -23 -27 -45l-100 -68l-2 39q-4 36 -16.5 47t-45.5 11q-35 0 -59 -31q-11 -17 -17 -39l-53 -250q-1 -18 -2.5 -29.5t4.5 -19.5t9.5 -12t11.5 -6t12 -2.5t10 -0.5q28 0 80 33q41 29 64 29
q16 0 32 -16z" />
    <glyph glyph-name="guillemotleft" unicode="&#xab;" horiz-adv-x="1333" 
d="M188 723l430 180q43 19 80 19q55 0 91 -32t30 -75l-8 -37l-346 -147l231 -164l17 -18l-6 -17q-12 -43 -61 -73.5t-105 -30.5q-37 0 -72 18l-319 193q-2 1 -6 3.5t-14.5 11t-15.5 18.5t-10.5 26t0.5 33q5 27 26 50t40 33zM805 723l430 180q43 19 80 19q55 0 91 -32t30 -75
l-9 -37l-346 -147l232 -164l16 -18l-6 -17q-12 -43 -61 -73.5t-105 -30.5q-37 0 -72 18l-319 193q-2 1 -6 3.5t-14 11t-15 18.5t-10.5 26t0.5 33q5 27 26 50t39 33z" />
    <glyph glyph-name="logicalnot" unicode="&#xac;" horiz-adv-x="1259" 
d="M297 1014h948q54 0 90 -38t25 -95l-86 -396q-10 -47 -65.5 -90t-118.5 -43h-121l84 396h-951l29 133q11 57 58 95t108 38z" />
    <glyph glyph-name="registered" unicode="&#xae;" horiz-adv-x="1193" 
d="M821 1325h17q115 0 209.5 -39.5t154 -106.5t83 -161t1.5 -199l-33 -149q-43 -205 -239 -355.5t-420 -150.5h-16q-151 0 -281.5 74.5t-167.5 181.5q-43 119 -16 250l32 149q20 97 73.5 185.5t136 161.5t203.5 116t263 43zM1073 670l33 149q14 63 -4 124.5t-58.5 107.5
t-101.5 74t-129 28h-27q-96 0 -180.5 -32t-140.5 -83t-92 -107.5t-47 -111.5l-33 -149q-29 -141 64 -240.5t255 -99.5h17q77 0 155.5 34t137 85t99.5 110t52 111zM854 600h8q27 0 43 -22q9 -13 9 -35.5t-3.5 -36.5t-7.5 -23l-8 -24h-72q-67 0 -100 41l-25 24l-71 76h-39
l-31 -141h-70q-31 0 -47 22t-10 49l98 461q6 31 31.5 51.5t56.5 20.5h154q53 0 97 -29.5t59 -75.5q16 -41 6 -100l-12 -51q-11 -64 -74 -127q-15 -21 -41 -37q46 -43 49 -43zM776 807l12 51q6 39 -18 57l-10 9l-15 2h-88l-39 -185h84q36 0 62 33q9 15 12 33z" />
    <glyph glyph-name="macron" unicode="&#xaf;" horiz-adv-x="833" 
d="M125 1438l696 -2q63 -3 93.5 -34.5t17.5 -80.5l-21 -96l-350 -2q-12 -2 -35 -2l-309 2q-48 0 -86 30t-27 88z" />
    <glyph glyph-name="degree" unicode="&#xb0;" horiz-adv-x="583" 
d="M422 1556h86q87 0 140 -63.5t34 -146.5l-53 -256q-19 -83 -98.5 -147t-165.5 -64h-86q-85 0 -138.5 64t-34.5 147l54 256q19 83 98 146.5t164 63.5zM408 1090l53 256v6h-76q0 -1 -1 -3t-1 -3l-53 -256l-2 -5h75q5 0 5 5z" />
    <glyph glyph-name="plusminus" unicode="&#xb1;" horiz-adv-x="1208" 
d="M901 864h293q63 -1 94 -32.5t19 -79.5l-21 -97l-428 -2l-6 -26l-41 -187q-9 -47 -48.5 -91.5t-96.5 -45.5h-97l76 348l-293 2q-28 0 -55 11t-45.5 39t-11.5 67l20 96l430 -2l45 215q15 61 53 98t84 37h101zM125 225l934 -2q61 -1 92.5 -33t19.5 -79l-20 -97l-668 -4
l-266 2q-47 0 -85.5 30t-27.5 87z" />
    <glyph glyph-name="acute" unicode="&#xb4;" horiz-adv-x="495" 
d="M561 1585q15 -18 21.5 -26.5t11.5 -22.5t2 -29q-5 -24 -27 -41l-254 -209q-25 -22 -65 -22q-54 0 -92 41l-56 72l326 270q27 24 57 24q31 0 60 -34q14 -18 16 -23z" />
    <glyph glyph-name="paragraph" unicode="&#xb6;" horiz-adv-x="1110" 
d="M109 1055q9 44 30.5 96t66 117t101.5 116.5t145.5 87t190.5 35.5h569l-356 -1677q-8 -39 -25 -66.5t-33.5 -41t-44.5 -20.5t-44.5 -8t-46.5 -1h-37l346 1630h-183l-315 -1483q-30 -143 -174 -143h-14h-45l204 956q-71 4 -127.5 22.5t-93 46t-62 63t-38 72t-17.5 74.5
t-3.5 68t6.5 56z" />
    <glyph glyph-name="periodcentered" unicode="&#xb7;" horiz-adv-x="260" 
d="M258 786q53 0 83 -37t19 -87t-56.5 -87.5t-98.5 -37.5q-51 0 -81.5 37.5t-19.5 87.5t57 87t97 37z" />
    <glyph glyph-name="cedilla" unicode="&#xb8;" 
 />
    <glyph glyph-name="guillemotright" unicode="&#xbb;" horiz-adv-x="1306" 
d="M391 903l352 -180q2 -1 6 -3.5t14 -11t16.5 -18.5t10.5 -26t1 -33q-6 -27 -27.5 -50t-39.5 -33l-19 -9l-402 -193q-41 -18 -82 -18q-54 0 -89.5 30.5t-29.5 73.5l2 17l25 18l301 164l-285 147l9 37q12 43 61 75t104 32q36 0 72 -19zM1008 903l352 -180q2 -1 6 -3.5
t13.5 -11t16.5 -18.5t10.5 -26t0.5 -33q-6 -27 -27.5 -50t-39.5 -33l-19 -9l-401 -193q-40 -18 -82 -18q-54 0 -89.5 30.5t-29.5 73.5l2 17l24 18l302 164l-285 147l8 37q12 43 61.5 75t104.5 32q36 0 72 -19z" />
    <glyph glyph-name="questiondown" unicode="&#xbf;" horiz-adv-x="913" 
d="M834 924h-7q-82 0 -71 73l49 224h104q49 0 81 -31t24 -70l-29 -137q-12 -61 -100 -61h-23q-8 2 -28 2zM475 -410h-18q-120 0 -208.5 60t-125 163t-10.5 224q11 55 30 102t38 81t49 66.5t51.5 51.5t59.5 42.5t57.5 34t60.5 31.5q28 15 63.5 26t57 18.5t43.5 21t37 40.5
t24 71l41 194h88q60 0 83.5 -36.5t16.5 -84.5l-12 -59q-14 -67 -37.5 -118t-47.5 -81.5t-60 -55.5t-63 -36.5t-70 -29.5t-68 -31q-36 -19 -55 -29.5t-47.5 -28.5t-44.5 -34.5t-34.5 -39.5t-30 -51.5t-19.5 -62.5q-24 -107 36.5 -174.5t157.5 -67.5t170 70q5 5 17.5 14.5
t42 23t55.5 13.5q30 0 59 -16q8 -7 21 -18t21 -18t9 -7l21 -21l-23 -26q-182 -222 -436 -222z" />
    <glyph glyph-name="Egrave" unicode="&#xc8;" horiz-adv-x="1388" 
d="M950 1782l-166 207q-13 18 -8 41q1 8 5 15t7.5 12.5t12 13t13 11.5t16 13.5t16.5 13.5q3 3 11.5 10t12.5 11q40 35 74 35q26 0 49 -23l211 -270l-90 -74q-48 -41 -106 -41q-42 0 -58 25zM1042 0h-852q-38 0 -65.5 31.5t-20.5 66.5l308 1446q8 34 48.5 65t78.5 31h852
q46 0 75.5 -29t22.5 -67l-25 -114h-848l-81 -388h616q52 0 81.5 -33.5t18.5 -80.5l-24 -115h-742l-127 -600h848l-24 -115q-8 -38 -50.5 -68t-89.5 -30z" />
    <glyph glyph-name="Eacute" unicode="&#xc9;" horiz-adv-x="1390" 
d="M895 1757q-57 0 -90 41l-57 74l325 270q30 23 57 23q32 0 60 -33q8 -12 18 -23q15 -19 21 -27.5t10.5 -22.5t1.5 -29q-5 -26 -24 -41l-256 -209q-23 -23 -66 -23zM1042 0h-852q-38 0 -65.5 31.5t-20.5 66.5l308 1446q8 34 48.5 65t78.5 31h852q47 0 77 -29t23 -67
l-25 -114h-850l-81 -388h618q51 0 79.5 -33.5t18.5 -80.5l-24 -115h-742l-127 -600h850l-24 -115q-7 -38 -51 -68t-91 -30z" />
    <glyph glyph-name="Ecircumflex" unicode="&#xca;" horiz-adv-x="1390" 
d="M721 1763h-45q-29 0 -43 19q-14 21 -4 73q2 2 2 9q7 29 37 53l4 4l303 195q44 26 92 26q51 0 80 -26l225 -199q19 -24 12 -53v-6q-13 -50 -38 -72q-26 -23 -68 -23h-31q-46 0 -69 23q-120 110 -162 143q-19 -11 -47 -31q-72 -50 -170 -112q-36 -23 -78 -23zM1042 0h-852
q-38 0 -65.5 31.5t-20.5 66.5l308 1446q8 34 48.5 65t78.5 31h852q47 0 77 -29t23 -67l-25 -114h-850l-81 -388h618q51 0 79.5 -33.5t18.5 -80.5l-24 -115h-742l-127 -600h850l-24 -115q-7 -38 -51 -68t-91 -30z" />
    <glyph glyph-name="Edieresis" unicode="&#xcb;" horiz-adv-x="1390" 
d="M948 1772h-106q-48 0 -80 31.5t-23 70.5l37 176q14 61 101 61h22q5 0 13.5 -1t13.5 -1h6q51 0 65.5 -22t8.5 -51zM1229 1772h-105q-50 0 -81.5 31t-22.5 71l37 176q14 61 100 61h25q4 0 12.5 -1t13.5 -1h4q51 0 65.5 -22t8.5 -51zM1040 0h-852q-38 0 -65 31.5t-19 66.5
l308 1446q6 34 47.5 65t79.5 31h852q47 0 77 -29t23 -67l-25 -114h-850l-81 -388h618q51 0 80 -33.5t20 -80.5l-24 -115h-744l-127 -600h850l-24 -115q-9 -38 -53 -68t-91 -30z" />
    <glyph glyph-name="Icircumflex" unicode="&#xce;" horiz-adv-x="987" 
d="M426 1704h-47q-29 0 -43 18q-15 21 -4 74q4 4 4 8q8 32 35 54l4 4l303 194q46 27 92 27q50 0 80 -27l225 -198q19 -24 12 -54v-6q0 -1 -2 -8.5t-3 -12t-4 -12t-6.5 -13.5t-9.5 -13t-13 -13q-25 -22 -68 -22h-31q-47 0 -69 22q-50 46 -162 144q-19 -11 -47 -31
q-11 -7 -38 -26t-61 -41.5t-71 -45.5q-34 -22 -76 -22zM248 213l260 1176h-121l14 63l17 70q6 31 39.5 54t66.5 23h273q41 0 59 -25.5t12 -60.5l-26 -124h-109l-254 -1178h25q13 0 22 -1.5t24 -7.5t21 -22.5t0 -42.5l-18 -86q-9 -51 -59 -51h-347q-19 0 -30 7.5t-12 21.5
t0 23t4 24l12 61q6 27 18 44t30 23t29.5 7.5t30.5 1.5h19z" />
    <glyph glyph-name="Idieresis" unicode="&#xcf;" horiz-adv-x="915" 
d="M625 1706h-105q-50 0 -81.5 30t-24.5 70l39 176q12 62 98 62h24h29h4q50 0 64 -23t8 -53zM958 1706h-104q-49 0 -80.5 30t-23.5 70l36 176q14 62 101 62h22h29h6q82 0 72 -76zM248 213l258 1176h-119l12 63l17 70q7 31 40.5 54t67.5 23h271q41 0 60 -26t13 -60l-26 -124
h-111l-254 -1178h25h11t14 -1.5t15.5 -4.5t14.5 -8t11 -13t5.5 -19.5t-2.5 -27.5l-18 -86q-9 -51 -59 -51h-349q-8 0 -14.5 1.5t-11 3.5t-8 6.5t-5.5 7.5t-2.5 9t-1 9t0 10.5t0.5 10t1.5 10t1.5 8.5l15 61q6 27 18 44t30 23t29 7.5t29 1.5h21z" />
    <glyph glyph-name="Ocircumflex" unicode="&#xd4;" horiz-adv-x="1216" 
d="M1071 2093l221 -197q20 -26 13 -55v-6q0 -1 -2 -9t-3 -11.5t-4 -12t-6.5 -14t-9 -12.5t-12.5 -13q-28 -22 -68 -22h-33q-39 0 -67 22q-139 128 -162 146q-1 -1 -47 -33q-4 -3 -62.5 -42.5t-107.5 -70.5q-36 -22 -78 -22h-45q-32 0 -45 18q-17 24 0 74v8q7 30 37 55l4 2
l303 195q42 27 90 27q50 0 84 -27zM1309 1159l-144 -672q-28 -131 -124.5 -251.5t-229.5 -190.5q-137 -70 -272 -70h-17q-138 0 -245 70t-148 188q-43 120 -16 254l143 672q28 135 120.5 249.5t227.5 182.5q139 68 275 68h16q135 0 244.5 -69t152.5 -181q44 -118 17 -250z
M922 487l143 672q15 76 -7.5 138.5t-80.5 101.5q-58 37 -129 37h-17q-70 0 -140 -37t-126 -103q-48 -59 -63 -137l-144 -672q-17 -75 6 -140t80 -103q53 -37 127 -37h17q157 0 270 141q49 60 64 139z" />
    <glyph glyph-name="multiply" unicode="&#xd7;" horiz-adv-x="1306" 
d="M754 395l-308 -233q-43 -37 -88 -37l-256 -2l535 446l-281 375q-14 35 4 62q19 28 70 28h137l254 -317l389 317h140q47 0 57 -28q9 -27 -23 -62l-2 -4l-436 -371l344 -446l-256 2q-45 0 -71 37z" />
    <glyph glyph-name="Ucircumflex" unicode="&#xdb;" horiz-adv-x="1290" 
d="M1065 2109l223 -198q11 -13 14 -29t1 -24l-3 -7q0 -2 -2 -9t-3 -11t-3.5 -12t-6 -13.5t-9 -12.5t-12.5 -13q-26 -23 -70 -23h-31q-44 0 -67 23q-46 42 -162 143l-49 -31q-67 -47 -168 -112q-36 -23 -78 -23h-47q-29 0 -43 19q-12 21 -2 73q0 1 2 4.5t2 4.5q8 32 35 55
l4 2l303 194q46 27 92 27q50 0 80 -27zM1167 1638h121q54 0 83.5 -33.5t19.5 -82.5l-217 -1022q-29 -138 -126.5 -258.5t-232.5 -188.5q-135 -69 -274 -69h-17q-142 0 -248 68.5t-147 185.5q-45 116 -14 262l217 1022q10 49 53 82.5t94 33.5h123l-242 -1138
q-13 -68 -0.5 -117t47 -81.5t78.5 -48t95 -15.5h16q272 0 330 262z" />
    <glyph glyph-name="egrave" unicode="&#xe8;" horiz-adv-x="1044" 
d="M819 1231q-42 0 -55 22l-168 209q-11 16 -6 41q3 15 14 29.5t20 22.5t33 28q16 12 27 23q48 32 74 32q28 0 47 -22l211 -273l-86 -71q-54 -41 -111 -41zM276 51q-100 65 -145.5 178t-19.5 238l45 213q27 128 120 244q88 107 220 172t264 65h16q207 -15 304 -146t53 -335
l-48 -225q-11 -26 -30 -32.5t-49 -6.5h-674q1 -21 5 -42t12 -48.5t24.5 -50t39.5 -42.5t59 -31.5t81 -11.5q79 0 134 12t74 23t48 33q22 18 37 29q32 16 57 16q21 0 41.5 -12t27.5 -20t21 -25l23 -29l-29 -27q-85 -76 -143 -110q-57 -39 -145 -66.5t-175 -27.5h-14
q-131 0 -234 65zM375 631h528l10 49q7 28 9 56t-4.5 66t-25 67.5t-61 54t-104.5 32.5h-10q-75 0 -142 -38q-154 -79 -190 -238z" />
    <glyph glyph-name="eacute" unicode="&#xe9;" horiz-adv-x="1044" 
d="M702 1231q-57 0 -90 41l-57 71l326 273q31 22 59 22q30 0 57 -32q3 -6 10.5 -13.5t8.5 -9.5q32 -40 35 -57q2 -11 0 -23q-5 -24 -27 -41l-254 -209q-25 -22 -68 -22zM276 51q-100 65 -145.5 178t-19.5 238l45 213q27 128 120 244q88 107 220 172t264 65h16
q207 -15 304 -146t53 -335l-48 -225q-11 -26 -30 -32.5t-49 -6.5h-674q1 -21 5 -42t12 -48.5t24.5 -50t39.5 -42.5t59 -31.5t81 -11.5q79 0 134 12t74 23t48 33q22 18 37 29q32 16 57 16q21 0 41.5 -12t27.5 -20t21 -25l23 -29l-29 -27q-85 -76 -143 -110
q-57 -39 -145 -66.5t-175 -27.5h-14q-131 0 -234 65zM375 631h528l10 49q7 28 9 56t-4.5 66t-25 67.5t-61 54t-104.5 32.5h-10q-75 0 -142 -38q-154 -79 -190 -238z" />
    <glyph glyph-name="ecircumflex" unicode="&#xea;" horiz-adv-x="1099" 
d="M537 1247h-45q-27 0 -43 21q-15 22 -5 73q2 2 2 9q7 29 37 53l4 4l304 195q44 26 92 26q51 0 80 -26l225 -199q19 -24 12 -53v-7q-12 -50 -39 -71q-25 -25 -67 -25h-31q-42 0 -70 25q-120 110 -162 143q-19 -11 -47 -31q-57 -41 -170 -112q-36 -25 -77 -25zM279 51
q-102 65 -148 178t-18 238l45 213q27 131 118 244q89 108 221.5 172.5t264.5 64.5h16q207 -15 303.5 -146t53.5 -335l-50 -225q-11 -26 -30 -32.5t-49 -6.5h-674q2 -27 7 -51.5t20 -58.5t37.5 -58t63.5 -41t95 -17q79 0 134 12t74 23t46 33q10 8 39 29q29 16 57 16
q21 0 41.5 -12t27.5 -20t21 -25l23 -29l-29 -27q-85 -76 -143 -110q-57 -39 -145 -66.5t-175 -27.5h-14q-133 0 -233 65zM377 631h528l10 49q7 28 9 56t-4.5 66t-25 67.5t-61 54t-104.5 32.5h-10q-77 0 -144 -38q-75 -38 -124 -100t-64 -138z" />
    <glyph glyph-name="edieresis" unicode="&#xeb;" horiz-adv-x="1048" 
d="M516 1374l37 176q12 62 98 62h25q4 0 14 -1t15 -1h6q35 0 53 -12.5t18 -29v-32.5l-57 -264h-104q-50 0 -82 31t-23 71zM1092 1272h-105q-50 0 -81.5 31t-22.5 71l37 176q12 62 98 62h22q5 0 14.5 -1t14.5 -1h6q84 0 74 -74zM276 51q-101 65 -146 178t-17 238l45 213
q27 131 118 244q89 108 221.5 172.5t264.5 64.5h16q205 -15 302.5 -146t54.5 -335l-50 -225q-11 -26 -30 -32.5t-49 -6.5h-674q2 -27 7 -51.5t20 -58.5t37.5 -58t63.5 -41t95 -17q79 0 134 12t74 23t46 33q10 8 39 29q29 16 57 16q21 0 41.5 -12t27.5 -20t21 -25l23 -29
l-29 -27q-87 -77 -145 -110q-56 -38 -143.5 -66t-174.5 -28h-14q-133 0 -236 65zM377 631h528l10 49q7 28 9 56t-4.5 66t-25.5 67.5t-61.5 54t-105.5 32.5h-10q-75 0 -142 -38q-75 -38 -124 -100t-64 -138z" />
    <glyph glyph-name="icircumflex" unicode="&#xee;" horiz-adv-x="780" 
d="M170 1382l303 195q42 27 92 27q48 0 82 -27l221 -197q20 -26 13 -55v-6q-6 -45 -37 -72q-25 -22 -68 -22h-33q-42 0 -67 22q-139 128 -162 146q-11 -11 -47 -33q-4 -3 -62.5 -42.5t-107.5 -70.5q-32 -22 -78 -22h-45q-27 0 -45 18q-17 24 0 74v8q7 30 37 55zM309 -2h-102
q-53 0 -83 35t-20 84l183 858q8 38 53 69t94 31h103z" />
    <glyph glyph-name="idieresis" unicode="&#xef;" horiz-adv-x="659" 
d="M418 1231h-105q-50 0 -81.5 30t-22.5 70l37 176q14 62 100 62h23h30h4q50 0 64 -23t8 -53zM702 1231h-106q-48 0 -79.5 30.5t-22.5 69.5l36 176q14 62 101 62h22h29h6q50 0 64 -23t8 -53zM307 -2h-102q-53 0 -82 35t-19 84l183 856q8 38 53 69t94 31h103z" />
    <glyph glyph-name="ocircumflex" unicode="&#xf4;" horiz-adv-x="1110" 
d="M524 1239h-47q-25 0 -43 18q-13 21 -2 74q4 4 4 8q8 33 35 56l4 2l303 194q46 27 92 27q50 0 80 -27l226 -196q19 -27 12 -56l-2 -6q-5 -44 -35 -71q-33 -23 -72 -23h-30q-45 0 -68 23q-46 42 -162 143q-19 -11 -47 -31q-10 -7 -38.5 -25.5t-62 -41t-69.5 -45.5t-78 -23z
M539 -16h-17q-138 0 -244 70.5t-149 189.5t-16 252l37 168q28 135 121 250t229 182q130 65 272 65h16q135 0 245 -69t153 -179q43 -119 16 -249l-37 -168q-28 -129 -124.5 -250t-229.5 -193q-132 -69 -272 -69zM383 664l-37 -168q-13 -64 3 -120.5t51 -93t79.5 -58
t89.5 -21.5h17q120 0 221.5 92t124.5 201l37 168q26 126 -40.5 206t-172.5 80h-27q-120 0 -221.5 -89.5t-124.5 -196.5z" />
    <glyph glyph-name="divide" unicode="&#xf7;" horiz-adv-x="1071" 
d="M741 1079h29h6q88 0 72 -75l-47 -224h-105q-49 0 -81.5 31t-24.5 70l28 137q14 61 101 61h22zM1151 471l18 94q12 49 -18.5 80.5t-93.5 34.5h-934l-19 -94q-11 -58 27 -86.5t86 -28.5h934zM621 381h6q87 0 71 -76l-47 -223h-104q-49 0 -81.5 31t-23.5 69l29 137
q12 62 98 62h23h29z" />
    <glyph glyph-name="ucircumflex" unicode="&#xfb;" horiz-adv-x="1159" 
d="M535 1239h-48q-29 0 -43 18q-15 21 -4 74q4 4 4 8q8 31 35 56l4 2l303 194q46 27 93 27q49 0 79 -27l226 -196q20 -25 12 -56l-2 -6q-6 -46 -35 -71q-30 -23 -69 -23h-31q-47 0 -70 23q-28 26 -162 143q-19 -11 -47 -31q-10 -6 -38 -25.5t-61.5 -41t-70.5 -45.5
q-36 -23 -75 -23zM514 -20q-55 0 -92 6q-157 29 -219 106q-65 73 -88.5 168t0.5 205l153 688h111q50 0 77 -33t17 -80l-129 -575q-28 -134 25 -199q54 -69 186 -69q141 0 225 65q86 73 111 203l117 575q11 47 52.5 80t90.5 33h111l-142 -688q-18 -93 -71 -186
q-147 -248 -443 -293q-40 -6 -92 -6z" />
    <glyph glyph-name="circumflex" unicode="&#x2c6;" horiz-adv-x="763" 
d="M201 1239h-47q-30 0 -43 18q-13 21 -2 74q4 4 4 8q9 34 32 56l7 2l303 194q46 27 92 27q50 0 80 -27l223 -196q21 -27 14 -56l-2 -6q0 -1 -2 -9t-3 -11.5t-4 -11.5t-6 -13.5t-8.5 -12.5t-11.5 -13q-33 -23 -71 -23h-31q-45 0 -68 23q-79 71 -161 143l-50 -31
q-80 -56 -167 -112q-36 -23 -78 -23z" />
    <glyph glyph-name="caron" unicode="&#x2c7;" horiz-adv-x="761" 
d="M762 1567h31q41 0 57 -23q20 -25 8 -71l-2 -7q-7 -30 -35 -55l-6 -2l-303 -195q-44 -26 -92 -26q-51 0 -80 26l-223 197q-20 28 -13 55v9q10 52 35 73q24 19 51 19h48q42 0 65 -23q23 -20 123 -112q8 -8 19.5 -18.5t13.5 -12.5q45 25 223 143q36 23 80 23z" />
    <glyph glyph-name="breve" unicode="&#x2d8;" horiz-adv-x="714" 
d="M817 1636v-26q3 -97 -88 -185q-63 -64 -148 -99.5t-178 -37.5h-6q-98 1 -168.5 46t-101.5 108q-50 92 -6 170l12 24h199l-2 -32q-5 -56 27.5 -78.5t84.5 -22.5h7q131 0 153 99l8 34h207z" />
    <glyph glyph-name="dotaccent" unicode="&#x2d9;" horiz-adv-x="270" 
d="M346 1509q35 -15 25 -65l-58 -262h-104q-49 0 -81 30.5t-24 69.5l37 176q14 62 101 62h22h31h4q34 0 47 -11z" />
    <glyph glyph-name="ring" unicode="&#x2da;" horiz-adv-x="583" 
d="M422 1556h86q87 0 140 -63.5t34 -146.5l-53 -256q-19 -83 -98.5 -147t-165.5 -64h-86q-85 0 -138.5 64t-34.5 147l54 256q19 83 98 146.5t164 63.5zM408 1090l53 256v6h-76q0 -1 -1 -3t-1 -3l-53 -256l-2 -5h75q5 0 5 5z" />
    <glyph glyph-name="ogonek" unicode="&#x2db;" 
 />
    <glyph glyph-name="hungarumlaut" unicode="&#x2dd;" horiz-adv-x="618" 
d="M436 1493q12 -24 -6 -59l-145 -252h-95q-62 0 -81 43q-15 35 6 69l98 174q30 52 106 52h23h29h6q47 0 59 -27zM651 1520h6q48 0 60 -27q12 -24 -6 -59l-146 -252h-94q-60 0 -82 43q-14 31 6 69l99 174q32 52 106 52h23h28z" />
    <glyph glyph-name="endash" unicode="&#x2013;" horiz-adv-x="833" 
d="M905 596q41 -31 29 -88l-21 -94l-323 -4l-373 2q-47 0 -85.5 29.5t-27.5 86.5l21 97l696 -2q57 -3 84 -27z" />
    <glyph glyph-name="emdash" unicode="&#x2014;" horiz-adv-x="1488" 
d="M1561 596q41 -30 28 -88l-20 -94l-1024 -4l-328 2q-47 0 -85.5 29.5t-27.5 86.5l21 97l1352 -2q57 -3 84 -27z" />
    <glyph glyph-name="quoteleft" unicode="&#x2018;" horiz-adv-x="311" 
d="M319 1456q-6 0 -8 -2q-10 -7 -10 -20q91 -14 72 -105l-31 -143q-14 -64 -104 -64h-25h-29h-6q-52 0 -66 24.5t-6 55.5l41 197q34 162 232 162h35l-11 -48q-6 -25 -29 -41t-55 -16z" />
    <glyph glyph-name="quoteright" unicode="&#x2019;" horiz-adv-x="309" 
d="M197 1229q6 0 8 2q9 6 12 22q-95 12 -76 103l31 143q14 64 107 64h22h31h4q91 0 74 -80l-41 -197q-34 -162 -232 -162h-35l11 47q6 25 29 41.5t55 16.5z" />
    <glyph glyph-name="quotesinglbase" unicode="&#x201a;" horiz-adv-x="309" 
d="M197 -29q6 0 8 2q9 6 12 23q-94 12 -76 102l31 144q14 63 107 63h22h31h4q91 0 74 -80l-41 -196q-34 -162 -232 -162h-35l11 47q6 25 29 41t55 16z" />
    <glyph glyph-name="quotedblleft" unicode="&#x201c;" horiz-adv-x="673" 
d="M317 1456q-6 0 -8 -2q-9 -6 -12 -22q95 -12 76 -103l-31 -143q-14 -64 -106 -64h-23h-31h-4q-91 0 -74 80l41 197q34 162 232 162h35l-11 -48q-6 -25 -29 -41t-55 -16zM682 1456q-6 0 -8 -2q-10 -7 -10 -20q90 -14 71 -105l-30 -143q-14 -64 -105 -64h-25h-28h-6
q-52 0 -66 24.5t-6 55.5l41 197q34 162 231 162h35l-10 -48q-6 -25 -29 -41t-55 -16z" />
    <glyph glyph-name="quotedblright" unicode="&#x201d;" horiz-adv-x="673" 
d="M197 1229q6 0 8 2q10 7 10 20q-91 14 -72 105l31 143q14 64 105 64h24h29h6q52 0 66 -24.5t6 -55.5l-41 -197q-34 -162 -232 -162h-35l11 47q6 25 29 41.5t55 16.5zM561 1229q6 0 8 2q10 7 13 22q-95 12 -76 103l31 143q14 64 106 64h23h30h4q91 0 74 -80l-41 -197
q-34 -162 -231 -162h-35l10 47q6 25 29 41.5t55 16.5z" />
    <glyph glyph-name="quotedblbase" unicode="&#x201e;" horiz-adv-x="673" 
d="M197 -29q6 0 8 2q10 7 10 21q-90 14 -72 104l31 144q14 63 105 63h24h29h6q52 0 66 -24.5t6 -55.5l-41 -196q-34 -162 -232 -162h-35l11 47q6 25 29 41t55 16zM561 -29q6 0 8 2q10 6 13 23q-94 12 -76 102l31 144q14 63 106 63h23h30h4q91 0 74 -80l-41 -196
q-34 -162 -231 -162h-35l10 47q6 25 29 41t55 16z" />
    <glyph glyph-name="dagger" unicode="&#x2020;" horiz-adv-x="1071" 
d="M1145 1102q38 -31 26 -88l-18 -94l-430 -2l-4 -27l-223 -1038q-11 -49 -50.5 -94t-97.5 -46h-96l258 1202h-293q-48 0 -86 29.5t-27 87.5l21 96h430l47 215q13 61 52 98.5t85 37.5h101l-74 -351h293q58 -3 86 -26z" />
    <glyph glyph-name="daggerdbl" unicode="&#x2021;" horiz-adv-x="1247" 
d="M893 891l-127 -584l293 -2q62 -1 93 -32.5t19 -79.5l-20 -97h-430l-43 -209q-11 -48 -51 -93t-97 -46h-96l74 346h-291q-47 0 -84.5 30t-28.5 87l21 96h428l131 608h-293q-47 0 -84 29.5t-28 87.5l20 96h430l47 215q13 61 52 98.5t85 37.5h101l-74 -351h293q63 -3 94 -34
t21 -80l-21 -94l-428 -2z" />
    <glyph glyph-name="bullet" unicode="&#x2022;" horiz-adv-x="651" 
d="M494 1016q132 0 206.5 -93t47.5 -218t-140.5 -218.5t-245.5 -93.5q-130 0 -204.5 93.5t-48.5 218.5t140.5 218t244.5 93z" />
    <glyph glyph-name="ellipsis" unicode="&#x2026;" horiz-adv-x="1001" 
d="M313 0h-104q-49 0 -81 30.5t-24 69.5l29 138q14 61 100 61h23h29h6q87 0 71 -76zM647 299h6q30 0 45 -10q37 -16 27 -66l-49 -223h-107q-47 0 -78.5 31t-23.5 69l29 138q14 61 100 61h22h29zM1026 299h6q86 0 70 -76l-49 -223h-105q-49 0 -80.5 30.5t-23.5 69.5l28 138
q14 61 101 61h24h29z" />
    <glyph glyph-name="perthousand" unicode="&#x2030;" horiz-adv-x="1845" 
d="M725 1462h47q85 0 138 -64t34 -145l-55 -260q-17 -82 -96 -145.5t-164 -63.5h-47q-83 0 -137 65t-37 144l55 260q17 80 98 144.5t164 64.5zM1188 850l-756 -748q-72 -61 -158 -61h-172l680 676q15 15 19 18l672 664q70 59 155 59h174l-594 -586q-6 -8 -20 -22zM668 993
l55 260q2 2 2 4h-35l-4 -4l-55 -262zM1194 674h45q86 0 138.5 -63t33.5 -146l-53 -258q-19 -82 -97.5 -145.5t-164.5 -63.5h-45q-86 0 -138.5 63.5t-33.5 145.5l53 258q19 83 97.5 146t164.5 63zM1726 674h46q86 0 138.5 -63t33.5 -146l-54 -258q-19 -82 -97.5 -145.5
t-164.5 -63.5h-45q-86 0 -138.5 63.5t-33.5 145.5l53 258q19 83 97.5 146t164.5 63zM1137 207l53 258l2 4h-35q0 -2 -2 -4l-53 -258q-2 -2 -2 -4h35q0 2 2 4zM1669 207l53 258l2 4h-34q0 -2 -2 -4l-54 -258q-2 -2 -2 -4h35q0 2 2 4z" />
    <glyph glyph-name="guilsinglleft" unicode="&#x2039;" horiz-adv-x="686" 
d="M782 829l-370 -198l262 -211l10 -10l-4 -19q-12 -43 -61 -73.5t-105 -30.5q-50 0 -72 18l-290 230q-19 13 -29 26l-4 4l-4 4q-1 2 -4.5 10t-4.5 13l-2 2q-4 15 0 37q1 11 17 37q17 26 33 37q13 11 32 20l9 6l395 211q40 19 78 19q55 0 90.5 -32.5t27.5 -76.5z" />
    <glyph glyph-name="guilsinglright" unicode="&#x203a;" horiz-adv-x="679" 
d="M184 829l9 23q10 44 58.5 76.5t104.5 32.5q38 0 70 -19l305 -211l8 -6q14 -10 21 -20q12 -11 20 -37q3 -14 0 -37q-3 -14 -16 -37l-2 -2q-6 -8 -21 -23l-4 -4l-4 -4q-18 -15 -41 -26l-389 -230q-33 -18 -80 -18q-56 0 -91.5 30.5t-29.5 73.5l4 19l15 10l352 211z" />
    <glyph glyph-name="fraction" unicode="&#x2044;" horiz-adv-x="1781" 
d="M1884 1501l-680 -674l-16 -18l-758 -748q-68 -61 -156 -61h-172l680 674l17 18l757 748q68 61 156 61h172z" />
    <glyph glyph-name="Euro" unicode="&#x20ac;" horiz-adv-x="1306" 
d="M1128 362l25 -26q4 -4 10 -12q28 -33 36.5 -48t4.5 -32q-9 -42 -55 -78q-103 -86 -227 -136t-234 -50q-228 0 -325 127.5t-54 377.5h-104q-48 0 -79.5 27t-21.5 74l23 108h227l13 62h-27q-65 0 -92 25.5t-17 76.5l23 109h158l16 77q31 139 116 254t206 179q127 65 268 65
q186 0 276 -69q53 -42 86 -87l2 -4l19 -26q14 -41 6 -72q-10 -46 -51 -74l-105 -59q-1 -1 -3.5 -2t-8 -2.5t-10 -1t-9 5.5t-6.5 14q-19 90 -74.5 130t-162.5 40q-148 0 -250 -129q-53 -69 -72 -162l-16 -77h299q46 0 74 -29.5t18 -79.5l-22 -102h-414l-12 -62h180
q46 0 74 -28.5t18 -79.5l-23 -101h-294q-25 -154 23.5 -225.5t172.5 -71.5q165 0 354 154q23 20 41 20z" />
    <glyph glyph-name="trademark" unicode="&#x2122;" horiz-adv-x="854" 
d="M842 1438h67q25 0 38.5 -22t4.5 -62l-100 -475q-6 -25 -26.5 -42.5t-45.5 -17.5h-61l45 215l-90 -172q-27 -43 -70 -43q-22 0 -36 12.5t-17 32.5l-12 172l-45 -217h-58q-25 0 -39 17.5t-8 42.5l100 475q7 33 28 54.5t48 27.5v6l2 -6q6 2 21 2h47l24 -353zM190 1438h224
q24 0 39 -15.5t12 -36.5l-14 -59h-115l-107 -508h-57q-24 0 -39 18t-10 42l94 448h-115l15 59q4 22 26.5 37t46.5 15z" />
    <glyph glyph-name="partialdiff" unicode="&#x2202;" 
 />
    <glyph glyph-name="emptyset" unicode="&#x2205;" horiz-adv-x="1128" 
d="M1075 1178q3 -17 -4 -41q91 -62 131 -168q46 -120 19 -250l-39 -189q-28 -130 -124.5 -250.5t-230.5 -191.5q-140 -70 -272 -70h-16q-9 0 -72 5l-43 -70l-127 59q-33 14 -39 51q-4 12 4 41q-92 63 -133 168q-43 116 -16 250l39 189q28 130 124 250t230 192q137 70 272 70
h17q33 0 71 -6l43 71l127 -59q33 -17 39 -51zM750 1004h-15l-28 -3q-130 -18 -234 -141q-57 -69 -72 -141l-39 -189q-24 -109 29 -186zM932 522l39 189q23 105 -29 186l-358 -659h16l27 2q129 18 233 141q57 69 72 141z" />
    <glyph glyph-name="product" unicode="&#x220f;" horiz-adv-x="1372" 
d="M1444 1616q39 -29 29 -88l-21 -94h-111l-61 -281l-303 -1427q-17 -62 -55.5 -100t-85.5 -38h-99l346 1645l41 197h-419l-60 -277l-303 -1427q-15 -61 -54 -99.5t-85 -38.5h-101l347 1645l45 201q-42 7 -70 36t-18 78l20 97l932 -3q58 -3 86 -26z" />
    <glyph glyph-name="summation" unicode="&#x2211;" horiz-adv-x="1269" 
d="M102 82l2 4v33q10 45 52 76l635 536l-330 524q-18 30 -8 72q2 13 14 37l4 8q19 28 54 47t67 19h696q44 0 67.5 -36.5t14.5 -78.5l-22 -106l-562 -3l263 -419q18 -35 12 -72q-10 -43 -51 -76l-494 -418l516 2q44 0 74.5 -35.5t21.5 -78.5l-22 -107l-905 -2q-32 0 -60.5 20
t-36.5 46z" />
    <glyph glyph-name="minus" unicode="&#x2212;" horiz-adv-x="1138" 
d="M129 657l981 -2q60 -2 100 -30t29 -90l-27 -125l-704 -4l-275 2q-21 0 -43.5 6t-45.5 20t-34.5 42.5t-5.5 66.5z" />
    <glyph glyph-name="radical" unicode="&#x221a;" horiz-adv-x="1728" 
d="M680 -403h-96q-88 0 -109 112l-133 524l-190 -104l-15 29q-8 16 -26 63q-20 44 2 92q18 46 69 74l205 111q29 16 66 16q30 0 59.5 -15t40.5 -40v-4l29 -105l-2 -2l84 -330l843 1442l68 119h4q45 55 104 55q30 0 62 -14l86 -47l-92 -160z" />
    <glyph glyph-name="infinity" unicode="&#x221e;" horiz-adv-x="1413" 
d="M434 164h-16q-158 0 -249.5 113t-57.5 268l32 155q32 155 172.5 269t298.5 114h17q76 0 142.5 -29.5t109.5 -82.5q66 52 146 82t155 30h14q158 0 249.5 -114t59.5 -269l-32 -155q-34 -155 -174.5 -268t-299.5 -113h-14q-75 0 -141.5 30.5t-110.5 84.5q-64 -54 -144 -84.5
t-157 -30.5zM385 700l-33 -155q-13 -61 21.5 -108.5t93.5 -47.5h16q60 0 114.5 47t68.5 109l32 155q13 63 -21.5 109.5t-94.5 46.5h-17q-60 0 -113 -46.5t-67 -109.5zM952 700l-32 -155q-14 -62 21 -109t95 -47h15q61 0 113.5 45.5t66.5 110.5l33 155q14 65 -20 110.5
t-95 45.5h-14q-61 0 -115 -46.5t-68 -109.5z" />
    <glyph glyph-name="integral" unicode="&#x222b;" 
 />
    <glyph glyph-name="approxequal" unicode="&#x2248;" horiz-adv-x="1091" 
d="M1120 1075q25 0 44 -15.5t26 -43.5q11 -40 -5 -94t-65 -103q-39 -42 -124.5 -64t-145.5 -22q-49 0 -176 27q-147 26 -187 26q-32 0 -47.5 -5t-19.5 -11t-6 -20l-19 -91h-102q-55 0 -76 41q-17 35 -14 75.5t22 76.5q22 41 52.5 70.5t56.5 43.5t60.5 21.5t51 8.5t41.5 1h29
q65 0 213 -24q156 -23 193 -23q36 0 44.5 6.5t16.5 38.5l14 72l31 4l4 1q5 0 12.5 0.5t18 1t25.5 1t32 0.5zM1020 606q25 0 44 -15.5t26 -43.5q11 -40 -5 -94t-65 -105q-39 -42 -123 -63t-145 -21q-42 0 -179 25q-132 28 -186 28q-32 0 -47.5 -5t-19 -11t-7.5 -22l-18 -89
h-102q-52 0 -76 41q-16 33 -13 74.5t21 77.5q22 41 52.5 70.5t56.5 43.5t60.5 21.5t51 8.5t41.5 1h29q63 0 215 -24q156 -23 190 -23q37 0 46.5 7t15.5 38l14 70l33 6h4q4 1 11.5 1.5t17.5 1t25 1t32 0.5z" />
    <glyph glyph-name="notequal" unicode="&#x2260;" horiz-adv-x="1220" 
d="M999 860h195q58 -2 98 -30t29 -89l-27 -127l-440 -2l-86 -141h342q58 -2 98 -30t31 -89l-27 -127l-583 -4l-185 -321q-74 -115 -180 -115h-158l252 436l-125 2q-22 0 -45 6t-46 20t-34 42.5t-4 66.5l25 115l377 -2l80 139l-271 2q-22 0 -44.5 6.5t-45.5 20.5t-34 42.5
t-5 66.5l25 114l520 -2l227 385q33 55 61 78q48 39 109 39h168z" />
    <glyph glyph-name="lessequal" unicode="&#x2264;" horiz-adv-x="1198" 
d="M276 891q19 32 54 53v2l770 381q36 16 80 16q55 0 90.5 -30.5t29.5 -73.5l-4 -22l-696 -361l526 -397l-6 -21q-12 -42 -61.5 -73t-104.5 -31q-41 0 -71 18l-578 410q-18 14 -26 24l-3 5l-4 6q-2 3 -3.5 6l-3.5 7t-3 7v4q-3 19 0 39q0 1 2 6t5 12t7 13zM102 4l811 -2
q49 0 100.5 30t65.5 87l19 94h-815q-63 -1 -107.5 -33t-52.5 -80z" />
    <glyph glyph-name="greaterequal" unicode="&#x2265;" horiz-adv-x="1132" 
d="M1235 891q3 -21 -2 -31q-3 -21 -16 -39v-4q-17 -17 -19 -20l-8 -6l-2 -5q-15 -12 -39 -24l-750 -410q-43 -18 -80 -18q-55 0 -90.5 31t-29.5 73l2 21l694 397l-545 361l8 22q12 43 61 73.5t105 30.5q41 0 72 -16l606 -381v-2q27 -21 33 -53zM1032 4l21 96q11 48 -21 80
t-94 33h-815l-19 -94q-11 -57 27 -87t86 -30z" />
    <glyph glyph-name="lozenge" unicode="&#x25ca;" 
 />
    <glyph glyph-name="notdef.001" horiz-adv-x="1146" 
 />
    </font>
</defs>
</svg>
