<?xml version="1.0" standalone="no"?>
<!DOCTYPE svg PUBLIC "-//W3C//DTD SVG 1.1//EN" "http://www.w3.org/Graphics/SVG/1.1/DTD/svg11.dtd" >
<svg xmlns="http://www.w3.org/2000/svg" xmlns:xlink="http://www.w3.org/1999/xlink" version="1.1">
<metadata>
Created by FontForge 20170731 at Wed Nov 24 22:04:19 2021
 By Aleksey,,,
copyright missing
</metadata>
<defs>
<font id="Rhetoric-Italic" horiz-adv-x="1177" >
  <font-face 
    font-family="Rhetoric Book"
    font-weight="400"
    font-style="italic"
    font-stretch="normal"
    units-per-em="2048"
    panose-1="0 0 5 0 0 0 0 0 0 0"
    ascent="1638"
    descent="-410"
    x-height="1092"
    cap-height="1585"
    bbox="-265.459 -446 2237.16 2054.95"
    underline-thickness="102"
    underline-position="-204"
    unicode-range="U+0020-25CA"
  />
<missing-glyph horiz-adv-x="1597" 
 />
    <glyph glyph-name=".notdef" horiz-adv-x="1597" 
 />
    <glyph glyph-name=".null" horiz-adv-x="0" 
 />
    <glyph glyph-name="nonmarkingreturn" horiz-adv-x="682" 
 />
    <glyph glyph-name="space" unicode=" " horiz-adv-x="471" 
 />
    <glyph glyph-name="exclam" unicode="!" horiz-adv-x="309" 
d="M410 1507h15.5t14 -2t14.5 -6t6.5 -12.5t0.5 -20.5l-238 -1116h-71q-36 0 -60.5 22t-19.5 46l225 1063q2 7 5.5 12.5t9.5 8t12.5 4t17.5 2t19.5 0.5t23 -0.5t25.5 -0.5zM139 238h15.5t14 -2t14.5 -6t6.5 -12.5t0.5 -20.5l-40 -195h-72q-36 0 -60.5 22t-19.5 46l31 141
q1 7 4.5 12.5t9.5 8.5t12 4.5t16.5 2t18.5 0.5t23.5 -0.5t25.5 -0.5z" />
    <glyph glyph-name="quotedbl" unicode="&#x22;" horiz-adv-x="497" 
d="M248 1434h15.5t14 -2t14.5 -6t6.5 -12.5t0.5 -20.5l-53 -365h-27q-36 0 -60.5 22t-19.5 46l41 311q2 10 2.5 13t3.5 7.5t4 5t7.5 2t11 0.5t16.5 -1h23zM457 1434h15.5t14 -2t14.5 -6t6.5 -12.5t0.5 -20.5l-53 -365h-27q-36 0 -60.5 22t-19.5 46l41 311q2 10 2.5 13
t3.5 7.5t4 5t7.5 2t11 0.5t16.5 -1h23z" />
    <glyph glyph-name="numbersign" unicode="#" horiz-adv-x="1185" 
d="M1032 915h105q44 -2 71 -22t17 -57l-13 -64l-223 -2l-63 -205l-4 -18h137q44 -2 70 -22.5t18 -57.5l-14 -64l-256 -2l-89 -299q-8 -36 -36 -70.5t-72 -35.5h-62l121 405l-112 -2h-29h-49h-37h-2h-84l-88 -297q-8 -35 -36.5 -70t-72.5 -36h-61l121 405h-92q-35 0 -65.5 21
t-22.5 65l12 62h211l12 45l53 176h-123q-35 0 -65.5 21t-22.5 65l15 62h241l88 282q8 36 36.5 71t72.5 36h61l-118 -392h311l88 285q8 36 36.5 71t72.5 36h61zM471 547h311l13 47l55 176l-143 -2h-31h-47h-39h-2h-49l-62 -203z" />
    <glyph glyph-name="dollar" unicode="$" horiz-adv-x="1183" 
d="M1272 1247q16 -24 8.5 -34.5t-72.5 -49.5q-26 -14 -42.5 -11.5t-36 19t-34.5 39t-38.5 50t-47.5 51t-61 42t-80 23.5l-86 -397v-4l-34 -168q87 -34 137 -58t108.5 -66t78.5 -98t5 -128q-29 -140 -107.5 -246t-180.5 -163.5t-220 -72.5l-24 -116h-51q-36 0 -60.5 21.5
t-19.5 45.5l10 49q-121 14 -223 79.5t-166 178.5q-3 4 12.5 15.5t42 24.5t51.5 22q11 4 20.5 4.5t16 -1.5t12.5 -7t9 -9t7 -9.5t5 -6.5q40 -59 104.5 -95.5t139.5 -47.5l123 573q-31 12 -56.5 23t-54 25.5t-51 29t-44.5 33t-37.5 38.5t-28 44.5t-18 51.5t-5.5 59.5t8 68.5
q37 178 165 293t294 143l12 58q5 24 38.5 45.5t69.5 21.5h52l-27 -123q116 -12 214.5 -77.5t162.5 -182.5zM436 1063q-14 -68 32.5 -114.5t143.5 -88.5l27 129l4 10l78 369q-230 -45 -285 -305zM915 440q8 38 -3 69.5t-42.5 56t-67 42t-89.5 37.5l-111 -518
q115 23 200 102.5t113 210.5z" />
    <glyph glyph-name="percent" unicode="%" horiz-adv-x="1435" 
d="M584 768h-47q-73 0 -119.5 56t-32.5 124l57 269q14 68 84.5 124t143.5 56h47q75 0 119 -55.5t30 -124.5l-57 -269q-14 -69 -82 -124.5t-143 -55.5zM1032 842l-18 -21l-783 -772q-28 -24 -56 -36.5t-73 -12.5h-102l641 637q9 13 18 20l697 686q28 25 56 37.5t73 12.5h102z
M600 1217l-57 -269q-6 -39 22 -39h47q14 0 26 10.5t15 28.5l58 269q4 18 -4 29t-21 11h-47q-11 0 -23 -11t-16 -29zM948 582h47q74 0 120 -55.5t32 -125.5l-57 -266q-15 -70 -84.5 -125t-143.5 -55h-47q-73 0 -118.5 54.5t-30.5 125.5l57 266q13 70 82 125.5t143 55.5z
M934 135l57 266q3 18 -4.5 29.5t-19.5 11.5h-47q-13 0 -24.5 -11t-14.5 -30l-58 -266q-4 -19 3 -30t20 -11h47q13 0 25 11.5t16 29.5z" />
    <glyph glyph-name="ampersand" unicode="&#x26;" horiz-adv-x="1257" 
d="M1229 870l37 -71q19 -65 -47 -103l-107 -69q15 -30 17 -81t-10.5 -113t-36 -124.5t-63.5 -122t-89 -98.5l-19 -14q-69 -59 -157 -92t-176 -33h-15l-119 2q-120 0 -183 31.5t-116 99.5q-52 64 -70 148.5t1 170.5l16 76q28 127 121 240q75 88 188 147q-46 40 -69 94
q-31 83 -13 170l5 17q27 128 160 233t280 105q70 2 127 -16.5t92.5 -52t58.5 -78t25.5 -95.5t-6.5 -104l-12 -56q-5 -25 -37 -49t-62 -24h-26h-52l29 133q10 31 5 67.5t-19 68t-52 52.5t-94 21q-91 0 -169.5 -70t-96.5 -154q-19 -83 25.5 -140.5t107.5 -57.5h230
q0 -2 -2 -9.5t-5 -20.5t-4 -19l-8 -33q-6 -30 -36 -48t-60 -18h-164q-71 0 -190 -108q-85 -85 -109 -195l-16 -76q-26 -124 38.5 -212t182.5 -91h156q57 3 105.5 24.5t109.5 74.5q36 31 68 85t46 121q13 69 2 127l-164 -104q-34 64 -40 74q-17 29 -0.5 60t43.5 46l-3 -2z
" />
    <glyph glyph-name="quotesingle" unicode="'" horiz-adv-x="288" 
d="M248 1434h15.5t14 -2t14.5 -6t6.5 -12.5t0.5 -20.5l-53 -365h-27q-36 0 -60.5 22t-19.5 46l41 311q2 10 2.5 13t3.5 7.5t4 5t7.5 2t11 0.5t16.5 -1h23z" />
    <glyph glyph-name="parenleft" unicode="(" horiz-adv-x="626" 
d="M684 1630h141l-12 -55q-8 -38 -48 -63t-67 -25q-105 0 -181.5 -77.5t-102.5 -197.5l-8 -41l-5 -22l-204 -965q-26 -120 17 -197t148 -77q27 0 56.5 -25t21.5 -63l-12 -55q-67 -2 -141 0q-80 5 -138.5 41t-87.5 92.5t-37.5 130t11.5 153.5l49 234l168 794q37 170 153 289
t279 129z" />
    <glyph glyph-name="parenright" unicode=")" horiz-adv-x="626" 
d="M483 1630q80 -5 138.5 -41t87.5 -92.5t37.5 -130.5t-11.5 -154l-49 -233l-168 -795q-24 -110 -81.5 -200.5t-149 -150t-201.5 -66.5h-141l12 55q8 38 48 63t67 25q106 0 182 77t102 197l9 41l4 23l204 964q26 120 -17 197.5t-148 77.5q-27 0 -56.5 25t-21.5 63l12 55
q67 2 141 0z" />
    <glyph glyph-name="asterisk" unicode="*" horiz-adv-x="772" 
d="M569 1210l168 -155l-28 -31q-29 -29 -66 -40t-51 3l-90 76l-31 -154h-49q-36 0 -61 22t-19 46l23 106l-132 -86q-20 -16 -56 -13t-52 30l-19 37l230 155l-148 144l45 49q27 27 64.5 31t52.5 -11l70 -67l24 114q6 24 39.5 46t69.5 22h49l-39 -180l117 82q21 15 49.5 10
t44.5 -33l25 -43z" />
    <glyph glyph-name="plus" unicode="+" 
d="M750 623h340q43 -2 69.5 -22.5t16.5 -57.5l-13 -64l-444 -2l-4 -20l-8 -43l-2 -2l-60 -273q-6 -35 -34.5 -70t-73.5 -36h-62l96 442h-22h-41h-2l-273 2q-35 0 -65 21t-23 65l15 62l442 -2l74 340q10 44 37.5 74.5t64.5 29.5h64z" />
    <glyph glyph-name="comma" unicode="," horiz-adv-x="309" 
d="M283 236q40 0 48 -14q5 -10 1 -27l-41 -195q-3 -17 -7 -28.5t-14.5 -19.5t-16.5 -12t-27.5 -6t-33.5 -2h-47h-26l2 11q6 22 41 22q40 0 46 4.5t11 30.5q-44 0 -66 14t-14 54l31 141q2 7 5.5 12.5t10 8.5t12.5 4.5t17 2t19 0.5t23.5 -0.5t25.5 -0.5z" />
    <glyph glyph-name="hyphen" unicode="-" horiz-adv-x="700" 
d="M160 604l452 -2q43 -2 69.5 -22.5t16.5 -57.5l-12 -63l-219 -2q-12 -2 -37 -2h-45h-41h-4l-107 2q-35 0 -65 21t-23 65z" />
    <glyph glyph-name="period" unicode="." horiz-adv-x="350" 
d="M315 238h15.5t14 -2t14.5 -6t7 -12.5t1 -20.5l-41 -195h-113q-36 0 -60.5 22t-19.5 46l29 141q1 6 3.5 10t7 7.5t9.5 5.5t13 3t15.5 1.5t20.5 0.5t23.5 -0.5t28 -0.5h32.5z" />
    <glyph glyph-name="slash" unicode="/" horiz-adv-x="854" 
d="M494 606l-297 -526q-16 -23 -28 -37t-39 -28.5t-58 -14.5h-86l475 815q4 9 12 19l326 557q15 25 25 38.5t35.5 29.5t55.5 16h97z" />
    <glyph glyph-name="zero" unicode="0" horiz-adv-x="1062" 
d="M989 1454q93 -54 134.5 -149t15.5 -211l-150 -707q-23 -115 -108 -217q-77 -94 -195 -150.5t-242 -56.5q-85 0 -182 33q-108 36 -166.5 137t-25.5 254l149 707q23 112 111 217q78 89 198 141.5t244 52.5q126 0 217 -51zM240 424l704 829q4 6 4 11q2 18 -16 36
q-36 27 -88.5 43.5t-102.5 16.5q-79 0 -161 -39q-78 -38 -131 -98.5t-68 -128.5zM971 1067l-590 -676q-120 -154 -127 -168q7 -50 72 -82t149 -32q129 0 227 75t125 203z" />
    <glyph glyph-name="one" unicode="1" horiz-adv-x="772" 
d="M377 1466h237q24 0 39.5 -9t20 -21t7 -24t-0.5 -17l-268 -1256h153q15 0 25 -2q22 -5 34.5 -21.5t8.5 -41.5l-17 -74h-628l14 70l6 20q9 19 34.5 34t49.5 15h158l252 1182h-234l17 74q0 3 6 18q7 20 31 36.5t55 16.5z" />
    <glyph glyph-name="two" unicode="2" horiz-adv-x="1159" 
d="M842 1477q87 0 156 -19.5t110 -49.5t69 -71t40 -79.5t15.5 -80t2 -67.5t-5.5 -47q-22 -102 -83.5 -185.5t-144.5 -141t-179.5 -108t-194 -97.5t-181.5 -97t-148.5 -120t-88.5 -154l745 -2l-20 -92q-5 -26 -31 -47t-55 -21h-787q-31 0 -48.5 20.5t-12.5 47.5
q22 103 70.5 190.5t112.5 151t141 118t158.5 96.5t162 80.5t154 76.5t132 77.5t99.5 90.5t53 110q26 123 -41.5 199.5t-228.5 76.5q-69 0 -119 -7t-100 -26.5t-85 -59.5t-54 -101q-18 -62 -76 -62l-92 2q38 173 189.5 285.5t365.5 112.5z" />
    <glyph glyph-name="three" unicode="3" horiz-adv-x="1050" 
d="M760 1493h18q185 0 283.5 -118.5t60.5 -297.5l-4 -18q-20 -106 -110 -207q-25 -22 -50.5 -42.5t-37 -28t-21 -18t-10 -13.5t4 -14.5t12.5 -20t24 -32t31 -48.5q17 -35 21.5 -74t0 -76.5t-17.5 -95.5q-35 -166 -160 -274q-71 -62 -144 -94.5t-196 -40.5h-27
q-87 2 -160.5 29t-128.5 77t-76.5 132t-0.5 185q45 3 108 3q22 0 37 -16t8 -52q-12 -93 56 -154t229 -61q249 0 309 278q26 123 -36.5 201t-180.5 78h-96q-31 0 -51.5 23t-14.5 51l15 67h178q77 0 152 29.5t131 87t71 129.5q7 41 7 83t-18 81.5t-46 69.5t-77.5 48.5
t-113.5 18.5q-23 0 -47 -2.5t-64 -9.5t-76 -23.5t-72 -41.5t-62.5 -67.5t-38.5 -97.5q-6 -15 -23.5 -30t-38.5 -15h-53h-14q-21 0 -24 2.5t0 17.5q1 3 1 5l2 10q12 53 35 103t66 101t100.5 88.5t142.5 61t187 23.5z" />
    <glyph glyph-name="four" unicode="4" horiz-adv-x="1064" 
d="M889 506h82q5 0 7.5 -0.5t8.5 -2t9 -6t6 -12t2.5 -20.5t-3.5 -31l-16 -76h-127l-78 -358h-71q-32 0 -51.5 25t-14.5 47l62 286h-568q-36 0 -49 19q-15 22 -10 51q3 12 9.5 25t11.5 21l5 7l834 949l4 4q5 5 8 8.5t9.5 8.5t13 9t14.5 7.5t17.5 5.5t19.5 2q47 0 63 -31z
M872 1149l-583 -655l444 2z" />
    <glyph glyph-name="five" unicode="5" horiz-adv-x="1056" 
d="M385 1468h725q31 0 52.5 -19t13.5 -54l-5 -23l-8 -43h-725l-51 -237q150 104 309 104h21q118 0 207.5 -60t127 -160t13.5 -214l-74 -346q-37 -174 -195 -303t-337 -129h-21q-59 0 -117.5 15.5t-110.5 47.5t-89 76t-52.5 105.5t-0.5 131.5l14 66q5 27 31 51.5t55 24.5h82
l-31 -142q-12 -54 12 -96.5t68 -66t89.5 -35.5t84.5 -12h21q106 0 207.5 83t123.5 183l74 346q23 113 -42 197.5t-173 84.5h-20q-105 0 -211 -77q-109 -77 -129 -174l-23 -107h-82q-28 0 -50 26t-17 50l133 633q7 31 39.5 52t60.5 21z" />
    <glyph glyph-name="six" unicode="6" horiz-adv-x="1030" 
d="M707 1354q-275 0 -318 -207l-10 -43q142 96 299 96h18q85 0 160 -32.5t119 -90.5q49 -59 65 -140t-2 -159l-65 -315q-37 -157 -97 -252q-144 -227 -432 -227h-24q-117 0 -205.5 57t-127 153t-15.5 207l157 740q1 7 4.5 20t19 50t37 70.5t63.5 74.5t94.5 70t133.5 48
t177 17q83 0 170 -40t116 -87q23 -37 17.5 -61.5t-49.5 -49.5l-62 -32q-12 18 -14 24q-60 109 -229 109zM666 1055h-19q-113 0 -211 -82t-123 -197l-80 -375q-24 -115 46.5 -195.5t185.5 -80.5q58 2 106.5 17t81.5 36t60.5 54t43 59.5t29 64.5t18.5 58t11 49l66 313
q25 115 -38.5 197t-176.5 82z" />
    <glyph glyph-name="seven" unicode="7" horiz-adv-x="1208" 
d="M479 1462l824 2q96 0 22 -90l-1083 -1308q-33 -37 -57 -51.5t-64 -14.5h-133l1093 1309h-721l13 59l4 21q6 28 35 50.5t67 22.5z" />
    <glyph glyph-name="eight" unicode="8" horiz-adv-x="1011" 
d="M727 1499h21q170 0 270 -124.5t65 -291.5v-2q-15 -72 -60 -148t-108 -134q44 -61 59 -114.5t-1 -123.5l-33 -158q-23 -108 -101.5 -204t-189 -153.5t-221.5 -57.5h-20q-114 0 -200 58t-122.5 153.5t-13.5 203.5l32 158q16 73 52.5 125t105.5 113q-40 58 -51.5 135
t4.5 147v2q36 167 187.5 291.5t324.5 124.5zM924 1083q25 115 -36 195t-169 80h-21q-109 0 -204.5 -80t-120.5 -195v-2q-23 -113 30 -192q94 49 205 49h21q106 0 182 -49q92 83 113 194zM780 403l33 158q24 111 -39 171.5t-176 60.5h-20q-153 0 -261 -136q-6 -7 -19.5 -23
t-17 -21.5t-9 -19.5t-9.5 -32l-33 -158q-25 -113 36.5 -192.5t170.5 -79.5h21q108 0 203 79.5t120 192.5z" />
    <glyph glyph-name="nine" unicode="9" horiz-adv-x="1030" 
d="M729 1491h25q117 0 205.5 -57t127 -153.5t15.5 -207.5l-158 -739q-1 -7 -4.5 -20t-18.5 -50t-37 -70.5t-64 -74.5t-94 -70t-133 -48t-177 -17q-83 0 -170.5 40t-116.5 87q-23 37 -17 61t50 49l61 33q13 -19 15 -25q59 -108 229 -108q274 0 317 207l11 43
q-143 -97 -299 -97h-19q-84 0 -159 32.5t-119 90.5q-49 59 -65.5 139.5t1.5 159.5l66 316q36 152 92 244q143 235 436 235zM860 698l80 375q24 115 -46 196t-185 81q-58 -2 -106.5 -17t-81.5 -36t-61 -54t-43.5 -60t-29 -64.5t-18.5 -57.5t-11 -49l-65 -314
q-25 -115 38.5 -196.5t176.5 -81.5h18q113 0 211 81.5t123 196.5z" />
    <glyph glyph-name="colon" unicode=":" horiz-adv-x="309" 
d="M365 1081h15.5t14 -2t14.5 -6t6.5 -12.5t0.5 -20.5l-41 -194h-72q-36 0 -61 21.5t-19 45.5l29 142q2 7 5.5 12.5t9.5 8t12.5 4t17.5 2t19.5 0.5t23 -0.5t25.5 -0.5zM184 236h15.5t14 -2t14.5 -6t7 -12.5t1 -20.5l-41 -195h-72q-36 0 -60.5 22t-19.5 46l31 141
q1 7 4.5 12.5t9.5 8.5t12 4.5t16.5 2t18.5 0.5t23.5 -0.5t25.5 -0.5z" />
    <glyph glyph-name="semicolon" unicode=";" horiz-adv-x="309" 
d="M373 1081q40 0 48 -14q5 -10 1 -27l-41 -194h-72q-36 0 -60.5 21.5t-19.5 45.5l31 142q1 7 4.5 12.5t10 8t12.5 4t17 2t19.5 0.5t23.5 -0.5t26 -0.5zM193 236h15.5t14 -2t14.5 -6t6.5 -12.5t0.5 -20.5l-43 -195q-3 -17 -7 -28.5t-14.5 -19.5t-16.5 -12t-27.5 -6t-33.5 -2
h-47h-26q2 3 2 11q6 22 41 22q40 0 46 4.5t11 30.5q-44 0 -66 14t-14 54l31 141q2 7 5.5 12.5t10 8.5t12.5 4.5t17 2t19 0.5t23.5 -0.5t25.5 -0.5z" />
    <glyph glyph-name="less" unicode="&#x3c;" horiz-adv-x="1122" 
d="M213 653l836 383q47 19 84 13t58.5 -27.5t18.5 -46.5h-2l-817 -391l631 -428l2 -2q-7 -24 -37.5 -45.5t-69.5 -27.5t-79 13l-656 422q-13 8 -22 21q-6 6 -13 20q-2 6 -2 16l2 13q0 2 9 16q15 27 47 43l10 6v2z" />
    <glyph glyph-name="equal" unicode="=" 
d="M201 811l929 -2q44 -2 70.5 -22.5t16.5 -57.5l-13 -63l-540 -4h-29h-45h-41h-2l-271 2q-35 0 -65.5 21t-22.5 65zM119 422l928 -2q44 -2 71 -22.5t17 -57.5l-15 -64l-538 -4h-29h-45h-41h-2l-272 2q-35 0 -66 21t-23 65z" />
    <glyph glyph-name="greater" unicode="&#x3e;" horiz-adv-x="1122" 
d="M1128 596l-2 -12q-6 -17 -10 -23q-6 -8 -22 -24q-22 -17 -31 -21l-836 -422q-68 -27 -117 -3t-44 63l2 2l813 428l-648 391h-2q12 41 70.5 64.5t116.5 -3.5l672 -383v-2l8 -4q24 -15 28 -45z" />
    <glyph glyph-name="question" unicode="?" horiz-adv-x="952" 
d="M686 1616h21q116 0 200 -59t117 -156.5t10 -210.5q-20 -95 -60.5 -166t-90 -111.5t-105.5 -72t-111 -59.5t-102.5 -61t-85 -88.5t-53.5 -131.5l-35 -164h-55q-35 0 -54 17t-22 35t0 38l12 59q21 100 63 175t92.5 118.5t107 76.5t112 61t103.5 60.5t85 85.5t52 126
q16 69 1 121t-47 90t-81.5 56t-101.5 19t-107.5 -20.5t-99.5 -62.5q-7 -7 -18 -15t-31.5 -18t-39.5 -9t-40 13l-52 43q172 211 416 211zM317 238q41 0 49 -14q5 -10 1 -27l-41 -195h-72q-36 0 -60.5 22t-19.5 46l31 141q2 7 5.5 12.5t9.5 8.5t12 4.5t17 2t19 0.5t23.5 -0.5
t25.5 -0.5z" />
    <glyph glyph-name="at" unicode="@" horiz-adv-x="1351" 
d="M764 1493h299q122 0 213.5 -61t130.5 -163.5t14 -219.5l-164 -779q-15 -43 -67.5 -85t-136.5 -42q-125 0 -162.5 36.5t-20.5 109.5l4 20q-101 -53 -233 -53h-23q-188 0 -251 88q-59 88 -19 274l4 23q21 95 52.5 158t82.5 108q72 69 205 84h2q75 7 177 -5.5t135 1.5
q-4 43 -45.5 59.5t-141.5 16.5h-248q0 11 9 51l6 27q5 25 36.5 49t61.5 24l135 3q207 0 295.5 -73.5t54.5 -236.5l-131 -618q-1 -6 4 -7t31 -1q10 0 19 2t12 4l4 2l158 760q26 121 -44 207.5t-192 86.5h-299q-119 0 -222.5 -86t-129.5 -208l-139 -662q-26 -122 40.5 -209.5
t184.5 -87.5l430 2q32 0 53 -24.5t15 -51.5l-5 -24l-12 -51h-514q-121 0 -212.5 61.5t-131 164.5t-14.5 220l139 662q25 118 109 220.5t202.5 163t239.5 60.5zM918 528l71 322q-21 -12 -244 6q-61 0 -96.5 -9.5t-58.5 -37.5q-53 -69 -74 -168l-4 -23q-28 -127 -6 -163
q15 -25 44 -35.5t93 -11.5q60 0 119 16q54 16 103 47.5t53 56.5z" />
    <glyph glyph-name="A" unicode="A" horiz-adv-x="1015" 
d="M1001 365l15 -320q5 -42 -110 -43h-23q-48 -2 -54 41l-12 340v4h-483l-2 -2l-164 -340q-8 -18 -28 -29.5t-44 -11.5h-7.5t-13.5 -0.5t-18 0t-20.5 1t-20.5 2t-18.5 4t-14 6.5t-7.5 9.5t1 12.5l11 20l157 306l592 1196q16 28 46 48.5t59 20.5q34 0 54 -21t22 -50l71 -1067
zM758 1239l-336 -696l395 2z" />
    <glyph glyph-name="B" unicode="B" horiz-adv-x="1198" 
d="M1087 840q43 -66 56.5 -149.5t-4.5 -160.5l-17 -81q-51 -233 -313 -375q-137 -70 -279 -70h-464q-25 0 -54.5 20t-25.5 44l315 1480q4 24 41.5 44t63.5 20h247q108 0 200.5 -63.5t129.5 -162.5q40 -103 12 -227l-8 -53q-5 -24 -12.5 -48t-11.5 -35.5t-6 -24.5t3 -22
t15.5 -19.5t30.5 -24.5q51 -44 81 -92zM358 995h402q29 0 41 68l18 80q19 90 -2.5 163t-79.5 111q-52 41 -139 41h-141zM942 449l16 81q26 122 -29.5 213t-156.5 91h-446l-148 -689l4 19h398q36 0 75.5 7.5t85.5 28t84.5 51.5t70.5 82.5t46 115.5z" />
    <glyph glyph-name="C" unicode="C" horiz-adv-x="1048" 
d="M786 1667q181 0 267 -65q49 -37 84 -84l14 -27h2q12 -27 8 -53q-7 -28 -35 -47l-92 -62q-22 105 -88.5 152t-187.5 47q-170 0 -293 -152q-59 -74 -82 -186l-156 -737q-9 -41 -12 -80.5t6 -86.5t33 -81.5t76.5 -58t128.5 -23.5q52 0 100.5 9.5t84 25t69 34t55.5 37
t43.5 34.5t33.5 25.5t25.5 10.5t18.5 -10q13 -16 23.5 -39t7.5 -35q-7 -28 -41 -55q-109 -92 -211 -137.5t-240 -45.5q-211 0 -310 128t-52 348l155 737q28 132 108 242.5t199 173.5q116 61 258 61z" />
    <glyph glyph-name="D" unicode="D" horiz-adv-x="1175" 
d="M1231 1391q41 -108 16 -244l-141 -664q-26 -123 -118.5 -236t-221.5 -181q-130 -68 -258 -68h-449q-34 0 -55.5 28t-15.5 54l311 1468q8 33 39.5 57.5t69.5 24.5h448q128 0 231.5 -66t143.5 -173zM928 483l141 664q20 97 -6 173.5t-90 119.5q-65 43 -150 43h-360
l-281 -1321h361q175 0 309 162q60 79 76 159z" />
    <glyph glyph-name="E" unicode="E" horiz-adv-x="1185" 
d="M389 1628h881q35 0 58 -20t18 -43l-19 -82h-878l-101 -473h676q39 0 60.5 -24.5t15.5 -57.5l-19 -82h-768l-147 -694h878l-16 -82q-6 -24 -36.5 -45t-65.5 -21h-881q-25 0 -44.5 22t-14.5 44l317 1495q3 20 32 41.5t54 21.5z" />
    <glyph glyph-name="F" unicode="F" horiz-adv-x="1153" 
d="M408 1630h831q36 0 57.5 -22.5t14.5 -55.5l-19 -84h-829l-98 -452h565q37 0 58 -26.5t16 -53.5l-19 -82h-653l-178 -829l-4 -21q-2 -4 -15 -4h-74q-33 0 -56.5 22.5t-16.5 59.5l313 1470q6 28 41.5 53t65.5 25zM150 4l4 12l-7 -24z" />
    <glyph glyph-name="G" unicode="G" horiz-adv-x="1134" 
d="M866 1675h2q76 -6 148 -40.5t119 -82.5q33 -33 45 -53q14 -22 8 -41q-3 -16 -17.5 -34t-35.5 -31l-60 -19l-8 -2q-8 -1 -15 7t-14.5 21t-13.5 19q-41 49 -90.5 76t-126.5 27q-96 0 -183.5 -44.5t-146.5 -121.5q-53 -71 -74 -158l-163 -778q-18 -79 7 -152t91 -118
q64 -50 156 -50q197 0 315 166q47 68 61 135l88 414h-383l17 80q6 33 36.5 56.5t69.5 23.5h414q16 0 33.5 -15t13.5 -32l-115 -543q-10 -48 -43.5 -110.5t-99.5 -134.5t-147 -120q-129 -77 -291 -77h-19q-125 0 -225.5 67.5t-140.5 175.5q-44 113 -17 236l164 772
q28 127 121 238.5t227 177.5q136 65 293 65z" />
    <glyph glyph-name="H" unicode="H" horiz-adv-x="1198" 
d="M1262 1630h16q33 0 58 -28t20 -54l-314 -1468q-6 -33 -37 -57.5t-69 -24.5h-62q-8 0 -10.5 0.5t-4 2.5t0.5 7l2 15l80 374h-706l-80 -374l-6 -33l2 14q-2 -6 -17 -6h-74q-30 0 -54.5 26.5t-18.5 55.5l309 1456q7 32 38.5 63t72.5 31h32q23 0 36 -18.5t11 -30.5
l-217 -1022h707l217 1022q2 12 23.5 30.5t44.5 18.5zM860 14v-6l-4 -18z" />
    <glyph glyph-name="I" unicode="I" horiz-adv-x="540" 
d="M371 1585h280q28 0 39.5 -16.5t7.5 -34.5l-14 -66l-6 -28h-113l-278 -1290h43h9q23 0 32.5 -1.5t16.5 -10.5t3 -29l-18 -89q-3 -12 -5.5 -14t-13.5 -2h-358q-14 0 -15.5 9t3.5 32l14 64q4 22 14.5 31.5t21.5 10.5t42 1h45l285 1288h-125l6 28l16 72q4 18 26 31.5t42 13.5
z" />
    <glyph glyph-name="J" unicode="J" horiz-adv-x="1110" 
d="M1108 1630h90q33 0 54 -28.5t16 -51.5l-232 -1091q-26 -126 -113.5 -237.5t-213.5 -178.5q-129 -66 -263 -66h-16q-106 0 -227 68q-46 27 -82.5 74.5t-54.5 99.5q-19 74 -18 108t18 111q6 33 29.5 56.5t58.5 23.5h82l-17 -80q-34 -160 105 -254q59 -45 141 -45h16
q182 0 305 160q55 74 72 160z" />
    <glyph glyph-name="K" unicode="K" horiz-adv-x="1449" 
d="M1204 160q18 0 32 -3t22.5 -9t15.5 -12.5t9.5 -16.5t4.5 -17t1 -18.5t-1 -16.5t-2 -15t-2 -11l-10 -41h-105q-49 0 -72 1.5t-55 9.5t-54.5 26.5t-45.5 50.5l-631 756l-180 -842h-74q-39 0 -59 19.5t-12 62.5l313 1477q6 30 33.5 55.5t56.5 25.5h90l-121 -567l103 -129
l682 703l53 -50q18 -18 20.5 -41.5t-5.5 -41.5t-21 -33l-627 -649l469 -564q61 -71 93.5 -90.5t78.5 -19.5zM557 842l-2 2zM551 817l4 6z" />
    <glyph glyph-name="L" unicode="L" horiz-adv-x="966" 
d="M184 154h643l-14 -62q-7 -39 -41.5 -68.5t-69.5 -29.5h-643q-37 0 -57.5 27.5t-13.5 54.5l313 1474q6 33 37 56.5t70 23.5h90z" />
    <glyph glyph-name="M" unicode="M" horiz-adv-x="1202" 
d="M1208 1630h76q38 0 60 -23t14 -55l-311 -1470q-6 -30 -35.5 -55t-61.5 -25h-88l221 1020l-493 -965v-2q-11 -18 -42 -35.5t-54 -17.5q-31 0 -54 16.5t-24 40.5l-70 963l-213 -1020h-74q-36 0 -56.5 24.5t-14.5 55.5l311 1470q6 26 38 52t66 26h76l92 -1257zM334 1198v4
q-3 8 -6 3q-3 -4 6 -7z" />
    <glyph glyph-name="N" unicode="N" horiz-adv-x="1179" 
d="M1186 1630h92q27 0 45 -25t12 -55l-311 -1466q-8 -34 -33 -57t-57 -23h-70l-463 1266l-268 -1266h-88q-32 0 -48.5 23t-8.5 57l309 1452q8 43 37.5 69.5t73.5 26.5h2l49 -4l465 -1272z" />
    <glyph glyph-name="O" unicode="O" horiz-adv-x="1159" 
d="M825 1669h17q131 0 236 -66t145 -173q43 -113 16 -240l-156 -733q-26 -124 -120 -240.5t-224 -185.5q-130 -68 -262 -68h-16q-136 0 -238 69.5t-141 180.5q-42 113 -14 244l155 733q28 130 117.5 240.5t218.5 175.5q129 63 266 63zM807 1511h-16q-84 0 -165.5 -42
t-144.5 -117q-60 -71 -78 -162l-155 -733q-20 -90 7.5 -165t92.5 -118q64 -45 150 -45h16q87 0 168.5 42.5t146.5 121.5q55 73 76 164l156 733q19 90 -8.5 161.5t-94.5 116.5q-65 43 -151 43z" />
    <glyph glyph-name="P" unicode="P" horiz-adv-x="1163" 
d="M1223 1389q38 -108 12 -242l-55 -258q-40 -185 -213 -348q-79 -64 -178.5 -102t-190.5 -38h-362l-86 -407h-89q-39 0 -60 22.5t-15 55.5l315 1478q5 26 40.5 53t68.5 27h450q126 0 226 -67t137 -174zM1075 1161v-2q15 117 -42 202t-161 109h-407l-195 -905h363
q175 0 309 162q59 78 76 162z" />
    <glyph glyph-name="Q" unicode="Q" horiz-adv-x="1275" 
d="M1245 1186l-155 -723q-22 -97 -45 -144.5t-97 -130.5q10 -22 23 -26t63 -4h41q29 0 39 -26t4 -50l-15 -70q0 -1 -1 -6h-101h-21h-24t-22.5 1.5t-25.5 4t-22.5 7.5t-24.5 12t-20 18t-20 25q-131 -99 -334 -99h-16q-138 0 -244.5 66.5t-144.5 175.5q-42 108 -14 246
l153 723q28 130 117.5 242t220.5 176q126 63 272 63h17q131 0 236 -66.5t145 -173.5q43 -114 16 -241zM924 483l141 703q20 93 -5.5 169.5t-90.5 119.5t-154 43h-16q-194 0 -324 -168q-62 -71 -80 -164l-153 -723q-14 -66 2.5 -124t53.5 -98t90.5 -66t111 -32.5t117.5 8
t108 50.5l-225 350l-2 2q-6 15 -8 29t-3 24.5t6.5 24t10 20t17.5 21.5l19.5 19.5t25.5 22.5t26 23l254 -418q34 39 49.5 70.5t28.5 93.5z" />
    <glyph glyph-name="R" unicode="R" horiz-adv-x="1269" 
d="M1219 1397q42 -107 14 -236l-57 -272q-36 -162 -168 -297h-2q-128 -121 -265 -160q42 -42 87.5 -88.5t68.5 -70.5t50 -50.5t40.5 -37.5t31 -21.5t31 -13.5t31.5 -3h23q14 0 24.5 -4.5t15.5 -11t8 -16t3.5 -15.5t0 -14l-0.5 -8l-18 -80h-88q-73 0 -131.5 21.5t-92.5 56.5
l-309 330h-289l-88 -408h-82q-34 0 -54 28t-15 54l311 1470q8 31 39.5 55.5t67.5 24.5h452q127 0 226.5 -65t134.5 -168zM1012 889l57 272q19 85 -7.5 159.5t-88.5 119.5q-60 43 -137 43h-381l-195 -916h371q83 0 163 42.5t142 119.5q59 74 76 160z" />
    <glyph glyph-name="S" unicode="S" horiz-adv-x="1181" 
d="M877 1632q120 0 232 -71t177 -191l3 -6q10 -17 4 -25q-4 -6 -38 -30q-20 -14 -32 -23t-23.5 -13.5t-21 -4.5t-19 2.5t-16.5 7t-13 10t-10 9.5t-7 8l-3 4l-27 34q-111 132 -264 132q-84 0 -160.5 -36.5t-136.5 -105.5q-56 -65 -71 -147q-12 -56 19.5 -108t90 -94.5
t131.5 -85t145.5 -88.5t129.5 -96t85.5 -116.5t12.5 -140.5q-47 -225 -220 -353.5t-423 -128.5q-83 0 -168.5 35t-149 95t-81.5 128q-3 4 12.5 15.5t42 24.5t51.5 22q11 4 20.5 4.5t16 -1.5t12.5 -7t9 -9t7 -9.5t5 -6.5q100 -143 266 -143q168 0 289 96t153 242
q9 41 -9.5 79.5t-57 70.5t-90 63.5t-109.5 63.5t-115 66t-107 75t-85.5 86t-50 103.5t-0.5 123.5q29 134 118 235t220 156q123 49 256 49z" />
    <glyph glyph-name="T" unicode="T" horiz-adv-x="1046" 
d="M406 1630h722q37 0 60 -20.5t18 -44.5l-18 -80h-371l-313 -1483h-74q-36 0 -57 24.5t-15 57.5l299 1401h-372l18 80q5 25 36.5 45t66.5 20z" />
    <glyph glyph-name="U" unicode="U" horiz-adv-x="1165" 
d="M1159 1630h88q40 0 62 -24.5t14 -59.5l-227 -1075q-29 -134 -122.5 -249.5t-223.5 -180.5q-132 -66 -265 -66h-16q-138 0 -241 67t-142 177q-43 114 -12 252l227 1075q8 34 39.5 59t69.5 25h92l-246 -1159q-31 -143 45 -225t209 -82h16q87 0 157 26.5t109 61.5t67.5 83.5
t38 77t15.5 58.5z" />
    <glyph glyph-name="V" unicode="V" horiz-adv-x="1196" 
d="M1208 1630h74q29 0 54.5 -18.5t19.5 -46.5q-1 -1 -2.5 -5.5t-3.5 -7.5l-754 -1491q-28 -59 -96 -59q-34 0 -53 18t-19 41l-127 1487v15l2 2q6 29 36.5 47t68.5 18h71l90 -1255q0 -8 5.5 -11.5t13.5 -0.5t14 12z" />
    <glyph glyph-name="W" unicode="W" horiz-adv-x="2076" 
d="M2089 1630h74q29 0 54 -18.5t19 -46.5q-1 -1 -2.5 -5.5t-3.5 -7.5l-753 -1491q-12 -25 -37 -42t-60 -17q-34 0 -52.5 18t-18.5 41l-105 1217l-608 -1217q-28 -59 -96 -59q-34 0 -53 18t-19 41l-127 1487v15l2 2q6 29 36.5 47t68.5 18h71l90 -1255q0 -8 5.5 -11.5
t13.5 -0.5t14 12l606 1255h74h4h2q26 0 40 -13t20 -50l102 -1192q0 -8 5.5 -11.5t13.5 -0.5t14 12z" />
    <glyph glyph-name="X" unicode="X" horiz-adv-x="1239" 
d="M1280 1618q52 0 64 -12q14 -13 8 -45l-11 -48q-3 -13 -6 -22.5t-5 -13.5t-6.5 -12t-6.5 -11q-56 -61 -183.5 -214t-227.5 -276l-99 -122q-2 -13 85.5 -225t166.5 -384l5 -7q4 -8 7.5 -15.5t9 -21t7.5 -26t3 -31t-4 -34.5l-14 -67q-2 -12 -10 -19t-21.5 -9.5t-22.5 -3.5
t-24 0t-16 1q-17 0 -27 14l-288 666l-570 -666q-18 -14 -35 -14q-1 0 -16.5 -1t-24 0t-21 3.5t-17.5 9.5t-3 19l15 67q5 26 26.5 59t35.5 49.5t24 26.5q81 97 219 259t214 252.5t77 97.5q-178 475 -248 612q0 4 -1.5 11t-2 11.5t0 14t3.5 22.5l10 48q4 21 13 33.5t25.5 17
t26 5.5t31.5 1q17 0 29 -14l256 -611l516 611q16 14 33 14z" />
    <glyph glyph-name="Y" unicode="Y" horiz-adv-x="1089" 
d="M1198 1618h100q21 0 30 -12t7.5 -26.5t-8.5 -25.5q-1 -5 -98.5 -145.5t-237.5 -339t-157 -223.5l-123 -176l-82 -385l-4 -11l-58 -274h-88q-27 0 -45 25t-12 55l27 125l98 463l-49 178q-40 138 -117 419t-76 289q-4 19 11.5 41.5t45.5 22.5h101l209 -739z" />
    <glyph glyph-name="Z" unicode="Z" horiz-adv-x="1249" 
d="M586 1610h733q50 0 75 -19t3 -67l-19 -25l-1136 -1343h680q12 0 13.5 -2.5t-1.5 -14.5l6 25l-6 -33l-10 -41q-6 -33 -37.5 -57.5t-67.5 -24.5h-749q-21 0 -39.5 6.5t-33 20.5t-9 43t34.5 69l1138 1317h-680q-12 0 -13.5 2t1.5 13v8l10 41q6 33 37.5 57.5t69.5 24.5z" />
    <glyph glyph-name="bracketleft" unicode="[" horiz-adv-x="620" 
d="M745 1649h76q-2 -14 -10 -47q-7 -32 -37 -60.5t-72 -28.5h-98q-77 0 -105 -13.5t-38 -65.5l-236 -1106l-4 -15l-71 -338q-10 -51 12.5 -65t97.5 -14h98q42 0 60.5 -28.5t11.5 -60.5l-10 -47h-76h-295q-47 0 -68 35t-10 90q16 72 31 144l53 258l8 41l76 356l84 397l10 41
l56 258q24 117 30 144q11 54 48 89.5t84 35.5h294z" />
    <glyph glyph-name="backslash" unicode="\" horiz-adv-x="854" 
d="M696 0h-86q-24 0 -41 7.5t-26.5 21t-13.5 25t-7 26.5l-73 520l-148 875h96q11 0 20 -1.5t16 -5.5t12.5 -7t9.5 -10.5t7 -11t5.5 -12.5t3.5 -12t3.5 -13t2.5 -11l90 -564l2 -12l41 -264l4 -25l2 -12z" />
    <glyph glyph-name="bracketright" unicode="]" horiz-adv-x="620" 
d="M420 1649h295q47 0 68 -35t10 -90q-16 -72 -31 -144l-53 -258l-9 -41l-75 -356l-84 -397l-11 -41l-55 -258q-15 -72 -31 -144q-11 -54 -47.5 -89.5t-83.5 -35.5h-295h-75q2 14 10 47q7 32 36.5 60.5t71.5 28.5h99q76 0 104.5 14t38.5 65l236 1106l4 15l71 338
q10 53 -12 66t-98 13h-98q-42 0 -60.5 28.5t-11.5 60.5l10 47h76z" />
    <glyph glyph-name="asciicircum" unicode="^" horiz-adv-x="1114" 
d="M809 1495l223 -754q18 -59 -19 -115t-79 -59v2l-234 731l-583 -720l-2 -2q-17 2 -30.5 17.5t-19.5 39t0.5 55.5t26.5 62l582 745l6 8q24 27 53 37q12 4 19 4h2q8 0 20 -6q21 -9 31 -39l2 -6h2z" />
    <glyph glyph-name="underscore" unicode="_" horiz-adv-x="1185" 
d="M160 -141l938 -2q43 -2 69.5 -22.5t16.5 -57.5l-13 -64l-507 -4h-29h-49h-37h-2l-314 2q-35 0 -65 21t-23 65z" />
    <glyph glyph-name="grave" unicode="`" horiz-adv-x="532" 
d="M240 1495q16 13 24 18.5t24 6.5t27 -13l197 -254l-59 -49q-30 -26 -69 -31t-50 13l-170 215q-4 5 -5 10.5t2 11.5t7.5 11.5t13 13t16.5 13.5t20.5 16t21.5 18z" />
    <glyph glyph-name="a" unicode="a" horiz-adv-x="1015" 
d="M981 1032q52 -38 75.5 -102.5t12.5 -122.5l-149 -725q-8 -34 -35.5 -58t-59.5 -24h-92l6 31q-132 -54 -282 -54q-213 0 -300 106t-42 318q41 193 177.5 299.5t340.5 106.5h162q68 0 114 8q12 66 -42.5 101.5t-170.5 35.5h-270l14 66q6 29 41.5 55.5t65.5 26.5
q206 0 237 -2h-2q71 -1 113.5 -16t85.5 -50zM788 254l91 422q-62 -6 -179 -6h-2l-49 2q-167 0 -255.5 -61t-121.5 -214q-29 -142 19 -208t176 -66q124 0 217 38.5t104 92.5z" />
    <glyph glyph-name="b" unicode="b" horiz-adv-x="882" 
d="M909 940q62 -166 17 -379l-6 -29q-36 -168 -168 -331v-2q-85 -95 -182 -146t-187 -51h-324q-40 0 -59.5 23.5t-11.5 56.5l313 1472q6 32 34.5 54t67.5 22h72l-108 -510h4l-2 2q45 -10 102 -10h147q91 0 166 -44.5t125 -127.5zM750 549l4 12q37 179 -4 275v-2
q-35 66 -71 91t-95 25h-166q-7 0 -76 11h2q-4 2 -10 2l4 20l-174 -819h264q114 0 203 129l2 2q48 60 73.5 113.5t43.5 140.5z" />
    <glyph glyph-name="c" unicode="c" horiz-adv-x="1046" 
d="M725 1098q247 0 367 -176h2q27 -62 -29 -101l-72 -37l-4 9q-4 9 -13 24.5t-22.5 34t-37 37.5t-53 34.5t-73 25t-94.5 9.5q-146 0 -252.5 -96t-138.5 -241l-35 -164q-7 -33 -7.5 -67t5 -74t26 -74t52 -63t86 -45.5t125.5 -16.5q227 0 350 207q7 -7 22.5 -20.5t22 -19.5
t16 -17.5t10.5 -20.5t1 -22t-8.5 -27.5t-22.5 -32.5q-86 -107 -191 -143.5t-235 -36.5q-87 0 -156 17.5t-116 49.5t-79 75t-45.5 96.5t-14 112t13.5 122.5l35 164q32 148 119.5 258.5t203 164.5t242.5 54z" />
    <glyph glyph-name="d" unicode="d" horiz-adv-x="978" 
d="M991 1630h72q39 0 59.5 -22t14.5 -54l-314 -1470q-8 -34 -36 -57t-68 -23h-324q-89 0 -165 51t-121 146v2q-28 75 -35 168t8 153l6 37q50 222 180 379q82 82 176.5 127t186.5 45h147q57 0 105 10l-2 -2h2zM680 166l170 797q-6 0 -10 -2h2q-74 -11 -80 -11h-166
q-59 0 -105.5 -25t-109.5 -89h2q-97 -108 -135 -275l-4 -20q-5 -28 -5.5 -71t8 -96.5t26.5 -99t55 -77t88 -31.5h264z" />
    <glyph glyph-name="e" unicode="e" horiz-adv-x="1032" 
d="M696 1098h17q197 -15 288.5 -141.5t51.5 -319.5l-39 -178l-8 -45l-2 -2q-1 -6 -2.5 -7.5t-10.5 -3.5t-28 -2h-740q-5 -20 -1 -49.5t9.5 -61.5t25.5 -64t47.5 -57.5t74.5 -41.5t106 -16q83 0 143.5 12.5t84.5 25t55 36.5t41 30q16 10 32 11t26.5 -3t22.5 -15.5t16.5 -17.5
l13.5 -18q-81 -72 -142 -111q-52 -35 -137 -62.5t-172 -27.5h-14q-126 0 -226 64q-96 62 -140 169t-21 214l47 221q24 121 114 231q84 103 212 166.5t255 63.5zM881 549l18 88q15 54 9 108t-28 97.5t-74 75t-128 40.5h-12q-82 0 -168 -45q-87 -44 -143.5 -115.5
t-75.5 -160.5l-19 -88h621z" />
    <glyph glyph-name="f" unicode="f" horiz-adv-x="753" 
d="M831 1616q80 0 146.5 -14.5t62.5 -36.5q-2 -8 -12.5 -52t-19.5 -86q-7 5 -21 12t-66 19t-114 12q-52 0 -87 -13.5t-58 -46t-36 -71t-28 -104.5l-12 -66l-25 -108h199q14 0 26 -1t20.5 -2t14.5 -5t10.5 -5.5t6.5 -7.5t3.5 -7t1 -8.5t-0.5 -8.5t-2 -10l-2 -9l-19 -79h-289
l-112 -533q-44 -206 -120 -295t-222 -90h-41q-46 0 -52.5 22.5t10.5 80.5q6 26 9 42q2 5 78 5h29q57 0 84.5 45.5t50.5 146.5l121 576h-177l19 79q7 38 34 51t70 13h82l29 137q56 242 140.5 330t268.5 88z" />
    <glyph glyph-name="g" unicode="g" horiz-adv-x="1046" 
d="M741 1098q83 0 152 -14.5t122.5 -44t77.5 -81t9 -120.5l-170 -815l2 4q-5 -23 -13 -64.5t-13 -65t-15 -61t-19.5 -60t-26 -53t-35 -48.5t-46 -38.5t-60 -31.5t-75.5 -18t-94 -7h-119q-53 0 -70 20t-8 64l14 72h97l41 -2q165 0 202.5 31.5t67.5 176.5q9 41 14 64l-28 -14
q-100 -51 -226 -51q-127 0 -222.5 62.5t-131.5 166.5q-38 109 -10 236l45 212q31 146 111.5 256t191 167t235.5 57zM811 193l135 641q7 34 -11 57.5t-56 34.5t-77 15.5t-87 4.5q-136 0 -239.5 -98.5t-131.5 -229.5l-45 -212q-16 -84 -3.5 -144t51 -98.5t90 -57t114.5 -18.5
q93 0 172 31.5t88 73.5zM823 29l-12 -4z" />
    <glyph glyph-name="h" unicode="h" horiz-adv-x="1021" 
d="M483 1630l-114 -538q1 3 6 2q19 -4 49 -4h192q126 0 209.5 -80t104.5 -205q21 -127 -6 -250l-50 -231q-23 -103 -24 -121q-1 -47 40 -57q16 -3 36 -3h7q21 0 33.5 -1t29.5 -7t23 -21t1 -40q-5 -26 -9.5 -46.5t-6.5 -31.5h-107q-61 1 -102 18.5t-61.5 46t-26.5 71.5t-2 87
t16 100l49 236q28 131 3 217.5t-75 129t-112 42.5h-248l-201 -944h-78q-36 0 -56.5 24.5t-14.5 57.5l311 1464q8 34 39.5 59t67.5 25h77z" />
    <glyph glyph-name="i" unicode="i" horiz-adv-x="313" 
d="M401 1538h13q17 0 31 -8t16 -17v5l2 -7v-20l-49 -229h-72q-36 0 -60.5 21.5t-19.5 45.5l27 125q6 28 41 56t71 28zM383 1100l-233 -1102h-70q-39 0 -61.5 26t-14.5 60l201 948q6 24 39.5 46t68.5 22h70z" />
    <glyph glyph-name="j" unicode="j" horiz-adv-x="458" 
d="M610 1538q40 0 48 -14q5 -10 1 -27l-49 -235h-71q-36 0 -60.5 21.5t-19.5 45.5l39 182q2 7 5.5 12.5t9.5 8.5t12 4.5t17 2t19 0.5t23.5 -0.5t25.5 -0.5zM573 1100l-245 -1155q-61 -286 -244 -359q-74 -28 -205 -28q-72 0 -90 2q-38 3 -48.5 23.5t-2.5 62.5l12 59h154h6
q97 0 143 21q40 19 66.5 70.5t48.5 154.5l227 1081q5 24 39 46t70 22h69z" />
    <glyph glyph-name="k" unicode="k" horiz-adv-x="1120" 
d="M305 797l103 -131l426 452q38 -8 68 -39t3 -69q-3 -4 -9.5 -12t-13.5 -16.5t-33 -37t-65 -70.5t-113 -120.5t-173 -182.5q9 -10 17.5 -20.5t19 -23.5t33 -42.5t48 -63t76 -99.5t105.5 -138l-2 2q37 -38 58.5 -51.5t59.5 -13.5h29q55 0 39 -70q-17 -80 -59 -80h-41
q-77 1 -124 25.5t-87 71.5l-412 507l-129 -608h-90q-27 0 -44.5 23.5t-12.5 44.5l321 1517q8 35 30.5 56.5t57.5 21.5h90z" />
    <glyph glyph-name="l" unicode="l" horiz-adv-x="528" 
d="M469 1630h51q14 0 16 -2t-1 -16l-3 -8l-247 -1168l-15 -63q-11 -51 -12 -90t11.5 -74.5t49.5 -54.5t97 -19h28q11 0 18.5 -3.5t10.5 -10t4.5 -13t0 -17t-3 -17t-4 -16.5t-3.5 -13q-5 -25 -22 -45t-42 -20h-41q-105 1 -174.5 46.5t-93 113t-6.5 143.5l272 1280
q5 24 39 45.5t70 21.5z" />
    <glyph glyph-name="m" unicode="m" horiz-adv-x="1779" 
d="M1485 1112q94 0 181.5 -33t139.5 -94t37 -131l-166 -776q-6 -32 -35.5 -56t-66.5 -24h-82l180 844q3 17 -5 36t-30 39.5t-72 34t-120 13.5q-144 0 -246 -80.5t-135 -233.5l-141 -653h-95l-16 6q-22 10 -32 30.5t-5 43.5l123 573q33 154 -38.5 238t-215.5 84
q-83 0 -172 -37t-100 -88l-180 -850h-82q-37 0 -56.5 24t-13.5 56l166 772q8 46 42 90t73 70q163 102 354 102q224 0 325 -129q39 -45 41 -57q22 26 60 57q157 129 383 129z" />
    <glyph glyph-name="n" unicode="n" horiz-adv-x="1042" 
d="M676 1112q224 0 325 -129q105 -132 62 -332l-139 -651h-78q-37 0 -56.5 24t-11.5 56l121 571q33 153 -35.5 233.5t-212.5 80.5q-77 0 -148 -22.5t-120 -63.5q-1 -2 -2.5 -6t-2.5 -6.5t-1 -4.5l-184 -862h-82q-37 0 -56.5 24t-11.5 56l178 838q3 20 27 40q13 13 69 52
q71 45 167 73.5t192 28.5z" />
    <glyph glyph-name="o" unicode="o" horiz-adv-x="1159" 
d="M764 1110h16q131 0 236 -66.5t145 -173.5q44 -114 17 -239l-33 -156q-26 -124 -120 -240.5t-224 -185.5q-128 -67 -262 -67h-17q-137 0 -238.5 69t-140.5 180q-42 113 -14 244l33 156q28 130 117.5 240.5t218.5 175.5q129 63 266 63zM752 965h-21q-139 0 -256 -103
t-145 -231l-33 -156q-30 -142 55 -241t203 -99h16q141 0 259.5 105.5t146.5 234.5l33 156q31 146 -48 241.5t-210 92.5z" />
    <glyph glyph-name="p" unicode="p" horiz-adv-x="966" 
d="M395 1122h324q93 0 170 -45.5t121 -138.5v-2q52 -139 0 -381l-6 -29q-23 -112 -65 -204.5t-105 -167t-154 -116.5t-201 -42h-147q-7 0 -20 0.5t-20.5 0.5t-19 -0.5t-19 -2.5t-15 -5t-11.5 -8.5t-6 -13.5l-2 -16l-80 -373h-71q-39 0 -59.5 22.5t-12.5 53.5l295 1388
q6 33 35 56.5t69 23.5zM432 961l-166 -787l-4 -16h86h174q44 0 82 11t66.5 31.5t52.5 44t41.5 56t30.5 59.5t23 62t15 56t11 48l4 13q37 184 -4 290v2q-37 130 -148 130h-264z" />
    <glyph glyph-name="q" unicode="q" horiz-adv-x="1212" 
d="M1124 889l-204 -955q-5 -22 -12 -55t-10.5 -44t-4.5 -31t-1 -24.5t7.5 -15t13 -11t24.5 -4t33 -3.5h46h65l-20 -82q-5 -22 -25.5 -36.5t-48.5 -14.5h-2h-20q-57 0 -82 1t-59 6.5t-44.5 18t-21.5 36t-9 59t11 88.5q11 77 33 176l12 55q-140 -73 -258 -73h-12
q-126 0 -225.5 65.5t-133.5 169.5q-41 103 -16 229l45 207q25 119 111.5 228.5t207.5 173.5q122 61 252 61h60q91 0 162.5 -30.5t103.5 -79.5q32 -52 22 -115zM844 231l139 650q3 17 -8 37q-17 27 -60 43t-92 16h-75q-87 0 -169 -43.5t-145 -122.5q-58 -72 -76 -160
l-45 -207q-17 -84 11.5 -158.5t93.5 -117.5q61 -45 147 -45h13q36 0 109.5 21.5t119.5 50.5q34 20 37 36zM831 117l-2 -11l2 3v8z" />
    <glyph glyph-name="r" unicode="r" horiz-adv-x="849" 
d="M938 995q8 -8 -14 -39q-3 -4 -8 -11q-9 -13 -14 -19.5t-14 -18t-15.5 -16.5t-14.5 -10.5t-14.5 -5t-12.5 5.5q-62 58 -139.5 79.5t-148 5.5t-127.5 -77.5t-78 -159.5l-156 -729h-71q-37 0 -56.5 24t-13.5 56l147 694q21 96 75.5 168t125.5 110.5t153 54.5t157.5 6.5
t139.5 -40t99 -78.5z" />
    <glyph glyph-name="s" unicode="s" horiz-adv-x="985" 
d="M637 1110q111 6 190 -31t146 -114q14 -9 11.5 -32.5t-26.5 -47.5l-59 -54q-1 1 -17.5 19t-21.5 23t-22.5 22t-27.5 23.5t-29 19.5t-35.5 18.5t-38 12.5t-45 9t-48.5 1q-91 -4 -169 -63.5t-89 -131.5q-6 -32 14 -56.5t56 -40.5t83 -32.5t97 -31t96.5 -37t81.5 -49.5
t52.5 -70.5t9.5 -97.5q-12 -77 -48 -142t-83 -108t-102 -74t-104.5 -45t-92.5 -16q-199 -9 -324 110q-56 48 -14 92l72 66q41 -47 84 -76t76 -37t66 -12t54 0q96 6 174 69.5t96 163.5q4 32 -16 56.5t-57 39.5t-84.5 31t-97.5 30t-96 36.5t-80.5 49.5t-50.5 71t-7 100
q23 137 144.5 233t281.5 103z" />
    <glyph glyph-name="t" unicode="t" horiz-adv-x="831" 
d="M557 1083h238q38 0 59.5 -21.5t15.5 -51.5l-14 -64h-328l-104 -489q-11 -53 -16.5 -89t-7 -74t7 -61.5t26.5 -42.5t49 -27.5t76 -8.5h170q-6 -31 -10 -47t-13 -40t-18.5 -36t-26.5 -21.5t-38 -9.5h-93q-366 0 -270 457l105 489h-175l15 64q6 30 36 51.5t68 21.5h84
l62 287q6 31 37 55.5t67 24.5h76z" />
    <glyph glyph-name="u" unicode="u" horiz-adv-x="1110" 
d="M1223 1094l-133 -656q-18 -93 -70 -180q-57 -99 -160.5 -176.5t-261.5 -101.5q-47 -7 -90 -7q-46 0 -90 7q-148 25 -211 100q-45 50 -69 112t-25 122.5t10 123.5l145 656h78q37 0 56.5 -24t13.5 -56l-129 -576q-34 -154 33.5 -233.5t214.5 -79.5q156 0 260 78
q97 81 131 235l116 576q6 32 36 56t67 24h78z" />
    <glyph glyph-name="v" unicode="v" horiz-adv-x="1155" 
d="M1124 1098h68q32 0 53 -18t15 -42q-2 -12 -17 -34v2l-629 -973q-34 -43 -84 -43q-22 0 -41 15.5t-24 33.5l-217 969q0 27 2 32q12 58 104 58h62l178 -815z" />
    <glyph glyph-name="w" unicode="w" horiz-adv-x="1986" 
d="M1958 1098h67q31 0 51.5 -18t16.5 -42q-2 -10 -18 -34v2l-629 -981q-34 -43 -86 -43q-25 0 -44.5 17.5t-21.5 37.5v-2l-159 796l-521 -806q-34 -43 -86 -43q-22 0 -40 15t-25 34l-213 977q-4 14 0 32q12 58 106 58h62l174 -824l534 824h68q22 0 40.5 -9t22.5 -22
l166 -793z" />
    <glyph glyph-name="x" unicode="x" horiz-adv-x="1128" 
d="M1067 1092h115h7.5h8.5t8 -0.5t8.5 -1.5t6 -2.5t4 -4t0 -6t-3.5 -9t-9 -11.5l-501 -512l301 -547l-176 2q-34 0 -52 27l-209 387l-376 -387q-30 -27 -64 -27l-176 -2l535 547l-285 512q-3 6 -4 11.5t0.5 9t3 6t6 4l7.5 2.5t9 1.5t8.5 0.5h9h7.5h115l250 -443l4 -4l4 4z
" />
    <glyph glyph-name="y" unicode="y" horiz-adv-x="1036" 
d="M1200 1100l-100 -473l-37 -189q-7 -33 -12 -47l-90 -418q-17 -80 -54 -152.5t-92.5 -133t-135.5 -96.5t-173 -37h-29q-45 0 -61 2h2q-43 3 -53.5 28.5t0.5 61.5l12 59h143q121 0 188 81.5t101 242.5l8 37q-107 -89 -336 -89q-84 0 -152 17.5t-113.5 49.5t-76 74.5
t-43.5 94.5t-13 108t13 117l146 656h77q37 0 56.5 -24t11.5 -56l-127 -576q-34 -153 33.5 -226t216.5 -73q323 0 377 254l45 217l82 404q7 25 22 49q14 14 42 25.5t52 11.5h70z" />
    <glyph glyph-name="z" unicode="z" horiz-adv-x="946" 
d="M430 1098h518q34 0 54 -21.5t14 -50.5q-7 -31 -31 -55l-706 -830h581l-14 -63q-6 -32 -36 -56t-67 -24h-632q-34 0 -54 24.5t-14 51.5q3 18 18 37l719 839l-461 4l17 80q6 24 37.5 44t56.5 20z" />
    <glyph glyph-name="braceleft" unicode="{" horiz-adv-x="1013" 
d="M1219 1632l-11 -43q-9 -46 -49.5 -74t-103.5 -28q-175 0 -254 -250q-116 -405 -348 -541q50 -42 77 -107.5t30.5 -153t-2 -159t-19.5 -172.5q-14 -136 25.5 -192.5t121.5 -56.5q63 0 92.5 -28.5t20.5 -74.5l-11 -43h-133q-36 0 -68.5 4.5t-75.5 23.5t-72.5 51t-48.5 92.5
t-15 142.5q1 49 6 110.5t10 108t8 99t1.5 90t-10.5 74.5t-27 60.5t-50 39t-77 18.5q-23 0 -33 2q-66 11 -56 67l15 68h61q68 4 124.5 34t92.5 63.5t78.5 112.5t62 125t62.5 156q18 45 27 68q31 82 76 142.5t88 92t94.5 50.5t85.5 23.5t71 4.5h134z" />
    <glyph glyph-name="bar" unicode="|" horiz-adv-x="292" 
d="M358 920l-4 -9l-243 -1147q-8 -35 -36.5 -70t-72.5 -36h-61l266 1247l4 23l16 73l101 467q10 44 37 75t63 30h64l-111 -547z" />
    <glyph glyph-name="braceright" unicode="}" horiz-adv-x="1013" 
d="M971 760h61l-14 -68q-10 -56 -84 -67q-10 -2 -33 -2q-60 -3 -108 -30t-78.5 -64t-59.5 -100.5t-47 -118.5t-47 -141t-53 -146q-31 -82 -76.5 -142.5t-88.5 -92.5t-94 -51t-86 -23.5t-71 -4.5h-133l10 43q9 46 50 74.5t104 28.5q175 0 254 249q20 66 35.5 113.5t39 110.5
t49 111t57.5 98t72 89.5t85 67.5q-176 140 -117 543q14 136 -25.5 193t-121.5 57q-63 0 -92.5 28.5t-20.5 73.5l10 43h133q30 0 56.5 -3.5t62.5 -13.5t64 -32t52.5 -55t36.5 -86.5t9 -122.5q-1 -22 -2 -64q-1 -82 -3 -154t8.5 -133t31.5 -106t64.5 -71.5t109.5 -30.5z" />
    <glyph glyph-name="asciitilde" unicode="~" horiz-adv-x="1054" 
d="M1026 829q16 0 28.5 -12t17 -33.5t1.5 -47t-19 -56t-42 -57.5q-33 -34 -112.5 -54t-135.5 -20q-48 0 -183 27.5t-194 27.5q-55 0 -83.5 -16.5t-37.5 -59.5l-10 -55h-68q-36 0 -52 27t-13 61.5t18 65.5q24 44 55 71.5t69.5 37.5t61 12t60.5 2h14q63 0 212 -25t208 -25
q52 0 75.5 16.5t33.5 67.5l8 41q27 4 88 4z" />
    <glyph glyph-name="exclamdown" unicode="&#xa1;" horiz-adv-x="309" 
d="M360 860h-20.5t-18.5 -0.5t-16.5 -0.5t-14.5 0.5t-12.5 1.5t-10 3t-6.5 5.5t-3 7.5t0 10l31 141q5 24 38.5 46t69.5 22h72l-41 -195q-3 -15 -10 -24.5t-19.5 -12.5t-18.5 -3.5t-20 -0.5zM90 -410q-75 0 -80 1q-25 4 -20 26l225 1063q5 24 39 46t70 22h71l-237 -1117
q-3 -15 -10 -24.5t-19.5 -12.5t-18.5 -3.5t-20 -0.5z" />
    <glyph glyph-name="cent" unicode="&#xa2;" horiz-adv-x="1046" 
d="M842 1544l-25 -112q99 -7 181.5 -64t112.5 -116.5t1 -80.5l-84 -55q-63 108 -117 144t-123 36l-223 -1050q186 13 355 190q11 -15 32 -61q10 -23 -1 -50t-36 -46q-83 -71 -184 -118.5t-196 -60.5l-13 -61q-4 -14 -24.5 -32.5t-42.5 -18.5h-21l-84 2l27 116
q-94 20 -163 81.5t-99 148.5q-39 106 -13 235l82 385q43 200 179.5 335.5t293.5 135.5l9 43q5 24 37.5 49t62.5 25h76zM408 256l219 1034q-30 0 -70 -22t-81 -61.5t-77 -106t-53 -144.5l-82 -385q-11 -66 -4.5 -117t32 -91.5t54.5 -66t62 -40.5z" />
    <glyph glyph-name="sterling" unicode="&#xa3;" horiz-adv-x="1255" 
d="M1364 1319q13 -23 6 -47q-5 -20 -12 -29l-68 -80l-10 14q-11 14 -19.5 25t-25.5 29.5t-33.5 33t-41 31t-49.5 27t-56.5 18t-63.5 7.5q-182 0 -303 -154q-52 -66 -70 -156l-53 -252h258q35 0 58.5 -20t17.5 -43l-16 -80h-348l-56 -262q-31 -143 -153 -258h604
q31 0 53.5 -26.5t17.5 -55.5l-14 -74h-928q-8 0 -34 13q-22 15 -25 30q-8 18 -2 35q5 21 23 41.5t42 30.5q2 0 22.5 10.5t54 33t67 52t63 74.5t39.5 94l56 262h-175l17 80q6 24 38 43.5t68 19.5h82l54 252q26 122 111 228t206 166q118 59 256 59h2q103 -4 182.5 -37.5
t122.5 -81.5v-2q34 -49 35 -51z" />
    <glyph glyph-name="currency" unicode="&#xa4;" 
d="M1114 1110l10 -12q54 -117 27 -254l-45 -211q-32 -149 -139 -262l108 -117l-80 -66q-29 -23 -64.5 -19.5t-53.5 26.5l-52 65q-129 -78 -272 -78h-25q-142 0 -237 78l-80 -65q-28 -23 -65 -26.5t-54 19.5l-51 66l158 117q-60 117 -29 262l45 211q26 135 133 254l12 10
l11 10l-84 113q22 18 90 63q47 37 82 -2q30 -34 55 -65l12 6q116 61 242 61h25q105 0 192 -49l31 -18q52 45 80 65q22 17 42.5 17.5t26.5 -3t17 -12.5q53 -53 61 -63l-133 -113zM385 844l-45 -211q-28 -125 38 -213t185 -88h23q119 0 220.5 87.5t129.5 213.5l45 211
q26 125 -39 211t-184 86h-23q-119 0 -221.5 -86t-128.5 -211z" />
    <glyph glyph-name="yen" unicode="&#xa5;" horiz-adv-x="1173" 
d="M1321 1452q-2 -5 -100.5 -133t-217.5 -283.5t-157 -210.5l-23 -30h97q43 -2 69.5 -22.5t16.5 -57.5l-13 -64l-219 -2q-12 -2 -37 -2h-16l-10 -45h168q43 -2 69.5 -22.5t16.5 -57.5l-13 -63l-219 -2q-12 -2 -37 -2h-18l-103 -488h-88q-27 0 -45 25t-12 55l29 137l57 271
l-180 2q-35 0 -65 21t-23 65l14 61l285 -2l10 47h-180q-35 0 -65 21t-23 65l14 62h213l-8 28q-15 53 -69 210t-98 284.5t-42 132.5q-4 19 10.5 41.5t44.5 22.5h101l225 -672l510 672h100q30 0 36.5 -24.5t-5.5 -39.5z" />
    <glyph glyph-name="brokenbar" unicode="&#xa6;" horiz-adv-x="292" 
d="M381 1053l-33 -154q-12 -44 -38.5 -74.5t-63.5 -29.5h-64l43 215q0 18 6 39l15 65l4 21v2l47 211q8 35 36.5 70t72.5 36h61l-66 -307l-4 -17zM41 154l47 211q8 35 36.5 70t72.5 36h61l-86 -401l-33 -154q-12 -44 -38.5 -74.5t-63.5 -29.5h-64l43 215q0 15 7 39l14 65
l4 21v2z" />
    <glyph glyph-name="section" unicode="&#xa7;" horiz-adv-x="1226" 
d="M1047 1554q91 0 184 -64.5t145 -158.5q-42 -51 -73 -63q-14 -8 -34 -9t-32 5l-4 4l-41 51q-82 98 -195 98q-128 0 -215 -104q-37 -42 -53 -109q-30 -134 70 -207q24 -18 143 -88v2q106 -52 141 -76q131 -92 103 -242q-1 -3 -2 -7q-21 -103 -114 -206t-202 -151
q-20 -9 -55 -22q25 -62 8 -139q-21 -103 -100.5 -191.5t-188.5 -134.5q-104 -49 -215 -49q-100 0 -185 45.5t-130 126.5l-14 26q73 64 110 64q16 0 31 -13t31.5 -32t38 -37.5t58 -31.5t83.5 -13q74 0 143 33t121 94h2q45 54 60 115q14 72 -60 125q-46 30 -117 71
q-56 31 -89 51.5t-72 50t-64 61t-39 67.5q-36 83 -14 188q23 104 97.5 187t174.5 124q54 21 101 29l4 -8q-36 79 -13 186q23 103 97.5 187.5t175.5 126.5q97 38 199 38zM854 784q-135 76 -176 113q-16 8 -41 8q-56 0 -119 -34t-100 -76q-38 -47 -53 -109q-27 -135 71 -207
h-2l37 -20q82 -47 205 -111q28 -14 53 -14q84 0 179 84t114 172q16 72 -51 123q-11 7 -49.5 31t-67.5 40z" />
    <glyph glyph-name="dieresis" unicode="&#xa8;" horiz-adv-x="620" 
d="M279 1436q42 0 50 -15q4 -10 1 -26l-49 -236h-72q-36 0 -61 22t-19 46l39 182q1 7 4.5 12.5t9.5 8.5t12 4.5t17 2t19 0.5t23.5 -0.5t25.5 -0.5zM590 1436q42 0 50 -15q4 -10 1 -26l-49 -236h-72q-36 0 -61 22t-19 46l39 182q1 7 4.5 12.5t9.5 8.5t12 4.5t17 2t19 0.5
t23.5 -0.5t25.5 -0.5z" />
    <glyph glyph-name="copyright" unicode="&#xa9;" horiz-adv-x="1263" 
d="M823 1268h17q153 0 264.5 -65.5t158 -179t17.5 -249.5l-33 -156q-28 -133 -128.5 -247.5t-239.5 -180t-279 -65.5h-16q-143 0 -273.5 72t-167.5 178q-43 116 -16 243l33 156q25 119 90.5 214.5t155.5 155.5t196.5 92t220.5 32zM821 1149h-20q-105 0 -198.5 -35.5
t-157 -91.5t-104 -120.5t-54.5 -127.5l-33 -156q-21 -100 16 -187t126 -140t210 -53h17q85 0 172.5 36.5t153 92.5t112 123t59.5 128l33 156q21 98 -20 186t-125.5 139.5t-186.5 49.5zM764 1012q61 0 96 -21q54 -40 47 -76q-1 -4 -4.5 -9.5t-7 -10.5t-4.5 -6h-2l-58 -39
q-4 45 -23.5 62.5t-62.5 17.5q-53 0 -88 -45q-18 -22 -24 -56l-55 -260q-22 -100 69 -100q26 0 54.5 13t45.5 26.5t36 20.5t26 -5q15 -29 12 -37q-4 -19 -20 -32q-42 -35 -81.5 -53.5t-90.5 -18.5q-83 0 -121 50.5t-19 135.5l56 260q9 48 40.5 92t76.5 68q42 23 102 23z" />
    <glyph glyph-name="guillemotleft" unicode="&#xab;" horiz-adv-x="1245" 
d="M680 422l2 -2q-12 -39 -71 -63t-117 3l-314 197q-13 8 -22 21q-6 6 -13 20q-2 6 -2 16l2 13q0 3 9 16q15 27 47 43l10 6v2l424 178q47 19 83.5 13t58 -27.5t18.5 -46.5h-2l-404 -186zM702 694l424 178q47 19 83.5 13t58 -27.5t18.5 -46.5h-2l-403 -186l290 -203l3 -2
q-12 -39 -71.5 -63t-117.5 3l-313 197q-15 9 -23 21q-4 4 -12 20q-2 6 -2 16l2 13q0 4 8 16q15 27 47 43l10 6v2z" />
    <glyph glyph-name="logicalnot" unicode="&#xac;" horiz-adv-x="1269" 
d="M291 963h948q32 0 56 -24.5t18 -57.5l-86 -396q-5 -26 -43.5 -54t-79.5 -28h-70l84 396h-950l18 82q6 34 36.5 58t68.5 24z" />
    <glyph glyph-name="registered" unicode="&#xae;" horiz-adv-x="1263" 
d="M823 1268h17q153 0 264.5 -65.5t158 -179t17.5 -249.5l-33 -156q-28 -133 -128.5 -247.5t-239.5 -180t-279 -65.5h-16q-143 0 -273.5 72t-167.5 178q-43 116 -16 243l33 156q25 119 90.5 214.5t155.5 155.5t196.5 92t220.5 32zM1120 618l33 156q21 98 -20 186
t-125.5 139.5t-186.5 49.5h-20q-105 0 -198.5 -35.5t-157 -91.5t-104 -120.5t-54.5 -127.5l-33 -156q-21 -100 16 -187t126 -140t210 -53h17q85 0 172.5 36.5t153 92.5t112 123t59.5 128zM629 1036h166q50 0 90.5 -27t54.5 -69q16 -48 8 -94l-22 -101q-11 -59 -70 -118
q-35 -38 -78 -56q55 -55 71.5 -68.5t29.5 -13.5h8q15 0 22.5 -9.5t7.5 -22.5t-2 -26t-5 -23l-3 -9h-49q-60 0 -92 35h2l-113 117h-84l-32 -152h-45q-22 0 -32 15t-7 32l114 543q5 20 21.5 33.5t38.5 13.5zM809 694q17 28 22 51l23 101q10 61 -31 88l-2 2q-14 12 -41 12h-125
l-65 -305h121q53 0 98 51z" />
    <glyph glyph-name="macron" unicode="&#xaf;" horiz-adv-x="931" 
d="M160 1425l684 -2q43 -2 69.5 -22.5t16.5 -57.5l-12 -63l-332 -2q-10 -2 -33 -2h-51h-35h-2l-232 2q-35 0 -65 21t-23 65z" />
    <glyph glyph-name="degree" unicode="&#xb0;" horiz-adv-x="567" 
d="M399 1614h47q74 0 119 -55t31 -125l-57 -267q-14 -69 -83.5 -124.5t-144.5 -55.5h-47q-73 0 -118.5 54.5t-30.5 125.5l57 267q15 70 84 125t143 55zM416 1475h-47q-13 0 -24 -11t-15 -30l-58 -267q-4 -19 3 -30t20 -11h47q13 0 25.5 11.5t15.5 29.5l57 267
q3 18 -4.5 29.5t-19.5 11.5z" />
    <glyph glyph-name="plusminus" unicode="&#xb1;" 
d="M772 725h340q43 -2 69.5 -22.5t16.5 -57.5l-12 -63l-445 -2l-6 -31l-6 -33l-2 -2l-41 -190q-8 -36 -36 -71t-72 -36h-62l62 275l4 22l14 64h-25h-41h-2l-270 2q-35 0 -65.5 21t-22.5 65l12 61l445 -2l53 258q12 44 39 74.5t63 29.5h64zM59 152l930 -2q44 -2 70 -22.5
t18 -57.5l-14 -64l-539 -4h-28h-45h-41h-2l-273 2q-35 0 -65.5 21t-22.5 65z" />
    <glyph glyph-name="acute" unicode="&#xb4;" horiz-adv-x="532" 
d="M498 1536l15 -17.5t14 -16.5t11 -14t7.5 -13t2.5 -11t-2 -11.5t-9 -10.5l-265 -215q-18 -18 -53.5 -13t-56.5 31l-39 49l307 254q17 14 32 13t21 -7t15 -18z" />
    <glyph glyph-name="paragraph" unicode="&#xb6;" horiz-adv-x="1112" 
d="M1143 1380l-359 -1685q77 0 110.5 18t47.5 86l363 1700h-553q-102 0 -188.5 -36.5t-140.5 -88t-95 -115.5t-58.5 -110t-25.5 -82q-6 -27 -6 -61t6.5 -79t30 -85.5t61.5 -76t105 -56.5t155 -21l-209 -989l16 -1q16 0 21.5 0.5t22 3t25 6.5t22.5 12.5t22.5 20t17 30
t13.5 41.5l334 1568h262z" />
    <glyph glyph-name="periodcentered" unicode="&#xb7;" horiz-adv-x="309" 
d="M274 772h15.5t14 -2t14.5 -6t7 -12.5t1 -20.5l-41 -194h-72q-36 0 -60.5 21.5t-19.5 45.5l29 141q2 7 5.5 12.5t9.5 8.5t12 4.5t17 2t19 0.5t23.5 -0.5t25.5 -0.5z" />
    <glyph glyph-name="cedilla" unicode="&#xb8;" horiz-adv-x="1597" 
 />
    <glyph glyph-name="guillemotright" unicode="&#xbb;" horiz-adv-x="1245" 
d="M723 578q-22 -16 -31 -21l-399 -197q-68 -27 -116.5 -3t-43.5 63l2 2l375 203l-324 186h-2q12 41 71.5 64.5t117.5 -3.5l346 -178v-2l8 -4q25 -16 29 -45l2 -6q0 -2 -1 -6t-1 -6q-5 -15 -11 -23t-22 -24zM1249 637l-2 -12q-6 -17 -10 -23q-3 -4 -23 -24q-24 -18 -30 -21
l-400 -197q-47 -19 -83.5 -13t-57.5 27.5t-18 45.5l2 2l374 203l-323 186h-2q12 41 71 64.5t117 -3.5l346 -178v-2l9 -4q24 -15 28 -45z" />
    <glyph glyph-name="questiondown" unicode="&#xbf;" horiz-adv-x="952" 
d="M778 971q-40 0 -48 14q-4 11 -1 27l41 194h72q36 0 60.5 -21.5t19.5 -45.5l-31 -142q-2 -7 -5.5 -12.5t-9.5 -8t-12.5 -4t-17.5 -2t-19.5 -0.5t-23 0.5t-25.5 0.5zM410 -408h-21q-116 0 -200 59t-117.5 156.5t-10.5 210.5q16 75 44.5 135t63.5 99t76.5 70t84.5 54
t86 44.5t83 47t73.5 56.5t59 78t38.5 107l35 163h55q35 0 54 -17t22 -35t0 -38l-13 -59q-21 -100 -63 -175t-92 -118.5t-107 -76.5t-112.5 -61t-103 -60.5t-84.5 -85.5t-52 -126q-17 -78 5 -141.5t71 -96.5t110.5 -44.5t129 10t120.5 70.5q7 7 19 15t30.5 17t40 9t39.5 -13
q10 -7 23 -18t21 -18l7 -7q-172 -211 -415 -211z" />
    <glyph glyph-name="Egrave" unicode="&#xc8;" horiz-adv-x="1185" 
d="M786 1718l-172 215q-4 5 -5 10.5t2.5 11.5t7.5 11.5t13 13.5t16.5 14t21 16.5l22.5 17.5q49 43 74 12l199 -254l-62 -49q-30 -26 -68.5 -31.5t-48.5 12.5zM344 1628h881q35 0 57.5 -20t17.5 -43l-18 -82h-879l-100 -473h676q39 0 60.5 -24.5t13.5 -57.5l-17 -82h-768
l-147 -694h878l-18 -82q-5 -24 -35 -45t-65 -21h-881q-25 0 -45.5 22t-15.5 44l319 1495q3 20 32 41.5t54 21.5z" />
    <glyph glyph-name="Eacute" unicode="&#xc9;" horiz-adv-x="1185" 
d="M1008 1933l-263 -215q-20 -18 -55.5 -12.5t-56.5 31.5l-37 49l305 254q13 11 23.5 14t21 -3.5t13 -9t12.5 -13.5q6 -7 14.5 -17.5t13.5 -16.5t10.5 -14t7.5 -13.5t2.5 -11.5t-2.5 -11.5t-9 -10.5zM344 1628h881q35 0 57.5 -20t17.5 -43l-18 -82h-879l-100 -473h676
q39 0 60.5 -24.5t13.5 -57.5l-17 -82h-768l-147 -694h878l-18 -82q-5 -24 -35 -45t-65 -21h-881q-25 0 -45.5 22t-15.5 44l319 1495q3 20 32 41.5t54 21.5z" />
    <glyph glyph-name="Ecircumflex" unicode="&#xca;" horiz-adv-x="1185" 
d="M526 1710h-47q-12 0 -18 4.5t-6.5 14t0.5 16.5t4 18.5t4 14.5q0 12 20 30l314 201q31 21 71 21t64 -21l227 -201q8 -9 8 -30l-1 -10q-2 -9 -3.5 -12.5t-4.5 -12.5t-7 -13t-10.5 -9.5t-16.5 -8t-22 -2.5h-33q-33 0 -49 16l-184 162q-8 0 -16 -4.5t-59 -39.5
q-90 -61 -177 -118q-27 -16 -58 -16zM346 1628h881q35 0 58 -20t18 -43l-19 -82h-878l-99 -473h674q39 0 60.5 -24.5t15.5 -57.5l-19 -82h-768l-147 -694h878l-16 -82q-5 -24 -35.5 -45t-66.5 -21h-881q-25 0 -44.5 22t-14.5 44l317 1495q5 21 33.5 42t52.5 21z" />
    <glyph glyph-name="Edieresis" unicode="&#xcb;" horiz-adv-x="1185" 
d="M729 1720h-72q-36 0 -60.5 22t-18.5 46l38 182q1 7 4.5 12.5t9.5 8.5t12 4.5t17 2t19 0.5t23.5 -0.5t25.5 -0.5q42 0 50 -15q4 -10 1 -26zM1020 1720h-72q-36 0 -61 22t-19 46l39 182q1 7 4.5 12.5t9.5 8.5t12 4.5t17 2t19 0.5t23.5 -0.5t25.5 -0.5q42 0 50 -15
q4 -10 1 -26zM350 1628h881q35 0 57 -20t19 -43l-19 -82h-878l-101 -473h676q39 0 60.5 -24.5t13.5 -57.5l-17 -82h-768l-147 -694h879l-19 -82q-5 -24 -35 -45t-65 -21h-881q-25 0 -45.5 22t-15.5 44l319 1495q3 20 32 41.5t54 21.5z" />
    <glyph glyph-name="Icircumflex" unicode="&#xce;" horiz-adv-x="849" 
d="M770 1948l227 -201q9 -13 9 -31q0 -1 -1 -7.5t-2 -9.5t-3 -9.5t-4 -10t-5.5 -9t-8 -8.5t-10.5 -6.5t-14 -5t-18 -1.5h-33q-30 0 -51 16l-182 162q-8 0 -19.5 -7t-55.5 -36q-26 -18 -44 -30t-56.5 -37.5t-78.5 -51.5q-21 -16 -55 -16h-48q-12 0 -18 4.5t-6.5 13.5t0.5 16
t4 18.5t4 14.5q0 15 21 31l313 201q30 20 72 20q40 0 63 -20zM477 1585h281q28 0 39.5 -16.5t7.5 -34.5l-14 -66l-7 -28h-112l-279 -1290h43h9h17.5t14.5 -1t11.5 -3.5t8 -7t3.5 -12t-2 -17.5l-19 -89q-3 -12 -5 -14t-13 -2h-359q-14 0 -15.5 9t3.5 32l14 64q5 22 15.5 31.5
t21 10.5t41.5 1h45l285 1288h-125l6 28l17 72q4 18 25.5 31.5t41.5 13.5z" />
    <glyph glyph-name="Idieresis" unicode="&#xcf;" horiz-adv-x="544" 
d="M455 1651h-72q-36 0 -60.5 21.5t-19.5 45.5l39 183q2 7 5.5 12.5t9.5 8t12.5 4t17.5 2t19.5 0.5t23 -0.5t25.5 -0.5h15.5t14 -2t14.5 -6t6.5 -12.5t0.5 -20.5zM684 1927h15.5t14 -2t14.5 -6t6.5 -12.5t0.5 -20.5l-51 -235h-72q-36 0 -60.5 21.5t-19.5 45.5l39 183
q2 7 5.5 12.5t9.5 8t12.5 4t17.5 2t19.5 0.5t23 -0.5t25.5 -0.5zM338 1585h280q28 0 40 -16.5t8 -34.5l-15 -66l-6 -28h-113l-278 -1290h43h9h17.5t14.5 -1t11 -3.5t7.5 -7t3.5 -12t-2 -17.5l-18 -89q-3 -12 -5.5 -14t-12.5 -2h-359q-14 0 -15.5 9t3.5 32l14 64
q5 22 15.5 31.5t21 10.5t41.5 1h45l285 1288h-125l6 28l18 72q3 18 24.5 31.5t41.5 13.5z" />
    <glyph glyph-name="Ocircumflex" unicode="&#xd4;" horiz-adv-x="1159" 
d="M1171 1778l-1 -10q-2 -9 -3.5 -12.5t-4.5 -12.5t-7 -13t-10.5 -9.5t-16.5 -8t-22 -2.5h-33q-33 0 -49 16l-182 162q-11 0 -94 -56q-25 -17 -42 -28t-50.5 -33.5t-67.5 -44.5q-27 -16 -58 -16h-47q-12 0 -18 4.5t-6.5 14t0.5 16.5t4 18.5t4 14.5q0 12 20 30l314 201
q31 21 71 21t64 -21l227 -201q8 -9 8 -30zM786 1669h17q131 0 236 -66t145 -173q43 -113 16 -240l-156 -733q-26 -123 -119.5 -240t-222.5 -186q-133 -68 -262 -68h-16q-136 0 -238 69.5t-141 180.5q-43 117 -16 244l155 733q28 130 117.5 240.5t218.5 175.5q129 63 266 63z
M768 1511h-16q-84 0 -165.5 -42t-144.5 -117q-59 -74 -77 -162l-156 -733q-20 -89 8 -164t94 -119q61 -45 148 -45h16q87 0 169 43t147 121q58 77 75 164l156 733q20 89 -7.5 161t-94.5 117q-65 43 -152 43z" />
    <glyph glyph-name="multiply" unicode="&#xd7;" horiz-adv-x="1196" 
d="M1110 1092h115h7.5h8.5t8 -0.5t8.5 -1.5t6 -2.5t4 -4t0 -6t-3.5 -9t-9 -11.5l-479 -410l328 -424l-176 2q-33 0 -51 27l-236 264l-350 -264q-30 -27 -64 -27l-176 -2l508 424l-307 410q-3 6 -4 11.5t0.5 9t3 6t6 4l7.5 2.5t9 1.5t8.5 0.5h9h7.5h115l272 -340l4 -4l4 4z
" />
    <glyph glyph-name="Ucircumflex" unicode="&#xdb;" horiz-adv-x="1165" 
d="M1165 1778l-1 -10q-2 -9 -3.5 -12.5t-4.5 -12.5t-7 -13t-10.5 -9.5t-16.5 -8t-22 -2.5h-33q-28 0 -49 16l-182 162q-8 0 -19.5 -7t-55.5 -36q-26 -18 -44 -30t-56.5 -37.5t-78.5 -51.5q-21 -16 -58 -16h-47q-12 0 -18 4.5t-6.5 14t0.5 16.5t4 18.5t4 14.5l2 5q2 5 7 12
t13 13l312 201q35 21 73 21q41 0 62 -21l229 -201q5 -6 6.5 -13t1 -11.5t-1.5 -5.5zM1116 1630h88q40 0 62 -24.5t14 -59.5l-227 -1075q-29 -134 -122.5 -249.5t-223.5 -180.5q-132 -66 -265 -66h-16q-138 0 -240 67t-141 177q-44 118 -14 252l227 1075q8 34 39.5 59
t69.5 25h92l-246 -1159q-31 -143 45 -225t209 -82h16q87 0 157 26.5t109 61.5t67.5 83.5t38 77t15.5 58.5z" />
    <glyph glyph-name="egrave" unicode="&#xe8;" horiz-adv-x="1081" 
d="M713 1186l-172 215q-3 4 -4 8t0 8.5t3.5 8.5t7.5 9.5t9.5 10t12.5 11t14 11.5t16 13t18 14q33 27 49 26q14 0 25 -14l199 -254l-60 -49q-31 -26 -69.5 -31t-48.5 13zM702 1098h17q197 -15 288.5 -141.5t51.5 -319.5l-39 -178l-8 -45l-2 -2q-1 -6 -2.5 -7.5t-10.5 -3.5
t-28 -2h-740q0 -18 -1.5 -41.5t6 -51t17 -55t31 -53.5t48.5 -45.5t69 -31.5t93 -12q83 0 143.5 12.5t84 25t54.5 36.5t41 30q16 10 32 11t26.5 -3t22.5 -15.5t16.5 -17.5l13.5 -18q-81 -72 -142 -111q-52 -35 -137 -62.5t-172 -27.5h-14q-125 0 -225 64q-96 63 -140.5 169.5
t-21.5 213.5l47 221q23 119 115 231q84 103 211.5 166.5t254.5 63.5zM887 549l18 88q15 54 9 108t-28 97.5t-74 75t-128 40.5h-12q-82 0 -168 -45q-87 -44 -143.5 -115.5t-75.5 -160.5l-19 -88h621z" />
    <glyph glyph-name="eacute" unicode="&#xe9;" horiz-adv-x="1081" 
d="M913 1401l-262 -215q-20 -18 -55 -13t-55 31l-39 49l305 254q17 14 32.5 13t22 -7t15.5 -18q6 -8 14.5 -18t13.5 -16t10.5 -14t7.5 -13t2.5 -11t-2.5 -11.5t-10 -10.5zM702 1098h17q197 -15 288.5 -141.5t51.5 -319.5l-39 -178l-8 -45l-2 -2q-1 -6 -2.5 -7.5t-10.5 -3.5
t-28 -2h-740q0 -18 -1.5 -41.5t6 -51t17 -55t31 -53.5t48.5 -45.5t69 -31.5t93 -12q83 0 143.5 12.5t84 25t54.5 36.5t41 30q16 10 32 11t26.5 -3t22.5 -15.5t16.5 -17.5l13.5 -18q-81 -72 -142 -111q-52 -35 -137 -62.5t-172 -27.5h-14q-125 0 -225 64q-96 63 -140.5 169.5
t-21.5 213.5l47 221q23 119 115 231q84 103 211.5 166.5t254.5 63.5zM887 549l18 88q15 54 9 108t-28 97.5t-74 75t-128 40.5h-12q-82 0 -168 -45q-87 -44 -143.5 -115.5t-75.5 -160.5l-19 -88h621z" />
    <glyph glyph-name="ecircumflex" unicode="&#xea;" horiz-adv-x="1081" 
d="M877 1456l227 -201q8 -9 8 -30l-2 -9q-1 -10 -2.5 -13.5t-4.5 -12.5t-7 -13t-10.5 -9.5t-16.5 -8t-22 -2.5h-33q-32 0 -49 17l-183 161q-9 0 -21 -7t-91 -60q-24 -16 -39.5 -26t-44.5 -29.5t-58 -38.5q-28 -17 -57 -17h-47q-12 0 -18 4.5t-6.5 14t0.5 16.5t4 18.5t4 14.5
q0 13 20 30l313 201q31 21 72 21q39 0 64 -21zM707 1098h16q199 -15 289.5 -141.5t50.5 -319.5l-37 -178l-10 -45v-2q0 -1 -1 -2.5t-1 -2t-1 -2t-2 -2t-2.5 -1t-3.5 -1t-5 -1t-7 -1t-9 -0.5h-11h-740q-3 -29 0 -61.5t18 -74.5t42.5 -75t80 -56t122.5 -23q83 0 143.5 12.5
t84 25t54.5 36.5t41 30t19 9t17 2.5t14.5 -1t14.5 -6t12 -8t11 -10t9 -10t9 -10.5t7 -9q-84 -74 -144 -111q-53 -35 -136.5 -62.5t-170.5 -27.5h-14q-127 0 -227 64q-96 63 -140.5 169.5t-21.5 213.5l47 221q26 119 115 231q84 103 212 166.5t255 63.5zM891 549l18 88
q15 54 9 108t-28 97.5t-74 75t-128 40.5h-12q-83 0 -166 -45q-87 -44 -144.5 -116t-76.5 -160l-19 -88h621z" />
    <glyph glyph-name="edieresis" unicode="&#xeb;" horiz-adv-x="1081" 
d="M651 1159h-71q-36 0 -60.5 22t-19.5 46l39 182q2 7 5.5 12.5t9.5 8.5t12 4.5t17 2t19 0.5t23.5 -0.5t25.5 -0.5h15.5t14 -2t14.5 -6t6.5 -12.5t0.5 -20.5zM942 1159h-72q-36 0 -60 22t-19 46l38 182q2 7 5.5 12.5t10 8.5t12.5 4.5t17 2t19 0.5t23.5 -0.5t25.5 -0.5h15.5
t14 -2t14.5 -6t6.5 -12.5t0.5 -20.5zM711 1098h16q199 -15 290.5 -141.5t49.5 -319.5l-37 -178l-10 -45v-2q0 -1 -1 -2.5t-1 -2t-1 -2t-2 -2t-2.5 -1t-3.5 -1t-5 -1t-7 -1t-9 -0.5h-11h-739q-3 -29 0 -61.5t18 -75t42 -75t79.5 -55.5t122.5 -23q83 0 144 12.5t84.5 25
t54.5 37t40 29.5q10 6 19 9t17 2.5t14.5 -1t14.5 -6t12 -8t11 -10t9 -10t9 -10.5t7 -9q-86 -76 -143 -111q-53 -35 -137 -62.5t-171 -27.5h-14q-127 0 -227 64q-96 62 -140 169t-22 214l47 221q26 119 115 231q84 103 212 166.5t255 63.5zM895 549l18 88q15 54 9 108
t-27.5 97.5t-73.5 75t-127 40.5h-12q-85 0 -168 -45q-87 -44 -144.5 -116t-76.5 -160l-19 -88h621z" />
    <glyph glyph-name="icircumflex" unicode="&#xee;" horiz-adv-x="849" 
d="M963 1307l-1 -9q-2 -8 -2.5 -10.5t-3.5 -10.5t-5.5 -11.5t-7.5 -10t-11 -9t-15 -5t-20 -2.5h-33q-30 0 -51 16l-182 162q-8 0 -19.5 -7t-55.5 -36q-26 -18 -44 -30t-56.5 -37.5t-78.5 -51.5q-21 -16 -55 -16h-48q-12 0 -18 4.5t-6.5 14t0.5 16.5t4 18.5t4 14.5
q0 14 21 30l313 201q31 21 72 21q38 0 63 -21l227 -201q9 -13 9 -30zM616 1100l-233 -1100h-70q-39 0 -61 26t-14 60l200 946q5 24 39 46t70 22h69z" />
    <glyph glyph-name="idieresis" unicode="&#xef;" horiz-adv-x="518" 
d="M414 1538q40 0 48 -14q5 -10 1 -27l-49 -235h-72q-36 0 -60.5 21.5t-19.5 45.5l39 182q2 7 5.5 12.5t10 8.5t12.5 4.5t17 2t19 0.5t23.5 -0.5t25.5 -0.5zM623 1538q40 0 48 -14q5 -10 1 -27l-49 -235h-72q-36 0 -60.5 21.5t-19.5 45.5l39 182q2 7 5.5 12.5t10 8.5
t12.5 4.5t17 2t19 0.5t23.5 -0.5t25.5 -0.5zM485 1100l-233 -1098h-70q-39 0 -61.5 26t-14.5 60l201 944q5 24 39 46t70 22h69z" />
    <glyph glyph-name="ocircumflex" unicode="&#xf4;" horiz-adv-x="1159" 
d="M1110 1225l-2 -9q-1 -8 -1.5 -10.5t-3.5 -10.5t-5.5 -11.5t-7.5 -10t-11 -9t-15 -5t-20 -2.5h-32q-32 0 -49 17l-183 161q-8 0 -21 -7.5t-67 -43.5q-88 -59 -166 -110q-28 -17 -57 -17h-47q-12 0 -18 4.5t-6.5 14t0.5 16.5t4 18.5t4 14.5l2 5q2 5 7 12t13 13l311 201
q35 21 74 21q40 0 61 -21l230 -201q5 -6 6.5 -13t1 -11.5t-1.5 -5.5zM725 1110h16q131 0 236 -66.5t145 -173.5q44 -114 17 -239l-33 -156q-26 -124 -120 -240.5t-224 -185.5q-128 -67 -262 -67h-17q-137 0 -238.5 69t-140.5 180q-42 113 -14 244l33 156q28 130 117.5 240.5
t218.5 175.5q129 63 266 63zM713 965h-21q-139 0 -256 -103t-145 -231l-33 -156q-30 -142 55 -241t203 -99h16q141 0 259.5 105.5t146.5 234.5l33 156q31 146 -48 241.5t-210 92.5z" />
    <glyph glyph-name="divide" unicode="&#xf7;" 
d="M799 782h-72q-36 0 -60.5 22t-19.5 46l31 141q2 7 5.5 12.5t10 8.5t12.5 4.5t17 2t19 0.5t23.5 -0.5t25.5 -0.5q40 0 48 -14q4 -11 1 -27zM158 606l929 -2q44 -2 70.5 -22.5t16.5 -57.5l-13 -63l-540 -4h-29h-45h-41h-2l-271 2q-35 0 -65.5 21t-22.5 65zM637 295
q40 0 48 -14q5 -10 1 -27l-41 -195h-72q-36 0 -60 22t-19 46l30 141q2 7 5.5 12.5t10 8.5t12.5 4.5t17 2t19 0.5t23.5 -0.5t25.5 -0.5z" />
    <glyph glyph-name="ucircumflex" unicode="&#xfb;" horiz-adv-x="1110" 
d="M1092 1225l-2 -9q-1 -8 -1.5 -10.5t-3.5 -10.5t-5.5 -11.5t-7.5 -10t-11 -9t-15 -5t-20 -2.5h-33q-32 0 -49 17l-184 161q-8 0 -19.5 -6.5t-67.5 -44.5q-26 -17 -43 -28.5t-51.5 -34.5l-70.5 -47q-28 -17 -57 -17h-48q-12 0 -18 4.5t-6.5 14t0.5 16.5t4 18.5t4 14.5
q0 12 21 30l313 201q31 21 72 21q39 0 63 -21l227 -201q9 -11 9 -30zM1182 1094l-133 -656q-18 -90 -68 -180q-143 -236 -424 -278q-47 -7 -90 -7q-46 0 -90 7q-148 25 -211 100q-45 50 -69 112t-25 122.5t10 123.5l145 656h78q37 0 56.5 -24t13.5 -56l-129 -576
q-34 -154 33.5 -233.5t214.5 -79.5q156 0 260 78q96 78 131 235l116 576q6 32 36 56t67 24h78z" />
    <glyph glyph-name="circumflex" unicode="&#x2c6;" horiz-adv-x="849" 
d="M829 1225l-1 -9q-2 -10 -3.5 -13.5t-4.5 -12.5t-7 -13t-10.5 -9.5t-16.5 -8t-22 -2.5h-33q-32 0 -49 17l-182 161q-8 0 -21 -7.5t-67 -43.5q-88 -59 -166 -110q-28 -17 -58 -17h-47q-12 0 -18 4.5t-6.5 14t0.5 16.5t4 18.5t4 14.5l2 5q2 5 7 12t13 13l312 201
q35 21 73 21q41 0 62 -21l229 -201q5 -6 6.5 -13t1 -11.5t-1.5 -5.5z" />
    <glyph glyph-name="caron" unicode="&#x2c7;" horiz-adv-x="849" 
d="M870 1409l-2 -5q-2 -5 -7 -12.5t-13 -13.5l-311 -200q-35 -21 -74 -21q-41 0 -62 21l-229 200q-5 6 -6.5 13.5t-1 12t1.5 5.5q0 2 2 14.5t4 19t6.5 16t12.5 14t20 4.5h47q32 0 49 -17q54 -49 116 -108q43 -40 52 -47t17 -7q5 0 251 162q28 17 58 17h33q14 0 23 -4
t13.5 -8.5t5 -14.5t0 -14t-3.5 -16z" />
    <glyph glyph-name="breve" unicode="&#x2d8;" horiz-adv-x="804" 
d="M682 1614h149q2 -44 -27.5 -94t-80 -92.5t-124.5 -71t-153 -29.5h-6q-59 1 -110.5 20.5t-85 50t-56.5 69t-23.5 76t13.5 71.5h148q-4 -37 7 -64.5t28 -40.5t41.5 -21t39.5 -9.5t31 -1.5h6q16 0 32 1.5t44.5 9.5t51.5 21t44.5 40.5t30.5 64.5z" />
    <glyph glyph-name="dotaccent" unicode="&#x2d9;" horiz-adv-x="309" 
d="M279 1436q42 0 50 -15q4 -10 1 -26l-49 -236h-72q-36 0 -61 22t-19 46l39 182q1 7 4.5 12.5t9.5 8.5t12 4.5t17 2t19 0.5t23.5 -0.5t25.5 -0.5z" />
    <glyph glyph-name="ring" unicode="&#x2da;" horiz-adv-x="567" 
d="M385 1499h47q75 0 120.5 -55.5t31.5 -124.5l-33 -145q-14 -69 -82 -125t-143 -56h-47q-73 0 -119.5 56.5t-32.5 124.5l33 145q14 68 83 124t142 56zM403 1360h-47q-12 0 -24 -11.5t-15 -29.5l-32 -145q-6 -39 22 -39h47q14 0 26 10.5t15 28.5l33 145q3 18 -4.5 29.5
t-20.5 11.5z" />
    <glyph glyph-name="ogonek" unicode="&#x2db;" horiz-adv-x="1597" 
 />
    <glyph glyph-name="hungarumlaut" unicode="&#x2dd;" horiz-adv-x="665" 
d="M354 1436h12.5t12 -1t12 -3.5l6.5 -6.5t2 -12t-8 -18l-133 -236h-72q-36 0 -53 22t-2 46l102 182q4 9 11 14.5t13.5 8t19.5 4t21 1.5t26.5 -0.5t29.5 -0.5zM645 1436h12.5t12 -1t12 -3.5l6.5 -6.5t2 -12t-8 -18l-133 -236h-72q-36 0 -53 22t-2 46l102 182q4 9 11 14.5
t13.5 8t19.5 4t21 1.5t26.5 -0.5t29.5 -0.5z" />
    <glyph glyph-name="endash" unicode="&#x2013;" horiz-adv-x="864" 
d="M160 604l616 -2q43 -2 69.5 -22.5t16.5 -57.5l-12 -63l-219 -2q-12 -2 -37 -2h-57h-29h-2l-273 2q-35 0 -65 21t-23 65z" />
    <glyph glyph-name="emdash" unicode="&#x2014;" horiz-adv-x="1546" 
d="M160 606l1298 -2q43 -2 69.5 -22.5t16.5 -57.5l-12 -63l-914 -4h-24h-86h-2l-273 2q-35 0 -65 21t-23 65z" />
    <glyph glyph-name="quoteleft" unicode="&#x2018;" horiz-adv-x="319" 
d="M119 1227l43 205q10 51 37 61t115 10h10h9.5h10.5q0 -2 -4 -12q-1 -10 -13 -16.5t-28 -6.5q-41 0 -48 -4.5t-13 -31.5q46 0 70 -14.5t16 -57.5l-33 -150q-2 -8 -5.5 -13.5t-10.5 -8.5t-13.5 -4.5t-18 -2t-20.5 -0.5t-24.5 0.5t-26.5 0.5q-15 0 -21 0.5t-17.5 4t-15 13.5
t0.5 27z" />
    <glyph glyph-name="quoteright" unicode="&#x2019;" horiz-adv-x="319" 
d="M291 1503q15 0 21 -0.5t17.5 -4t15 -13.5t-0.5 -27l-43 -205q-10 -51 -37 -61t-115 -10h-30q0 2 4 12q1 10 13 16.5t28 6.5q41 0 48 4.5t13 31.5q-46 0 -70 14.5t-16 57.5l33 150q2 8 5.5 13.5t10.5 8.5t13.5 4.5t18 2t20.5 0.5t24.5 -0.5t26.5 -0.5z" />
    <glyph glyph-name="quotesinglbase" unicode="&#x201a;" horiz-adv-x="317" 
d="M291 250q14 0 20 -0.5t17 -4t14.5 -13.5t-0.5 -27l-43 -205q-7 -36 -25 -51.5t-42 -18t-89 -2.5h-26q0 3 4 13q3 22 41 22q41 0 48 4.5t13 32.5q-46 0 -69 14.5t-15 57.5l33 149q2 8 5.5 13.5t10 8.5t13 5t18 2.5t20 0.5t25 -0.5t27.5 -0.5z" />
    <glyph glyph-name="quotedblleft" unicode="&#x201c;" horiz-adv-x="577" 
d="M242 1503q9 0 21 0.5t20 0.5h18t15 -0.5t12.5 -1.5t10 -3t7 -5.5t3.5 -8t-1 -10.5l-33 -150q-8 -43 -38 -57.5t-76 -14.5q-7 -26 -1.5 -31t46.5 -5q15 0 24.5 -6.5t8.5 -16.5l-5 -12h-30q-89 0 -107 10q-22 12 -12 61l43 205q4 17 11.5 27t21 13.5t20 4t21.5 0.5z
M500 1503q10 0 22 0.5t19.5 0.5h18t15.5 -0.5t12.5 -1.5t9.5 -3t6.5 -5.5t3.5 -8t-1 -10.5l-33 -150q-8 -43 -37 -57.5t-75 -14.5q-7 -26 -1.5 -31t46.5 -5q15 0 24.5 -6.5t8.5 -16.5l-4 -12q-107 0 -125 5q-31 8 -28 43q0 10 3 23l43 205q4 17 11.5 27t20.5 13.5t19.5 4
t20.5 0.5z" />
    <glyph glyph-name="quotedblright" unicode="&#x201d;" horiz-adv-x="577" 
d="M291 1503q14 0 20 -0.5t17 -4t14.5 -13.5t-0.5 -27l-43 -205q-10 -51 -37 -61t-115 -10h-30q0 2 4 12q1 10 13 16.5t28 6.5q41 0 48 4.5t13 31.5q-46 0 -69 14.5t-15 57.5l33 150q2 8 5.5 13.5t10 8.5t13 4.5t18 2t20.5 0.5t25 -0.5t27 -0.5zM549 1503q15 0 21 -0.5
t17.5 -4t15 -13.5t-0.5 -27l-43 -205q-10 -51 -37 -61t-115 -10h-10h-9.5h-10.5q0 2 4 12q1 10 13 16.5t28 6.5q41 0 48 4.5t13 31.5q-46 0 -70 14.5t-16 57.5l33 150q2 8 5.5 13.5t10.5 8.5t13.5 4.5t18 2t20.5 0.5t24.5 -0.5t26.5 -0.5z" />
    <glyph glyph-name="quotedblbase" unicode="&#x201e;" horiz-adv-x="577" 
d="M291 250q14 0 20 -0.5t17 -4t14.5 -13.5t-0.5 -27l-43 -205q-7 -36 -25 -51.5t-42 -18t-89 -2.5h-26q0 3 4 13q3 22 41 22q41 0 48 4.5t13 32.5q-46 0 -69 14.5t-15 57.5l33 149q2 8 5.5 13.5t10 8.5t13 5t18 2.5t20 0.5t25 -0.5t27.5 -0.5zM549 250q15 0 21 -0.5
t17.5 -4t15 -13.5t-0.5 -27l-43 -205q-7 -36 -25 -51.5t-42 -18t-89 -2.5h-26q0 3 4 13q3 22 41 22q41 0 48 4.5t13 32.5q-46 0 -70 14.5t-16 57.5l33 149q2 8 5.5 13.5t10.5 8.5t13 5t18 2.5t20.5 0.5t25 -0.5t26.5 -0.5z" />
    <glyph glyph-name="dagger" unicode="&#x2020;" 
d="M836 1094h340q44 -2 70 -22.5t18 -57.5l-15 -64l-442 -2l-14 -59v-4l-218 -1012q-6 -35 -34.5 -70t-73.5 -36h-61l239 1110v8l14 61h-22h-41h-2l-272 2q-35 0 -66 21t-23 65l13 62l444 -2l55 258q10 43 38 74t65 30h63z" />
    <glyph glyph-name="daggerdbl" unicode="&#x2021;" 
d="M836 1094h340q44 -2 70 -22.5t18 -57.5l-15 -64l-442 -2l-14 -59v-4l-131 -613h339q44 -2 70.5 -22t18.5 -57l-15 -64l-444 -2l-56 -254q-6 -35 -34.5 -70t-73.5 -36h-61l77 358h-20h-41h-2l-273 2q-35 0 -65.5 21t-22.5 65l13 61l442 -2l131 605v8l14 61h-22h-41h-2
l-272 2q-35 0 -66 21t-23 65l13 62l444 -2l55 258q10 43 38 74t65 30h63z" />
    <glyph glyph-name="bullet" unicode="&#x2022;" horiz-adv-x="679" 
d="M467 965q109 0 172 -79t41 -181q-22 -103 -118.5 -182t-205.5 -79q-107 0 -171 79.5t-42 181.5t119.5 181t204.5 79z" />
    <glyph glyph-name="ellipsis" unicode="&#x2026;" horiz-adv-x="899" 
d="M274 236h15.5t14 -2t14.5 -6t7 -12.5t1 -20.5l-41 -195h-72q-36 0 -60.5 22t-19.5 46l29 141q2 7 5.5 12.5t9.5 8.5t12 4.5t17 2t19 0.5t23.5 -0.5t25.5 -0.5zM561 236h15.5t14 -2t14.5 -6t6.5 -12.5t0.5 -20.5l-41 -195h-71q-36 0 -60.5 22t-19.5 46l29 141
q2 7 5.5 12.5t9.5 8.5t12 4.5t17 2t19 0.5t23.5 -0.5t25.5 -0.5zM864 236h15.5t14 -2t14.5 -6t6.5 -12.5t0.5 -20.5l-41 -195h-71q-36 0 -60.5 22t-19.5 46l29 141q2 7 5.5 12.5t9.5 8.5t12 4.5t17 2t19 0.5t23.5 -0.5t25.5 -0.5z" />
    <glyph glyph-name="perthousand" unicode="&#x2030;" horiz-adv-x="1634" 
d="M563 768h-47q-73 0 -119 56t-32 124l57 269q14 68 84 124t143 56h47q75 0 119.5 -55.5t30.5 -124.5l-58 -269q-14 -69 -82 -124.5t-143 -55.5zM1012 842l-19 -21l-782 -772q-28 -24 -56 -36.5t-73 -12.5h-102l641 637q9 13 18 20l696 686q28 25 56 37.5t73 12.5h103z
M580 1217l-58 -269q-3 -18 3.5 -28.5t19.5 -10.5h47q14 0 26 10.5t15 28.5l57 269q4 18 -3.5 29t-20.5 11h-48q-11 0 -22.5 -11t-15.5 -29zM928 582h47q74 0 119.5 -55.5t31.5 -125.5l-57 -266q-15 -70 -84 -125t-143 -55h-47q-74 0 -119.5 55t-30.5 125l57 266
q13 70 82.5 125.5t143.5 55.5zM1376 582h47q74 0 120 -55.5t32 -125.5l-57 -266q-15 -70 -84.5 -125t-143.5 -55h-47q-73 0 -118.5 54.5t-30.5 125.5l57 266q13 70 82 125.5t143 55.5zM913 135l58 266q3 18 -4.5 29.5t-20.5 11.5h-47q-13 0 -24.5 -11t-14.5 -30l-57 -266
q-4 -19 2.5 -30t19.5 -11h47q13 0 25 11.5t16 29.5zM1362 135l57 266q3 18 -4.5 29.5t-19.5 11.5h-47q-13 0 -24.5 -11t-14.5 -30l-58 -266q-4 -19 3 -30t20 -11h47q13 0 25 11.5t16 29.5z" />
    <glyph glyph-name="guilsinglleft" unicode="&#x2039;" horiz-adv-x="835" 
d="M211 694l514 219q47 19 84 13t58.5 -27.5t17.5 -46.5h-2l-492 -227l383 -244v-2q-7 -24 -37.5 -45.5t-69.5 -27.5t-79 13l-408 238q-13 8 -22 21q-6 6 -13 20q-2 6 -2 16l2 13q0 2 9 20q14 17 26 27q14 10 29 18z" />
    <glyph glyph-name="guilsinglright" unicode="&#x203a;" horiz-adv-x="835" 
d="M840 637l-2 -12q-5 -15 -11 -23t-22 -24q-22 -16 -31 -21l-510 -238q-68 -27 -117.5 -3t-44.5 63l490 246l-397 227h-2q8 25 39 46.5t70 27.5t79 -13l420 -219v-2l8 -4q25 -16 29 -45z" />
    <glyph glyph-name="fraction" unicode="&#x2044;" horiz-adv-x="1505" 
d="M1020 842l-19 -21l-784 -772q-53 -49 -129 -49h-102l643 637l16 20l787 773q53 49 129 49h102z" />
    <glyph glyph-name="Euro" unicode="&#x20ac;" horiz-adv-x="1284" 
d="M1006 1495q180 0 266 -65q48 -36 86 -84l14 -27h2q13 -29 6 -53q-4 -29 -34 -47l-93 -62q-20 105 -86.5 152t-187.5 47q-173 0 -293 -152q-59 -74 -82 -186l-31 -144h347q33 0 52.5 -19t12.5 -56l-4 -21l-10 -47h-428l-11 -41h224q33 0 53.5 -19.5t13.5 -56.5l-4 -20
l-10 -47h-305q-62 -316 71 -404v-2q56 -45 136 -45q63 0 128 19t113 46t87 54t60 44.5t21 16.5q55 -70 51 -86q-7 -28 -41 -55q-100 -83 -221.5 -132.5t-228.5 -49.5q-124 0 -219 66.5t-131 173.5q-22 47 -20.5 127t32.5 227h-145q-31 0 -57.5 16t-18.5 51l14 76h236l10 41
h-64q-19 0 -32 1.5t-29.5 7.5t-23 21t-1.5 38l17 75h164l30 144q27 131 107.5 241.5t200.5 174.5q116 61 256 61z" />
    <glyph glyph-name="trademark" unicode="&#x2122;" horiz-adv-x="2146" 
d="M928 1436l-113 -525h-31q-13 0 -21.5 10.5t-6.5 22.5l106 498l-2 -6h-147l8 32q2 9 15 17t26 8h289q13 0 22.5 -8.5t7.5 -16.5l-8 -32h-145zM1456 1493h49q14 0 21.5 -15.5t1.5 -41.5l-105 -492q-2 -12 -14 -22.5t-25 -10.5h-34l96 445l-205 -420q-13 -25 -39 -25
q-27 0 -31 25l-22 410l-90 -435h-31q-13 0 -21 10t-6 23l105 492q7 31 26.5 44t38.5 13h27l33 -440z" />
    <glyph glyph-name="partialdiff" unicode="&#x2202;" horiz-adv-x="1597" 
 />
    <glyph glyph-name="emptyset" unicode="&#x2205;" horiz-adv-x="1173" 
d="M1178 870q43 -106 18 -239l-43 -195q-26 -124 -119.5 -241t-222.5 -185q-128 -67 -262 -67h-17q-44 0 -96 10l-39 -66l-100 47q-22 11 -24.5 33t16.5 47l-2 -2q-106 65 -148 176q-43 106 -18 240l43 195q26 124 119.5 241t222.5 185q128 67 262 67h16q45 0 97 -10l39 65
l100 -47q22 -11 24.5 -33t-16.5 -47l2 3q106 -65 148 -177zM422 258l377 700q-40 5 -47 5h-17l-35 -2q-144 -21 -268 -164q-66 -78 -84 -166l-43 -195q-35 -160 74 -258zM582 96l34 2q145 21 269 164q66 78 84 166l43 195q35 160 -74 258l-43 -80l-377 -701q32 -4 47 -4h17z
" />
    <glyph glyph-name="product" unicode="&#x220f;" 
d="M332 1528l930 -2q44 -2 70 -22.5t18 -57.5l-15 -64h-114l-50 -221l-4 -18l-18 -86l-256 -1204q-10 -44 -37 -75t-63 -30h-64l268 1284l4 21l15 65l4 21l53 241l-276 -2h-29h-45h-41h-2l-115 2l-49 -219l-4 -18l-18 -86l-256 -1204q-10 -43 -37.5 -74.5t-63.5 -30.5h-63
l268 1284l4 21l14 65l5 21l53 241h-10q-35 0 -66 21t-23 65z" />
    <glyph glyph-name="summation" unicode="&#x2211;" horiz-adv-x="1128" 
d="M471 1372h719q31 0 46 -26t9 -56l-4 -22l-10 -51l-621 -3l308 -493q12 -20 8 -51q-4 -28 -37 -54l-586 -493l621 2q32 0 54.5 -27t16.5 -55l-4 -23l-12 -51l-899 -2q-24 0 -44.5 14.5t-25.5 32.5v2v29q7 29 37 53l684 578l-354 567q-15 25 -8 51q3 17 14 31v2
q12 18 38.5 31.5t49.5 13.5z" />
    <glyph glyph-name="minus" unicode="&#x2212;" 
d="M160 606l930 -2q43 -2 69.5 -22.5t16.5 -57.5l-13 -63l-540 -4h-29h-45h-41h-2l-273 2q-35 0 -65 21t-23 65z" />
    <glyph glyph-name="radical" unicode="&#x221a;" horiz-adv-x="1511" 
d="M1636 1729l62 -33l-1063 -1790h-74q-69 0 -84 94l-147 580l-205 -111q-9 19 -27 66q-15 29 -1 64t53 56l210 115q20 12 50 12q22 0 44.5 -12t28.5 -29l31 -108l-27 88l131 -508l824 1372l57 98h2q52 85 135 46z" />
    <glyph glyph-name="infinity" unicode="&#x221e;" horiz-adv-x="1480" 
d="M1192 1044h14q150 0 236 -107.5t55 -252.5l-33 -160q-31 -143 -163.5 -250.5t-282.5 -107.5h-14q-83 0 -150.5 37t-105.5 98q-63 -61 -148 -98t-168 -37h-16q-148 0 -234 107.5t-55 250.5l33 160q31 145 163 252.5t281 107.5h17q83 0 151.5 -37t106.5 -98q63 61 146.5 98
t166.5 37zM586 883h-17q-77 0 -145.5 -58t-87.5 -141l-33 -160q-18 -81 27 -139.5t121 -58.5h16q76 0 145 58.5t88 139.5l33 160q19 82 -25.5 140.5t-121.5 58.5zM1171 883h-14q-77 0 -145.5 -58t-87.5 -141l-33 -160q-19 -81 26 -139.5t121 -58.5h15q78 0 146 57.5
t87 140.5l33 160q19 83 -25 141t-123 58z" />
    <glyph glyph-name="integral" unicode="&#x222b;" horiz-adv-x="1597" 
 />
    <glyph glyph-name="approxequal" unicode="&#x2248;" horiz-adv-x="1054" 
d="M1067 993q16 0 28 -12.5t16.5 -33.5t1 -47t-19.5 -56.5t-42 -57.5q-33 -34 -111 -53.5t-135 -19.5q-48 0 -184 27.5t-195 27.5q-55 0 -83 -16.5t-38 -59.5l-10 -55h-68q-36 0 -51.5 27t-12 61.5t18.5 65.5q10 19 22.5 35.5t24 28.5t27.5 21t26.5 15.5t29 10.5t27 6.5
t29 3.5t25 1h25.5h22q63 0 212 -24.5t208 -24.5q52 0 75.5 16.5t33.5 67.5l8 41q29 4 90 4zM987 625q16 0 28.5 -12.5t17 -33.5t1.5 -47t-19 -56.5t-42 -57.5q-33 -34 -112.5 -54t-135.5 -20q-48 0 -183 27.5t-194 27.5q-55 0 -83.5 -16t-37.5 -59l-12 -56h-68
q-36 0 -51.5 27t-12 61.5t18.5 65.5q24 44 55 71.5t69.5 37.5t61 12t60.5 2h14q63 0 212 -24.5t208 -24.5q51 0 74 16.5t35 67.5l8 41q27 4 88 4z" />
    <glyph glyph-name="notequal" unicode="&#x2260;" 
d="M858 809h264q44 -2 71 -22.5t17 -57.5l-12 -63l-428 -2l-131 -222l-12 -22h413q44 -2 70 -22.5t18 -57.5l-14 -64l-539 -4h-28h-4l-201 -356q-16 -23 -28 -37t-39 -28.5t-58 -14.5h-86l254 436l-199 2q-35 0 -65.5 21t-22.5 65l13 62l360 -2l135 231l6 11h-28h-41h-2
l-273 2q-35 0 -65.5 21t-22.5 65l15 61l505 -2l244 418q11 18 18.5 28t22 25.5t34 23t42.5 7.5h96z" />
    <glyph glyph-name="lessequal" unicode="&#x2264;" horiz-adv-x="1077" 
d="M238 797l774 383q47 19 83.5 13t58 -28t17.5 -47h-2l-755 -391l571 -428l2 -2q-12 -39 -70 -62.5t-116 3.5l-594 421q-15 9 -23 21q-4 4 -12 20q-2 6 -2 17l2 12q5 25 35 47l12 8q14 9 19 11v2zM981 143l-12 -61q-11 -44 -50.5 -65t-74.5 -21h-62l-8 -2h-153h-158
q-29 0 -39 2l-385 2l14 63q6 37 41.5 57.5t79.5 22.5z" />
    <glyph glyph-name="greaterequal" unicode="&#x2265;" horiz-adv-x="1077" 
d="M1069 795l6 -4q40 -25 31 -64q-5 -16 -10 -22q-6 -8 -23 -25q-22 -16 -31 -21l-774 -421q-68 -27 -117.5 -3.5t-44.5 62.5l3 2l753 428l-590 391h-2q8 25 39 47t70.5 28t79.5 -13l610 -383v-2zM47 143l807 -2q44 -2 70 -22.5t18 -57.5l-14 -63l-385 -2q-10 -2 -39 -2
h-158h-153l-7 2h-63q-35 0 -65.5 21t-22.5 65z" />
    <glyph glyph-name="lozenge" unicode="&#x25ca;" horiz-adv-x="1597" 
 />
    <glyph glyph-name="notdef.001" horiz-adv-x="1228" 
 />
    </font>
</defs>
</svg>
