<?xml version="1.0" standalone="no"?>
<!DOCTYPE svg PUBLIC "-//W3C//DTD SVG 1.1//EN" "http://www.w3.org/Graphics/SVG/1.1/DTD/svg11.dtd" >
<svg xmlns="http://www.w3.org/2000/svg" xmlns:xlink="http://www.w3.org/1999/xlink" version="1.1">
<metadata>
Created by FontForge 20170731 at Wed Nov 24 22:04:20 2021
 By Aleksey,,,
The Gallant Foundry
</metadata>
<defs>
<font id="Rhetoric-Bold" horiz-adv-x="1177" >
  <font-face 
    font-family="Rhetoric"
    font-weight="700"
    font-stretch="normal"
    units-per-em="2048"
    panose-1="0 0 8 0 0 0 0 0 0 0"
    ascent="1638"
    descent="-410"
    x-height="1118"
    cap-height="1599"
    bbox="-106 -432 2007 2165"
    underline-thickness="102"
    underline-position="-204"
    unicode-range="U+0020-25CA"
  />
<missing-glyph horiz-adv-x="1597" 
 />
    <glyph glyph-name=".notdef" horiz-adv-x="1597" 
 />
    <glyph glyph-name=".null" horiz-adv-x="0" 
 />
    <glyph glyph-name="nonmarkingreturn" horiz-adv-x="682" 
 />
    <glyph glyph-name="space" unicode=" " horiz-adv-x="471" 
 />
    <glyph glyph-name="exclam" unicode="!" horiz-adv-x="309" 
d="M272 451h-104q-50 0 -88.5 30t-38.5 70v913q0 64 86 64q4 0 11.5 -1t11.5 -1h30h4q50 0 69 -23t19 -51v-1001zM180 299h4q50 0 69 -23t19 -53v-223h-104q-49 0 -88 31t-39 69v138q0 61 86 61h23h30z" />
    <glyph glyph-name="quotedbl" unicode="&#x22;" horiz-adv-x="497" 
d="M213 1024h-63q-47 0 -86 31t-39 69l-25 306q0 31 14 45q12 12 39 12h15h26h6q50 0 69 -23t19 -53zM381 1487h6q50 0 69 -23t19 -53l25 -387h-64q-47 0 -86 31t-39 69l-24 306q0 31 14 45q12 12 39 12h14h27z" />
    <glyph glyph-name="numbersign" unicode="#" horiz-adv-x="1185" 
d="M268 614l13 134h-80q-49 0 -94 30t-46 88v97h240l23 239q0 47 29.5 90.5t86.5 44.5h99l-33 -376h229l23 241q2 48 31.5 91t87.5 44h98l-33 -376h62q63 -3 100.5 -34.5t36.5 -80.5v-94l-219 -2l-13 -146h95q63 -3 100.5 -34.5t36.5 -80.5v-94l-250 -2l-23 -256
q0 -48 -29.5 -92t-86.5 -45h-101l35 391l-231 -2l-23 -252q0 -48 -30 -92t-87 -45h-98l33 391h-49q-49 0 -94 30.5t-46 88.5v96h205zM473 604h229v10l13 134l-228 -3z" />
    <glyph glyph-name="dollar" unicode="$" horiz-adv-x="1183" 
d="M1102 1235l2 -2q24 -28 20 -53q-1 -17 -15 -30.5t-58 -45.5q-25 -19 -54 -19q-23 0 -47 13.5t-39 27t-43 43.5q-27 27 -39.5 38.5t-38 33t-49.5 34.5t-51 21v-483q66 -23 109.5 -40.5t102.5 -51t94.5 -68t61 -87.5t25.5 -115q0 -195 -106.5 -329.5t-286.5 -166.5v-119
h-84q-49 0 -88 31t-39 70v16q-121 22 -231 89t-191 169q-11 18 -8 33q4 19 32.5 39.5t53.5 31.5t29 11q13 8 35 8q39 0 73 -41l2 -2q88 -94 205 -121v487q-62 23 -109 45t-95 56t-79.5 72.5t-51 93t-19.5 118.5q0 170 96 292t258 159v27q0 38 39 69t88 31h84v-123
q241 -42 412 -262zM479 893v391q-141 -48 -141 -248q0 -41 33 -74.5t108 -68.5zM860 434q0 47 -42 81t-128 67v-404q80 28 124.5 94.5t45.5 161.5z" />
    <glyph glyph-name="percent" unicode="%" horiz-adv-x="1435" 
d="M408 786h-48q-83 0 -150 64.5t-67 144.5v260q0 80 67 144.5t150 64.5h48q85 0 151 -63.5t66 -145.5v-260q0 -82 -66 -145.5t-151 -63.5zM926 852l-598 -748q-57 -61 -144 -61h-172l535 676q2 2 6.5 8.5t7.5 9.5l533 664q29 29 59.5 44t81.5 15h174l-469 -586
q-5 -10 -14 -22zM367 993l36 2v260q0 3 -2 5h-34v-5v-262zM997 676h45q85 0 151.5 -63t66.5 -146v-258q0 -82 -66.5 -145.5t-151.5 -63.5h-45q-86 0 -152.5 63.5t-66.5 145.5v258q0 83 66.5 146t152.5 63zM1038 467v4h-34q-3 0 -3 -4v-258q0 -1 3 -4h34v4v258z" />
    <glyph glyph-name="ampersand" unicode="&#x26;" horiz-adv-x="1257" 
d="M1120 975l74 -101q22 -41 11.5 -80.5t-48.5 -64.5l-61 -47q31 -67 36 -165.5t-26.5 -203.5t-97.5 -168l-13 -14q-60 -62 -145 -96.5t-176 -34.5h-15l-118 2q-120 0 -193.5 32.5t-144.5 104.5q-68 66 -106 154t-38 180v74q0 59 15.5 100.5t56.5 108.5q51 75 123 127
q-29 25 -57 69q-24 38 -38 104.5t-14 119.5v16q0 141 119 251.5t273 110.5h12q120 0 208.5 -55t130.5 -137.5t42 -177.5q0 -40 -36 -73.5t-79 -33.5h-110v111q0 11 -1.5 24t-10.5 40.5t-24.5 48t-48.5 37t-77 16.5q-74 0 -125 -56t-51 -124q0 -54 13 -94.5t34 -61.5
t42.5 -31t43.5 -10h258v-115q0 -43 -36.5 -70.5t-80.5 -27.5h-158h-13q-13 1 -18 0.5t-19 -4t-25 -10.5t-27 -20t-33 -32q-55 -67 -55 -151v-74q0 -104 70 -179.5t169 -78.5h150q45 3 81.5 20.5t82.5 63.5q23 25 40 71.5t17 104.5q0 34 -6 64l-127 -90l-20 26l-56 72
q-27 34 -20 78q10 50 49 75l55 37z" />
    <glyph glyph-name="quotesingle" unicode="'" horiz-adv-x="288" 
d="M254 1024h-64q-47 0 -85.5 31t-38.5 69l-25 306q0 31 14 45q12 12 39 12h15h26h6q50 0 69 -23t19 -53z" />
    <glyph glyph-name="parenleft" unicode="(" horiz-adv-x="626" 
d="M545 -307h-72h-67q-164 10 -264.5 131t-100.5 309l2 559l-2 537q0 187 100.5 308t264.5 132h139l35 -2v-88q0 -53 -44.5 -86t-84.5 -33q-64 0 -107 -37t-59.5 -86.5t-16.5 -107.5v-1096q0 -58 16.5 -107t59.5 -85.5t107 -36.5q40 0 84.5 -34t44.5 -87v-88z" />
    <glyph glyph-name="parenright" unicode=")" horiz-adv-x="626" 
d="M41 -305v88q0 53 44.5 87t84.5 34q48 0 85 20.5t57 54.5t30 73t10 81v1096q0 42 -10 81t-30 73.5t-57 55.5t-85 21q-40 0 -84.5 33t-44.5 86v88l35 2q63 2 139 0q164 -11 264.5 -132t100.5 -308l-2 -537l2 -559q0 -188 -100.5 -309t-264.5 -131h-68h-71z" />
    <glyph glyph-name="asterisk" unicode="*" horiz-adv-x="772" 
d="M29 1067l180 145l-162 131l53 76q36 45 95 45q37 0 61 -18l27 -21v37q0 40 39 71.5t88 31.5h84v-135l36 30q33 26 74.5 18t71.5 -44l55 -68l-184 -149l186 -144l-41 -59q-45 -58 -108 -58q-24 0 -47 15l-43 33v-115h-84q-49 0 -88 31t-39 69v33l-52 -41q-30 -20 -65 -20
q-58 0 -90 43z" />
    <glyph glyph-name="plus" unicode="+" 
d="M696 643h293q63 -3 100.5 -34.5t36.5 -80.5v-94l-428 -2v-26l-2 -267q0 -47 -29.5 -91.5t-86.5 -45.5h-97l2 428l-292 2q-29 0 -58.5 10.5t-54 38.5t-25.5 68v96l430 -2v293q1 61 32 99t77 38h100z" />
    <glyph glyph-name="comma" unicode="," horiz-adv-x="309" 
d="M113 -25q6 0 6 2q6 3 6 21q-90 12 -90 98v135q0 64 86 64q14 0 22 -2h31h4q50 0 69 -23t19 -51v-188q0 -158 -188 -158h-35v45q0 25 19.5 41t50.5 16z" />
    <glyph glyph-name="hyphen" unicode="-" horiz-adv-x="700" 
d="M653 596q47 -30 47 -88v-94l-98 -4l-373 2q-47 0 -91.5 29.5t-45.5 86.5v97l471 -2q56 -3 90 -27z" />
    <glyph glyph-name="period" unicode="." horiz-adv-x="350" 
d="M299 0h-104q-49 0 -88 31t-39 69v138q0 61 86 61h22h31h4q50 0 69 -23t19 -53v-223z" />
    <glyph glyph-name="slash" unicode="/" horiz-adv-x="854" 
d="M338 852l205 547q7 18 14 30.5t21.5 30.5t37 27.5t52.5 9.5h143l-340 -891l-178 -506q-41 -100 -137 -100h-133l309 836z" />
    <glyph glyph-name="zero" unicode="0" horiz-adv-x="1062" 
d="M537 -29q-79 0 -195 33q-55 18 -104.5 51t-92.5 82.5t-68.5 121.5t-25.5 157v671q0 121 68 230q63 93 177 149t241 56q120 0 235 -54q113 -59 176.5 -159.5t63.5 -221.5v-671q0 -124 -66 -228q-62 -100 -171.5 -158.5t-237.5 -58.5zM279 573l440 680l-8 4q-79 52 -174 52
q-72 0 -134 -33q-59 -32 -91.5 -82t-32.5 -107v-514zM784 944l-366 -543q-65 -111 -80 -143q21 -31 78 -53.5t121 -22.5q112 0 179.5 64t67.5 170v528z" />
    <glyph glyph-name="one" unicode="1" horiz-adv-x="772" 
d="M276 209v1094h-225v106q0 11 2 25q7 31 36.5 55t72.5 24h229q57 0 85 -35t28 -69v-1200h112q21 0 31 -2q34 -8 58 -33.5t24 -62.5v-107h-678v102q0 13 2 27q7 32 39 54t68 22h116z" />
    <glyph glyph-name="two" unicode="2" horiz-adv-x="1159" 
d="M1034 225v-125q0 -40 -31.5 -70t-72.5 -30h-760q-44 0 -76.5 30t-32.5 70q0 107 36 201t77.5 153t129 125.5t133.5 93t148 81.5l1.5 1.5t1.5 0.5q50 27 72 39t64 37t61.5 40.5t47.5 40t40 45t22 47t10 54.5q0 112 -77 185t-207 73q-135 0 -198.5 -45t-72.5 -135
q-2 -38 -26 -65.5t-68 -27.5l-125 3v34q0 185 136 302.5t351 117.5q100 0 181 -24.5t131.5 -60.5t88 -85.5t55 -91.5t27.5 -86.5t11.5 -61.5t1.5 -26q0 -46 -9 -88t-22 -76.5t-38 -69t-45.5 -59.5t-57.5 -54.5t-61 -47.5t-68.5 -44.5t-68 -39.5l-70.5 -39q-62 -33 -98 -53.5
t-86 -54.5t-79.5 -63t-55.5 -68t-36 -81z" />
    <glyph glyph-name="three" unicode="3" horiz-adv-x="1050" 
d="M930 846l-4 -4q-13 -14 -25.5 -26t-24 -23.5l-16.5 -16.5q-4 -2 -12 -10q8 -8 14 -12l66 -74l2 -4q37 -54 48 -111.5t11 -144.5q0 -85 -27.5 -161t-78.5 -130q-62 -66 -133 -99.5t-191 -41.5h-29q-73 2 -141 19.5t-129.5 54t-107 87.5t-72.5 124t-27 159v35l33 2h6
q5 0 15 0.5t22.5 1t29.5 0.5h34q36 0 63.5 -26.5t28.5 -73.5q7 -83 81.5 -128.5t202.5 -45.5q106 0 156.5 57t50.5 176q0 103 -65.5 169.5t-165.5 66.5h-94q-44 0 -79.5 32.5t-35.5 73.5v100h209q99 0 177.5 57t78.5 146q0 102 -68.5 178t-197.5 76q-80 0 -136 -19.5
t-81.5 -51.5t-35.5 -62t-10 -63v-9q-8 -28 -32 -49.5t-54 -21.5h-75q-27 0 -39 12q-13 15 -13 41v16q0 86 27 155t72.5 114t106.5 75t126.5 43t136.5 13h19q194 0 324 -126t130 -313v-16q0 -117 -71 -221z" />
    <glyph glyph-name="four" unicode="4" horiz-adv-x="1064" 
d="M1020 455v-109h-123v-346h-104q-45 0 -80 33.5t-35 70.5v242h-514q-50 0 -78 31q-29 31 -29 72q0 29 21 71l614 940q39 58 101 58q61 0 96 -43l8 -11v-905h43zM678 1053l-328 -504h328v504z" />
    <glyph glyph-name="five" unicode="5" horiz-adv-x="1056" 
d="M293 680h-115q-42 0 -79.5 34.5t-37.5 73.5v611q0 47 37.5 76.5t79.5 29.5h701q46 0 80 -28.5t34 -77.5v-99h-700v-124q115 67 242 67h20q123 0 229.5 -62t169 -167t62.5 -226v-354q0 -90 -37 -174t-99.5 -144.5t-147.5 -97t-177 -36.5h-20q-60 0 -124.5 16t-126.5 50
t-111.5 80t-79.5 112t-30 141v63q0 40 30.5 74.5t72.5 34.5h115v-172q0 -42 28.5 -76t70.5 -53t83 -29t72 -10h20q86 0 157.5 69t71.5 152v354q0 92 -70 165t-159 73h-20q-86 0 -166 -68q-76 -63 -76 -141v-137z" />
    <glyph glyph-name="six" unicode="6" horiz-adv-x="1030" 
d="M55 424v616v28.5t7 60t19 88.5t40 93t67 93q119 125 330 125h12q88 0 188.5 -41t141.5 -94q44 -55 37 -95q-7 -36 -55 -65l-76 -47l-21 22q-12 12 -22 27q-69 90 -215 90q-83 0 -150.5 -76t-76.5 -176q108 62 231 62h18q89 0 175 -35.5t145 -95.5q63 -60 98 -143t35 -171
v-207q0 -119 -27.5 -209.5t-70.5 -144t-104 -87t-119 -45t-125 -11.5h-25q-186 0 -321.5 130t-135.5 308zM283 688v-264q0 -92 73.5 -161.5t171.5 -69.5q59 2 102 19t67.5 42.5t39 65t19 77t4.5 86.5v205q0 97 -67.5 165.5t-162.5 68.5h-18q-95 0 -162 -68.5t-67 -165.5z
" />
    <glyph glyph-name="seven" unicode="7" horiz-adv-x="1208" 
d="M1135 1346l-779 -1266q-28 -41 -55.5 -60.5t-77.5 -19.5h-192l788 1266h-669v112q0 41 32.5 74t85.5 33l797 2q66 0 86 -39q13 -17 8.5 -41t-10.5 -37t-14 -24z" />
    <glyph glyph-name="eight" unicode="8" horiz-adv-x="1011" 
d="M51 422v168q0 69 23 122.5t69 108.5q-92 123 -92 273q0 178 132.5 308t312.5 130h20q119 0 221.5 -59.5t163 -160.5t60.5 -218q0 -150 -93 -273q48 -57 71 -109.5t22 -121.5v-168q-2 -175 -134.5 -306.5t-310.5 -131.5h-20q-180 0 -312.5 130t-132.5 308zM516 1325h-20
q-91 0 -156.5 -68t-65.5 -163q0 -81 43 -142q81 37 179 37h20q97 0 176 -39q45 64 45 144q0 95 -65 163t-156 68zM274 590v-168q0 -95 65.5 -162t156.5 -67h20q91 0 156 67t65 162v168q-1 96 -66 142t-155 46h-20q-127 0 -193 -112q-10 -20 -12 -23q-17 -25 -17 -53z" />
    <glyph glyph-name="nine" unicode="9" horiz-adv-x="1030" 
d="M983 1090v-617v-28t-7 -60.5t-19 -88t-40 -92.5t-67 -93q-119 -125 -330 -125h-12q-88 0 -188.5 41t-141.5 94q-44 55 -37 94q7 36 56 66l75 47l21 -23q14 -14 22 -26q69 -91 215 -91q83 0 151 76t77 176q-106 -61 -232 -61h-18q-89 0 -175 35.5t-145 95.5
q-63 60 -98 142.5t-35 170.5v207q0 119 27.5 209.5t70.5 144t104.5 87t119.5 45.5t125 12h24q186 0 321.5 -130t135.5 -308zM756 825v265q0 92 -74 161.5t-172 69.5q-73 -2 -121 -26t-71 -68t-31 -89t-8 -108v-205q0 -97 67 -165t162 -68h18q95 0 162.5 68t67.5 165z" />
    <glyph glyph-name="colon" unicode=":" horiz-adv-x="309" 
d="M272 817h-104q-49 0 -88 31t-39 70v137q0 61 86 61h23h30h4q50 0 69 -23t19 -53v-223zM272 0h-104q-49 0 -88 31t-39 69v138q0 61 86 61h23h30h4q50 0 69 -23t19 -53v-223z" />
    <glyph glyph-name="semicolon" unicode=";" horiz-adv-x="309" 
d="M270 813h-104q-49 0 -88 31t-39 69v138q0 61 86 61h22q10 -2 31 -2h4q50 0 69 -23t19 -51v-223zM47 -156v45q0 25 19.5 41.5t50.5 16.5q12 9 12 51q-90 12 -90 96v137q0 62 86 62h22h31h4q50 0 69 -23t19 -53v-186q0 -88 -49.5 -137.5t-138.5 -49.5h-35z" />
    <glyph glyph-name="less" unicode="&#x3c;" horiz-adv-x="1122" 
d="M1073 168l-2 -23q-3 -43 -45 -73.5t-98 -30.5q-38 0 -78 18l-721 410q-16 8 -33 25l-2 4q-4 4 -6 4q-12 18 -14 22v2q-11 26 -11 39q0 17 9 31q13 32 43 53v4l747 379q40 19 76 19q55 0 97.5 -32t45.5 -75l2 -22l-673 -361z" />
    <glyph glyph-name="equal" unicode="=" 
d="M57 889l934 -2q63 -3 100.5 -34.5t36.5 -80.5v-94l-667 -4l-266 2q-29 0 -58.5 10.5t-54 38.5t-25.5 68v96zM461 297l-266 2q-47 0 -92 30t-46 87v96l934 -2q62 -1 100.5 -33t36.5 -80v-96z" />
    <glyph glyph-name="greater" unicode="&#x3e;" horiz-adv-x="1122" 
d="M74 168l663 393l-674 361l3 22q3 43 45.5 75t97.5 32q36 0 76 -19l747 -379v-4q30 -21 43 -53q8 -12 8 -31q0 -16 -10 -39v-2q-2 -4 -14 -22q-2 0 -6 -4l-2 -4q-17 -17 -33 -25l-721 -410q-41 -18 -78 -18q-56 0 -98 30.5t-45 73.5z" />
    <glyph glyph-name="question" unicode="?" horiz-adv-x="952" 
d="M451 1630h18q120 0 221.5 -60t160 -162.5t58.5 -223.5q0 -54 -8.5 -101t-21 -81.5t-35 -66.5t-41 -52t-50 -43t-50.5 -34.5t-54 -31.5q-25 -15 -57.5 -26t-52.5 -18t-39 -21t-28 -40.5t-9 -70.5v-192h-88q-61 0 -92.5 35t-34.5 83v60q0 67 12.5 118t30 81.5t48 55.5
t55 36.5t63.5 29.5t61 31q48 28 72 45t53.5 46.5t42 67t12.5 87.5q0 109 -74 175t-171 66q-98 0 -156 -67q-53 -53 -104 -53q-32 0 -62 18q-50 32 -61 43l-25 18l16 29q66 107 165.5 163t224.5 56zM377 299h6q86 0 86 -76v-223h-104q-49 0 -88 31t-39 69v138q0 61 88 61h22
h29z" />
    <glyph glyph-name="at" unicode="@" horiz-adv-x="1351" 
d="M1120 -143h-532q-294 0 -453 170q-135 144 -135 354v639q0 124 78 246t202.5 199t251.5 77h289q40 0 80 -4t94.5 -17.5t102 -35.5t95.5 -62t82 -93t55.5 -133t21.5 -177v-752q0 -89 -61 -137.5t-173 -48.5q-118 0 -186.5 57t-81.5 140q-86 -33 -182 -33h-21
q-91 0 -152 22.5t-108 73.5q-46 53 -65 111.5t-19 150.5v23q0 186 84 280q67 77 205 92h4q50 5 63 5q41 0 111 -9q44 -6 78 -6q-40 66 -174 66h-275v30q-2 6 -2 27v25q0 40 36 73t79 33l129 2q212 0 325 -93.5t113 -268.5v-598h21h33q12 0 28 12l-2 723q0 50 -8 93.5t-31 89
t-59.5 78t-98 53t-141.5 20.5h-289q-65 0 -143.5 -54.5t-132 -134t-53.5 -145.5v-639q0 -120 107.5 -214.5t277.5 -94.5l416 2q44 0 80 -34t36 -75v-108zM874 788h-32q-50 0 -197 11q-90 0 -110 -29q-31 -60 -31 -143v-23q0 -111 20 -137q25 -29 115 -31q53 0 100 15
q46 14 85 35.5t48 33.5z" />
    <glyph glyph-name="A" unicode="A" horiz-adv-x="1150" 
d="M193 -4h-25q-91 0 -117 33q-13 19 -10 45l6 20l90 297l326 1157q16 38 48.5 64t72.5 26q47 0 79 -27.5t44 -64.5l288 -1032l37 -123l78 -309q9 -23 -6 -49q-29 -39 -127 -39q-17 0 -19 2l-6 -2q-60 0 -88 63l-2 6l-76 304h-409l-84 -304q-7 -29 -34.5 -48t-61.5 -19h-4z
M584 1096l-138 -506q228 0 287 2z" />
    <glyph glyph-name="B" unicode="B" horiz-adv-x="1198" 
d="M633 0h-451q-38 0 -81.5 29t-43.5 69v1438q0 40 43.5 68t81.5 28h240q115 0 225 -65.5t172 -169.5q66 -111 66 -240l2 -49q0 -26 -6 -74q-3 -29 2 -37t39 -30q66 -45 108 -97q123 -142 123 -323v-80q0 -244 -244 -393q-129 -74 -276 -74zM299 1034h344v31v78
q0 78 -31 140.5t-86 94.5q-52 35 -125 35h-102v-379zM299 227h350q10 0 23 1t39.5 6t50.5 14t51.5 27t47.5 42.5t33 63t13 86.5v80q0 104 -63 182t-146 78h-399v-580z" />
    <glyph glyph-name="C" unicode="C" horiz-adv-x="1048" 
d="M518 4q-215 0 -344 131.5t-129 351.5v697q0 135 59.5 247t163.5 175q106 61 248 61q180 0 283 -68q56 -33 104 -83l2 -3l23 -26q22 -36 22 -70q0 -45 -37 -71l-110 -86l-17 40q-37 88 -100.5 127t-167.5 39q-145 0 -215 -125q-37 -64 -37 -157v-697q0 -53 10.5 -97.5
t36.5 -87t78 -67t127 -24.5q55 0 100 10.5t80.5 33t52.5 36t44 39.5q18 18 26 25t21.5 14.5t27.5 7.5q24 0 45 -21q54 -54 54 -94q0 -37 -39 -76q-89 -93 -181.5 -137.5t-230.5 -44.5z" />
    <glyph glyph-name="D" unicode="D" horiz-adv-x="1175" 
d="M612 0h-430q-47 0 -84 37t-37 76v1409q0 47 35 80.5t86 33.5h430q132 0 253.5 -68.5t187.5 -178.5q67 -108 67 -252v-635q0 -128 -69.5 -245.5t-186.5 -186.5q-121 -70 -252 -70zM303 227h309q72 0 132.5 36t101.5 102q35 60 35 137v635q0 83 -35.5 148.5t-100.5 103.5
q-57 36 -133 36h-309v-1198z" />
    <glyph glyph-name="E" unicode="E" horiz-adv-x="1185" 
d="M1016 0h-852q-38 0 -72.5 31.5t-34.5 66.5v1446q0 34 34.5 65t72.5 31h852q47 0 84 -29t37 -67v-114h-850v-388h618q51 0 87 -33.5t36 -80.5v-115h-741v-600h850v-115q0 -38 -37 -68t-84 -30z" />
    <glyph glyph-name="F" unicode="F" horiz-adv-x="1153" 
d="M256 0h-72q-48 0 -85.5 32t-37.5 83v1421q0 43 40 77t83 34h803q51 0 86 -32.5t35 -78.5v-117h-803v-366h510q50 0 86.5 -35.5t36.5 -77.5v-115h-633v-774q0 -51 -49 -51z" />
    <glyph glyph-name="G" unicode="G" horiz-adv-x="1134" 
d="M578 -29h-19q-129 0 -249.5 70t-184.5 184q-70 118 -70 244v707q0 132 72.5 248.5t198.5 183.5q125 67 286 67h4q76 -4 157.5 -38.5t146.5 -88.5q27 -23 57 -53q27 -30 27 -63q0 -56 -56 -93l-8 -6l-74 -20q-29 0 -59 39q-4 6 -12 14q-90 90 -209 90q-82 0 -149.5 -37.5
t-104.5 -103.5q-33 -62 -33 -135v-711q0 -70 35.5 -132t97.5 -99q62 -43 143 -43q169 0 238 141q29 60 29 115v344h-371v112q0 47 35.5 80t87.5 33h399q30 0 60 -24.5t30 -57.5v-504q0 -36 -12.5 -83t-37 -100t-69.5 -106t-102 -92q-118 -82 -284 -82z" />
    <glyph glyph-name="H" unicode="H" horiz-adv-x="1198" 
d="M248 0h-72q-43 0 -83 35.5t-40 79.5v1407q0 45 34 86t89 41h31q37 0 64.5 -27.5t27.5 -54.5v-955h612v955q0 27 27 54.5t63 27.5h17q44 0 84.5 -37t40.5 -78v-1419q0 -48 -35 -81.5t-86 -33.5h-59q-52 0 -52 51v336h-612v-336q0 -51 -51 -51z" />
    <glyph glyph-name="I" unicode="I" horiz-adv-x="540" 
d="M451 0h-347q-25 0 -38.5 15t-15 28t-1.5 33v61q0 22 6.5 37t15 22.5t23.5 11.5t23.5 4.5t23.5 0.5h19l10 1176h-121v63l2 70q0 31 28 54t62 23h273q41 0 65.5 -26t24.5 -60v-124h-109l-4 -1178h25q84 0 84 -74v-86q0 -51 -49 -51z" />
    <glyph glyph-name="J" unicode="J" horiz-adv-x="1110" 
d="M287 70q-54 28 -104 77t-81 105q-33 66 -41 109t-8 120q0 49 29.5 81t75.5 32h114v-113q0 -134 136 -215q58 -39 129 -39h14q156 0 231 135q33 59 33 138v1136h123q46 0 83.5 -38.5t37.5 -73.5v-1024q0 -130 -67 -245.5t-183 -186.5q-120 -68 -258 -68h-14
q-113 0 -250 70z" />
    <glyph glyph-name="K" unicode="K" horiz-adv-x="1449" 
d="M289 2h-107q-56 0 -88.5 30.5t-32.5 84.5v1407q0 42 31 78t74 36h123v-548l88 -89l508 641l92 -69q40 -33 45.5 -80.5t-18.5 -79.5l-3 -2l-452 -567l545 -522q70 -65 100 -81t66 -16q64 0 98 -37q37 -35 37 -110v-78h-135q-40 0 -60 0.5t-51.5 5.5t-53 14.5t-48.5 28.5
t-54 47l-704 674v-768z" />
    <glyph glyph-name="L" unicode="L" horiz-adv-x="966" 
d="M793 0h-621q-50 0 -86.5 36.5t-36.5 78.5v1409q0 47 35.5 79.5t87.5 32.5h123v-1411h620v-94q0 -53 -36.5 -92t-85.5 -39z" />
    <glyph glyph-name="M" unicode="M" horiz-adv-x="1202" 
d="M285 0h-107q-49 0 -85 33.5t-36 79.5v1417q0 40 36 75t85 35h101l319 -1122l332 1122h100q51 0 86 -32t35 -78v-1417q0 -44 -34.5 -78.5t-78.5 -34.5h-120l4 774l-209 -702q-12 -27 -48 -49.5t-67 -22.5q-43 0 -77.5 23.5t-43.5 58.5l-196 690z" />
    <glyph glyph-name="N" unicode="N" horiz-adv-x="1179" 
d="M1124 1530v-1417q0 -47 -31 -80t-75 -33h-88l-651 1126v-1126h-121q-46 0 -76.5 33t-30.5 80v1403q0 59 34 94t91 35h4l66 -7l655 -1130l-8 1134h125q40 0 73 -34.5t33 -77.5z" />
    <glyph glyph-name="O" unicode="O" horiz-adv-x="1159" 
d="M1104 1159v-672q0 -131 -71 -251.5t-189 -190.5q-121 -70 -258 -70h-17q-138 0 -259.5 70t-188.5 188q-70 124 -70 254v672q0 135 68.5 250t189.5 182q123 68 260 68h17q135 0 258.5 -69t189.5 -181q70 -116 70 -250zM860 487v672q0 75 -35.5 137.5t-101.5 102.5
q-67 37 -137 37h-17q-70 0 -133 -37t-104 -103q-35 -57 -35 -137v-672q0 -75 36.5 -140t100.5 -103q62 -37 135 -37h17q75 0 137.5 36t103.5 105q33 59 33 139z" />
    <glyph glyph-name="P" unicode="P" horiz-adv-x="1163" 
d="M182 1640h436q129 0 248 -68.5t183 -180.5q65 -118 65 -252v-240q0 -189 -143 -358l-2 -4q-68 -66 -162.5 -105t-188.5 -39h-315v-395h-121q-52 0 -88.5 32.5t-36.5 78.5v1419q0 41 39.5 76.5t85.5 35.5zM887 899v252q-8 97 -70.5 169.5t-157.5 94.5h-356v-792h315
q151 0 234 139q35 57 35 137z" />
    <glyph glyph-name="Q" unicode="Q" horiz-adv-x="1275" 
d="M1114 1151l-2 -674q0 -91 -11.5 -139.5t-56.5 -118.5q8 -2 43 -2h39q43 0 68 -35t25 -73v-109h-162q-102 0 -162 53q-113 -84 -299 -84h-16q-142 0 -267 69t-190 183q-70 118 -70 256v674q0 135 70 252.5t190 183.5q122 66 267 66h16q135 0 258.5 -69t189.5 -181
q70 -121 70 -252zM541 797l325 -396q11 32 11 97l-9 653q-2 81 -36.5 146.5t-98.5 103.5q-64 37 -137 37h-16q-166 0 -248 -146q-39 -59 -39 -141v-674q0 -119 97.5 -197.5t219.5 -78.5q66 0 117 28l-270 316q-22 34 -27.5 63t6.5 55t24.5 42.5t37.5 42.5q4 6 16 18z" />
    <glyph glyph-name="R" unicode="R" horiz-adv-x="1269" 
d="M158 1640h436q130 0 248.5 -67t181.5 -176q66 -117 66 -244v-256q0 -164 -109 -309l-10 -13h-4q-76 -88 -168 -133l116 -96q103 -87 135.5 -109t65.5 -22h21q50 0 75 -33t25 -69v-113h-121q-75 0 -143.5 22t-112.5 62l-358 311h-230v-395h-114q-48 0 -84.5 37.5
t-36.5 77.5v1413q0 46 36 79t85 33zM727 1391q-55 36 -123 36h-332v-806h322q70 0 130.5 36.5t100.5 102.5q35 62 35 137v256q0 71 -36 135.5t-97 102.5z" />
    <glyph glyph-name="S" unicode="S" horiz-adv-x="1181" 
d="M365 1599q123 52 253 52q125 0 255.5 -73t222.5 -194l4 -6q14 -17 18 -31t-3.5 -26.5t-15.5 -20.5t-26 -22l-26 -25q-34 -29 -78 -22.5t-82 47.5l-35 33q-119 116 -258 116q-72 0 -131 -31t-96 -89q-35 -53 -35 -123q0 -25 11 -49.5t36 -48.5t49 -43.5t66.5 -44.5
t71.5 -40.5t81 -42.5q47 -25 68.5 -36.5t66 -36.5t67 -40.5t59.5 -42t56.5 -47t44.5 -49.5t37.5 -56.5t21.5 -60.5t9 -67q0 -232 -150.5 -367t-408.5 -135q-135 0 -275.5 81t-193.5 188q-9 12 -6 28q2 7 8 15t14 15t18 13.5t20 12t20 10.5t17 8t12 6l6 2q15 6 35 6
q41 0 73 -38l2 -5q117 -126 262 -126t233.5 79.5t90.5 210.5q0 21 -10 42t-33.5 42t-45.5 37.5t-63 39.5t-67 36.5t-76 38.5q-186 94 -262 148q-188 133 -198 301q-1 11 -1 22q0 136 70.5 243t196.5 166z" />
    <glyph glyph-name="T" unicode="T" horiz-adv-x="1046" 
d="M410 1432h-359v112q0 40 36.5 69t86.5 29h698q50 0 86.5 -29t36.5 -69v-112h-358v-1434h-107q-49 0 -84.5 34.5t-35.5 80.5v1319z" />
    <glyph glyph-name="U" unicode="U" horiz-adv-x="1165" 
d="M866 1638h121q54 0 90.5 -33.5t36.5 -82.5v-1022q0 -138 -71.5 -259t-192.5 -188q-120 -69 -258 -69h-17q-142 0 -263 68.5t-187 185.5q-70 119 -70 262v1022q0 49 36 82.5t87 33.5h123v-1138q0 -65 24 -116.5t64 -82.5t87.5 -47t98.5 -16h17q66 0 115.5 16t79 41t48 61
t25 70t6.5 74v1138z" />
    <glyph glyph-name="V" unicode="V" horiz-adv-x="1196" 
d="M930 1636h98q40 0 78.5 -27t38.5 -71q0 -12 -2 -22l-424 -1442q-10 -34 -39 -58t-76 -24q-45 0 -77 25.5t-40 58.5l-428 1442l-2 18q0 43 35.5 71.5t89.5 28.5h97l331 -1173z" />
    <glyph glyph-name="W" unicode="W" horiz-adv-x="2076" 
d="M938 1638h102q77 0 105 -84l325 -1091l320 1175h98q41 0 80 -27.5t39 -70.5q0 -10 -4 -22l-424 -1440q-10 -35 -39 -59.5t-76 -24.5q-45 0 -76.5 25.5t-39.5 60.5l-316 1059l-305 -1061q-8 -35 -38 -59.5t-77 -24.5q-45 0 -76.5 25.5t-37.5 60.5l-430 1440l-2 18
q0 44 35 72t89 28h97l334 -1173z" />
    <glyph glyph-name="X" unicode="X" horiz-adv-x="1239" 
d="M621 1061l348 555q25 22 55 22h6q111 0 111 -90v-45q0 -29 -13 -59q0 -2 -1 -5t-1 -5l-2 -4l-4 -5q-36 -52 -111 -174t-154.5 -256t-88.5 -149q27 -52 138.5 -229t219.5 -338q62 -74 62 -150v-66q0 -14 -5 -26.5t-26.5 -25.5t-58.5 -13h-23h-8q-30 0 -55 25l-4 6
l-385 596l-390 -602q-25 -25 -55 -25h-8h-23q-32 0 -51 8q-39 16 -39 57v66q0 40 21 82.5t41 67.5l205 323q103 159 153 244q-296 496 -356 579l-4 9l-4 10q-11 26 -11 59v45q0 90 109 90h8q30 0 55 -22l4 -6z" />
    <glyph glyph-name="Y" unicode="Y" horiz-adv-x="1173" 
d="M74 1604q19 32 67 32h119l332 -669l334 669h121q46 0 65 -32q24 -37 8 -76q-12 -37 -301 -621l-33 -67l-79 -166v-672h-121q-41 0 -74 35t-33 78v559l-82 166q-314 639 -329 688h-2q-16 39 8 76z" />
    <glyph glyph-name="Z" unicode="Z" horiz-adv-x="1249" 
d="M61 45q-30 53 11 131l2 4l794 1219h-592q-51 0 -51 49v47q0 48 35 81.5t86 33.5h711q82 0 112 -43q28 -32 15 -86l-4 -8l-15 -23l-788 -1247h594q27 0 39 -12t12 -39v-48q0 -46 -36 -80t-85 -34h-725q-82 0 -115 55z" />
    <glyph glyph-name="bracketleft" unicode="[" horiz-adv-x="620" 
d="M51 1047v483q0 68 38.5 112t98.5 44h394v-82q0 -46 -34.5 -82.5t-88.5 -36.5h-94q-64 0 -76.5 -6.5t-12.5 -36.5v-1587q0 -21 4 -28.5t22 -11t63 -3.5h94q54 0 88.5 -36.5t34.5 -82.5v-82h-394q-60 0 -98.5 44t-38.5 112v471l-2 36v732z" />
    <glyph glyph-name="backslash" unicode="\" horiz-adv-x="854" 
d="M379 608l-340 889h145q86 0 125 -98l2 -4l201 -543l8 -16l307 -836h-133q-32 0 -57.5 10.5t-41 29.5t-22.5 30t-14 28z" />
    <glyph glyph-name="bracketright" unicode="]" horiz-adv-x="620" 
d="M580 1047l2 -41v-732l-2 -36v-471q0 -68 -39 -112t-99 -44h-393v82q0 46 34.5 82.5t88.5 36.5h94q45 0 62.5 3.5t21.5 11t4 28.5v1587q0 14 -1 19.5t-4.5 12t-14 8t-25 2.5t-43.5 1h-94q-54 0 -88.5 36.5t-34.5 82.5v82h393q60 0 99 -44t39 -112v-483z" />
    <glyph glyph-name="asciicircum" unicode="^" horiz-adv-x="1114" 
d="M936 537l-371 677l-383 -661l-22 4q-43 5 -73.5 47.5t-29.5 97.5q3 40 23 76l403 733h4q25 32 56 41q13 9 30 9q9 0 39 -13h2q8 -4 23 -14q0 -2 4 -6l4 -2q16 -22 23 -35l385 -735q16 -45 14 -78q-1 -55 -33.5 -96t-75.5 -43z" />
    <glyph glyph-name="underscore" unicode="_" horiz-adv-x="1185" 
d="M1116 -313v96q2 48 -36.5 80t-100.5 33h-942v-95q1 -57 45.5 -86.5t91.5 -29.5z" />
    <glyph glyph-name="grave" unicode="`" horiz-adv-x="532" 
d="M170 1626q30 0 51 -24l271 -271l-74 -71q-38 -41 -99 -41q-41 0 -63 22l-209 207q-18 21 -18 43q2 31 53 78l20 20q37 37 68 37z" />
    <glyph glyph-name="a" unicode="a" horiz-adv-x="1015" 
d="M238 922v98q0 43 39.5 79t82.5 36q201 0 232 -2q69 -1 117.5 -17t103.5 -53q63 -41 104 -111.5t41 -136.5l5 -692q0 -48 -32 -85.5t-77 -37.5h-123v23q-113 -37 -229 -37q-221 0 -337 114t-116 332q0 200 120 310t333 110h157q50 0 66 2q-33 68 -190 68h-297zM733 289
v362q-74 -4 -137 -4h-4l-47 2q-154 0 -212.5 -46.5t-58.5 -174.5q0 -121 49.5 -175t159.5 -54q106 0 178 29.5t72 60.5z" />
    <glyph glyph-name="b" unicode="b" horiz-adv-x="978" 
d="M276 1642v-495q16 -4 66 -4h143q95 0 184 -47t160 -133l2 -5q99 -167 99 -385v-26q0 -167 -92 -332l-7 -12q-66 -96 -158 -150.5t-188 -54.5h-313q-52 0 -86.5 32.5t-34.5 80.5v1423q0 46 34.5 77t86.5 31h104zM485 915h-161q-8 0 -48 5v-695h220q84 0 137 105l6 8
q29 53 41 99t12 124v12q0 156 -47 236l-4 8q-45 59 -78.5 78.5t-77.5 19.5z" />
    <glyph glyph-name="c" unicode="c" horiz-adv-x="1046" 
d="M850 397l102 -63q30 -19 42 -36.5t7.5 -48t-32.5 -77.5q-36 -61 -84 -101.5t-104.5 -59t-106 -25t-111.5 -6.5q-78 0 -150 16t-139.5 53t-117 92.5t-79.5 140.5t-30 191v178q0 220 134.5 358t348.5 138q249 0 406 -170h2l14 -14q26 -40 22 -79t-36 -67l-4 -2l-70 -41h-10
q-18 0 -35 23q-96 145 -287 145q-69 0 -122.5 -25t-86 -66.5t-49 -92.5t-16.5 -107v-178q0 -15 1.5 -32t8.5 -47.5t18.5 -57.5t35.5 -57t55.5 -51.5t81 -35.5t110.5 -14q101 0 165.5 43t99.5 135z" />
    <glyph glyph-name="d" unicode="d" horiz-adv-x="978" 
d="M135 209v2q-41 75 -66.5 163.5t-25.5 157.5v35q0 104 26.5 205.5t73.5 179.5l2 4q67 86 157 133.5t185 47.5h144q45 0 65 4v495h105q52 0 86.5 -31t34.5 -77v-1422q0 -49 -34 -80.5t-87 -31.5h-314q-97 0 -188.5 54t-157.5 151zM268 567v-18q0 -30 13 -81t36.5 -108
t66 -98t93.5 -41h219v692q-32 -4 -47 -4h-162q-41 0 -72.5 -17t-70.5 -65l-8 -14q-68 -96 -68 -246z" />
    <glyph glyph-name="e" unicode="e" horiz-adv-x="1081" 
d="M305 51q-115 65 -184.5 178t-69.5 238v213q0 129 68 244q66 108 184 172.5t250 64.5h16q210 -15 334.5 -146t124.5 -335v-225q-3 -14 -10 -22.5t-19 -12t-20 -4t-23 -0.5h-673q10 -35 25.5 -67t45.5 -71.5t81.5 -63.5t117.5 -24q79 0 131.5 12t69 23t39.5 33q14 14 32 29
q26 16 54 16q45 0 102 -57l29 -29l-23 -27q-71 -77 -121 -110q-48 -38 -130 -66t-169 -28h-14q-133 0 -248 65zM281 631h528v49q1 28 -2.5 56t-18.5 66t-40 67.5t-73 54t-112 32.5h-10q-74 0 -133 -38q-67 -38 -103 -99.5t-36 -138.5v-49z" />
    <glyph glyph-name="f" unicode="f" horiz-adv-x="858" 
d="M229 1122v99q1 94 9.5 158.5t30.5 121t60 89t98.5 51t145.5 18.5q32 0 65 -2.5t79 -10t75 -26t29 -45.5v-37q-2 -23 -2 -96v-62l-53 31q-7 4 -21.5 10t-62.5 16.5t-102 10.5q-72 0 -94.5 -36.5t-22.5 -156.5v-133h155q77 0 105 -28q18 -18 18 -62v-119h-278v-536
q0 -78 -7 -136t-25.5 -110.5t-50.5 -86.5t-83 -54t-121 -21h-39q-51 0 -76 25q-4 4 -7.5 8.5t-5.5 10t-3.5 10t-2.5 12t-2 12t-1 14v14.5v17v17v36q0 41 61 41h17h30h29q19 0 29.5 7.5t18 42t7.5 100.5l-2 577h-168v113q0 96 125 96h43z" />
    <glyph glyph-name="g" unicode="g" horiz-adv-x="1001" 
d="M92 451v206q0 224 125.5 361t331.5 137q205 0 320.5 -76t115.5 -211l4 -782q0 -12 1 -33t1 -33q2 -43 0.5 -89t-7 -86t-22 -78.5t-44.5 -67.5q-77 -80 -254 -80h-115q-129 0 -129 115v106h129l41 -2q145 0 166 23q17 17 14 143v2q-84 -39 -197 -39q-130 0 -243.5 65.5
t-173.5 174.5q-64 107 -64 244zM766 246v618q0 74 -211 74q-79 0 -139 -42.5t-88.5 -105t-28.5 -133.5v-206q0 -72 23.5 -126t63.5 -84.5t86.5 -45.5t98.5 -15q56 0 103 12.5t69.5 27.5t22.5 26z" />
    <glyph glyph-name="h" unicode="h" horiz-adv-x="1116" 
d="M920 350v-33q-4 -84 8 -96q10 -10 43 -10h12q129 0 129 -102v-111h-139q-56 0 -100.5 15.5t-72.5 37t-48.5 56.5t-30 62.5t-15 67.5t-6 59.5t-0.5 49.5v227q0 84 -21.5 152t-55.5 108t-72 61t-74 21h-205v-913h-110q-49 0 -85 34.5t-36 80.5v1405q0 49 35.5 82.5
t85.5 33.5h110v-512h19h186q128 0 235.5 -81.5t159.5 -217.5q48 -124 48 -254v-223z" />
    <glyph glyph-name="i" unicode="i" horiz-adv-x="313" 
d="M266 1249h-104q-49 0 -88 31t-39 70v120q0 42 38.5 79.5t88.5 37.5h12q22 0 44.5 -9.5t33.5 -25.5l8 -12l6 -33v-258zM270 0h-102q-53 0 -90 35t-37 84v860q0 38 39 69t88 31h102v-1079z" />
    <glyph glyph-name="j" unicode="j" horiz-adv-x="671" 
d="M582 1243h-105q-49 0 -88 31.5t-39 71.5v176q0 61 86 61h25q4 0 13.5 -1t14.5 -1h7q49 0 67.5 -22.5t18.5 -51.5v-264zM305 -203q22 11 34.5 50t12.5 137l-2 989q0 38 39 69t88 31h103v-1096q0 -88 -16.5 -156.5t-45 -111.5t-58.5 -68.5t-65 -41.5q-76 -31 -205 -31
q-72 0 -92 2q-98 7 -98 119v92h190q83 0 115 16z" />
    <glyph glyph-name="k" unicode="k" horiz-adv-x="1120" 
d="M279 1638v-786l88 -86l307 422l22 -4q32 -7 66.5 -28t50.5 -52q18 -38 0 -76l-2 -2l-4 -8q-25 -45 -283 -393l94 -95q21 -22 55 -57t90.5 -93.5t104.5 -107.5q37 -33 56 -43t47 -10h28q88 0 88 -102q0 -57 -22 -85t-55 -28h-39q-82 1 -138.5 27t-109.5 75l-444 435v-541
h-121q-40 0 -72.5 33.5t-32.5 68.5v1426q0 50 29 80t76 30h121z" />
    <glyph glyph-name="l" unicode="l" horiz-adv-x="473" 
d="M236 1640v-1202q0 -39 3.5 -67.5t14.5 -60.5t30.5 -52t54.5 -33.5t83 -13.5h49h7q27 0 36.5 -1t18.5 -11.5t10 -29t0 -58.5q0 -45 -25.5 -81t-75.5 -36h-41q-92 1 -168 31.5t-123.5 81t-73.5 113t-26 128.5v1174q0 46 44.5 82t101.5 36h80z" />
    <glyph glyph-name="m" unicode="m" horiz-adv-x="1779" 
d="M774 113v555q0 129 -72.5 201.5t-201.5 72.5q-72 0 -137.5 -29t-65.5 -57v-856h-115q-49 0 -84 33.5t-35 79.5v745q0 54 28.5 104t66.5 80q145 105 342 105q230 0 366 -133l25 -25q10 10 22 25q136 133 367 133q104 0 204 -36.5t166 -103t66 -145.5v-749q0 -46 -35 -79.5
t-84 -33.5h-114v852q0 7 -6 16.5t-21.5 21t-38.5 21.5t-60.5 16.5t-82.5 6.5q-130 0 -199 -68.5t-69 -197.5l-2 -668h-134l-24 8q-32 13 -52 42.5t-20 62.5z" />
    <glyph glyph-name="n" unicode="n" horiz-adv-x="1042" 
d="M991 0h-110q-49 0 -84 33.5t-35 79.5v553q0 129 -69 197.5t-199 68.5q-137 0 -209 -66v-866h-115q-49 0 -84 33.5t-35 79.5v809q0 27 27 63q11 14 61 53q67 51 160.5 80t187.5 29q229 0 367 -135q137 -140 137 -346v-666z" />
    <glyph glyph-name="o" unicode="o" horiz-adv-x="1159" 
d="M592 -16h-17q-138 0 -259 70.5t-189 189.5q-70 124 -70 252v168q0 135 68.5 250t189.5 182q118 65 260 65h17q135 0 258.5 -68.5t189.5 -179.5q70 -119 70 -249v-168q0 -129 -71 -250t-189 -193q-120 -69 -258 -69zM291 664v-168q0 -64 28 -120.5t70.5 -93t91.5 -58
t94 -21.5h17q120 0 202.5 92t82.5 201v168q0 126 -84.5 206t-190.5 80h-27q-120 0 -202 -89.5t-82 -196.5z" />
    <glyph glyph-name="p" unicode="p" horiz-adv-x="966" 
d="M842 954v-2q80 -143 80 -379v-26q0 -261 -114 -405t-321 -144h-141h-22h-21h-22v-404h-105q-52 0 -86.5 31.5t-34.5 77.5v1341q0 50 33.5 81.5t87.5 31.5h311q103 0 194.5 -50t154.5 -142zM696 547v10q0 168 -57 264l-6 8v5q-50 96 -133 96h-219v-705h215q51 0 89 20
t58.5 49.5t33 75t16 86t3.5 91.5z" />
    <glyph glyph-name="q" unicode="q" horiz-adv-x="1212" 
d="M575 -29h-10q-130 0 -248 68t-180 178q-65 112 -65 240v241q0 124 66.5 238t176.5 180q116 64 250 64h58q94 0 177 -32t130 -87q53 -65 53 -133v-965q0 -11 -1 -29t-1 -26q0 -101 4 -109q8 -6 92 -6h101l-2 -37q-2 -53 -2 -78q0 -37 -28 -61.5t-69 -24.5h-41
q-41 0 -66.5 1.5t-55 6t-47 14.5t-35.5 27t-28 42t-17 61t-9 84q-4 66 -4 190q-103 -47 -199 -47zM291 698v-241q0 -72 37.5 -136t101.5 -102q65 -39 135 -39h10q30 0 92.5 20t96.5 44l12 10v666q0 4 -6 14q-15 18 -53.5 30.5t-79.5 12.5h-72q-75 0 -136 -37t-101 -106
q-37 -61 -37 -136z" />
    <glyph glyph-name="r" unicode="r" horiz-adv-x="849" 
d="M53 111v673q0 91 34 163t91.5 115.5t127.5 66t147 22.5q101 0 192 -34.5t148 -94.5q12 -12 13.5 -28.5t-2 -25t-11.5 -24.5l-5 -8q-11 -26 -21 -42.5t-28 -32t-39 -15.5q-17 0 -32 12q-105 82 -215 82q-85 0 -131 -52t-46 -149v-741h-104q-49 0 -84 33.5t-35 79.5z" />
    <glyph glyph-name="s" unicode="s" horiz-adv-x="903" 
d="M465 -16h-27q-191 0 -332 114q-50 35 -57 76q-4 29 17 62l4 4l80 90l26 -25q121 -112 244 -112h24l5 2q73 3 127 53t51 135q-4 45 -185 98q-8 3 -12 4l-61.5 18t-60 19.5t-61.5 25t-53.5 29t-50 37t-37 45t-28 56.5t-10.5 67q-6 146 102 250t276 113q106 5 197.5 -31
t181.5 -119q25 -22 28.5 -55.5t-22.5 -71.5l-2 -2l-71 -75l-37 32q-29 26 -49 42.5t-56 39t-77 33t-86 8.5q-41 -2 -79.5 -19.5t-64.5 -47.5q-36 -39 -33 -82q1 -18 16 -33.5t47.5 -29.5t59.5 -23t74 -23q46 -14 69.5 -21.5t67.5 -24t68.5 -30.5t57.5 -37.5t51 -48.5
t32.5 -59t16.5 -74q9 -163 -95 -276q-56 -63 -133 -96.5t-143 -36.5z" />
    <glyph glyph-name="t" unicode="t" horiz-adv-x="849" 
d="M801 199v-35q0 -30 -1 -48.5t-6.5 -47.5t-16 -45.5t-32 -29.5t-51.5 -13h-90q-58 0 -108.5 11t-104 43.5t-91 83.5t-61.5 138t-24 201v479h-168v96q0 44 36 75.5t87 31.5h45v200q0 46 36 79.5t85 33.5h108v-313h195q51 0 87 -31.5t36 -75.5v-96h-318v-479
q0 -151 29 -204.5t123 -53.5h205z" />
    <glyph glyph-name="u" unicode="u" horiz-adv-x="1110" 
d="M559 -20q-53 0 -94 6q-161 28 -242 106q-81 73 -124 169.5t-42 203.5l6 688h111q50 0 84.5 -33t34.5 -80l-6 -575q0 -134 65 -199q69 -69 201 -69q142 0 213 65q68 71 68 203l-7 575q0 47 34.5 80t84.5 33h111l6 -688q0 -98 -33 -186q-93 -248 -381 -293q-37 -6 -90 -6z
" />
    <glyph glyph-name="v" unicode="v" horiz-adv-x="1155" 
d="M477 45l-411 969q-7 21 -7 37q0 36 26.5 64t100.5 28h82l316 -735l323 735h88q46 0 79.5 -28t33.5 -66q0 -25 -14 -50l-408 -960q-37 -59 -104 -59q-33 0 -64.5 20.5t-40.5 44.5z" />
    <glyph glyph-name="w" unicode="w" horiz-adv-x="1986" 
d="M1733 1149h90q45 0 78.5 -27t33.5 -65q0 -17 -14 -49l-410 -969q-32 -59 -102 -59q-37 0 -68 24t-41 53l-284 709l-307 -727q-37 -59 -105 -59q-32 0 -60.5 19.5t-43.5 45.5l-2 4l-410 973q-6 18 -6 37q0 90 127 90h82l315 -741l324 741h88q72 0 98 -47l2 -4l293 -690z
" />
    <glyph glyph-name="x" unicode="x" horiz-adv-x="1196" 
d="M924 1128h139q50 0 63 -26q13 -30 -8 -62l-364 -475l430 -565h-242q-44 0 -82 41l-256 338l-256 -336q-37 -43 -84 -43h-241l432 565l-365 473q-23 33 -10 64q15 26 63 26h142l319 -409z" />
    <glyph glyph-name="y" unicode="y" horiz-adv-x="1110" 
d="M1051 395v-401q0 -124 -22 -204t-72.5 -125.5t-119.5 -63.5t-175 -19h-29q-46 0 -64 2q-98 8 -98 123v92h174h25q33 -1 48 0t37 7t31 19t19 37t13 62t3 92q-101 -53 -272 -53q-108 0 -194.5 28t-143 74t-94.5 109t-54 130t-16 140l6 670h111q49 0 84 -33.5t35 -79.5
l-7 -557q-3 -124 62 -186q65 -68 207 -68q141 0 208.5 52t67.5 159v209l-4 389q0 32 17 66l4 4q15 21 47 35t63 14h103v-491l2 -183q0 -35 -2 -49z" />
    <glyph glyph-name="z" unicode="z" horiz-adv-x="946" 
d="M774 0h-612q-49 0 -83 34.5t-34 74.5q0 29 14 53l490 760l-416 4v110q0 40 37.5 69.5t75.5 29.5h499q47 0 81 -31t34 -74q0 -46 -24 -76l-478 -745h535v-96q0 -46 -35 -79.5t-84 -33.5z" />
    <glyph glyph-name="braceleft" unicode="{" horiz-adv-x="1013" 
d="M643 1167q-30 -375 -205 -522q50 -46 85.5 -111t55 -145t29 -149.5t15.5 -161.5q7 -66 23.5 -110t40.5 -64t46 -27.5t49 -7.5q79 0 121.5 -39.5t42.5 -93.5v-78h-164q-154 0 -250 86t-122 246q-7 41 -27 190q-8 68 -13.5 105.5t-16 85t-23 72.5t-32.5 49.5t-47.5 35.5
t-64.5 13q-24 0 -36 2q-39 6 -62.5 27t-29 38.5t-5.5 34.5v100h94q45 3 80 17t61.5 44t44.5 62.5t34 89t26.5 106t24.5 130.5l12 63q26 161 122 246.5t249 85.5h164v-76q0 -56 -41.5 -95.5t-122.5 -39.5q-28 0 -49.5 -7t-45.5 -27t-40.5 -64.5t-22.5 -110.5z" />
    <glyph glyph-name="bar" unicode="|" horiz-adv-x="292" 
d="M252 1563l4 -666l-2 -1116q0 -49 -29.5 -93.5t-87.5 -45.5h-96l2 1785q3 62 33.5 100t77.5 38l4 -2h94z" />
    <glyph glyph-name="braceright" unicode="}" horiz-adv-x="1013" 
d="M375 1167q-6 66 -22.5 110.5t-40.5 64.5t-45.5 27t-49.5 7q-81 0 -122.5 39.5t-41.5 95.5v76h164q153 0 249 -85.5t122 -246.5l12 -63q11 -60 18.5 -99t18.5 -86.5t21.5 -77t25.5 -62t32.5 -51.5t40.5 -36.5t51 -26t62 -10.5h95v-100q0 -17 -5.5 -34.5t-29 -38.5
t-62.5 -27q-12 -2 -37 -2q-28 -1 -50.5 -7.5t-40 -21t-30.5 -29t-23.5 -42t-17 -50t-13.5 -62t-11 -69t-10 -80.5q-20 -149 -27 -190q-26 -160 -122 -246t-250 -86h-164v78q0 54 42.5 93.5t121.5 39.5q27 0 49 7.5t46 27.5t40.5 64t23.5 110q6 92 15.5 161.5t29 149.5
t55 145t85.5 111q-175 147 -205 522z" />
    <glyph glyph-name="asciitilde" unicode="~" horiz-adv-x="1054" 
d="M901 862q53 0 82 -59q12 -24 15.5 -55t-6.5 -70t-36 -74q-31 -42 -110.5 -63t-140.5 -21q-41 0 -183 25q-140 28 -192 28q-32 0 -46.5 -5t-17 -11.5t-2.5 -21.5v-89h-102q-54 0 -84 41q-23 29 -29 74.5t4 77.5q13 41 37.5 70.5t47.5 43.5t56 21.5t49.5 8.5t41.5 1h28
q63 0 219 -24q161 -23 197 -23t43.5 7t7.5 38v70l31 6h4q4 1 11 1.5t17 1t25.5 1t32.5 0.5z" />
    <glyph glyph-name="exclamdown" unicode="&#xa1;" horiz-adv-x="309" 
d="M180 838h-30h-23q-86 0 -86 61v137q0 39 39 70t88 31h104v-224q0 -18 -5.5 -33t-26.5 -28.5t-56 -13.5h-4zM272 686v-1001q0 -12 -3.5 -23t-12 -23.5t-27 -20t-45.5 -7.5h-4h-30q-4 0 -11.5 -1t-11.5 -1q-86 0 -86 63v914q0 40 38.5 70t88.5 30h104z" />
    <glyph glyph-name="cent" unicode="&#xa2;" horiz-adv-x="1046" 
d="M981 315l8 -10q22 -32 16.5 -71.5t-36.5 -67.5q-137 -137 -322 -176v-31q0 -28 -26 -56t-62 -28h-20h-24t-23 0.5t-18.5 1t-13.5 0.5h-5l-33 2v119q-92 25 -170 85.5t-125 145.5q-66 114 -66 246v373q0 194 103.5 333t257.5 154v8q0 40 37 73.5t80 33.5h108v-113
q119 -19 219.5 -93.5t122.5 -141.5q16 -49 -16 -74l-99 -76l-20 27q-116 146 -207 160v-938q133 24 240 164l24 32l29 -28q21 -21 41 -54zM422 229v895q-51 -27 -92 -97t-41 -179v-373q0 -155 133 -246z" />
    <glyph glyph-name="sterling" unicode="&#xa3;" horiz-adv-x="1255" 
d="M1083 10h-931q-24 0 -52 17q-31 16 -45 43q-14 23 -14 51q0 31 19.5 58.5t50.5 41.5l4 2q157 94 157 223v218h-168v112q0 38 37 67t88 29h43v209q0 127 65.5 238t178.5 174q113 61 254 61h2q101 -5 191.5 -37.5t150.5 -86.5l12 -11v-2q36 -40 39 -45q23 -35 23 -65
q0 -20 -10 -43l-2 -4l-74 -115l-31 33l-8 8q-151 160 -293 160q-156 0 -231 -132q-31 -60 -31 -133v-209h213q49 0 86 -29t37 -67v-112h-336v-218q0 -115 -62 -215h515q46 0 83 -35.5t37 -78.5l2 -72v-35z" />
    <glyph glyph-name="currency" unicode="&#xa4;" 
d="M1165 223l-90 -90q-28 -31 -74 -31q-55 0 -92 37l-43 43q-106 -65 -241 -65h-25q-134 0 -240 65l-45 -43q-32 -37 -90 -37q-45 0 -75 33l-89 88l134 117q-70 115 -70 248v203q0 137 82 264l-107 110l25 25l78 65q31 23 61 23q36 0 66 -27l13.5 -13.5t18 -17.5t15.5 -16
q101 58 225 58h25q116 0 223 -58l47 47q30 27 66 27t61 -25q61 -45 76 -63l24 -25l-106 -110q84 -125 84 -264v-203q0 -135 -72 -248zM866 588v203q0 106 -70 178.5t-171 72.5h-23q-101 0 -171.5 -72.5t-70.5 -178.5v-203q0 -106 71 -181t171 -75h23q100 0 170.5 75
t70.5 181z" />
    <glyph glyph-name="yen" unicode="&#xa5;" horiz-adv-x="1173" 
d="M481 391h-137q-49 0 -93.5 30.5t-45.5 88.5v96l276 -2v55h-137q-48 0 -93 30t-46 87v96h184q-73 143 -188 342q-126 229 -131 244q-17 42 8 76q20 33 65 33h119l332 -611l336 611h119q46 0 63 -33q22 -42 8 -76q-8 -25 -129 -244q-124 -218 -190 -344h35q57 -3 90 -26
q50 -30 47 -88v-94l-244 -3q-6 -2 -20 -2v-53h127q52 -3 90 -26q50 -30 47 -89v-94l-244 -4h-20v-391h-119q-41 0 -75 35t-34 78v278z" />
    <glyph glyph-name="brokenbar" unicode="&#xa6;" horiz-adv-x="292" 
d="M39 1110l2 207q0 29 10.5 58t38.5 53.5t68 25.5h96l-2 -571q-3 -62 -33.5 -100t-77.5 -38h-98l-4 240q-3 20 0 43v82zM39 160l2 207q0 29 10.5 58t38.5 53.5t68 25.5h96l-2 -572q-3 -62 -33.5 -99.5t-77.5 -37.5h-98l-4 240q-3 20 0 43v82z" />
    <glyph glyph-name="section" unicode="&#xa7;" horiz-adv-x="1226" 
d="M891 195q-14 -7 -17 -9q25 -55 25 -116q0 -107 -63 -201t-168 -145q-99 -52 -213 -52q-106 0 -205 49t-164 132l-39 49l21 22q72 72 118 72q37 0 88 -47q29 -25 45.5 -37t52.5 -25.5t77 -13.5q62 0 113.5 28t82.5 79l12 16q19 40 19 76q0 49 -66 90q-32 23 -125 69
q-128 64 -201 114t-116 120q-57 88 -57 201q0 107 59.5 198t159.5 135q24 11 55 21q-29 72 -29 147q0 108 59 198t160 136q93 41 199 41q95 0 207 -64.5t188 -164.5l15 -19l-13 -22q-46 -62 -73 -74q-21 -12 -54 -12q-21 0 -40 8l-15 12l-49 49q-90 84 -184 84
q-103 0 -158 -84q-23 -41 -23 -86q0 -111 95 -170q9 -6 108 -61l27 -14l37 -15q39 -17 57.5 -26t56.5 -29.5t58.5 -37t49 -44t43 -55t25.5 -65.5t11 -81q0 -108 -72 -215t-180 -161zM719 362q66 0 131 70.5t65 142.5q0 50 -57 89l-39 20q-66 37 -88 47l-12 6
q-137 70 -182 105q-6 2 -23 2q-43 0 -90 -27.5t-72 -62.5q-22 -39 -22 -86q0 -111 96 -170l6 -4l27 -15q36 -17 110.5 -53t110.5 -53q28 -11 39 -11z" />
    <glyph glyph-name="dieresis" unicode="&#xa8;" horiz-adv-x="620" 
d="M176 1518h6q86 0 86 -74v-264h-104q-49 0 -88 31t-39 69v176q0 64 88 64q14 0 22 -2h29zM477 1518h6q86 0 86 -74v-264h-104q-49 0 -88 31t-39 69v176q0 64 88 64q15 0 23 -2h28z" />
    <glyph glyph-name="copyright" unicode="&#xa9;" horiz-adv-x="1263" 
d="M1206 799v-150q0 -135 -75.5 -251.5t-203 -185.5t-274.5 -69h-16q-150 0 -295 74t-207 182q-67 119 -67 250v150q0 97 34.5 185.5t101.5 161.5t178.5 116t252.5 43h16q153 0 280.5 -66.5t201 -183t73.5 -256.5zM1028 649v150q0 84 -52 162t-136.5 125t-175.5 47h-27
q-78 0 -144 -21.5t-110.5 -56t-76 -79t-46 -89.5t-14.5 -88v-150q0 -141 115 -240.5t276 -99.5h16q78 0 149.5 34t120 85t77 110t28.5 111zM795 578l4 -7q24 -29 24 -49q0 -29 -22 -51q-37 -37 -75.5 -57.5t-96.5 -20.5q-91 0 -146 57.5t-55 151.5v250q0 57 25 105.5
t69 74.5q39 25 107 25q66 0 110 -23q75 -46 78 -96q0 -27 -18 -45l-4 -4l-82 -64l-11 39q-12 36 -26 47t-47 11q-35 0 -51 -31q-9 -13 -9 -39v-250q0 -24 6.5 -40t18 -21.5t18.5 -7t17 -1.5q30 0 71 33q37 29 58 29q18 0 37 -16z" />
    <glyph glyph-name="guillemotleft" unicode="&#xab;" horiz-adv-x="1245" 
d="M66 723l391 180q40 19 75 19q55 0 98 -32t46 -75v-37l-316 -147l267 -164l20 -18l-2 -17q-3 -43 -45 -73.5t-98 -30.5q-38 0 -76 18l-360 193q-3 1 -7.5 3.5t-15.5 11t-20 18.5t-16 26t-7 33q0 27 16.5 50t33.5 33zM682 723l391 180q40 19 76 19q55 0 97.5 -32t45.5 -75
v-37l-315 -147l266 -164l21 -18l-2 -17q-3 -43 -45.5 -73.5t-98.5 -30.5q-38 0 -76 18l-360 193q-3 1 -7.5 3.5t-15.5 11t-20 18.5t-16 26t-7 33q0 27 16.5 50t33.5 33z" />
    <glyph glyph-name="logicalnot" unicode="&#xac;" horiz-adv-x="1269" 
d="M231 1014h949q54 0 97.5 -38t43.5 -95v-396q0 -47 -47 -90t-111 -43h-121v396h-950v133q0 57 39 95t100 38z" />
    <glyph glyph-name="registered" unicode="&#xae;" horiz-adv-x="1263" 
d="M621 1325h16q153 0 280.5 -66.5t201 -183t73.5 -256.5v-149q0 -135 -75.5 -251.5t-203 -185.5t-274.5 -69h-16q-151 0 -296.5 74.5t-205.5 181.5q-70 119 -70 250v149q0 77 21 149.5t67 137.5t111.5 113.5t161 77t209.5 28.5zM1012 670v149q0 84 -51.5 162t-136 125
t-175.5 47h-26q-96 0 -174 -32t-124 -83t-70 -107.5t-24 -111.5v-149q0 -141 114.5 -240.5t277.5 -99.5h16q77 0 148.5 34t119.5 85t76.5 110t28.5 111zM807 600h8q28 0 47 -22q17 -19 20 -55t-1 -40l-2 -24h-72q-67 0 -111 41l-116 100h-39v-141h-70q-31 0 -52.5 22
t-21.5 49v461q0 31 21.5 51.5t52.5 20.5h154q52 0 102 -29.5t76 -75.5q26 -45 26 -100v-51q0 -68 -47 -127q-11 -20 -32 -37q53 -43 57 -43zM686 807v51q0 38 -31 57l-12 9l-14 2h-88v-185h84q35 0 55 33q6 15 6 33z" />
    <glyph glyph-name="macron" unicode="&#xaf;" horiz-adv-x="931" 
d="M49 1438l696 -2q64 -3 101.5 -34.5t34.5 -80.5v-96l-351 -2q-12 -2 -34 -2l-310 2q-47 0 -91.5 30t-45.5 88v97z" />
    <glyph glyph-name="degree" unicode="&#xb0;" horiz-adv-x="567" 
d="M236 1556h86q86 0 152.5 -63.5t66.5 -146.5v-256q0 -83 -66.5 -147t-152.5 -64h-86q-85 0 -151.5 64t-66.5 147v256q0 83 66.5 146.5t151.5 63.5zM319 1090v256q0 4 -2 6h-75v-6v-256v-5h75q2 0 2 5z" />
    <glyph glyph-name="plusminus" unicode="&#xb1;" 
d="M698 864h293q63 -1 101 -32.5t36 -79.5v-97l-428 -2v-26l-2 -187q0 -47 -29.5 -91.5t-86.5 -45.5h-97l2 348l-292 2q-47 0 -92 30t-46 87v96l430 -2v215q1 61 32 98t77 37h100zM57 225l934 -2q63 -1 101 -32.5t36 -79.5v-97l-667 -4l-266 2q-47 0 -92 30t-46 87v96z" />
    <glyph glyph-name="acute" unicode="&#xb4;" horiz-adv-x="532" 
d="M455 1585q19 -18 27 -26.5t16 -22.5t8 -29q0 -24 -19 -41l-208 -209q-22 -22 -62 -22q-56 0 -100 41l-72 72l268 270q24 24 54 24q31 0 65 -34z" />
    <glyph glyph-name="paragraph" unicode="&#xb6;" horiz-adv-x="1112" 
d="M31 1055q0 44 10.5 96t40.5 117t76.5 116.5t127.5 87t183 35.5h569v-1677q0 -39 -11 -66.5t-25 -41t-40.5 -20.5t-43 -8t-46.5 -1h-36v1630h-183v-1483q0 -143 -143 -143h-14h-45v956q-98 5 -175.5 38.5t-121.5 79t-73.5 101.5t-39.5 100.5t-10 82.5z" />
    <glyph glyph-name="periodcentered" unicode="&#xb7;" horiz-adv-x="309" 
d="M152 786q53 0 91 -37t38 -87t-38 -87.5t-91 -37.5q-51 0 -89 37.5t-38 87.5t38 87t89 37z" />
    <glyph glyph-name="cedilla" unicode="&#xb8;" horiz-adv-x="1597" 
 />
    <glyph glyph-name="guillemotright" unicode="&#xbb;" horiz-adv-x="1245" 
d="M219 903l391 -180q3 -1 7.5 -3.5t15.5 -11t20 -18.5t16 -26t7 -33q0 -27 -16.5 -50t-33.5 -33l-16 -9l-360 -193q-38 -18 -78 -18q-54 0 -96 30.5t-45 73.5l-2 17l20 18l266 164l-315 147v37q3 43 45.5 75t97.5 32q36 0 76 -19zM836 903l391 -180q3 -1 7 -3.5t15.5 -11
t20 -18.5t15.5 -26t7 -33q0 -27 -16.5 -50t-32.5 -33l-16 -9l-361 -193q-38 -18 -78 -18q-54 0 -96 30.5t-45 73.5l-2 17l21 18l266 164l-316 147v37q3 43 46 75t98 32q36 0 76 -19z" />
    <glyph glyph-name="questiondown" unicode="&#xbf;" horiz-adv-x="952" 
d="M571 924h-6q-86 0 -86 73v224h105q49 0 88 -31t39 -70v-137q0 -61 -88 -61h-23q-8 2 -29 2zM498 -410h-19q-120 0 -221.5 60t-160 163t-58.5 224q0 48 5.5 89.5t18.5 75.5t25.5 60.5t35 51.5t38.5 40.5t45 35t45 29t47 27.5q25 15 57.5 26t52.5 18.5t39 21t28 40.5t9 71
v194h88q60 0 91.5 -36.5t35.5 -84.5v-59q0 -67 -12.5 -118t-30 -81.5t-48 -55.5t-55 -36.5t-63.5 -29.5t-61 -31q-29 -17 -42 -25t-36.5 -24.5t-34.5 -28t-27 -30.5t-22.5 -38t-12 -44.5t-5.5 -55.5q0 -107 75 -174.5t171 -67.5q97 0 155 70q51 51 105 51q29 0 61 -16
q11 -7 26 -18t25 -18t11 -7l24 -21l-16 -26q-135 -222 -389 -222z" />
    <glyph glyph-name="Egrave" unicode="&#xc8;" horiz-adv-x="1185" 
d="M545 1782l-209 207q-17 17 -17 41q0 6 1 11.5t2.5 9.5t5.5 10l6 9t8 9.5t8.5 9l10 10l10.5 10.5q17 17 20 21q35 35 68 35q27 0 53 -23l268 -270l-73 -74q-41 -41 -99 -41q-41 0 -63 25zM1016 0h-852q-38 0 -72.5 31.5t-34.5 66.5v1446q0 34 34.5 65t72.5 31h852
q46 0 82.5 -29t36.5 -67v-114h-848v-388h616q52 0 88.5 -33.5t36.5 -80.5v-115h-741v-600h848v-115q0 -38 -36 -68t-83 -30z" />
    <glyph glyph-name="Eacute" unicode="&#xc9;" horiz-adv-x="1185" 
d="M494 1757q-58 0 -99 41l-73 74l268 270q26 23 53 23q33 0 66 -33q4 -5 22 -23q2 -2 8.5 -8t8.5 -8.5t7 -7.5t6.5 -7.5t5.5 -7t5.5 -7.5t4 -7.5t3 -8t1.5 -8t1 -9.5q0 -25 -16 -41l-211 -209q-20 -23 -61 -23zM1014 0h-852q-38 0 -72.5 31.5t-34.5 66.5v1446q0 34 34.5 65
t72.5 31h852q47 0 84 -29t37 -67v-114h-850v-388h618q51 0 87 -33.5t36 -80.5v-115h-741v-600h850v-115q0 -38 -37 -68t-84 -30z" />
    <glyph glyph-name="Ecircumflex" unicode="&#xca;" horiz-adv-x="1185" 
d="M324 1763h-45q-29 0 -48 19q-18 21 -18 73v9q0 28 25 53l4 4l262 195q37 26 86 26t86 -26l266 -199q25 -25 25 -53v-6q0 -47 -23 -72q-20 -23 -63 -23h-31q-45 0 -74 23q-143 108 -192 143l-41 -31q-79 -63 -146 -112q-29 -23 -73 -23zM1020 0h-852q-38 0 -72.5 31.5
t-34.5 66.5v1446q0 34 34.5 65t72.5 31h852q47 0 84 -29t37 -67v-114h-850v-388h618q51 0 87 -33.5t36 -80.5v-115h-741v-600h850v-115q0 -38 -37 -68t-84 -30z" />
    <glyph glyph-name="Edieresis" unicode="&#xcb;" horiz-adv-x="1185" 
d="M551 1772h-107q-48 0 -86.5 31.5t-38.5 70.5v176q0 61 87 61h22q5 0 14.5 -1t14.5 -1h6q88 0 88 -73v-264zM831 1772h-104q-49 0 -88 31t-39 71v176q0 61 86 61h25q4 0 13.5 -1t14.5 -1h4q88 0 88 -73v-264zM1020 0h-852q-38 0 -72.5 31.5t-34.5 66.5v1446q0 34 34.5 65
t72.5 31h852q47 0 84 -29t37 -67v-114h-850v-388h618q51 0 88 -33.5t37 -80.5v-115h-743v-600h850v-115q0 -38 -37 -68t-84 -30z" />
    <glyph glyph-name="Icircumflex" unicode="&#xce;" horiz-adv-x="849" 
d="M162 1704h-47q-29 0 -47 18q-19 22 -19 74l2 8q0 31 23 54l4 4l262 194q39 27 86 27t86 -27l266 -198q25 -25 25 -54v-6q0 -49 -23 -72q-19 -22 -63 -22h-31q-46 0 -74 22q-159 121 -192 144l-41 -31q-97 -77 -146 -113q-27 -22 -71 -22zM301 213l10 1176h-121v63l3 70
q0 31 29 54t61 23h272q41 0 65.5 -26t24.5 -60v-124h-108l-5 -1178h25q84 0 84 -74v-86q0 -51 -49 -51h-346q-19 0 -31.5 7.5t-17.5 21t-6 23.5t-1 24v61q0 22 7 37t15.5 22.5t23.5 11.5t23.5 4.5t23.5 0.5h18z" />
    <glyph glyph-name="Idieresis" unicode="&#xcf;" horiz-adv-x="544" 
d="M231 1706h-104q-50 0 -88.5 30t-38.5 70v176q0 62 86 62h23h30h4q50 0 69 -23t19 -53v-262zM565 1706h-104q-48 0 -86.5 30.5t-38.5 69.5v176q0 62 86 62h22h29h6q86 0 86 -76v-262zM172 213l8 1176h-119v63l2 70q0 31 28.5 54t62.5 23h270q41 0 66.5 -26t25.5 -60v-124
h-110l-3 -1178h23q86 0 86 -74v-86q0 -51 -49 -51h-348q-54 0 -54 76v61q0 22 7 37t15 22.5t23 11.5t23.5 4.5t22.5 0.5h20z" />
    <glyph glyph-name="Ocircumflex" unicode="&#xd4;" horiz-adv-x="1159" 
d="M668 2093l264 -197q24 -24 24 -55v-6q0 -50 -20 -72q-25 -22 -64 -22h-32q-41 0 -72 22q-170 130 -193 146l-40 -33q-14 -10 -61 -47t-85 -66q-31 -22 -74 -22h-45q-31 0 -49 18q-21 25 -16 74v8q0 31 24 55l4 2l261 195q39 27 86 27q49 0 88 -27zM1104 1159v-672
q0 -131 -71 -251.5t-189 -190.5q-121 -70 -258 -70h-17q-138 0 -259.5 70t-188.5 188q-70 124 -70 254v672q0 135 68.5 250t189.5 182q123 68 260 68h17q135 0 258.5 -69t189.5 -181q70 -116 70 -250zM860 487v672q0 75 -35.5 137.5t-101.5 102.5q-67 37 -137 37h-17
q-70 0 -133 -37t-104 -103q-35 -57 -35 -137v-672q0 -75 36.5 -140t100.5 -103q62 -37 135 -37h17q75 0 137.5 36t103.5 105q33 59 33 139z" />
    <glyph glyph-name="multiply" unicode="&#xd7;" horiz-adv-x="1196" 
d="M594 395l-258 -233q-32 -37 -80 -37l-256 -2l440 446l-360 375q-22 35 -8 62q14 28 63 28h137l322 -317l321 317h140q48 0 63 -28q14 -28 -10 -62l-2 -4l-356 -371l438 -446l-256 2q-43 0 -80 37z" />
    <glyph glyph-name="Ucircumflex" unicode="&#xdb;" horiz-adv-x="1165" 
d="M664 2109l266 -198q24 -24 24 -53v-7q0 -49 -22 -71q-20 -23 -64 -23h-30q-45 0 -74 23q-131 100 -193 143l-41 -31q-92 -73 -145 -112q-29 -23 -72 -23h-47q-28 0 -47 19q-18 21 -18 73l2 9q0 30 22 55l4 2l263 194q39 27 86 27t86 -27zM866 1638h121q54 0 90.5 -33.5
t36.5 -82.5v-1022q0 -138 -71.5 -259t-192.5 -188q-120 -69 -258 -69h-17q-142 0 -263 68.5t-187 185.5q-70 119 -70 262v1022q0 49 36 82.5t87 33.5h123v-1138q0 -65 24 -116.5t64 -82.5t87.5 -47t98.5 -16h17q66 0 115.5 16t79 41t48 61t25 70t6.5 74v1138z" />
    <glyph glyph-name="egrave" unicode="&#xe8;" horiz-adv-x="1081" 
d="M598 1231q-42 0 -61 22l-211 209q-17 17 -17 41q0 11 3 20.5t12.5 21.5t14 16.5l21.5 21.5l23 23q37 32 66 32q28 0 53 -22l268 -273l-72 -71q-44 -41 -100 -41zM305 51q-115 65 -184.5 178t-69.5 238v213q0 129 68 244q66 108 184 172.5t250 64.5h16q210 -15 334.5 -146
t124.5 -335v-225q-3 -14 -10 -22.5t-19 -12t-20 -4t-23 -0.5h-673q10 -35 25.5 -67t45.5 -71.5t81.5 -63.5t117.5 -24q79 0 131.5 12t69 23t39.5 33q14 14 32 29q26 16 54 16q45 0 102 -57l29 -29l-23 -27q-71 -77 -121 -110q-48 -38 -130 -66t-169 -28h-14q-133 0 -248 65z
M281 631h528v49q1 28 -2.5 56t-18.5 66t-40 67.5t-73 54t-112 32.5h-10q-74 0 -133 -38q-67 -38 -103 -99.5t-36 -138.5v-49z" />
    <glyph glyph-name="eacute" unicode="&#xe9;" horiz-adv-x="1081" 
d="M481 1231q-56 0 -100 41l-72 71l269 273q25 22 53 22t65 -32l23 -23q40 -40 47 -57q4 -12 4 -23q0 -25 -16 -41l-211 -209q-19 -22 -62 -22zM305 51q-115 65 -184.5 178t-69.5 238v213q0 129 68 244q66 108 184 172.5t250 64.5h16q210 -15 334.5 -146t124.5 -335v-225
q-3 -14 -10 -22.5t-19 -12t-20 -4t-23 -0.5h-673q10 -35 25.5 -67t45.5 -71.5t81.5 -63.5t117.5 -24q79 0 131.5 12t69 23t39.5 33q14 14 32 29q26 16 54 16q45 0 102 -57l29 -29l-23 -27q-71 -77 -121 -110q-48 -38 -130 -66t-169 -28h-14q-133 0 -248 65zM281 631h528v49
q1 28 -2.5 56t-18.5 66t-40 67.5t-73 54t-112 32.5h-10q-74 0 -133 -38q-67 -38 -103 -99.5t-36 -138.5v-49z" />
    <glyph glyph-name="ecircumflex" unicode="&#xea;" horiz-adv-x="1081" 
d="M309 1247h-45q-26 0 -47 21q-18 21 -18 73v9q0 29 24 53l4 4l262 195q37 26 86 26q50 0 87 -26l266 -199q24 -24 24 -53v-7q0 -49 -22 -71q-22 -25 -64 -25h-30q-43 0 -74 25q-131 100 -193 143l-41 -31q-42 -36 -145 -112q-31 -25 -74 -25zM305 51q-115 65 -184.5 178
t-69.5 238v213q0 129 68 244q66 108 184 172.5t250 64.5h16q210 -15 334.5 -146t124.5 -335v-225q-3 -14 -10 -22.5t-19 -12t-20 -4t-23 -0.5h-673q10 -35 25.5 -67t45.5 -71.5t81.5 -63.5t117.5 -24q79 0 131.5 12t69 23t39.5 33q14 14 32 29q26 16 54 16q45 0 102 -57
l29 -29l-23 -27q-71 -77 -121 -110q-48 -38 -130 -66t-169 -28h-14q-133 0 -248 65zM281 631h528v49q1 28 -2.5 56t-18.5 66t-40 67.5t-73 54t-112 32.5h-10q-74 0 -133 -38q-67 -38 -103 -99.5t-36 -138.5v-49z" />
    <glyph glyph-name="edieresis" unicode="&#xeb;" horiz-adv-x="1081" 
d="M262 1374v176q0 62 86 62h25q4 0 13.5 -1t14.5 -1h7q86 0 86 -74v-264h-105q-49 0 -88 31t-39 71zM860 1272h-104q-49 0 -88 31t-39 71v176q0 62 86 62h22q5 0 14.5 -1t14.5 -1h6q88 0 88 -74v-264zM305 51q-115 65 -184.5 178t-69.5 238v213q0 129 68 244
q66 108 184 172.5t250 64.5h16q210 -15 334.5 -146t124.5 -335v-225q-3 -14 -10 -22.5t-19 -12t-20 -4t-23 -0.5h-673q10 -35 25.5 -67t45.5 -71.5t81.5 -63.5t117.5 -24q79 0 131.5 12t69 23t39.5 33q14 14 32 29q26 16 54 16q45 0 102 -57l29 -29l-23 -27
q-71 -77 -121 -110q-48 -38 -130 -66t-169 -28h-14q-133 0 -248 65zM281 631h528v49q1 28 -2.5 56t-18.5 66t-40 67.5t-73 54t-112 32.5h-10q-74 0 -133 -38q-67 -38 -103 -99.5t-36 -138.5v-49z" />
    <glyph glyph-name="icircumflex" unicode="&#xee;" horiz-adv-x="849" 
d="M90 1382l260 195q39 27 88 27q47 0 86 -27l264 -197q25 -25 25 -55v-6q6 -44 -20 -72q-22 -22 -64 -22h-33q-44 0 -71 22q-170 130 -193 146q-5 -5 -41 -33q-13 -10 -60 -47t-85 -66q-28 -22 -74 -22h-45q-27 0 -49 18q-22 26 -17 74v8q0 30 25 55zM522 -2h-102
q-53 0 -90 35t-37 84v858q0 38 39 69t88 31h102v-1077z" />
    <glyph glyph-name="idieresis" unicode="&#xef;" horiz-adv-x="518" 
d="M231 1231h-104q-50 0 -88.5 30t-38.5 70v176q0 62 86 62h23h30h4q50 0 69 -23t19 -53v-262zM516 1231h-106q-48 0 -86.5 30.5t-38.5 69.5v176q0 62 86 62h22h29h6q50 0 69 -23t19 -53v-262zM383 -2h-102q-53 0 -90 35t-37 84v856q0 38 39 69t88 31h102v-1075z" />
    <glyph glyph-name="ocircumflex" unicode="&#xf4;" horiz-adv-x="1159" 
d="M311 1239h-47q-29 0 -47 18q-18 21 -18 74q2 2 2 8q0 31 22 56l4 2l262 194q39 27 86 27q48 0 87 -27l266 -196q24 -24 24 -56v-6q0 -49 -20 -71q-26 -23 -66 -23h-30q-45 0 -74 23q-131 100 -193 143l-41 -31q-92 -73 -145 -112q-29 -23 -72 -23zM592 -16h-17
q-138 0 -259 70.5t-189 189.5q-70 124 -70 252v168q0 135 68.5 250t189.5 182q118 65 260 65h17q135 0 258.5 -68.5t189.5 -179.5q70 -119 70 -249v-168q0 -129 -71 -250t-189 -193q-120 -69 -258 -69zM291 664v-168q0 -64 28 -120.5t70.5 -93t91.5 -58t94 -21.5h17
q120 0 202.5 92t82.5 201v168q0 126 -84.5 206t-190.5 80h-27q-120 0 -202 -89.5t-82 -196.5z" />
    <glyph glyph-name="divide" unicode="&#xf7;" 
d="M584 1079h28h6q51 0 70 -23t19 -52v-224h-105q-49 0 -88 31t-39 70v137q0 61 86 61h23zM1122 471v94q1 49 -36.5 80.5t-100.5 34.5h-934v-94q1 -40 25.5 -67.5t53.5 -37.5t58 -10h934zM612 381h6q51 0 70 -23t19 -53v-223h-105q-49 0 -88 31t-39 69v137q0 62 86 62h23h28
z" />
    <glyph glyph-name="ucircumflex" unicode="&#xfb;" horiz-adv-x="1110" 
d="M311 1239h-47q-29 0 -47 18q-18 21 -18 74q2 2 2 8q0 31 22 56l4 2l262 194q39 27 86 27q48 0 87 -27l266 -196q24 -24 24 -56v-6q0 -49 -20 -71q-26 -23 -66 -23h-30q-45 0 -74 23q-131 100 -193 143l-41 -31q-92 -73 -145 -112q-29 -23 -72 -23zM559 -20q-53 0 -94 6
q-161 28 -242 106q-81 73 -124 169.5t-42 203.5l6 688h111q50 0 84.5 -33t34.5 -80l-6 -575q0 -134 65 -199q69 -69 201 -69q142 0 213 65q68 71 68 203l-7 575q0 47 34.5 80t84.5 33h111l6 -688q0 -98 -33 -186q-93 -248 -381 -293q-37 -6 -90 -6z" />
    <glyph glyph-name="circumflex" unicode="&#x2c6;" horiz-adv-x="849" 
d="M160 1239h-47q-29 0 -47 18q-19 22 -19 74q2 2 2 8q0 30 23 56l4 2l262 194q39 27 86 27t86 -27l266 -196q25 -25 25 -56v-6q0 -48 -21 -71q-26 -23 -65 -23h-31q-45 0 -74 23q-143 108 -192 143l-41 -31q-79 -63 -146 -112q-29 -23 -71 -23z" />
    <glyph glyph-name="caron" unicode="&#x2c7;" horiz-adv-x="849" 
d="M696 1567h31q41 0 64 -23q22 -22 22 -71v-7q0 -26 -25 -55l-4 -2l-262 -195q-37 -26 -86 -26t-86 26l-266 197q-23 26 -23 55l-2 9q0 51 19 73q19 19 47 19h47q43 0 72 -23q53 -39 145 -112l41 -31q62 43 193 143q29 23 73 23z" />
    <glyph glyph-name="breve" unicode="&#x2d8;" horiz-adv-x="804" 
d="M743 1636l7 -26q11 -45 -2 -94t-48 -91q-49 -64 -126.5 -99.5t-170.5 -37.5h-6q-98 1 -178 46.5t-125 107.5q-68 90 -43 170l8 24h199l4 -32q12 -101 135 -101h6q132 0 134 99v34h206z" />
    <glyph glyph-name="dotaccent" unicode="&#x2d9;" horiz-adv-x="309" 
d="M236 1509q36 -15 36 -65v-262h-104q-49 0 -88 31t-39 69v176q0 62 86 62h23h30h4q34 0 52 -11z" />
    <glyph glyph-name="ring" unicode="&#x2da;" horiz-adv-x="567" 
d="M236 1556h86q86 0 152.5 -63.5t66.5 -146.5v-256q0 -83 -66.5 -147t-152.5 -64h-86q-85 0 -151.5 64t-66.5 147v256q0 83 66.5 146.5t151.5 63.5zM319 1090v256q0 4 -2 6h-75v-6v-256v-5h75q2 0 2 5z" />
    <glyph glyph-name="ogonek" unicode="&#x2db;" horiz-adv-x="1597" 
 />
    <glyph glyph-name="hungarumlaut" unicode="&#x2dd;" horiz-adv-x="665" 
d="M334 1493q18 -24 6 -59l-90 -252h-94q-64 0 -93 43q-22 36 -8 69l62 174q16 52 94 52h22h29h6q48 0 66 -27zM543 1520h6q47 0 65 -27q19 -25 7 -59l-91 -252h-94q-60 0 -92 43q-20 33 -8 69l61 174q18 52 95 52h22h29z" />
    <glyph glyph-name="endash" unicode="&#x2013;" horiz-adv-x="864" 
d="M879 596q47 -30 47 -88v-94l-324 -4l-373 2q-47 0 -91.5 29.5t-45.5 86.5v97l696 -2q57 -3 91 -27z" />
    <glyph glyph-name="emdash" unicode="&#x2014;" horiz-adv-x="1546" 
d="M1473 596q47 -30 47 -88v-94l-1024 -4l-328 2q-47 0 -91.5 29.5t-45.5 86.5v97l1351 -2q57 -3 91 -27z" />
    <glyph glyph-name="quoteleft" unicode="&#x2018;" horiz-adv-x="319" 
d="M211 1456q-6 0 -8 -2q-6 -6 -6 -20q94 -14 94 -105v-143q0 -64 -90 -64h-25h-29h-6q-90 0 -90 80v197q0 162 197 162h35v-48q0 -25 -20 -41t-52 -16z" />
    <glyph glyph-name="quoteright" unicode="&#x2019;" horiz-adv-x="319" 
d="M125 1229q6 0 8 2q6 6 6 22q-96 12 -96 103v143q0 64 92 64h23h30h5q92 0 92 -80v-197q0 -162 -197 -162h-35v47q0 25 20 41.5t52 16.5z" />
    <glyph glyph-name="quotesinglbase" unicode="&#x201a;" horiz-adv-x="317" 
d="M121 -29q6 0 8 2q6 6 6 23q-96 12 -96 102v144q0 63 92 63h23h30h4q93 0 93 -80v-196q0 -162 -197 -162h-35v47q0 25 20 41t52 16z" />
    <glyph glyph-name="quotedblleft" unicode="&#x201c;" horiz-adv-x="577" 
d="M160 1456q-6 0 -8 -2q-7 -7 -7 -22q97 -12 97 -103v-143q0 -64 -92 -64h-23h-31h-4q-92 0 -92 80v197q0 162 197 162h34v-48q0 -25 -19.5 -41t-51.5 -16zM524 1456q-6 0 -8 -2q-6 -6 -6 -20q94 -14 94 -105v-143q0 -64 -90 -64h-25h-28h-6q-90 0 -90 80v197
q0 162 196 162h35v-48q0 -25 -20 -41t-52 -16z" />
    <glyph glyph-name="quotedblright" unicode="&#x201d;" horiz-adv-x="577" 
d="M80 1229q6 0 8 2q6 6 6 20q-94 14 -94 105v143q0 64 90 64h25h28h7q90 0 90 -80v-197q0 -162 -197 -162h-35v47q0 25 20 41.5t52 16.5zM444 1229q7 0 9 2q6 6 6 22q-97 12 -97 103v143q0 64 93 64h22h31h4q92 0 92 -80v-197q0 -162 -196 -162h-35v47q0 25 19.5 41.5
t51.5 16.5z" />
    <glyph glyph-name="quotedblbase" unicode="&#x201e;" horiz-adv-x="577" 
d="M80 -29q6 0 8 2q6 6 6 21q-94 14 -94 104v144q0 63 90 63h25h28h7q90 0 90 -80v-196q0 -162 -197 -162h-35v47q0 25 20 41t52 16zM444 -29q7 0 9 2q6 6 6 23q-97 12 -97 102v144q0 63 93 63h22h31h4q92 0 92 -80v-196q0 -162 -196 -162h-35v47q0 25 19.5 41t51.5 16z" />
    <glyph glyph-name="dagger" unicode="&#x2020;" 
d="M1079 1102q47 -30 47 -88v-94l-428 -2v-27l-2 -1038q0 -30 -11 -60t-38.5 -54.5t-66.5 -25.5h-97l2 1202h-292q-29 0 -58.5 10.5t-54 38.5t-25.5 68v96h430v215q1 61 32 98.5t77 37.5h100l2 -351h293q57 -3 90 -26z" />
    <glyph glyph-name="daggerdbl" unicode="&#x2021;" 
d="M698 891l-2 -584l293 -2q63 -1 101 -32.5t36 -79.5v-97h-430v-209q0 -30 -11 -59.5t-38.5 -54t-66.5 -25.5h-97v346h-290q-47 0 -92 30t-46 87v96h428l2 608h-292q-29 0 -58.5 10.5t-54 38.5t-25.5 68v96h430v215q1 61 32 98.5t77 37.5h100l2 -351h293q63 -3 100.5 -34
t36.5 -80v-94l-428 -2v-27z" />
    <glyph glyph-name="bullet" unicode="&#x2022;" horiz-adv-x="679" 
d="M412 1016q132 0 225.5 -93t93.5 -218t-93.5 -218.5t-225.5 -93.5q-130 0 -225 93.5t-95 218.5t95 218t225 93z" />
    <glyph glyph-name="ellipsis" unicode="&#x2026;" horiz-adv-x="899" 
d="M197 0h-105q-49 0 -88 31t-39 69v138q0 61 86 61h23h28h7q50 0 69 -23t19 -53v-223zM465 299h6q31 0 49 -10q39 -17 39 -66v-223h-106q-47 0 -86 31t-39 69v138q0 61 86 61h22h29zM844 299h6q86 0 86 -76v-223h-105q-49 0 -87.5 31t-38.5 69v138q0 61 86 61h24h29z" />
    <glyph glyph-name="perthousand" unicode="&#x2030;" horiz-adv-x="1634" 
d="M213 1462h47q85 0 151 -63.5t66 -145.5v-260q0 -82 -66 -145.5t-151 -63.5h-47q-83 0 -150 64.5t-67 144.5v260q0 80 67 144.5t150 64.5zM807 850l-598 -748q-28 -29 -59.5 -45t-83.5 -16h-172l534 676q2 2 6.5 8.5t7.5 9.5l533 664q55 59 141 59h174l-469 -586
q-5 -10 -14 -22zM256 1253v4h-35q-2 -2 -2 -4v-262l37 2v260zM850 674h45q86 0 151.5 -63t65.5 -146v-258q0 -82 -65.5 -145.5t-151.5 -63.5h-45q-86 0 -151.5 63.5t-65.5 145.5v258q0 83 65.5 146t151.5 63zM1382 674h45q86 0 152 -63t66 -146v-258q0 -82 -66 -145.5
t-152 -63.5h-45q-86 0 -151.5 63.5t-65.5 145.5v258q0 83 65.5 146t151.5 63zM891 465v4h-35v-4v-258v-4h35v4v258zM1423 465v4h-34v-4v-258v-4h34v4v258z" />
    <glyph glyph-name="guilsinglleft" unicode="&#x2039;" horiz-adv-x="835" 
d="M760 829l-330 -198l307 -211l13 -10v-19q-3 -43 -45.5 -73.5t-98.5 -30.5q-48 0 -76 18l-340 230q-19 11 -34 26l-4 4q-4 4 -5 4q-10 15 -14 23l-2 2q-8 19 -8 37q0 17 8 37q12 25 27 37q11 11 26 20l9 6l350 211q36 19 73 19q56 0 98.5 -32.5t43.5 -76.5z" />
    <glyph glyph-name="guilsinglright" unicode="&#x203a;" horiz-adv-x="835" 
d="M123 829l2 23q1 44 43 76.5t98 32.5q38 0 74 -19l350 -211l8 -6q18 -10 27 -20q15 -12 27 -37q8 -20 8 -37q0 -18 -8 -37l-2 -2q-1 -2 -15 -23l-4 -4l-4 -4q-14 -14 -35 -26l-340 -230q-28 -18 -76 -18q-56 0 -98 30.5t-45 73.5v19l12 10l308 211z" />
    <glyph glyph-name="fraction" unicode="&#x2044;" horiz-adv-x="1505" 
d="M1464 1501l-538 -674l-13 -18l-598 -748q-28 -29 -59.5 -45t-83.5 -16h-172l537 674l12 18l600 748q26 29 57.5 45t83.5 16h174z" />
    <glyph glyph-name="Euro" unicode="&#x20ac;" horiz-adv-x="1284" 
d="M1133 362l30 -26q6 -6 15.5 -14.5t13.5 -13t11 -11t10 -10.5t7.5 -9t6.5 -8.5t4.5 -8t3 -9t0.5 -8.5q0 -39 -39 -78q-85 -86 -198.5 -136t-223.5 -50q-228 0 -352 128t-133 377h-105q-48 0 -85.5 27t-37.5 74v108h228v62h-27q-131 0 -131 102v109h158v77q0 138 61 253.5
t168 179.5q111 65 254 65q184 0 291 -69q62 -43 104 -87l2 -4l25 -26q23 -38 23 -72q0 -45 -37 -74l-90 -59q-3 -2 -8.5 -4.5t-16.5 0.5t-16 18q-37 89 -102.5 129.5t-172.5 40.5q-148 0 -221 -129q-37 -64 -37 -162v-77h299q46 0 80.5 -29.5t34.5 -79.5v-102h-414v-62h180
q46 0 80.5 -28.5t34.5 -79.5v-101h-295q7 -154 70.5 -225.5t187.5 -71.5q168 0 322 154q20 20 37 20z" />
    <glyph glyph-name="trademark" unicode="&#x2122;" horiz-adv-x="2146" 
d="M1331 1438h68q25 0 43 -22t18 -62v-475q0 -25 -17 -42.5t-42 -17.5h-62v215l-53 -172q-18 -43 -61 -43q-22 0 -39 12.5t-23 32.5l-49 172v-217h-57q-25 0 -42.5 17.5t-17.5 42.5v475q0 33 16.5 54.5t41.5 27.5v6l2 -6q6 2 20 2h47l101 -353zM680 1438h223q25 0 43.5 -16
t18.5 -36v-59h-115v-508h-57q-25 0 -43.5 18.5t-18.5 41.5v448h-115v59q0 22 19.5 37t44.5 15z" />
    <glyph glyph-name="partialdiff" unicode="&#x2202;" horiz-adv-x="1597" 
 />
    <glyph glyph-name="emptyset" unicode="&#x2205;" horiz-adv-x="1173" 
d="M874 1178q8 -23 5 -41q104 -60 168 -168q71 -121 71 -250v-189q0 -131 -71 -251.5t-189 -190.5q-124 -70 -258 -70h-16q-10 0 -72 5l-29 -70l-139 59q-36 15 -49 51q-8 15 -4 41q-105 61 -170 168q-70 121 -70 250v189q0 130 70.5 250t189.5 192q121 70 258 70h17
q34 0 71 -6l29 71l139 -59q38 -18 49 -51zM586 1004h-15l-28 -3q-125 -18 -203 -141q-41 -66 -41 -141v-189q0 -110 70 -186zM870 522v189q0 108 -69 186l-217 -659h16l27 2q124 19 202 141q41 66 41 141z" />
    <glyph glyph-name="product" unicode="&#x220f;" 
d="M1065 1616q47 -30 47 -88v-94h-111l-2 -281v-1427q-3 -62 -33 -100t-77 -38h-98l-5 1645v197h-419l-2 -277v-1427q-1 -61 -32 -99.5t-77 -38.5h-100l-4 1645l2 201q-44 7 -78 36t-35 78v97l934 -3q57 -3 90 -26z" />
    <glyph glyph-name="summation" unicode="&#x2211;" horiz-adv-x="1128" 
d="M51 82v4q-6 24 -6 33q0 46 35 76l520 536l-440 524q-25 31 -25 72q0 13 6 37l4 8q12 28 43.5 47t63.5 19h696q44 0 75.5 -36.5t31.5 -78.5v-106l-561 -3l352 -419q26 -37 26 -72q0 -42 -34 -76l-406 -418l516 2q44 0 82.5 -35.5t38.5 -78.5v-107l-905 -2
q-32 0 -64.5 19.5t-46.5 46.5z" />
    <glyph glyph-name="minus" unicode="&#x2212;" 
d="M92 657l981 -2q61 -2 107 -30t49 -90v-125l-705 -4l-274 2q-22 0 -46 6t-50 20t-43.5 42.5t-18.5 66.5v114z" />
    <glyph glyph-name="radical" unicode="&#x221a;" horiz-adv-x="1511" 
d="M770 -403h-96q-87 0 -133 112l-244 524l-170 -104l-18 29q-12 16 -41 63q-29 43 -19 92q9 45 55 74l181 111q26 16 63 16q30 0 62.5 -15t48.5 -40l2 -4l51 -105l-2 -2l154 -330l536 1442l43 119h4q33 55 92 55q31 0 66 -14l96 -47l-59 -160z" />
    <glyph glyph-name="infinity" unicode="&#x221e;" horiz-adv-x="1480" 
d="M469 164h-16q-158 0 -274 113t-116 268v155q0 155 116 269t274 114h16q76 0 149 -29.5t127 -82.5q56 53 129 82.5t148 29.5h14q158 0 274.5 -114t116.5 -269v-155q0 -155 -116.5 -268t-274.5 -113h-14q-75 0 -148 30.5t-129 84.5q-54 -54 -127 -84.5t-149 -30.5zM305 700
v-155q0 -62 45 -109t103 -47h16q60 0 104.5 47t44.5 109v155q0 63 -44.5 109.5t-104.5 46.5h-16q-60 0 -104 -46.5t-44 -109.5zM872 700v-155q0 -62 45 -109t105 -47h14q61 0 104.5 45.5t43.5 110.5v155q0 65 -43.5 110.5t-104.5 45.5h-14q-61 0 -105.5 -46.5t-44.5 -109.5z
" />
    <glyph glyph-name="integral" unicode="&#x222b;" horiz-adv-x="1597" 
 />
    <glyph glyph-name="approxequal" unicode="&#x2248;" horiz-adv-x="1054" 
d="M897 1075q53 0 82 -59q20 -30 15.5 -88.5t-42.5 -108.5q-31 -42 -111.5 -64t-140.5 -22q-51 0 -182 27q-152 26 -192 26q-32 0 -46.5 -5t-17 -11t-2.5 -20v-91h-102q-54 0 -84 41q-23 30 -29 75t4 77q13 41 37.5 70.5t47.5 43.5t56 21.5t49.5 8.5t41.5 1h28q63 0 219 -24
q161 -23 197 -23t43.5 7t7.5 38v72l31 4l4 1q4 0 11.5 0.5t17.5 1t25 1t32 0.5zM897 606q53 0 82 -59q12 -24 15.5 -55t-6.5 -70t-36 -74q-31 -42 -111 -63t-141 -21q-40 0 -182 25q-140 28 -192 28q-32 0 -46.5 -5t-17 -11.5t-2.5 -21.5v-89h-102q-54 0 -84 41
q-23 29 -29 74.5t4 77.5q13 41 37.5 70.5t47.5 43.5t56 21.5t49.5 8.5t41.5 1h28q63 0 219 -24q161 -23 197 -23t43.5 7t7.5 38v70l31 6h4q4 1 11.5 1.5t17.5 1t25 1t32 0.5z" />
    <glyph glyph-name="notequal" unicode="&#x2260;" 
d="M786 612l-53 -141h342q58 -2 104.5 -30t49.5 -89v-127l-584 -4l-115 -321h-2q-15 -42 -52.5 -78.5t-100.5 -36.5h-158l160 436l-127 2q-22 0 -46 6t-50 20t-43.5 42.5t-18.5 66.5v115l377 -2l51 139l-270 2q-22 0 -46 6.5t-50 20.5t-43.5 42.5t-18.5 66.5v114l520 -2
l146 385q0 1 5 12.5t8 17.5t10.5 18.5t14 20.5t18 18t24 16t29.5 10t36 4h168l-190 -502h194q58 -2 104.5 -30t49.5 -89v-127z" />
    <glyph glyph-name="lessequal" unicode="&#x2264;" horiz-adv-x="1077" 
d="M47 891q13 32 43 53v2l688 381q33 16 76 16q56 0 98 -30.5t45 -73.5l2 -22l-620 -361l610 -397l-2 -21q-3 -42 -45.5 -73t-97.5 -31q-38 0 -76 18l-664 410q-20 12 -32 24l-2 5l-7 6q-8 12 -14 20v4q-8 19 -8 39q0 17 6 31zM61 4l813 -2q29 0 59.5 11t55 39t25.5 67v94
h-815q-63 -1 -101.5 -33t-36.5 -80v-96z" />
    <glyph glyph-name="greaterequal" unicode="&#x2265;" horiz-adv-x="1077" 
d="M1008 891q6 -14 6 -31q0 -20 -8 -39v-4l-15 -20l-6 -6l-2 -5q-11 -11 -33 -24l-663 -410q-37 -18 -76 -18q-55 0 -97.5 31t-45.5 73l-2 21l610 397l-621 361l2 22q3 43 45.5 73.5t98.5 30.5q42 0 75 -16l689 -381v-2q30 -21 43 -53zM993 4v96q2 48 -36.5 80t-100.5 33
h-815v-94q1 -57 46 -87t93 -30z" />
    <glyph glyph-name="lozenge" unicode="&#x25ca;" horiz-adv-x="1597" 
 />
    <glyph glyph-name="notdef.001" horiz-adv-x="1228" 
 />
    </font>
</defs>
</svg>
