<?xml version="1.0" standalone="no"?>
<!DOCTYPE svg PUBLIC "-//W3C//DTD SVG 1.1//EN" "http://www.w3.org/Graphics/SVG/1.1/DTD/svg11.dtd" >
<svg xmlns="http://www.w3.org/2000/svg" xmlns:xlink="http://www.w3.org/1999/xlink" version="1.1">
<metadata>
Created by FontForge 20170731 at Wed Nov 24 22:04:18 2021
 By Aleksey,,,
copyright missing
</metadata>
<defs>
<font id="Rhetoric-Light" horiz-adv-x="1177" >
  <font-face 
    font-family="Rhetoric Light"
    font-weight="300"
    font-stretch="normal"
    units-per-em="2048"
    panose-1="0 0 4 0 0 0 0 0 0 0"
    ascent="1638"
    descent="-410"
    x-height="1061"
    cap-height="1554"
    bbox="105.273 -416 2046 2022.44"
    underline-thickness="102"
    underline-position="-204"
    unicode-range="U+0020-25CA"
  />
<missing-glyph horiz-adv-x="1597" 
 />
    <glyph glyph-name=".notdef" horiz-adv-x="1597" 
 />
    <glyph glyph-name=".null" horiz-adv-x="0" 
 />
    <glyph glyph-name="nonmarkingreturn" horiz-adv-x="682" 
 />
    <glyph glyph-name="space" unicode=" " horiz-adv-x="471" 
 />
    <glyph glyph-name="exclam" unicode="!" horiz-adv-x="309" 
d="M174 418v1063q1 -4 35 -4h41q18 0 23.5 -2t5.5 -9v-1085h-41q-22 0 -43 14t-21 23zM174 70v141q0 -4 35 -4h41h14.5t8.5 -1t5 -3t1 -6v-164h-41q-22 0 -43 14t-21 23z" />
    <glyph glyph-name="quotedbl" unicode="&#x22;" horiz-adv-x="497" 
d="M174 1409v-6v6zM379 1409v-6v6zM233 1391l23 -332q-21 3 -39 15.5t-18 21.5v2l-25 305h31q19 0 23.5 -1.5t4.5 -10.5zM438 1391l23 -332q-22 3 -40 16t-18 21v2l-24 305h31q18 0 23 -1.5t5 -10.5zM256 1059h6h-6zM461 1059h6h-6z" />
    <glyph glyph-name="numbersign" unicode="#" horiz-adv-x="1185" 
d="M942 885h139q77 -3 74 -49v-33l-219 -2l-16 -168l-9 -117h170q74 -3 74 -49v-33l-254 -2l-27 -330q0 -27 -13.5 -50.5t-41.5 -24.5h-28l34 405l-145 -2h-229l-27 -328q0 -27 -13.5 -50.5t-41.5 -24.5h-29l35 405h-125q-28 0 -51.5 13.5t-24.5 41.5v31h209l4 74l21 209
h-158q-27 0 -51 13.5t-25 41.5v31l240 -2l30 315q0 27 14 51t42 25h28l-36 -391h372l31 315q0 27 13.5 51t41.5 25h29zM680 799h-197l-14 -166l-8 -117h373l4 76l20 209z" />
    <glyph glyph-name="dollar" unicode="$" horiz-adv-x="1183" 
d="M702 1599v-120q107 -4 186.5 -32.5t138.5 -80.5t114 -137l-39 -41q-11 -9 -25.5 -4.5t-25.5 17.5t-29.5 33t-36.5 42t-47 44t-60.5 40t-77.5 30t-98 13v-619q49 -17 77 -27t72 -27t70 -31.5t60 -34.5t53.5 -40.5t38 -46.5t27 -56t8.5 -64q0 -203 -115.5 -321.5
t-290.5 -131.5v-115h-20q-22 0 -43 14t-21 23v78q-133 8 -232.5 55.5t-188.5 161.5l55 43q19 9 43 -20q62 -69 148.5 -107.5t174.5 -40.5v623q-67 23 -113 42t-98 50t-83 65t-51.5 83.5t-20.5 109.5q1 174 105 283t261 127v84q0 9 20.5 22.5t43.5 13.5h20zM618 815l3 590
q-123 -14 -203 -110t-80 -232q0 -46 22.5 -85t65.5 -69t87.5 -51t104.5 -43zM702 688v-592q126 0 217.5 94.5t92.5 249.5q0 40 -19 74t-45.5 57.5t-72 47t-81.5 37t-92 32.5z" />
    <glyph glyph-name="percent" unicode="%" horiz-adv-x="1435" 
d="M516 1366h47q63 0 110.5 -46t47.5 -103v-269q0 -57 -47.5 -103t-110.5 -46h-47q-61 0 -109.5 46.5t-48.5 102.5v269q0 56 48.5 102.5t109.5 46.5zM973 860l-15 -20l-616 -770q-20 -21 -39 -30t-57 -9h-39l469 590q2 5 12 18l549 684q22 22 40 30.5t56 8.5h37zM563 1288
h-47q-21 0 -41 -22t-20 -49v-269q0 -27 19.5 -48t41.5 -21h47q24 0 44 21t20 48v269q0 27 -20 49t-44 22zM969 551h47q62 0 110 -46t48 -104v-266q0 -58 -48 -103.5t-110 -45.5h-47q-62 0 -110 45.5t-48 103.5v266q0 58 48 104t110 46zM1016 473h-47q-23 0 -42.5 -22
t-19.5 -50v-266q0 -29 19 -50.5t43 -21.5h47q22 0 42.5 22.5t20.5 49.5v266q0 27 -20.5 49.5t-42.5 22.5z" />
    <glyph glyph-name="ampersand" unicode="&#x26;" horiz-adv-x="1257" 
d="M600 1452q158 4 248 -90t92 -225v-56q0 -13 -17 -28t-34 -15h-47v103q0 28 -7 58.5t-24.5 63.5t-43.5 58.5t-67.5 42t-93.5 16.5q-102 0 -176 -81t-74 -173q0 -93 67.5 -161t139.5 -68h199v-51q0 -17 -15 -26t-38 -9h-164q-82 0 -191 -121q-70 -84 -73 -213v-76
q0 -133 94 -231.5t221 -101.5h160q114 6 213 108q31 33 54.5 94.5t23.5 132.5q0 94 -41 177l-150 -111l-41 49q-24 33 16 64l359 245l31 -43q21 -40 -17 -63l-123 -92q33 -16 51 -80t16.5 -142.5t-29.5 -162.5t-79 -133l-14 -17q-111 -114 -285 -114h-12l-123 2
q-113 0 -176.5 28.5t-126.5 93.5q-129 123 -129 297v76q0 119 64 223q68 104 192 162q-78 41 -123 113q-45 71 -45 153v17q0 115 101.5 211t236.5 96z" />
    <glyph glyph-name="quotesingle" unicode="'" horiz-adv-x="288" 
d="M174 1409v-6v6zM233 1391l23 -332q-21 3 -39 15.5t-18 21.5v2l-25 305h31q19 0 23.5 -1.5t4.5 -10.5zM256 1059h6h-6z" />
    <glyph glyph-name="parenleft" unicode="(" horiz-adv-x="626" 
d="M596 1599v-24q0 -25 -23.5 -41t-42.5 -16q-117 0 -186.5 -89t-69.5 -217v-1028q0 -128 69.5 -216.5t186.5 -88.5q19 0 42.5 -16t23.5 -41v-25q-8 0 -29 -0.5t-41.5 -0.5t-38.5 1q-147 10 -230 119t-83 268l2 514l-2 514q0 159 83 268t230 119q18 1 39 1t42 -0.5t28 -0.5z
" />
    <glyph glyph-name="parenright" unicode=")" horiz-adv-x="626" 
d="M283 1599q147 -10 230 -119t83 -268l-2 -514l2 -514q0 -159 -83 -268t-230 -119q-18 -1 -39 -1t-42 0.5t-28 0.5v25q0 25 23.5 41t42.5 16q117 0 186.5 88.5t69.5 216.5v1028q0 128 -69.5 217t-186.5 89q-19 0 -42.5 16t-23.5 41v24h109z" />
    <glyph glyph-name="asterisk" unicode="*" horiz-adv-x="772" 
d="M506 1288l147 123q8 8 26 4.5t30 -20.5l16 -21l-203 -164l209 -161l-4 -7q-14 -18 -37.5 -26.5t-30.5 -3.5l-153 110v-182h-19q-22 0 -42.5 14t-20.5 23v168l-162 -123q-9 -9 -32.5 -7.5t-34.5 17.5l-9 12l201 162l-182 150l16 24q13 16 35.5 20t32.5 -5l135 -109v180
q0 9 20.5 23t42.5 14h19v-215z" />
    <glyph glyph-name="plus" unicode="+" 
d="M702 592h369q79 -3 76 -49v-33l-442 -2v-94l-3 -275q0 -28 -13 -51.5t-42 -24.5h-29v443l-368 2q-27 0 -51 13.5t-25 41.5v31l444 -2v371q3 76 50 73h32z" />
    <glyph glyph-name="comma" unicode="," horiz-adv-x="309" 
d="M166 213h86h17t10 -1.5t6.5 -3.5t1.5 -7v-203q0 -40 -25 -54t-88 -14v19h6q21 0 36.5 2.5t24 7t14.5 9t7.5 12t2 11.5t0 11t-0.5 8h-26q-42 0 -57 7.5t-15 35.5v160z" />
    <glyph glyph-name="hyphen" unicode="-" horiz-adv-x="700" 
d="M174 573l420 -2q79 -3 76 -49v-33l-189 -2h-2q-10 -2 -33 -2h-88l-108 2q-27 0 -51 14t-25 42v30z" />
    <glyph glyph-name="period" unicode="." horiz-adv-x="350" 
d="M174 70v141q0 -3 6 -3.5t47 -0.5h18h20h26h14t8 -1t5 -3t1 -6v-164h-81q-22 0 -43 14t-21 23z" />
    <glyph glyph-name="slash" unicode="/" horiz-adv-x="854" 
d="M492 614l-185 -522q-11 -29 -27.5 -45t-50.5 -16h-41l291 786h-2l211 561q19 44 33 55q16 11 37 11h49z" />
    <glyph glyph-name="zero" unicode="0" horiz-adv-x="1062" 
d="M608 1475q119 0 213 -48q100 -52 155.5 -138t55.5 -195v-707q0 -116 -57 -201q-55 -89 -152.5 -140.5t-214.5 -51.5q-81 0 -178 33q-110 32 -183 123.5t-73 236.5v707q0 109 57 198q59 85 159 134t218 49zM608 1391q-86 0 -168 -43q-76 -39 -121 -109.5t-45 -144.5v-775
l586 920l2 2q4 12 4 23q0 37 -41 61q-42 30 -102.5 48t-114.5 18zM932 1169l-504 -763q-96 -161 -96 -177q9 -65 93.5 -108t182.5 -43q138 0 231 85.5t93 223.5v782z" />
    <glyph glyph-name="one" unicode="1" horiz-adv-x="772" 
d="M221 1436h238q28 0 38.5 -14t10.5 -27v-1264h184q11 0 19 -2q30 -7 30 -33v-69h-567v61q0 10 2 18q8 25 43 25h189v1221h-234v43q0 4 2 12q0 12 11.5 20.5t33.5 8.5z" />
    <glyph glyph-name="two" unicode="2" horiz-adv-x="1159" 
d="M705 1446q103 0 181 -25.5t123 -64.5t73 -92.5t37 -101t9 -99.5q0 -78 -29 -144t-77.5 -115t-111.5 -92t-132.5 -80.5t-139 -74.5t-132.5 -80t-111 -91t-76.5 -114t-27.5 -143l756 -2v-61q0 -14 -13 -25.5t-28 -11.5h-787q-19 0 -32 11.5t-13 25.5q0 102 29.5 188
t79.5 147.5t115 114t137 93t144 78t137 76t115 80t79.5 96t29.5 118.5q0 307 -333 307q-89 0 -170.5 -23.5t-140 -76t-58.5 -123.5q0 -31 -31 -31h-59q0 155 128.5 245.5t328.5 90.5z" />
    <glyph glyph-name="three" unicode="3" horiz-adv-x="1050" 
d="M598 1462h18q86 0 159 -28.5t121.5 -75t80.5 -108t40 -125t-5 -128t-49 -116.5q-13 -16 -30.5 -37.5t-24.5 -29t-16 -22t-11 -18t-2.5 -16t3 -17t10.5 -20t15 -26t23 -34.5t28 -45q49 -86 60.5 -175.5t-14 -165t-76.5 -136t-130 -95t-171 -34.5h-27q-84 2 -157 25.5
t-131.5 66.5t-93.5 113.5t-38 159.5h70q14 0 21.5 -7.5t7.5 -31.5q2 -48 21.5 -89t58.5 -76t106 -55t156 -20q64 0 118.5 21t91 56.5t62.5 82t32.5 97.5t2.5 101.5t-29 97t-61.5 82t-94.5 56.5t-129 21h-96q-18 0 -34.5 14.5t-16.5 28.5v37h147q90 0 159 32.5t103 84
t49 114.5t-3.5 125.5t-55.5 114t-106.5 84t-155.5 32.5q-25 0 -59 -5t-82.5 -21t-87.5 -41.5t-67 -72.5t-29 -108q0 -7 -7 -12.5t-16 -5.5h-76v4q0 61 25.5 120.5t74.5 111t131.5 83t186.5 31.5z" />
    <glyph glyph-name="four" unicode="4" horiz-adv-x="1064" 
d="M866 1444q27 0 41 -12v-957h113q10 0 12 -6t2 -35v-45h-127v-358h-41q-17 0 -34 16t-17 25v317h-598q-25 0 -31 8q-12 14 -12 31q0 13 14 41l627 942q20 33 51 33zM283 463l532 2v784z" />
    <glyph glyph-name="five" unicode="5" horiz-adv-x="1056" 
d="M227 1438h725q22 0 37 -10.5t15 -32.5v-35h-725v-340q128 145 317 145h20q168 0 289 -120.5t121 -282.5v-346q0 -106 -55.5 -198.5t-150.5 -148t-204 -55.5h-20q-69 0 -142 24t-135.5 66.5t-102.5 110t-40 145.5v66q0 14 13 29.5t26 15.5h51v-111q0 -50 25 -92.5t63 -69
t84 -45t86 -26.5t72 -8h20q76 0 147.5 44t115 113.5t43.5 139.5v346q0 122 -94 217.5t-212 95.5h-20q-116 0 -213 -84q-46 -37 -75 -90t-29 -108v-76h-52q-16 0 -34.5 17t-18.5 28v633q0 19 16.5 31t36.5 12z" />
    <glyph glyph-name="six" unicode="6" horiz-adv-x="1030" 
d="M578 1460q116 0 194 -33t115 -81q17 -23 21 -32.5t-0.5 -16t-22.5 -17.5l-43 -27l-2 2q-91 115 -265 115q-48 0 -88 -4.5t-81.5 -19t-70 -38.5t-47 -65t-18.5 -96v-117q57 66 137.5 102.5t172.5 36.5h18q80 0 156 -30t127 -84q118 -112 118 -277v-315q0 -25 -0.5 -42
t-4 -54t-10 -64.5t-20.5 -66.5t-33 -67.5t-49.5 -59.5t-68.5 -50.5t-91.5 -32t-117.5 -12.5h-24q-165 0 -285.5 115t-120.5 272v740q0 4 -0.5 11.5t1 29.5t6 43.5t17 51t30.5 54t49.5 50t71.5 43t99 27.5t130 9zM598 1085h-18q-122 0 -214 -92.5t-92 -216.5v-375
q0 -125 99 -216t223 -91q50 1 91.5 12t71 26.5t53.5 40t38.5 46.5t25.5 53.5t16 53.5t7.5 53t3 46t0.5 38v313q0 124 -91.5 216.5t-213.5 92.5z" />
    <glyph glyph-name="seven" unicode="7" horiz-adv-x="1208" 
d="M324 1432l823 2q30 0 31.5 -6t-19.5 -37l-801 -1307q-23 -34 -36.5 -43.5t-45.5 -9.5h-77l815 1308h-746v50q0 15 16.5 29t39.5 14z" />
    <glyph glyph-name="eight" unicode="8" horiz-adv-x="1011" 
d="M567 1468h21q158 0 275.5 -115t117.5 -272q0 -74 -31 -150t-86 -134q64 -69 90.5 -117.5t26.5 -118.5v-158q0 -160 -117.5 -277.5t-275.5 -117.5h-21q-162 0 -277.5 117t-115.5 278v158q0 72 25.5 119.5t91.5 118.5q-57 57 -87 131t-30 151v2q0 155 116 270t277 115z
M588 1389h-21q-119 0 -208 -91t-89 -215v-2q0 -62 26 -124t69 -105q88 55 202 55h21q107 0 198 -55q44 41 70.5 103.5t26.5 125.5v2q0 124 -88.5 215t-206.5 91zM588 823h-21q-168 0 -258 -151q-1 -2 -15.5 -22.5t-19 -38.5t-4.5 -50v-158q0 -129 88.5 -221t208.5 -92h21
q118 0 206.5 92t88.5 221v158q0 122 -87 192t-208 70z" />
    <glyph glyph-name="nine" unicode="9" horiz-adv-x="1030" 
d="M569 1460h25q165 0 285 -115t120 -272v-739q1 -7 1.5 -18.5t-4.5 -45.5t-16.5 -65t-40.5 -68t-70.5 -63.5t-112 -44t-160.5 -15.5q-116 0 -193.5 33.5t-115.5 81.5q-17 23 -21 32.5t0.5 16t22.5 17.5l43 26l2 -2q91 -115 264 -115q305 0 305 224v116q-57 -66 -137 -102.5
t-172 -36.5h-19q-79 0 -154.5 30t-127.5 85q-119 113 -119 276v316q0 448 395 448zM578 1380q-63 -2 -113.5 -19t-82 -40t-54.5 -59.5t-33.5 -66t-16.5 -71t-7 -62t-1 -50.5v-314q0 -124 91.5 -216.5t213.5 -92.5h19q122 0 213.5 92.5t91.5 216.5v375q0 125 -98.5 216
t-222.5 91z" />
    <glyph glyph-name="colon" unicode=":" horiz-adv-x="309" 
d="M174 913v142q1 -4 35 -4h41q18 0 23.5 -2t5.5 -9v-163h-41q-23 0 -43.5 13.5t-20.5 22.5zM174 68v141q0 -4 35 -4h41h14.5t8.5 -1t5 -3t1 -6v-164h-41q-22 0 -43 14t-21 23z" />
    <glyph glyph-name="semicolon" unicode=";" horiz-adv-x="309" 
d="M174 913v142q0 -4 35 -4h41q18 0 23.5 -2t5.5 -9v-163h-41q-23 0 -43.5 13.5t-20.5 22.5zM166 213h86h17t10 -1.5t6.5 -3.5t1.5 -7v-203q0 -40 -25 -54t-88 -14v19h6q21 0 36.5 2.5t24 7t14.5 9t7.5 12t2 11.5t0 11t-0.5 8h-26q-42 0 -57 7.5t-15 35.5v160z" />
    <glyph glyph-name="less" unicode="&#x3c;" horiz-adv-x="1122" 
d="M1112 209h14q-17 -23 -51 -32t-76 7q-597 365 -631 389q-30 20 -32 29q-4 8 2 19q9 12 75.5 58t577.5 392q40 17 73 10t48 -28l-612 -437h10l-12 -2l-11 -6z" />
    <glyph glyph-name="equal" unicode="=" 
d="M174 780l899 -2q77 -3 74 -49v-33l-623 -4l-274 2q-27 0 -51 14t-25 42v30zM174 391l899 -2q77 -3 74 -49v-33l-623 -4l-274 2q-28 0 -51.5 13.5t-24.5 41.5v31z" />
    <glyph glyph-name="greater" unicode="&#x3e;" horiz-adv-x="1122" 
d="M1124 621q6 -11 2 -19q-2 -11 -63.5 -50t-327.5 -202q-52 -31 -83 -50t-85 -52.5t-104 -63.5q-42 -16 -76 -7t-51 32h14l625 399l-10 6l-13 2h11l-613 437q15 21 48 28t73 -10q511 -346 577.5 -392t75.5 -58z" />
    <glyph glyph-name="question" unicode="?" horiz-adv-x="952" 
d="M514 1585h21q163 0 275 -117t112 -278q0 -87 -25.5 -153t-66 -106.5t-89.5 -73.5t-98.5 -64t-90 -67t-66 -93.5t-25.5 -132.5v-133h-25q-58 0 -63 59v59q0 81 20 145t52.5 104t74.5 75t85.5 59t85.5 55t74.5 63.5t52.5 84.5t20 117q0 72 -28.5 133t-74 99.5t-104 60
t-117 21.5t-115 -23.5t-96.5 -69.5q-6 -8 -16 -15t-30 -13t-38 8l-33 24q118 172 328 172zM362 70v141q0 -4 35 -4h41h14.5t8.5 -1t5 -3t1 -6v-164h-41q-22 0 -43 14t-21 23z" />
    <glyph glyph-name="at" unicode="@" horiz-adv-x="1351" 
d="M598 1462h299q113 0 211 -57t155.5 -152t57.5 -204v-775q-4 -37 -38 -68.5t-107 -31.5q-76 0 -117.5 14t-54.5 37.5t-13 63.5v82q-88 -84 -252 -84h-22q-172 0 -250 78q-68 76 -68 253v23q-3 164 72 248q50 59 168 72q54 4 102 0.5t83.5 -9t77.5 -3t83 17.5
q-10 69 -66 98t-174 29h-219v47q0 13 17 28t35 15l135 2q196 0 290.5 -65.5t94.5 -213.5v-618q0 -14 5 -22.5t16.5 -12t20 -4t25.5 -0.5q16 0 29 3.5t18 6.5l5 4l2 4l10 19l-2 762q0 130 -99.5 227.5t-230.5 97.5h-299q-128 0 -223.5 -96.5t-95.5 -228.5v-662
q0 -131 96 -229.5t223 -98.5l430 2q19 0 36 -15.5t17 -29.5v-45h-483q-171 0 -297.5 125t-126.5 291v662q0 167 126 290t298 123zM717 887q-66 0 -108.5 -14t-65.5 -52q-41 -75 -41 -180v-23q0 -137 35 -184h2q25 -29 64 -42.5t106 -14.5q63 0 122 16q57 19 107.5 59
t50.5 76l2 328l-35 21h-10q-12 -8 -229 10z" />
    <glyph glyph-name="A" unicode="A" horiz-adv-x="1150" 
d="M668 1599q47 0 61 -49l432 -1515l-90 -2q-9 0 -15 1t-9.5 1.5t-5.5 4.5t-2.5 5.5l-2.5 7.5v-2l-102 367h-531l-10 -25l-92 -340q-3 -18 -33 -18h-96l100 321l334 1196v-2q22 49 62 49zM438 512h469l-241 840z" />
    <glyph glyph-name="B" unicode="B" horiz-adv-x="1198" 
d="M236 1581h247q101 0 198.5 -58.5t149.5 -152.5q60 -92 60 -211l2 -53q0 -12 -4 -34.5t-5 -40.5t3 -40t22.5 -43.5t51.5 -40.5q63 -45 96 -88q110 -128 110 -289v-81q0 -216 -217 -349q-114 -65 -250 -65h-464q-62 0 -62 33v1480q0 33 62 33zM289 1489v-524h432
q25 0 41 25t16 73v80q0 95 -41 177.5t-110 121.5q-68 47 -166 47h-172zM289 864v-731h428q38 0 79.5 8.5t87.5 31.5t82 57t59.5 91t23.5 128v81q0 131 -85 232.5t-198 101.5h-477z" />
    <glyph glyph-name="C" unicode="C" horiz-adv-x="1048" 
d="M606 1636q171 0 262 -59q61 -39 97 -80l26 -33q8 -10 8 -26t-12 -23l-49 -37q-97 181 -330 181q-191 0 -286 -168q-48 -84 -48 -201v-737q0 -43 6.5 -85t28 -94t56 -90.5t97.5 -65t146 -26.5q76 0 140 21t101.5 49.5t65 56t43 42t23.5 7.5q37 -42 37 -53q0 -14 -19 -33
q-88 -90 -173.5 -132t-217.5 -42q-197 0 -315.5 119t-118.5 326v737q0 126 52.5 227t152.5 162q94 57 227 57z" />
    <glyph glyph-name="D" unicode="D" horiz-adv-x="1175" 
d="M233 1599h449q122 0 230.5 -61t168.5 -164q64 -102 64 -227v-664q0 -117 -63.5 -221.5t-172.5 -169.5q-108 -63 -227 -63h-449q-20 0 -39.5 18.5t-19.5 32.5v1468q0 21 17.5 36t41.5 15zM291 1513v-1382h391q92 0 171 46.5t132 131.5q43 81 43 174v664q0 102 -47.5 187
t-124.5 132q-81 47 -174 47h-391z" />
    <glyph glyph-name="E" unicode="E" horiz-adv-x="1185" 
d="M217 1597h881q22 0 39.5 -12t17.5 -20v-52h-879v-534h707q27 0 44 -15t17 -36v-51h-768v-756h879v-51q0 -9 -17.5 -22t-39.5 -13h-881q-10 0 -26.5 14t-16.5 21v1495q0 5 16 18.5t27 13.5z" />
    <glyph glyph-name="F" unicode="F" horiz-adv-x="1153" 
d="M233 1599h832q24 0 40.5 -13.5t16.5 -33.5v-53h-831v-514h596q24 0 41.5 -17.5t17.5 -31.5v-51h-655v-854h-58q-24 0 -41.5 13t-17.5 38v1470q0 15 20 31t39 16z" />
    <glyph glyph-name="G" unicode="G" horiz-adv-x="1134" 
d="M682 1645q74 -6 147 -38t127 -79q47 -38 56 -49l-2 -2q10 -8 10 -19q0 -20 -25 -37l-45 -16l-32 37q-117 110 -263 110q-103 0 -188 -48.5t-135 -133.5q-41 -77 -41 -172v-778q0 -86 45 -167.5t125 -127.5q80 -55 184 -55q217 0 305 184q37 76 37 147v445h-383v49
q0 21 16.5 35t43.5 14h413q8 0 17.5 -6t9.5 -10v-543q0 -45 -19 -102.5t-66.5 -125t-115.5 -112.5q-106 -72 -256 -72h-18q-119 0 -225.5 63t-165.5 167q-64 100 -64 219v772q0 121 64 222.5t180 166.5q118 62 264 62z" />
    <glyph glyph-name="H" unicode="H" horiz-adv-x="1198" 
d="M1087 1599h17q20 0 41.5 -19t21.5 -32v-1468q0 -21 -16.5 -36t-42.5 -15h-47v399h-768v-399h-60q-17 0 -38 18t-21 33v1456q0 25 15 44t44 19h33q8 0 14.5 -4t9.5 -8t3 -6v-1053h768v1053q0 -5 8 5q10 13 18 13z" />
    <glyph glyph-name="I" unicode="I" horiz-adv-x="540" 
d="M397 1470l-4 -1351h74q31 0 35 -1t4 -9v-74h-332v86h115l10 1349h-125l2 70q0 3 0.5 5t1.5 3.5t3 2.5t3 2t4 1h4.5h5.5h5h284q16 0 19.5 -4.5t3.5 -15.5v-64h-113zM174 1470v-2v2z" />
    <glyph glyph-name="J" unicode="J" horiz-adv-x="1110" 
d="M963 1599h59q19 0 38 -19.5t19 -29.5v-1091q0 -121 -58 -223t-165 -166q-111 -62 -233 -62h-17q-99 0 -227 64q-50 26 -93 70t-67 91q-31 60 -39 96.5t-6 108.5q0 49 41 49h51v-49q0 -92 46 -162.5t126 -115.5q76 -51 168 -51h17q97 0 173.5 45.5t123.5 130.5
q43 78 43 174v1140z" />
    <glyph glyph-name="K" unicode="K" horiz-adv-x="1449" 
d="M274 1063l166 -166l533 709l41 -31q33 -28 12 -76v2l-504 -676l606 -577q81 -74 124.5 -96.5t93.5 -22.5q21 0 36 -6.5t22 -14t10.5 -21.5t4 -21t0.5 -20v-5v-10h-73q-90 0 -133 12.5t-95 67.5l-844 807v-885h-43q-31 0 -44 10t-13 41v1477q0 18 13 34.5t28 16.5h59v-549
z" />
    <glyph glyph-name="L" unicode="L" horiz-adv-x="966" 
d="M293 123h643v-31q0 -27 -18.5 -47t-40.5 -20h-644q-24 0 -41.5 18t-17.5 33v1474q0 21 16 35t43 14h60v-1476z" />
    <glyph glyph-name="M" unicode="M" horiz-adv-x="1202" 
d="M1057 1599h55q26 0 42.5 -14t16.5 -33v-1470q0 -18 -15.5 -33.5t-33.5 -15.5h-57l8 1204l-352 -1171q-6 -11 -23.5 -22t-31.5 -11q-23 0 -39 10t-21 25l-336 1181l4 -1216h-43q-24 0 -40.5 15t-16.5 34v1470q0 13 18.5 30t38.5 17h52l383 -1339z" />
    <glyph glyph-name="N" unicode="N" horiz-adv-x="1179" 
d="M1044 1599h62q14 0 28.5 -15.5t14.5 -33.5v-1466q0 -22 -12 -35.5t-31 -13.5h-51l-779 1347l-2 -1347h-57q-19 0 -31 13.5t-12 35.5v1452q0 66 59 66l35 -5l787 -1359z" />
    <glyph glyph-name="O" unicode="O" horiz-adv-x="1159" 
d="M643 1638h16q124 0 235 -61.5t171 -163.5q63 -101 63 -223v-733q0 -118 -63.5 -226t-173.5 -174q-108 -63 -232 -63h-16q-129 0 -237 64t-168 171q-64 110 -64 228v733q0 124 61 225.5t171 163.5q112 59 237 59zM659 1542h-16q-92 0 -172 -47t-133 -129q-45 -85 -45 -176
v-733q0 -96 49 -180t129 -130q77 -49 172 -49h16q94 0 175.5 48t132.5 133q45 79 45 178v733q0 96 -47.5 176.5t-130.5 128.5q-78 47 -175 47z" />
    <glyph glyph-name="P" unicode="P" horiz-adv-x="1163" 
d="M236 1599h450q120 0 224.5 -62.5t160.5 -164.5q62 -99 62 -225v-258q0 -173 -132 -326q-62 -62 -145 -96.5t-170 -34.5h-393v-407h-57q-27 0 -44.5 14t-17.5 33v1478q0 13 21 31t41 18zM293 1501v-966h393q92 0 171 46.5t132 131.5q43 81 43 176v272q-9 126 -93.5 221
t-201.5 119h-444z" />
    <glyph glyph-name="Q" unicode="Q" horiz-adv-x="1275" 
d="M651 1636h17q125 0 235.5 -61.5t167.5 -163.5q66 -106 66 -225l-2 -723q0 -99 -13 -143t-75 -132q25 -43 47 -52t82 -9h41q12 0 20 -14.5t8 -30.5v-45h-69h-18.5h-20t-19 0.5t-20.5 2t-19 4.5t-20.5 7t-19.5 10.5t-20.5 14.5t-18.5 19t-19 24q-101 -113 -313 -113h-17
q-131 0 -243 61.5t-170 165.5q-64 100 -64 230v723q0 124 61.5 227t174.5 164q106 59 241 59zM668 1548h-17q-100 0 -181 -47t-132 -135q-51 -74 -51 -180v-723q0 -74 34 -140t87.5 -110t121.5 -71t135 -30.5t129.5 18.5t102.5 69l-317 372q-15 24 -15.5 42.5t9.5 34
t36 42.5l344 -420q44 59 58 98t14 115l-8 703q0 98 -47 183.5t-125 131.5q-81 47 -178 47z" />
    <glyph glyph-name="R" unicode="R" horiz-adv-x="1269" 
d="M231 1599h453q120 0 224.5 -60t160.5 -159q59 -96 59 -219v-272q0 -149 -94 -271q-123 -152 -284 -165q82 -66 165 -135.5t118 -99.5t74 -58t62.5 -35.5t53.5 -7.5h22q35 0 35 -39v-49h-57q-145 0 -219 71l-390 336h-331v-407h-52q-21 0 -39 19t-18 32v1470q0 19 17 34
t40 15zM283 1513v-976h401q89 0 167.5 47t131.5 131q43 78 43 174v272q0 91 -47.5 174t-124.5 129q-71 49 -160 49h-411z" />
    <glyph glyph-name="S" unicode="S" horiz-adv-x="1181" 
d="M700 1602q111 0 228.5 -65.5t206.5 -178.5l-37 -51v2q-13 -9 -24 -9.5t-22.5 7.5t-17 14t-8.5 10l-37 35q-145 139 -313 139q-89 0 -166.5 -40.5t-126.5 -114.5q-45 -78 -45 -164q0 -62 42.5 -118t110.5 -101t150 -88.5t164 -88.5t150 -92.5t110.5 -109.5t42.5 -131
q0 -212 -137 -331.5t-373 -119.5q-119 0 -245 68.5t-177 163.5l74 28q3 1 6 1.5t5.5 0.5t5.5 -1.5l5 -2.5t5 -4l4.5 -4.5l5 -5l4.5 -4.5q141 -154 319 -154t289 106.5t113 262.5q0 59 -43 111.5t-111.5 94t-152 83t-166.5 86.5t-152 94t-112.5 116.5t-43.5 145.5
q0 126 62 218t174 144q116 48 233 48z" />
    <glyph glyph-name="T" unicode="T" horiz-adv-x="1046" 
d="M233 1599h723q22 0 41 -12.5t19 -21.5v-49h-371v-1483h-43q-24 0 -40.5 15t-16.5 36v1432h-371v49q0 10 18.5 22t40.5 12z" />
    <glyph glyph-name="U" unicode="U" horiz-adv-x="1165" 
d="M1014 1599h57q27 0 45.5 -15.5t18.5 -37.5v-1075q0 -127 -64 -234t-174 -169q-114 -62 -235 -62h-17q-132 0 -240 62t-167 168q-64 110 -64 235v1075q0 22 16.5 37.5t42.5 15.5h62v-1128q0 -103 51 -182t129.5 -117.5t169.5 -38.5h17q69 0 125.5 15.5t92.5 39.5t62.5 58
t39.5 64t21 65.5t9.5 55.5t1.5 40v1128z" />
    <glyph glyph-name="V" unicode="V" horiz-adv-x="1196" 
d="M1061 1599h49q19 0 36.5 -9.5t18.5 -22.5l-2 -6l-436 -1491q-7 -19 -18 -28t-37 -9q-24 0 -38 10.5t-16 26.5l-442 1484l-2 13q2 13 19.5 22.5t42.5 9.5h47l352 -1230q4 -20 23 -30.5t40 -3.5t29 32z" />
    <glyph glyph-name="W" unicode="W" horiz-adv-x="2076" 
d="M1948 1599h43q19 0 36.5 -9.5t18.5 -22.5l-2 -6l-438 -1491q-5 -19 -16.5 -28t-37.5 -9q-48 0 -55 37l-391 1319l-381 -1319q-5 -19 -16 -28t-37 -9q-24 0 -38.5 10.5t-17.5 26.5l-440 1484l-2 13q2 13 19.5 22.5t42.5 9.5h40l357 -1230q5 -20 24 -30.5t40.5 -3.5
t29.5 32l334 1232h45h19.5t11.5 -4t11.5 -12t8.5 -24l356 -1190q5 -20 23 -30.5t38 -3.5t28 32z" />
    <glyph glyph-name="X" unicode="X" horiz-adv-x="1239" 
d="M1108 1587q41 0 47 -5q6 -6 6 -21v-48q0 -20 -10 -45q-44 -63 -138.5 -215.5t-166.5 -273.5l-72 -121l-2 -4l-2 -10v-2q0 -18 131.5 -230.5t255.5 -396.5q7 -7 17 -20.5t22 -41.5t12 -55v-67h-57q-4 0 -8 2l-453 704l-452 -704q-2 -2 -7 -2h-57v67q0 21 12.5 49.5
t22.5 44.5t18 25h2q59 98 162.5 260.5t162 257.5t58.5 107v2l-2 10l-2 4q-277 469 -379 610q-8 25 -8 45v48q0 19 7.5 22.5t34.5 3.5h11q5 0 9 -2l409 -649l410 649q2 2 6 2z" />
    <glyph glyph-name="Y" unicode="Y" horiz-adv-x="1173" 
d="M1044 1587h82q29 0 13 -35l-430 -878v-643h-58q-14 0 -28.5 15.5t-14.5 33.5v594l-430 878q-16 35 12 35h82l387 -776z" />
    <glyph glyph-name="Z" unicode="Z" horiz-adv-x="1249" 
d="M416 1579h733q41 0 57.5 -8.5t10.5 -34.5l-11 -20l-882 -1391h723v-35q0 -21 -17 -36t-41 -15h-749q-98 0 -52 92l889 1364h-721v33q0 21 17 36t43 15z" />
    <glyph glyph-name="bracketleft" unicode="[" horiz-adv-x="620" 
d="M590 1618v-16q0 -21 -16.5 -39.5t-43.5 -18.5h-98q-83 0 -120.5 -21t-37.5 -89v-1459q0 -67 38.5 -88.5t119.5 -21.5h98q27 0 43.5 -18.5t16.5 -39.5v-16h-340q-33 0 -53.5 26t-20.5 68v404l-2 39v753l2 41v402q0 41 21 67.5t53 26.5h340z" />
    <glyph glyph-name="backslash" unicode="\" horiz-adv-x="854" 
d="M188 1444h52q8 0 15 -1.5t12 -3.5t10.5 -7t8 -8t7.5 -10.5t6.5 -10t6 -12t5.5 -11.5l207 -563q2 -1 4 -6.5t4 -7.5l285 -772h-43q-23 0 -39 9t-23 20t-16 30l-186 524z" />
    <glyph glyph-name="bracketright" unicode="]" horiz-adv-x="620" 
d="M174 1618h340q33 0 53.5 -26t20.5 -68v-404l2 -39v-753l-2 -41v-402q0 -41 -21 -67.5t-53 -26.5h-340v16q0 21 16 39.5t43 18.5h99q82 0 119.5 21.5t37.5 88.5v1459q0 68 -37.5 89t-119.5 21h-99q-27 0 -43 18.5t-16 39.5v16z" />
    <glyph glyph-name="asciicircum" unicode="^" horiz-adv-x="1114" 
d="M1073 729q16 -42 7.5 -76t-31.5 -51v14l-400 748l-6 -12l-2 -11v9l-436 -734q-21 15 -28 48t9 73q426 744 438 762q6 9 13 14q12 6 20 3q15 -7 254 -471q98 -192 162 -316z" />
    <glyph glyph-name="underscore" unicode="_" horiz-adv-x="1185" 
d="M174 -172l905 -2q79 -3 76 -49v-33l-590 -4l-315 2q-27 0 -51 13.5t-25 41.5v31z" />
    <glyph glyph-name="grave" unicode="`" horiz-adv-x="532" 
d="M489 1253l-26 -26q-17 -17 -43 -22t-29 3l-215 213q2 -1 5.5 2.5t17.5 18.5t30 31q15 15 18.5 16.5t10.5 -4.5zM176 1421l-2 2z" />
    <glyph glyph-name="a" unicode="a" horiz-adv-x="1015" 
d="M473 1069q205 0 236 -2q67 -1 106 -13.5t90 -45.5q54 -36 87.5 -93t33.5 -108l4 -725q0 -21 -14 -36t-33 -15h-61l2 51q-52 -32 -134.5 -53t-168.5 -21q-402 0 -402 393q0 181 104.5 278t297.5 97h161l142 12q10 91 -63 143t-208 52h-239v35q0 15 20.5 33t38.5 18z
M924 254l2 457q-51 -11 -211 -11l-49 2q-176 0 -263 -70t-88 -235q0 -151 73.5 -228t211.5 -77q131 0 228 47.5t96 114.5z" />
    <glyph glyph-name="b" unicode="b" horiz-adv-x="978" 
d="M272 1599v-458q0 -24 35 -39t61.5 -18t39.5 -3h147q74 0 135 -22.5t100.5 -57.5t70 -84t46.5 -96t26 -100t12.5 -89.5t2.5 -70.5v-29q0 -155 -94 -321q-60 -88 -138 -133t-161 -45h-324q-27 0 -42 14t-15 35v1472q0 20 15 32.5t42 12.5h41zM272 133h295q80 0 147 61.5
t103.5 156.5t36.5 198v12q0 49 -6.5 99t-26 110t-51 105t-87.5 75.5t-128 30.5h-166q-15 0 -33 4t-32 9t-26.5 8.5t-19 1.5t-6.5 -11v-860z" />
    <glyph glyph-name="c" unicode="c" horiz-adv-x="1046" 
d="M606 1067q265 0 385 -172q9 -17 8.5 -27t-12.5 -22l-35 -21q-4 5 -24.5 28.5t-27 30t-28 26t-35 26.5t-40 20.5t-52 18.5t-61 9.5t-76.5 4.5q-157 0 -253.5 -107.5t-96.5 -260.5v-164q0 -34 7 -70.5t22.5 -80t45.5 -81.5t71 -70t104 -50.5t139 -18.5q228 0 320 188
q27 -20 36.5 -31t10 -26t-12.5 -37q-32 -52 -72.5 -86.5t-89.5 -51t-94 -22.5t-104 -6q-122 0 -214.5 35t-146.5 97t-80.5 140t-25.5 171v164q0 208 124.5 327t307.5 119z" />
    <glyph glyph-name="d" unicode="d" horiz-adv-x="978" 
d="M850 1599h41q27 0 42 -12.5t15 -32.5v-1472q0 -21 -15 -35t-42 -14h-324q-83 0 -161 45t-138 133q-94 166 -94 321v29q0 34 2.5 70.5t12.5 89.5t26 100t46.5 96t70 84t100.5 57.5t135 22.5h148q7 0 24.5 2t44.5 7.5t46.5 19t19.5 31.5v458zM850 133v860q0 9 -6.5 11
t-19 -1.5t-26.5 -8.5t-32 -9t-33 -4h-166q-72 0 -128 -30.5t-87.5 -75.5t-51 -105t-26 -110t-6.5 -99v-12q0 -103 36.5 -198t103.5 -156.5t147 -61.5h295z" />
    <glyph glyph-name="e" unicode="e" horiz-adv-x="1081" 
d="M627 1067h12q190 -15 301 -132.5t111 -297.5v-201l-770 -6l-11 -10q-2 -18 5.5 -54t31.5 -86.5t61.5 -94.5t105.5 -75.5t153 -31.5q55 0 100.5 8t79.5 24t53 27.5t41.5 30t24.5 20.5q16 9 40 3t40 -21q-49 -52 -95 -86q-42 -33 -114.5 -58.5t-155.5 -25.5h-14
q-119 0 -224 59t-167 157.5t-62 199.5v221q0 112 62 215q59 99 164.5 157t226.5 58zM641 989h-14q-91 0 -174 -49q-82 -47 -129.5 -128.5t-47.5 -174.5v-119h682v119q1 49 -9 94t-33.5 89t-59 78.5t-91 58.5t-124.5 32z" />
    <glyph glyph-name="f" unicode="f" horiz-adv-x="858" 
d="M659 1585q41 0 88 -5t74 -10l27 -5l-2 -90q-84 26 -180 26q-49 0 -83.5 -12.5t-55 -33.5t-32 -57t-15 -73t-3.5 -90v-205h230q44 0 51.5 -4t7.5 -29v-49h-289v-604q0 -195 -49.5 -274t-179.5 -80h-41q-25 0 -29 10t-4 74q16 4 45 4h29q38 0 64 17t38.5 50t17.5 69.5
t5 86.5l-2 647h-174v49q0 22 11.5 27.5t49.5 5.5h113v168q2 118 14.5 189.5t46 117.5t86.5 63t141 17z" />
    <glyph glyph-name="g" unicode="g" horiz-adv-x="1001" 
d="M580 1067q79 0 146.5 -13t122 -39.5t85.5 -72t31 -104.5l4 -811q0 -21 1 -62q2 -48 -0.5 -93t-7.5 -84t-23 -71.5t-46.5 -56t-77.5 -36.5t-117 -13h-118q-39 0 -52.5 11t-13.5 42v41h66l41 -2q61 0 104 5t72 15t45.5 25.5t25 36.5t10.5 48.5t1.5 61.5t-2.5 75t0 89
l-70 -41q-81 -47 -201 -47q-119 0 -220 58t-155 157q-57 99 -57 220v212q0 208 113.5 328.5t292.5 120.5zM586 977q-99 0 -176.5 -54t-116.5 -135t-39 -170v-212q0 -87 30.5 -156t81 -110t111.5 -62t127 -21q101 0 184.5 40t83.5 96v641q0 44 -27.5 74t-74.5 44t-90.5 19.5
t-93.5 5.5z" />
    <glyph glyph-name="h" unicode="h" horiz-adv-x="1116" 
d="M279 1092l2 -23h10v-10h266q119 0 210.5 -73t135.5 -193q48 -116 45 -238v-231q-2 -102 3 -127q12 -68 78 -81q18 -3 40 -3h5q25 0 37.5 -1t24.5 -10.5t11 -27.5v-47h-76q-67 1 -111 22t-66 63t-30 90t-8 117v236q0 99 -28.5 181.5t-73 133t-96 78t-101.5 27.5h-276
q5 -335 -2 -569v-375h-48q-24 0 -40.5 15t-16.5 36v1464q0 22 16.5 37.5t40.5 15.5h48v-507z" />
    <glyph glyph-name="i" unicode="i" horiz-adv-x="313" 
d="M238 1507h12q18 0 26 -8l3 -12v-195h-41q-22 0 -43 14t-21 23v125q0 15 20.5 34t43.5 19zM283 29h-39q-27 0 -45.5 16.5t-18.5 38.5v948q0 9 21 23t43 14h39v-1040z" />
    <glyph glyph-name="j" unicode="j" horiz-adv-x="671" 
d="M537 1329v182q0 -3 3.5 -3.5t29.5 -0.5h42h14.5t8.5 -1t5 -3t1 -6v-205h-41q-22 0 -42.5 14t-20.5 23zM639 1069v-1124q0 -264 -150 -330q-67 -27 -186 -27q-70 0 -88 2q-24 1 -32.5 13t-8.5 43v28h129q108 0 152 25q84 41 84 252l-2 1081q0 9 20.5 23t42.5 14h39z" />
    <glyph glyph-name="k" unicode="k" horiz-adv-x="1120" 
d="M276 784l162 -166l340 465q29 -11 46.5 -26t9.5 -31q-38 -61 -161 -232t-163 -229q1 -2 34.5 -35.5t136.5 -138t226 -229.5q43 -39 73 -55.5t77 -16.5h28q16 0 20.5 -8.5t4.5 -30.5q0 -49 -12 -49h-41q-70 1 -117 22.5t-94 65.5l-572 559v-651h-59q-12 0 -26.5 15
t-14.5 22v1517q0 47 41 47h59z" />
    <glyph glyph-name="l" unicode="l" horiz-adv-x="473" 
d="M276 1599v-1226q0 -269 228 -269h28q5 0 7.5 -3t3.5 -10t1 -12.5t-0.5 -16.5t-0.5 -17q0 -35 -19 -35h-41q-73 1 -133 25t-97.5 62.5t-58 86.5t-20.5 99v1280q0 9 20.5 22.5t43.5 13.5h38z" />
    <glyph glyph-name="m" unicode="m" horiz-adv-x="1779" 
d="M1366 1081q88 0 176.5 -30t147.5 -83.5t59 -113.5v-776q0 -19 -16 -34t-39 -15h-52v813q0 21 -15 45t-45.5 49.5t-89 42t-134.5 16.5q-153 0 -248.5 -90.5t-95.5 -253.5l-2 -622h-60l-10 4q-33 14 -33 45v573q0 164 -99 258.5t-253 94.5q-55 0 -118 -19t-110.5 -56.5
t-47.5 -80.5v-819h-52q-24 0 -39.5 14.5t-15.5 34.5v772q1 41 21 77.5t49 57.5q134 96 313 96q215 0 332 -120l13.5 -13.5l10.5 -10.5t7 -7.5t4.5 -5.5t3 -3t3 -1t3 1l4.5 3l12 -17l82 54q117 120 334 120z" />
    <glyph glyph-name="n" unicode="n" horiz-adv-x="1042" 
d="M557 1081q215 0 332 -120q123 -123 123 -310v-620h-47q-24 0 -40 15t-16 34v571q0 163 -95 253.5t-249 90.5q-84 0 -158 -26.5t-118 -73.5q-8 -8 -8 -33v-831h-52q-24 0 -39.5 14.5t-15.5 34.5v838q0 4 12 22q3 5 54 45q58 43 141.5 69.5t175.5 26.5z" />
    <glyph glyph-name="o" unicode="o" horiz-adv-x="1159" 
d="M643 1079h16q124 0 235 -61.5t171 -163.5q63 -101 63 -223v-156q0 -118 -63.5 -225.5t-173.5 -173.5q-109 -64 -232 -64h-16q-129 0 -237 64.5t-168 171.5q-64 110 -64 227v156q0 124 61 225.5t171 163.5q112 59 237 59zM664 995h-21q-99 0 -184 -55t-131.5 -138.5
t-46.5 -170.5v-156q0 -78 34.5 -149t88 -118.5t117 -75.5t122.5 -28h16q76 0 145 34t116 87t74.5 119.5t27.5 130.5v156q0 104 -52.5 189.5t-134.5 131t-171 43.5z" />
    <glyph glyph-name="p" unicode="p" horiz-adv-x="966" 
d="M231 1092h324q187 0 301 -168q80 -133 80 -369v-29q0 -107 -21 -195t-65.5 -157.5t-119.5 -108t-175 -38.5h-147q-4 0 -20.5 0.5t-25.5 0t-25 -1.5t-25.5 -5t-19.5 -10.5t-15 -17.5t-5 -26v-358h-41q-27 0 -42 12.5t-15 32.5v1388q0 21 15 35.5t42 14.5zM272 991v-864
h291q56 0 100.5 17t72.5 42t48.5 64t30.5 72t15.5 77t6.5 69t1 58v13q3 185 -66 301q-35 73 -89 112t-116 39h-295z" />
    <glyph glyph-name="q" unicode="q" horiz-adv-x="1212" 
d="M616 1094h60q88 0 161 -28.5t113 -74.5q41 -53 41 -102v-955q0 -133 7 -160q10 -35 45 -43q23 -5 104 -5h45l-2 -62q0 -11 -12.5 -21t-30.5 -10h-2h-17h-52t-42 1.5t-36.5 3.5t-28.5 7t-24.5 11.5t-17 17.5t-14 24.5t-8.5 32.5t-7 41.5t-3 51.5q-4 68 -4 174v92
q-139 -90 -262 -90h-13q-122 0 -229.5 62.5t-161.5 162.5q-61 99 -61 219v207q0 114 59.5 218t163.5 165q105 60 229 60zM692 997h-76q-90 0 -167 -46t-127 -130q-46 -81 -46 -170v-207q0 -88 47.5 -168t125.5 -126q80 -48 167 -48h13q38 0 112 23t115 53q37 27 37 53v650
q0 24 -19 49q-25 31 -77.5 49t-104.5 18z" />
    <glyph glyph-name="r" unicode="r" horiz-adv-x="849" 
d="M817 981q-1 -2 -2 -6t-2 -6q-4 -8 -9 -16.5t-8 -13.5t-6.5 -11t-5 -9.5t-3 -6.5t-1 -4.5t1.5 -2.5q-62 48 -133 73t-137.5 21t-121 -32t-87.5 -90t-33 -148v-698h-41q-24 0 -39.5 14.5t-15.5 34.5v694q0 74 26 133.5t70 95.5t100 58t118.5 25t122.5 -7t114 -35.5
t92 -62.5z" />
    <glyph glyph-name="s" unicode="s" horiz-adv-x="903" 
d="M520 1079q104 6 183.5 -28.5t162.5 -110.5q14 -14 -2 -35l-28 -31q-31 28 -56.5 47.5t-67 44t-90.5 36t-102 8.5q-97 -5 -173.5 -75t-72.5 -151q2 -44 34 -76.5t82 -53.5t110.5 -38.5t121 -38t110.5 -45.5t83.5 -67t36.5 -98q5 -88 -25.5 -158t-81.5 -110t-105 -61.5
t-105 -23.5q-181 -9 -328 105q-26 18 -31.5 26.5t2.5 22.5l37 41q50 -43 99.5 -69t85 -33.5t69.5 -11t53 0.5q103 6 177.5 80t70.5 186q-3 43 -36 75t-83.5 52t-110.5 36.5t-120 36t-110 45t-82.5 68t-34.5 99.5q-6 125 86.5 211.5t240.5 93.5z" />
    <glyph glyph-name="t" unicode="t" horiz-adv-x="849" 
d="M451 1053h268q25 0 42 -13.5t17 -29.5v-33h-327v-520q0 -66 3.5 -110t17 -90.5t37.5 -73.5t67 -44t104 -16h139q0 -50 -8.5 -71t-34.5 -21h-92q-85 0 -148 26.5t-98 67t-56 100t-27.5 113t-6.5 119.5v520h-174v33q0 16 17 29.5t42 13.5h115v317q2 20 18 34.5t40 14.5h45
v-366z" />
    <glyph glyph-name="u" unicode="u" horiz-adv-x="1110" 
d="M1073 1063l6 -625q0 -82 -26 -168q-85 -220 -344 -260q-35 -6 -82 -6q-51 0 -86 6q-143 24 -217 92q-150 138 -150 336l6 625h47q24 0 40 -15t16 -34l-7 -576q-1 -164 93.5 -254t251.5 -90q77 0 149 23t115 63q92 89 92 258l-6 576q0 20 15.5 34.5t39.5 14.5h47z" />
    <glyph glyph-name="v" unicode="v" horiz-adv-x="1155" 
d="M1028 1067h47q19 0 34 -10t15 -19q0 -6 -8 -22l-422 -969l2 2q-16 -29 -49 -29q-13 0 -28 10.5t-21 22.5l2 -2l-424 967l2 -2q-4 16 -4 24q0 16 15 21.5t49 5.5h38l373 -862z" />
    <glyph glyph-name="w" unicode="w" horiz-adv-x="1986" 
d="M1862 1067h45q21 0 27.5 -0.5t15 -5t7 -15.5t-8.5 -30l-420 -965q-12 -28 -49 -28q-16 0 -30 10.5t-19 23.5l-355 854l-379 -872q-13 -29 -49 -29q-13 0 -27 10t-20 23l-422 975q-10 29 2 39t58 10h41l368 -860l383 860h45q35 0 41 -12l363 -848z" />
    <glyph glyph-name="x" unicode="x" horiz-adv-x="1196" 
d="M1016 1061h69q30 0 30 -10.5t-13 -24.5l-363 -481l396 -516l-115 2q-21 0 -33 14l-317 418l-316 -416q-14 -16 -35 -16l-114 -2l397 516l-348 448q-42 54 -39 62q2 6 33 6h74l348 -436z" />
    <glyph glyph-name="y" unicode="y" horiz-adv-x="1110" 
d="M1077 627l2 -189q0 -35 -2 -43v-422q0 -76 -20 -143.5t-59 -123t-105.5 -88.5t-151.5 -34h-28q-42 0 -58 2q-30 1 -37.5 12.5t-5.5 47.5v28h113q137 0 193.5 91.5t56.5 263.5v108l-47 -45q-16 -15 -30.5 -24.5t-49 -26t-91 -25t-130.5 -8.5q-117 0 -206.5 35t-142 96
t-78.5 136.5t-26 162.5l6 625h47q23 0 39.5 -15t16.5 -34l-7 -576q-1 -164 93 -246.5t252 -82.5q48 0 91 5.5t93 24t86 48t60 83t24 123.5v217l-4 404q0 30 15.5 42.5t51.5 12.5h39v-442z" />
    <glyph glyph-name="z" unicode="z" horiz-adv-x="946" 
d="M313 1067h518q21 0 36.5 -13t15.5 -28q0 -16 -13 -39l-561 -876h606v-33q0 -20 -15.5 -34.5t-39.5 -14.5h-633q-21 0 -37 15t-16 30q0 14 4 22v-2l572 887l-486 4v49q2 8 19.5 20.5t29.5 12.5z" />
    <glyph glyph-name="braceleft" unicode="{" horiz-adv-x="1013" 
d="M983 1602v-13q0 -32 -25.5 -51.5t-76.5 -19.5q-90 0 -152 -66t-80 -213q-30 -433 -262 -543q55 -27 96.5 -75.5t66 -102.5t41.5 -131.5t24.5 -139t13.5 -147.5q16 -146 78 -211t153 -65q51 0 77 -20t26 -52v-12h-103q-270 0 -317 289q-10 52 -19 125t-15 125t-17 112.5
t-28.5 102.5t-45 79t-71 57t-101.5 23q-23 0 -35 2q-37 8 -37 37v37h33q74 4 129.5 37.5t87 70t59 119.5t38 131.5t30.5 160.5q3 14 4.5 22t3.5 20.5t4 22.5q47 289 318 289h102z" />
    <glyph glyph-name="bar" unicode="|" horiz-adv-x="292" 
d="M262 1034v-114l-2 -1156q0 -27 -13.5 -50.5t-41.5 -24.5h-31l2 1214l2 565q0 77 47 74h33z" />
    <glyph glyph-name="braceright" unicode="}" horiz-adv-x="1013" 
d="M174 1602h102q271 0 318 -289q4 -20 11 -60q16 -90 25.5 -135t29 -117t42 -109t57 -79t83 -61t110.5 -23h31v-37q0 -29 -47 -37q-6 -2 -27 -2q-58 -3 -101.5 -23t-70.5 -57t-44.5 -79t-28 -102.5t-17 -112.5t-15 -125t-18.5 -125q-47 -289 -317 -289h-102v12q0 32 26 52
t76 20q90 0 151.5 65.5t79.5 212.5q6 85 13.5 146.5t24.5 138.5t41.5 131t66 102.5t96.5 75.5q-232 110 -262 545q-16 146 -78.5 211.5t-153.5 65.5q-51 0 -76.5 19.5t-25.5 51.5v13z" />
    <glyph glyph-name="asciitilde" unicode="~" horiz-adv-x="1054" 
d="M989 799q14 0 25 -23.5t7.5 -62t-28.5 -72.5q-21 -28 -88 -44.5t-119 -16.5q-44 0 -185 27.5t-204 27.5q-61 0 -98 -26t-37 -81v-24h-37q-34 0 -46.5 36t-2.5 76q10 30 27.5 50.5t34 31t44 15.5t42 5.5t44.5 0.5h13q60 0 214 -24.5t216 -24.5q59 0 90 25.5t31 88.5v13
q5 0 23.5 1t33.5 1z" />
    <glyph glyph-name="exclamdown" unicode="&#xa1;" horiz-adv-x="309" 
d="M279 1065v-164q0 -7 -5 -8.5t-24 -1.5q-74 0 -75 -2q-1 0 -1 -2v141q0 9 21 23t43 14h41zM174 -381v1061q0 9 21 23t43 14h41v-1086q0 -7 -5 -8.5t-24 -1.5q-75 0 -76 -2zM174 -383v2v-2z" />
    <glyph glyph-name="cent" unicode="&#xa2;" horiz-adv-x="1046" 
d="M645 1513v-116q70 -1 131.5 -21t100.5 -48t66.5 -57t38 -50t5.5 -25l-67 -37q-29 42 -60.5 72t-57.5 46t-58 24.5t-51 10.5t-48 3v-1098q103 -2 160.5 26.5t116.5 123.5l63 -2q37 0 -6 -66q-42 -73 -134.5 -121.5t-199.5 -48.5v-90q0 -4 -7.5 -12.5t-16.5 -8.5h-21l-53 2
v111q-100 15 -182 73t-132 148q-59 96 -59 219v385q0 197 108 320t265 123v71q0 12 17.5 27.5t35.5 15.5h45zM547 217v1098q-43 0 -88 -19.5t-88 -59t-70 -112.5t-27 -168v-385q0 -61 19.5 -118t50.5 -98t68 -72.5t72 -47.5t63 -18z" />
    <glyph glyph-name="sterling" unicode="&#xa3;" horiz-adv-x="1255" 
d="M862 1460q195 -9 303 -106q7 -8 17 -18l15 -15t9.5 -11t5.5 -10q13 -16 13 -28l-2 -15v3l-31 -48q-160 166 -332 166q-99 0 -175 -43.5t-122 -126.5q-41 -74 -41 -170v-282h289q21 0 40 -12t19 -21v-49h-348v-293q-2 -160 -139 -289h676q20 0 38.5 -17.5t18.5 -33.5
l2 -43h-897q-9 0 -20 8l-2 2q-17 6 -17 17q-8 8 -8 20q0 26 29 43v-2q13 5 34 17.5t53 39t58.5 58.5t46 80t19.5 100v293h-174v49q0 9 19 21t42 12h113v282q0 116 57 213t160 154q101 55 231 55z" />
    <glyph glyph-name="currency" unicode="&#xa4;" 
d="M1096 1231l-105 -111l23 -30v-3l10 -10v2q74 -109 74 -235v-211q0 -146 -97 -266l132 -113l-46 -43v-2q-9 -12 -34 -9t-37 17l-84 84q-110 -88 -260 -88h-25q-72 0 -140 24t-116 64l-84 -84q-14 -14 -39.5 -17.5t-36.5 9.5l-41 45l129 113q-96 113 -96 266v211
q0 122 74 235l10 11l25 30l-105 111l49 39q24 19 43 0q19 -15 84 -80l41 22q106 52 205 52h25q97 0 203 -52l41 -22q68 68 81 80q21 19 45 0zM672 1171h-23q-128 0 -222.5 -96.5t-94.5 -230.5v-211q0 -135 94.5 -233.5t222.5 -98.5h23q129 0 223 98.5t94 233.5v211
q0 134 -94.5 230.5t-222.5 96.5z" />
    <glyph glyph-name="yen" unicode="&#xa5;" horiz-adv-x="1173" 
d="M1044 1485h82q16 0 18.5 -9t-5.5 -26q-4 -9 -75 -133.5t-153.5 -272.5t-109.5 -206l-41 -74h145q79 -3 76 -49v-39l-272 2v-107h196q79 -3 76 -49v-37h-272v-487h-58q-14 0 -28.5 15.5t-14.5 33.5v438l-211 2q-26 0 -50 14t-25 42v30l286 -2v107l-211 2q-27 0 -50.5 13.5
t-24.5 41.5v31l231 -2l-37 74q-65 133 -180.5 343.5t-159.5 276.5q-6 8 -3 17.5t17 9.5h82l385 -705z" />
    <glyph glyph-name="brokenbar" unicode="&#xa6;" horiz-adv-x="292" 
d="M260 1053v-154q-3 -77 -49 -74h-33l-2 187v2q-4 20 -2 33v88l2 213q0 27 13.5 50.5t41.5 24.5h31zM260 70v-154q-3 -77 -49 -74h-33l-2 187v2q-4 19 -2 32v89l2 213q0 27 13.5 50.5t41.5 24.5h31z" />
    <glyph glyph-name="section" unicode="&#xa7;" horiz-adv-x="1226" 
d="M848 1524q165 0 342 -201q-16 -21 -39 -29q-16 -12 -35 -4l-2 2l-47 49q-116 107 -238 107q-66 0 -126.5 -32t-94.5 -89q-33 -61 -33 -123q0 -30 5 -57t11 -48t21 -41.5t25.5 -34.5t34 -31.5t36.5 -26.5t43.5 -25t44.5 -23t50.5 -23.5t50.5 -23.5q41 -18 64 -29t59 -31.5
t57 -40.5t42.5 -47.5t31.5 -61.5t10 -74q0 -95 -65 -189t-156 -139q-43 -19 -49 -20l14 -123q4 -28 4 -47q0 -95 -55 -174.5t-149 -124.5q-85 -45 -189 -45q-94 0 -181.5 42t-146.5 117l-4 4q37 37 56 37q11 0 31.5 -20t45.5 -43.5t76.5 -43.5t116.5 -20q77 0 145 35t111 96
q47 64 47 142q0 93 -100 151q-63 37 -135 72q-63 33 -96.5 51.5t-79 47.5t-75.5 58t-51 62q-47 75 -47 172q0 96 51 170.5t136 112.5q47 19 94 28l-6 6l31 23q-52 74 -52 178q0 96 51 171t136 114q98 37 178 37zM1192 1321l-2 2q5 7 6 7q0 1 -4 -9zM578 936
q-63 0 -127.5 -38.5t-98.5 -86.5v-2q-30 -62 -30 -123q0 -40 10.5 -75.5t26 -62t43.5 -53t52 -43.5t63.5 -38t66 -33t71.5 -31.5t68 -30.5q40 -16 68 -16q93 0 181.5 95t88.5 192q0 86 -92 149h-2q-9 5 -55.5 30t-80.5 42q-9 5 -51.5 27t-57.5 30.5t-41.5 25t-43.5 30.5
q-22 12 -59 12z" />
    <glyph glyph-name="dieresis" unicode="&#xa8;" horiz-adv-x="620" 
d="M174 1227v182q0 -4 35 -4h41h14.5t8.5 -1t5 -3t1 -6v-205h-41q-22 0 -43 14t-21 23zM485 1227v182q0 -4 35 -4h11.5h13h16.5h14.5t8.5 -1t5 -3t1 -6v-205h-41q-22 0 -43 14t-21 23z" />
    <glyph glyph-name="copyright" unicode="&#xa9;" horiz-adv-x="1263" 
d="M702 1237h17q220 0 367 -133.5t147 -329.5v-156q0 -124 -72 -231t-190 -169t-250 -62h-16q-138 0 -273.5 67t-193.5 168q-64 110 -64 227v156q0 147 73 254t190.5 158t264.5 51zM725 1180h-20q-90 0 -167.5 -26t-131 -68t-92 -95.5t-56.5 -109t-18 -107.5v-156
q0 -79 36.5 -154t98 -131.5t148.5 -91t182 -34.5h16q91 0 175.5 39.5t142.5 100.5t93 133.5t35 137.5v156q0 105 -64.5 200.5t-167 151.5t-210.5 54zM696 981q54 0 86 -16q44 -27 47 -47l-6 -19h-10q-36 62 -117 62q-68 0 -108 -62q-15 -30 -15 -70v-260q0 -18 5 -37.5
t17 -42t38.5 -37t62.5 -14.5q27 0 50 6.5t36.5 15.5t22.5 18.5t14 16.5t6 7l11 -15q0 -5 -7 -10q-34 -34 -61 -48.5t-72 -14.5q-70 0 -109.5 41.5t-39.5 113.5v260q0 94 71 136q29 16 78 16z" />
    <glyph glyph-name="guillemotleft" unicode="&#xab;" horiz-adv-x="1245" 
d="M592 844q42 17 76 8.5t49 -31.5h-12l-388 -192l367 -221q-15 -21 -47 -29t-74 8l-377 213q-7 5 -10 14.5t-2 15.5v7q3 13 16 21t82 39q44 20 75.5 34t101 46t143.5 67zM1083 844q42 17 76 8.5t49 -31.5h-12l-387 -192l367 -221q-15 -21 -47 -29t-74 8l-377 213
q-7 5 -10 14.5t-2 15.5v7q3 13 16 21t84 40q158 71 317 146z" />
    <glyph glyph-name="logicalnot" unicode="&#xac;" horiz-adv-x="1269" 
d="M231 932h949q21 0 40 -15.5t19 -35.5v-396q0 -13 -24 -32t-52 -19h-39v395h-950v52q0 22 15.5 36.5t41.5 14.5z" />
    <glyph glyph-name="registered" unicode="&#xae;" horiz-adv-x="1263" 
d="M702 1237h17q220 0 367 -133.5t147 -329.5v-156q0 -124 -72 -231t-190 -169t-250 -62h-16q-138 0 -273.5 67t-193.5 168q-64 110 -64 227v156q0 147 73 254t190.5 158t264.5 51zM725 1180h-20q-90 0 -167.5 -26t-131 -68t-92 -95.5t-56.5 -109t-18 -107.5v-156
q0 -79 36.5 -154t98 -131.5t148.5 -91t182 -34.5h16q91 0 175.5 39.5t142.5 100.5t93 133.5t35 137.5v156q0 105 -64.5 200.5t-167 151.5t-210.5 54zM557 1006h166q44 0 81 -22.5t58 -59.5q23 -41 23 -78v-101q0 -52 -37 -98l-100 -67q21 -17 44.5 -36.5t36 -29.5
t26.5 -21.5t21.5 -16.5t16 -9.5t15 -6t14.5 -1.5h8q12 0 12 -29h-20q-53 0 -80 27l-144 125h-127v-152h-14q-18 0 -18 16v543q0 17 18 17zM571 979v-367h152q71 0 115 70q14 37 14 63v101q0 36 -23 74l-38 41q-30 18 -64 18h-156z" />
    <glyph glyph-name="macron" unicode="&#xaf;" horiz-adv-x="931" 
d="M174 1395l651 -2q79 -3 76 -50v-32l-301 -2q-10 -2 -31 -2l-319 2q-27 0 -51 13.5t-25 41.5v31z" />
    <glyph glyph-name="degree" unicode="&#xb0;" horiz-adv-x="567" 
d="M332 1583h47q62 0 110 -45.5t48 -103.5v-267q0 -58 -48 -103.5t-110 -45.5h-47q-62 0 -110 45.5t-48 103.5v267q0 58 48 103.5t110 45.5zM379 1505h-47q-23 0 -42.5 -21.5t-19.5 -49.5v-267q0 -28 19.5 -49.5t42.5 -21.5h47q22 0 42.5 22t20.5 49v267q0 27 -20.5 49
t-42.5 22z" />
    <glyph glyph-name="plusminus" unicode="&#xb1;" 
d="M705 694h368q77 -3 74 -49v-33l-442 -2v-94l-3 -192q0 -27 -13.5 -51t-41.5 -25h-31l2 360l-368 2q-27 0 -51 14t-25 42v30l444 -2v289q3 77 50 74h32zM174 121l899 -2q77 -3 74 -49v-33l-623 -4l-274 2q-27 0 -51 13.5t-25 41.5v31z" />
    <glyph glyph-name="acute" unicode="&#xb4;" horiz-adv-x="532" 
d="M444 1513q10 -10 26 -25q20 -20 25.5 -23.5t8.5 -0.5l-219 -217q-4 -2 -15 -2.5t-27.5 6t-27.5 17.5l-29 26l230 232q7 6 11 4t17 -17z" />
    <glyph glyph-name="paragraph" unicode="&#xb6;" horiz-adv-x="1112" 
d="M1122 1509v-1710q0 -40 -9.5 -64t-33.5 -34.5t-46 -13t-66 -2.5v1685h-242v-1558q0 -44 -13.5 -71.5t-39 -37.5t-41 -12t-41.5 -2h-8l-15 14v975q-104 1 -185.5 33.5t-126.5 77.5t-74 102t-38.5 99.5t-9.5 76.5q0 36 8.5 83.5t36.5 113t72 118t124.5 90t184.5 37.5h563z
" />
    <glyph glyph-name="periodcentered" unicode="&#xb7;" horiz-adv-x="309" 
d="M174 604v141q0 -4 35 -4h41h14.5t8.5 -1t5 -3t1 -6v-164h-41q-22 0 -43 14t-21 23z" />
    <glyph glyph-name="cedilla" unicode="&#xb8;" horiz-adv-x="1597" 
 />
    <glyph glyph-name="guillemotright" unicode="&#xbb;" horiz-adv-x="1245" 
d="M299 844q162 -77 320 -147q70 -32 82.5 -39.5t15.5 -20.5q4 -25 -12 -37l-377 -213q-42 -16 -74 -8t-47 29l366 221l-387 192h-12q15 23 49 31.5t76 -8.5zM791 844q159 -75 317 -146q72 -32 84.5 -40t15.5 -21q4 -25 -12 -37l-377 -213q-42 -16 -74 -8t-47 29l367 221
l-387 192h-12q15 23 49 31.5t76 -8.5z" />
    <glyph glyph-name="questiondown" unicode="&#xbf;" horiz-adv-x="952" 
d="M600 1196h41q22 0 43 -14t21 -23v-141q0 4 -35 4h-11.5h-13h-16.5h-14.5t-8.5 1t-5 3t-1 6v164zM606 862h25q58 0 63 -59v-60q0 -91 -25.5 -160.5t-66.5 -112t-90.5 -76.5t-99.5 -65t-91 -66.5t-66.5 -91.5t-25.5 -130q0 -72 28.5 -133t74 -99.5t104 -60t117 -21.5
t115 23.5t96.5 69.5q6 8 16 15t30 13t38 -8l33 -24q-118 -172 -328 -172h-21q-163 0 -275 117t-112 278q0 87 25.5 153t66 106.5t90 73.5t98.5 64t89.5 67t66 93.5t25.5 132.5v133z" />
    <glyph glyph-name="Egrave" unicode="&#xc8;" horiz-adv-x="1185" 
d="M760 1786l-27 -27q-17 -17 -42.5 -21.5t-28.5 3.5l-220 215q4 -4 8.5 -0.5t25.5 25.5q5 4 7.5 7t7.5 8l9 9q14 15 18.5 17t11.5 -5zM276 1513v-534h707q27 0 44 -15t17 -36v-51h-768v-756h879v-51q0 -9 -17.5 -22t-39.5 -13h-881q-10 0 -26.5 14t-16.5 21v1495
q0 5 16 18.5t27 13.5h881q22 0 39.5 -12t17.5 -20v-52h-879z" />
    <glyph glyph-name="Eacute" unicode="&#xc9;" horiz-adv-x="1185" 
d="M791 1954l-216 -215q-3 -7 -28.5 -2t-40.5 22l-29 27l232 231q7 6 10 4.5t16 -16.5q53 -53 56 -51zM793 1956l-2 -2zM276 1513v-534h707q27 0 44 -15t17 -36v-51h-768v-756h879v-51q0 -9 -17.5 -22t-39.5 -13h-881q-10 0 -26.5 14t-16.5 21v1495q0 5 16 18.5t27 13.5h881
q22 0 39.5 -12t17.5 -20v-52h-879z" />
    <glyph glyph-name="Ecircumflex" unicode="&#xca;" horiz-adv-x="1185" 
d="M379 1741h-47q-2 0 -2 3.5t1 13.5t1 20q0 4 4 6l268 201q12 9 20 11.5t29 2.5q33 0 49 -14l269 -201q4 -2 4 -6v-5q0 -13 -0.5 -18t-5.5 -9.5t-15 -4.5h-32q-22 0 -35 10q-262 200 -245 178q2 -3 11 -10q-11 1 -32.5 -10.5t-50 -33t-53.5 -41.5t-57 -46t-46 -37
q-10 -10 -35 -10zM662 1917q7 -7 4 -7q-3 1 -13 9q7 0 9 -2zM276 1513v-534h707q27 0 44 -15t17 -36v-51h-768v-756h879v-51q0 -9 -17.5 -22t-39.5 -13h-881q-11 0 -27 14t-16 21v1495q0 5 16 18.5t27 13.5h881q22 0 39.5 -12t17.5 -20v-52h-879z" />
    <glyph glyph-name="Edieresis" unicode="&#xcb;" horiz-adv-x="1185" 
d="M440 1788v182q0 -4 34 -4h42h14.5t8.5 -1t5 -3t1 -6v-205h-41q-22 0 -43 14t-21 23zM731 1788v182q0 -4 34 -4h42h14.5t8.5 -1t5 -3t1 -6v-205h-41q-22 0 -43 14t-21 23zM217 1597h881q22 0 39.5 -12t17.5 -20v-52h-879v-534h707q27 0 44 -15t17 -36v-51h-768v-756h879
v-51q0 -9 -17.5 -22t-39.5 -13h-881q-10 0 -26.5 14t-16.5 21v1495q0 5 16.5 18.5t26.5 13.5z" />
    <glyph glyph-name="Icircumflex" unicode="&#xce;" horiz-adv-x="849" 
d="M819 1716q2 -21 -1 -29t-19 -8h-33q-24 0 -35 11l-225 165l-10 9q-2 -1 -5.5 -4.5t-5.5 -4.5l-225 -165q-11 -11 -35 -11h-32q-16 0 -19.5 8.5t-1.5 28.5q0 4 4 6l268 201q16 14 50 14h2h2q33 0 49 -14l268 -201q4 -2 4 -6zM326 1554h284q16 0 19.5 -4.5t3.5 -15.5v-64
h-113l-4 -1351h74q31 0 35 -1t4 -9v-74h-332v86h115l10 1349h-125l2 70q0 3 0.5 5t1.5 3.5t3 2.5t3 2t4 1h4.5h5.5h5zM297 1470v-2v2z" />
    <glyph glyph-name="Idieresis" unicode="&#xcf;" horiz-adv-x="544" 
d="M279 1681h-41q-22 0 -43 14t-21 23v183q0 -4 8 -4.5t68 -0.5h14.5t8.5 -1t5 -3t1 -6v-205zM508 1681h-41q-22 0 -43 14t-21 23v183q0 -4 8 -4.5t68 -0.5h14.5t8.5 -1t5 -3t1 -6v-205zM401 1470l-4 -1351h74q31 0 35 -1t4 -9v-74h-332v94q6 2 39 2v-10h76l10 1349h-125
l2 70q0 5 8.5 9.5t18.5 4.5h280q27 0 27 -20v-64h-113zM178 1470v-2v2z" />
    <glyph glyph-name="Ocircumflex" unicode="&#xd4;" horiz-adv-x="1159" 
d="M369 1679h-33q-16 0 -19.5 8.5t-1.5 28.5q0 4 4 6l269 201q16 14 49 14h2h2q33 0 49 -14l268 -201q5 -2 5 -6q2 -20 -1.5 -28.5t-19.5 -8.5h-33q-24 0 -35 11l-225 165l-10 9q-2 -1 -5 -4.5t-5 -4.5l-226 -165q-11 -11 -34 -11zM1063 1413q65 -100 65 -223v-733
q0 -118 -63 -226.5t-172 -173.5q-111 -63 -234 -63h-16q-131 0 -238 64t-167 171q-64 110 -64 228v733q0 124 61 225.5t171 163.5q112 59 237 59h16q125 0 235.5 -61.5t168.5 -163.5zM1012 457v733q-1 95 -49 176t-127 129q-81 47 -177 47h-16q-90 0 -170.5 -47t-134.5 -129
q-45 -79 -45 -176v-733q0 -96 49 -180t129 -130q77 -49 172 -49h16q95 0 176 48t132 133q45 79 45 178z" />
    <glyph glyph-name="multiply" unicode="&#xd7;" horiz-adv-x="1196" 
d="M735 647l387 -393l-102 2q-14 0 -23 6l-327 297l-328 -297q-9 -6 -23 -6l-100 -2l385 393l-397 414h102l336 -332l25 -22l26 22l334 332h103z" />
    <glyph glyph-name="Ucircumflex" unicode="&#xdb;" horiz-adv-x="1165" 
d="M385 1679h-33q-16 0 -19 8t-1 29q0 4 4 6l268 201q16 14 49 14h2h2q34 0 50 -14l268 -201q4 -2 4 -6q2 -20 -1.5 -28.5t-19.5 -8.5h-32q-24 0 -35 11l-225 165l-11 9q-2 -1 -5 -4.5t-5 -4.5l-225 -165q-11 -11 -35 -11zM1014 1599h57q27 0 45.5 -15.5t18.5 -37.5v-1075
q0 -128 -64.5 -234.5t-175.5 -168.5t-233 -62h-17q-131 0 -239.5 62.5t-167.5 167.5q-64 110 -64 235v1075q0 22 16.5 37.5t42.5 15.5h62v-1128q0 -103 51.5 -182t130 -117.5t168.5 -38.5h17q70 0 126.5 15.5t92.5 39.5t62.5 58t39.5 64t20.5 65.5t9 55.5t1.5 40v1128z" />
    <glyph glyph-name="egrave" unicode="&#xe8;" horiz-adv-x="1081" 
d="M739 1253l-26 -26q-18 -17 -43.5 -22t-28.5 3l-219 215q6 -1 7 0l18 18q6 5 9 8.5t10 10.5l13 13q21 24 31 12zM281 430l-11 -10q-2 -18 5.5 -54t31.5 -86.5t61.5 -94.5t105.5 -75.5t153 -31.5q55 0 100.5 8t79.5 24t53 27.5t41.5 30t24.5 20.5q16 9 40 3t40 -21
q-49 -52 -95 -86q-42 -33 -114.5 -58.5t-155.5 -25.5h-14q-119 0 -224 59t-167 157.5t-62 199.5v221q0 112 62 215q59 99 164.5 157t226.5 58h12q190 -15 301 -132.5t111 -297.5v-201zM276 518h682v119q1 49 -9 94t-33.5 89t-59 78.5t-91 58.5t-124.5 32h-14q-91 0 -174 -49
q-82 -47 -129.5 -128.5t-47.5 -174.5v-119z" />
    <glyph glyph-name="eacute" unicode="&#xe9;" horiz-adv-x="1081" 
d="M750 1421l-215 -215q-3 -7 -29 -1.5t-41 22.5l-29 26l232 232q7 6 10 4.5t16 -16.5l25 -25q28 -29 31 -27zM752 1423l-2 -2zM281 430l-11 -10q-2 -18 5.5 -54t31.5 -86.5t61.5 -94.5t105.5 -75.5t153 -31.5q55 0 100.5 8t79.5 24t53 27.5t41.5 30t24.5 20.5q16 9 40 3
t40 -21q-49 -52 -95 -86q-42 -33 -114.5 -58.5t-155.5 -25.5h-14q-119 0 -224 59t-167 157.5t-62 199.5v221q0 112 62 215q59 99 164.5 157t226.5 58h12q190 -15 301 -132.5t111 -297.5v-201zM276 518h682v119q1 49 -9 94t-33.5 89t-59 78.5t-91 58.5t-124.5 32h-14
q-91 0 -174 -49q-82 -47 -129.5 -128.5t-47.5 -174.5v-119z" />
    <glyph glyph-name="ecircumflex" unicode="&#xea;" horiz-adv-x="1081" 
d="M379 1188h-47q-2 0 -2 3.5t1 13.5t1 20q0 2 4 6l268 201q12 9 20 11.5t29 2.5q33 0 49 -14l269 -201q4 -1 4 -6v-5q0 -13 -0.5 -18t-5.5 -9.5t-15 -4.5h-32q-22 0 -35 10q-260 200 -243 178q2 -3 11 -10q-12 1 -34 -10.5t-50.5 -33t-53.5 -41.5t-56.5 -46t-46.5 -37
q-13 -10 -35 -10zM664 1364q7 -7 4 -7q-3 1 -13 9q7 0 9 -2zM281 430l-11 -10q-2 -18 5.5 -54t31.5 -86.5t61.5 -94.5t105.5 -75.5t153 -31.5q55 0 100.5 8t79.5 24t53 27.5t41.5 30t24.5 20.5q16 9 40 3t40 -21q-49 -52 -95 -86q-42 -33 -114.5 -58.5t-155.5 -25.5h-14
q-119 0 -224 59t-167 157.5t-62 199.5v221q0 112 62 215q59 99 164.5 157t226.5 58h12q190 -15 301 -132.5t111 -297.5v-201zM276 518h682v119q1 49 -9 94t-33.5 89t-59 78.5t-91 58.5t-124.5 32h-14q-91 0 -174 -49q-82 -47 -129.5 -128.5t-47.5 -174.5v-119z" />
    <glyph glyph-name="edieresis" unicode="&#xeb;" horiz-adv-x="1081" 
d="M420 1227v182q0 -4 35 -4h41h14t8 -1t5 -3t1 -6v-205h-41q-22 0 -42.5 14t-20.5 23zM711 1227v182q0 -4 34 -4h11.5h13h16.5h14.5t8.5 -1t5 -3t1 -6v-205h-41q-22 0 -42.5 14t-20.5 23zM627 1067h12q190 -15 301 -132.5t111 -297.5v-201l-770 -6l-11 -10q-2 -18 5.5 -54
t31.5 -86.5t61.5 -94.5t105.5 -75.5t153 -31.5q55 0 100.5 8t79.5 24t53 27.5t41.5 30t24.5 20.5q16 9 40 3t40 -21q-49 -52 -95 -86q-42 -33 -114.5 -58.5t-155.5 -25.5h-14q-119 0 -224 59t-167 157.5t-62 199.5v221q0 112 62 215q59 99 164.5 157t226.5 58zM641 989h-14
q-91 0 -174 -49q-82 -47 -129.5 -128.5t-47.5 -174.5v-119h682v119q1 49 -9 94t-33.5 89t-59 78.5t-91 58.5t-124.5 32z" />
    <glyph glyph-name="icircumflex" unicode="&#xee;" horiz-adv-x="849" 
d="M819 1307v-7v-7v-5.5t-0.5 -5.5t-1.5 -4.5t-2.5 -3.5t-3.5 -2t-5 -1.5t-7 -0.5h-33q-25 0 -35 10q-257 196 -243 178q2 -3 12 -10q-18 2 -57.5 -24.5t-107 -81t-77.5 -62.5q-13 -10 -35 -10h-47q-2 0 -2 3.5t1 13.5t1 20q0 4 4 6l269 200q11 9 19.5 12t29.5 3t28.5 -2.5
t20.5 -12.5l268 -200q4 -2 4 -6zM506 1446l6 -6q-4 1 -12 8q4 0 6 -2zM416 86v946q0 9 20.5 23t42.5 14h39v-1038h-39q-27 0 -45 16.5t-18 38.5z" />
    <glyph glyph-name="idieresis" unicode="&#xef;" horiz-adv-x="518" 
d="M174 1329v182q0 -4 34 -4h12h13.5h16.5h14.5t8.5 -1t5 -3t1 -6v-205h-41q-22 0 -43 14t-21 23zM383 1329v182q0 -4 34 -4h42h14t8 -1t5 -3t1 -6v-205h-41q-22 0 -42.5 14t-20.5 23zM385 33h-39q-27 0 -45 16.5t-18 38.5v944q0 9 20.5 23t42.5 14h39v-1036z" />
    <glyph glyph-name="ocircumflex" unicode="&#xf4;" horiz-adv-x="1159" 
d="M379 1188h-47v37q0 4 4 6l268 201q12 9 20 11.5t29 2.5q30 0 49 -14l269 -201q4 -2 4 -6v-5q0 -13 -0.5 -18t-5.5 -9.5t-15 -4.5h-32q-22 0 -35 10q-261 199 -244 178q3 -3 12 -10q-17 2 -58 -26t-103 -78.5t-80 -63.5q-13 -10 -35 -10zM655 1366l9 -2q7 -7 4 -7
q-3 1 -13 9zM1065 854q63 -101 63 -223v-156q-2 -118 -65 -226t-172 -173q-109 -64 -232 -64h-16q-129 0 -237 64.5t-168 171.5q-64 110 -64 227v156q0 124 61 225.5t171 163.5q112 59 237 59h16q124 0 235 -61.5t171 -163.5zM1022 475v156q0 104 -52.5 189.5t-134.5 131
t-171 43.5h-21q-99 0 -184 -55t-131.5 -138.5t-46.5 -170.5v-156q0 -78 34.5 -149t88 -118.5t117 -75.5t122.5 -28h16q76 0 145 34t116 87t74.5 119.5t27.5 130.5z" />
    <glyph glyph-name="divide" unicode="&#xf7;" 
d="M612 850v141q0 -4 34 -4h42h14.5t8.5 -1t5 -3t1 -6v-164h-41q-22 0 -43 14t-21 23zM174 575l897 -2q79 -3 76 -49v-32l-623 -5l-274 2q-27 0 -51 14t-25 42v30zM612 127v141q0 -4 34 -4h42h14.5t8.5 -1t5 -3t1 -6v-164h-41q-22 0 -43 14t-21 23z" />
    <glyph glyph-name="ucircumflex" unicode="&#xfb;" horiz-adv-x="1110" 
d="M358 1188h-47q-2 0 -2 3.5t1 13.5t1 20q0 4 4 6l269 201q12 9 20 11.5t29 2.5q33 0 49 -14l268 -201q4 -2 4 -6q2 -21 -1 -29t-19 -8h-33q-25 0 -35 10q-263 201 -244 178q2 -3 11 -10q-11 1 -32.5 -10.5t-50.5 -33t-53.5 -41t-57 -46t-46.5 -37.5q-13 -10 -35 -10z
M641 1364q6 -6 5 -7t-13 9q6 0 8 -2zM1073 1063l6 -625q0 -82 -26 -168q-85 -220 -344 -260q-35 -6 -82 -6q-51 0 -86 6q-144 25 -217 92q-150 138 -150 336l6 625h47q24 0 40 -15t16 -34l-7 -576q-1 -164 94 -254t251 -90q78 0 149 22.5t115 63.5q92 92 92 258l-6 576
q0 20 15.5 34.5t39.5 14.5h47z" />
    <glyph glyph-name="circumflex" unicode="&#x2c6;" horiz-adv-x="849" 
d="M754 1245q2 -20 -1.5 -28.5t-19.5 -8.5h-33q-23 0 -34 11l-226 165l-10 9q-2 -1 -5 -4.5t-5 -4.5l-225 -165q-11 -11 -35 -11h-33q-16 0 -19.5 8.5t-1.5 28.5q0 3 5 6l268 201q16 14 49 14h2h2q33 0 49 -14l269 -201q4 -2 4 -6z" />
    <glyph glyph-name="caron" unicode="&#x2c7;" horiz-adv-x="849" 
d="M741 1462h33q16 0 19.5 -8.5t1.5 -28.5q0 -4 -4 -6l-269 -200q-11 -9 -19.5 -12t-29.5 -3h-2h-2q-21 0 -29.5 3t-19.5 12l-268 200q-5 3 -5 6q-2 20 1.5 28.5t19.5 8.5h33q25 0 35 -10l225 -166l10 -8q2 1 5 4t5 4l226 166q10 10 34 10z" />
    <glyph glyph-name="breve" unicode="&#x2d8;" horiz-adv-x="804" 
d="M680 1583h96q1 -37 -20 -75.5t-58.5 -72t-95.5 -55t-125 -22.5h-6q-60 1 -117 23.5t-95.5 56t-62 72.5t-22.5 73h94q9 -37 30.5 -64.5t44.5 -40.5t51.5 -21t44.5 -9.5t32 -1.5h6q15 0 31 1.5t46 9.5t53.5 21t44.5 40.5t28 64.5z" />
    <glyph glyph-name="dotaccent" unicode="&#x2d9;" horiz-adv-x="309" 
d="M174 1227v182q0 -4 35 -4h41h14.5t8.5 -1t5 -3t1 -6v-205h-41q-22 0 -43 14t-21 23z" />
    <glyph glyph-name="ring" unicode="&#x2da;" horiz-adv-x="567" 
d="M332 1468h47q63 0 110.5 -46t47.5 -103v-145q0 -57 -47.5 -103.5t-110.5 -46.5h-47q-61 0 -109.5 47t-48.5 103v145q0 56 48.5 102.5t109.5 46.5zM379 1391h-47q-21 0 -41.5 -22.5t-20.5 -49.5v-145q0 -27 20 -48.5t42 -21.5h47q24 0 43.5 21.5t19.5 48.5v145
q0 27 -20.5 49.5t-42.5 22.5z" />
    <glyph glyph-name="ogonek" unicode="&#x2db;" horiz-adv-x="1597" 
 />
    <glyph glyph-name="hungarumlaut" unicode="&#x2dd;" horiz-adv-x="665" 
d="M174 1217l64 182q2 6 54 6h34h16l-76 -215h-51q-13 0 -24 5t-15 11.5t-2 10.5zM465 1217l63 182q2 6 54 6h34h17l-76 -215h-51q-13 0 -24 5t-15 11.5t-2 10.5z" />
    <glyph glyph-name="endash" unicode="&#x2013;" horiz-adv-x="864" 
d="M174 573l584 -2q79 -3 76 -49v-33l-189 -2h-2q-10 -2 -33 -2l-360 2q-27 0 -51 14t-25 42v30z" />
    <glyph glyph-name="emdash" unicode="&#x2014;" horiz-adv-x="1546" 
d="M174 575l1266 -2q79 -3 76 -49v-32l-992 -5l-274 2q-27 0 -51 14t-25 42v30z" />
    <glyph glyph-name="quoteleft" unicode="&#x2018;" horiz-adv-x="319" 
d="M276 1464h-4q-24 0 -41.5 -3.5t-26 -8t-13 -13t-4.5 -13t0.5 -13.5t0.5 -10h25q43 0 58.5 -7.5t15.5 -35.5v-160h-88h-16t-9.5 1.5t-6 3.5t-1.5 7v203q0 40 24 54t86 14v-19z" />
    <glyph glyph-name="quoteright" unicode="&#x2019;" horiz-adv-x="319" 
d="M166 1483h86q21 0 28 -2t7 -11v-202q0 -40 -25 -54t-88 -14v19h6q21 0 36.5 2.5t24 7t14.5 9t7.5 12t2 11.5t0 11t-0.5 8h-26q-42 0 -57 7.5t-15 35.5v160z" />
    <glyph glyph-name="quotesinglbase" unicode="&#x201a;" horiz-adv-x="317" 
d="M182 174h76h14.5t8.5 -1t5 -3t1 -6v-176q0 -34 -21.5 -46t-75.5 -12v17h5q21 0 36 3.5t22.5 7t11 11t4 11t-0.5 12.5v8h-22q-37 0 -50.5 6t-13.5 31v137z" />
    <glyph glyph-name="quotedblleft" unicode="&#x201c;" horiz-adv-x="577" 
d="M291 1464h-6q-21 0 -36.5 -2.5t-24 -7t-14.5 -9t-7.5 -12t-2 -11.5t0 -11t0.5 -8h26q42 0 57 -7.5t15 -35.5v-160h-86h-17t-10 1.5t-6.5 3.5t-1.5 7v203q0 40 25 54t88 14v-19zM543 1464h-4q-24 0 -41.5 -3.5t-26 -8t-13 -13t-4.5 -13t0.5 -13.5t0.5 -10h24
q43 0 58.5 -7.5t15.5 -35.5v-160h-88h-16t-9.5 1.5t-6 3.5t-1.5 7v203q0 40 24.5 54t86.5 14v-19z" />
    <glyph glyph-name="quotedblright" unicode="&#x201d;" horiz-adv-x="577" 
d="M178 1483h88q20 0 26.5 -2t6.5 -11v-202q0 -40 -24.5 -54t-86.5 -14v19h5q24 0 41.5 3.5t25.5 8.5t12.5 13t5 12.5t-0.5 13.5t-1 10h-24q-43 0 -58.5 7.5t-15.5 35.5v160zM432 1483h86q21 0 28 -2t7 -11v-202q0 -40 -25 -54t-88 -14v19h6q21 0 36.5 2.5t24 7t14.5 9
t7.5 12t2 11.5t0 11t-0.5 8h-26q-42 0 -57 7.5t-15 35.5v160z" />
    <glyph glyph-name="quotedblbase" unicode="&#x201e;" horiz-adv-x="577" 
d="M174 205h76h14.5t8.5 -1t5 -3t1 -6v-177q0 -34 -21 -45.5t-76 -11.5v16h4q18 0 31.5 2t21.5 6.5t13 8.5t6.5 10t2 10t0 10t-0.5 7h-22q-37 0 -50.5 6t-13.5 31v137zM399 205h76h14.5t8.5 -1t5 -3t1 -6v-177q0 -34 -21 -45.5t-75 -11.5v16h4q21 0 36 3.5t22.5 7t11 11.5
t4 11.5t0.5 11.5l-1 9h-22q-37 0 -50.5 6t-13.5 31v137z" />
    <glyph glyph-name="dagger" unicode="&#x2020;" 
d="M702 1063h371q77 -3 74 -49v-33l-442 -2v-94l-3 -1012q0 -28 -13 -51.5t-42 -24.5h-29v1180l-368 2q-27 0 -51 13.5t-25 41.5v31l444 -2v289q3 76 50 73h32z" />
    <glyph glyph-name="daggerdbl" unicode="&#x2021;" 
d="M702 1063h371q77 -3 74 -49v-33l-442 -2v-94l-3 -643h371q77 -4 74 -49v-33l-445 -2v-285q0 -28 -13 -51.5t-42 -24.5h-31v359l-366 2q-27 0 -51 13.5t-25 41.5v31l442 -2l2 626v109l-368 2q-27 0 -51 13.5t-25 41.5v31l444 -2v289q3 76 50 73h32z" />
    <glyph glyph-name="bullet" unicode="&#x2022;" horiz-adv-x="679" 
d="M412 934q97 0 167 -69t70 -160t-70 -160.5t-167 -69.5q-95 0 -166.5 70t-71.5 160t71.5 159.5t166.5 69.5z" />
    <glyph glyph-name="ellipsis" unicode="&#x2026;" horiz-adv-x="899" 
d="M174 68v141q0 -4 35 -4h41h14.5t8.5 -1t5 -3t1 -6v-164h-41q-22 0 -43 14t-21 23zM461 68v141q0 -4 35 -4h41h14t8 -1t5 -3t1 -6v-164h-41q-22 0 -42.5 14t-20.5 23zM764 68v141q0 -4 35 -4h11.5h13h16.5h14t8 -1t5 -3t1 -6v-164h-41q-22 0 -42.5 14t-20.5 23z" />
    <glyph glyph-name="perthousand" unicode="&#x2030;" horiz-adv-x="1634" 
d="M496 1366h47q63 0 110 -46t47 -103v-269q0 -57 -47 -103t-110 -46h-47q-61 0 -109.5 46.5t-48.5 102.5v269q0 56 48.5 102.5t109.5 46.5zM952 860l-14 -20l-616 -770q-19 -21 -39 -30t-58 -9h-39l469 590q1 3 13 18l549 684q22 22 40 30.5t56 8.5h37zM543 1288h-47
q-21 0 -41.5 -22t-20.5 -49v-269q0 -27 20 -48t42 -21h47q24 0 43.5 21t19.5 48v269q0 27 -19.5 49t-43.5 22zM948 551h47q62 0 110 -46t48 -104v-266q0 -58 -48 -103.5t-110 -45.5h-47q-62 0 -109.5 45.5t-47.5 103.5v266q0 59 48 104.5t109 45.5zM1397 551h47
q62 0 110 -46t48 -104v-266q0 -58 -48 -103.5t-110 -45.5h-47q-62 0 -110 45.5t-48 103.5v266q0 58 48 104t110 46zM995 473h-47q-22 0 -41.5 -22t-19.5 -50v-266q0 -29 18.5 -50.5t42.5 -21.5h47q22 0 43 22.5t21 49.5v266q0 27 -21 49.5t-43 22.5zM1444 473h-47
q-23 0 -42.5 -22t-19.5 -50v-266q0 -29 19 -50.5t43 -21.5h47q22 0 42.5 22.5t20.5 49.5v266q0 27 -20.5 49.5t-42.5 22.5z" />
    <glyph glyph-name="guilsinglleft" unicode="&#x2039;" horiz-adv-x="835" 
d="M592 844q42 17 76 8.5t49 -31.5l-297 -192l264 -221q-15 -21 -47 -29t-74 8l-274 213q-7 5 -10.5 14.5t-2.5 15.5v7q3 13 13.5 21.5t56.5 35.5q120 70 246 150z" />
    <glyph glyph-name="guilsinglright" unicode="&#x203a;" horiz-adv-x="835" 
d="M401 844q126 -80 246 -150q49 -29 58 -36.5t12 -20.5q4 -25 -12 -37l-275 -213q-42 -16 -74 -8t-47 29l264 221l-297 192q15 23 49 31.5t76 -8.5z" />
    <glyph glyph-name="fraction" unicode="&#x2044;" horiz-adv-x="1505" 
d="M973 860h-2l-15 -20h2l-616 -770q-20 -21 -39 -30t-57 -9h-39l471 592l12 16h-2l619 770q20 21 39 30t57 9h39z" />
    <glyph glyph-name="Euro" unicode="&#x20ac;" horiz-adv-x="1284" 
d="M842 1464q169 0 264 -59q54 -35 94 -80l27 -33q8 -13 8 -26q0 -16 -12 -23l-49 -37q-92 180 -330 180q-89 0 -164.5 -41.5t-124.5 -125.5q-45 -79 -45 -201v-174h377q51 0 51 -45v-37h-428v-103h254q51 0 51 -45v-36h-305q-3 -348 164 -455q74 -57 170 -57q74 0 140 18.5
t109.5 47t71 57t39.5 53.5q49 -45 49 -52q0 -15 -20 -32q-78 -81 -182 -127.5t-207 -46.5q-118 0 -217.5 60.5t-157.5 162.5q-33 57 -46 134t-13 237h-177q-59 0 -59 36v45h236v103h-95q-34 0 -51.5 6.5t-17.5 30.5v45h164v174q0 127 51.5 228t152.5 161q94 57 228 57z" />
    <glyph glyph-name="trademark" unicode="&#x2122;" horiz-adv-x="2146" 
d="M1092 1503l12 -41l-12 -6v47zM1440 1501v-39h-13zM842 1466v-4h-142l-8 -4l2 8h148zM846 1466h147v-4h-147v4zM842 1462h4v-520q-4 0 -4 2v518zM1112 1462l152 -520h-4l-156 520h6h2zM1417 1462h10l-155 -514l-3 -6h-5zM1440 1462h4q4 -6 4 -26v-492q0 -2 -2 -2h-4z
M1087 944v492q0 10 5 20l-2 -514q-3 0 -3 2z" />
    <glyph glyph-name="partialdiff" unicode="&#x2202;" horiz-adv-x="1597" 
 />
    <glyph glyph-name="emptyset" unicode="&#x2205;" horiz-adv-x="1173" 
d="M788 1135l86 -31q8 -3 11.5 -6.5t3 -11t-2 -13t-6.5 -19t-8 -22.5q129 -48 200 -159.5t71 -241.5v-195q0 -208 -129 -332t-350 -124q-86 0 -123 8l-21 -66l-84 29q-4 1 -6.5 2.5t-4.5 4t-2.5 4t-0.5 5.5t0.5 7t2 8.5t3 10t4 12.5t4.5 15q-69 24 -121.5 70t-82 102.5
t-44 115.5t-14.5 120v195q0 80 21.5 148.5t58 117.5t85 87t103 60.5t112 34t111.5 11.5t101 -11zM471 127l266 846q-99 13 -178.5 -5.5t-127 -57t-80 -90.5t-44.5 -99t-12 -90v-195q0 -49 9.5 -95.5t29 -90t55 -76t82.5 -47.5zM580 121l-11 -29q106 -9 188.5 10t131 54.5
t80 85t42.5 95t11 91.5v201q0 99 -49 192t-127 121z" />
    <glyph glyph-name="product" unicode="&#x220f;" 
d="M174 1497l899 -2q74 -3 74 -49v-33h-115l-2 -356l-2 -1204q0 -77 -47 -74h-33l-4 1251v109l2 272l-422 -2l-147 2l-2 -354l-2 -1204q0 -77 -47 -74h-33l-4 1251v109l2 272h-41q-27 0 -51 13.5t-25 41.5v31z" />
    <glyph glyph-name="summation" unicode="&#x2211;" horiz-adv-x="1128" 
d="M322 1341h718q17 0 30 -16.5t13 -34.5v-43l-653 -2l453 -543q12 -18 12 -32q0 -13 -14 -33l-535 -545l694 2q20 0 39 -17.5t19 -33.5v-43l-869 -2q-29 0 -51 27q-1 2 -2 9.5t-2 10.5q0 14 16 33l580 598l-491 586q-13 20 -13 32q0 13 8 21v4q18 22 48 22z" />
    <glyph glyph-name="minus" unicode="&#x2212;" 
d="M174 575l897 -2q79 -3 76 -49v-32l-623 -5l-274 2q-27 0 -51 14t-25 42v30z" />
    <glyph glyph-name="radical" unicode="&#x221a;" horiz-adv-x="1511" 
d="M1475 1679l-39 -106q-366 -949 -627 -1636h-53q-30 0 -48.5 23.5t-27.5 51.5l-287 611l-182 -111l-25 39l-2 4v-2q-14 18 -10 40.5t27 35.5l194 119q8 4 23 4t32 -8t25 -19v2l275 -592l559 1438l28 80h4q14 48 35.5 56.5t55.5 -9.5z" />
    <glyph glyph-name="infinity" unicode="&#x221e;" horiz-adv-x="1480" 
d="M1098 1014h14q137 0 237.5 -98.5t100.5 -231.5v-160q0 -131 -100.5 -229t-237.5 -98h-14q-88 0 -164.5 43.5t-120.5 113.5q-45 -71 -121.5 -114t-165.5 -43h-16q-136 0 -236 98t-100 229v160q0 132 100 231t236 99h16q88 0 165.5 -44t121.5 -114q46 71 121.5 114.5
t163.5 43.5zM526 913h-16q-87 0 -154 -68.5t-67 -160.5v-160q0 -90 68 -159.5t153 -69.5h16q85 0 153.5 69.5t68.5 159.5v160q0 92 -67.5 160.5t-154.5 68.5zM1112 913h-14q-87 0 -154 -68.5t-67 -160.5v-160q0 -90 68 -159.5t153 -69.5h14q88 0 154.5 68.5t66.5 160.5v160
q0 92 -66.5 160.5t-154.5 68.5z" />
    <glyph glyph-name="integral" unicode="&#x222b;" horiz-adv-x="1597" 
 />
    <glyph glyph-name="approxequal" unicode="&#x2248;" horiz-adv-x="1054" 
d="M989 942q14 0 25 -23.5t7.5 -62t-28.5 -72.5q-46 -61 -207 -61q-41 2 -182 28.5t-207 26.5q-135 0 -135 -106v-25h-37q-34 0 -46.5 36.5t-2.5 76.5q5 16 13 29.5t15 23.5t19.5 18t19.5 13t23.5 8.5t22.5 5.5t24.5 3t22.5 1h24h21q61 0 215 -24.5t215 -24.5q60 0 90.5 26
t30.5 89v12q5 0 23.5 1t33.5 1zM989 594q14 0 25 -23.5t7.5 -62t-28.5 -72.5q-46 -61 -207 -61q-41 2 -182 28.5t-207 26.5q-135 0 -135 -106v-25h-37q-34 0 -46.5 36.5t-2.5 76.5q5 16 13 29.5t15 23.5t19.5 18t19.5 13t23.5 8.5t22.5 5.5t24.5 3t22.5 1h24h21
q61 0 215 -24.5t215 -24.5q60 0 90.5 26t30.5 89v12q5 0 23.5 1t33.5 1z" />
    <glyph glyph-name="notequal" unicode="&#x2260;" 
d="M762 778h311q77 -3 74 -49v-33l-416 -2l-94 -243l-21 -62h457q77 -3 74 -49v-33l-559 -4l-135 -375q-11 -29 -27.5 -45t-50.5 -16h-41l160 436l-244 2q-27 0 -51 13.5t-25 41.5v31l352 -2l92 250l21 53l-389 2q-27 0 -51 14t-25 42v30l496 -2l164 436q18 43 31 54
q15 12 38 12h49z" />
    <glyph glyph-name="lessequal" unicode="&#x2264;" horiz-adv-x="1077" 
d="M918 184q-519 289 -620 346.5t-105 69.5q-3 10 2 21q8 10 54 40q19 12 660 410q40 17 73 10t48 -28l-674 -437h11l-13 -2l-10 -6l686 -399h14q-17 -23 -50.5 -32t-75.5 7zM1047 113v-31q0 -28 -24.5 -41.5t-51.5 -13.5h-68l-6 -2h-307q-25 0 -35 2l-358 2v32q-3 47 73 50
z" />
    <glyph glyph-name="greaterequal" unicode="&#x2265;" horiz-adv-x="1077" 
d="M1042 621q5 -11 2 -21q-4 -12 -105 -69.5t-620 -346.5q-42 -16 -75.5 -7t-50.5 32h14l686 399l-10 6l-13 2h11l-674 437q15 21 48 28t73 -10q152 -94 364 -226q256 -159 299.5 -186.5t49.5 -36.5q1 0 1 -1zM174 113l776 -2q77 -3 74 -50v-32l-358 -2q-8 -2 -35 -2h-307
l-7 2h-67q-27 0 -51 13.5t-25 41.5v31z" />
    <glyph glyph-name="lozenge" unicode="&#x25ca;" horiz-adv-x="1597" 
 />
    <glyph glyph-name="notdef.001" horiz-adv-x="1228" 
 />
    </font>
</defs>
</svg>
